<svg width="70" height="62" viewBox="0 0 70 62" fill="none" xmlns="http://www.w3.org/2000/svg">
<g clip-path="url(#clip0_109_2039)">
<path d="M55.6787 19.1877C55.6787 19.2227 55.6787 19.2664 55.6698 19.2926C55.625 19.6337 55.625 19.9747 55.6518 20.3245C55.6698 20.412 55.6876 20.4994 55.7592 20.5694C55.8755 20.7006 56.0543 20.6743 56.1259 20.5169C56.1617 20.4382 56.1617 20.3595 56.1438 20.2808C56.0543 19.9485 56.0364 19.5987 56.0275 19.2577C56.0275 19.2402 56.0275 19.2139 56.0275 19.1877C56.1259 19.179 56.2153 19.1702 56.2958 19.1702C56.3585 19.1615 56.4121 19.1527 56.4568 19.1265C56.591 19.0565 56.591 18.9079 56.4478 18.8379C56.3942 18.8117 56.3227 18.8029 56.2601 18.8029C56.0364 18.8117 55.8129 18.8117 55.5892 18.8117C55.5088 18.8117 55.4283 18.8204 55.3477 18.8292C55.303 18.8379 55.2493 18.8379 55.2136 18.8641C55.151 18.8904 55.1152 18.9341 55.1152 18.9953C55.1242 19.0565 55.151 19.0915 55.2136 19.1177C55.2493 19.144 55.2941 19.1527 55.3388 19.1527C55.4461 19.1615 55.5624 19.179 55.6787 19.1877ZM58.1383 19.59C58.1383 19.5987 58.1472 19.6075 58.1472 19.6075C58.183 19.8436 58.2188 20.0709 58.2456 20.2983C58.2546 20.377 58.2635 20.447 58.3172 20.5082C58.4334 20.6568 58.6123 20.6394 58.6928 20.482C58.7286 20.4032 58.7375 20.3245 58.7197 20.2371C58.666 19.9747 58.6391 19.7124 58.5855 19.4588C58.5497 19.3014 58.505 19.1527 58.4603 19.0128C58.4334 18.9254 58.3708 18.8641 58.2635 18.8554C58.1562 18.8379 58.0757 18.8904 58.031 18.9691C57.9773 19.039 57.9326 19.109 57.8968 19.1877C57.8342 19.3276 57.7805 19.4675 57.709 19.5987C57.7 19.6337 57.6911 19.6599 57.6732 19.6862C57.6643 19.6687 57.6553 19.6599 57.6553 19.6599C57.539 19.4413 57.4317 19.2227 57.3155 19.0128C57.2975 18.9953 57.2886 18.9778 57.2797 18.9603C57.226 18.8816 57.1634 18.8379 57.065 18.8379C56.9756 18.8466 56.904 18.8991 56.8593 18.9778C56.8414 19.0128 56.8414 19.039 56.8325 19.074C56.7967 19.3539 56.7519 19.6337 56.7162 19.9135C56.6983 20.0709 56.6893 20.2283 56.6893 20.3858C56.6804 20.4207 56.6893 20.4645 56.7072 20.4994C56.7251 20.5694 56.7788 20.6131 56.8503 20.6219C56.9398 20.6306 57.0024 20.6044 57.0292 20.5344C57.056 20.482 57.065 20.4382 57.074 20.3945C57.1098 20.2371 57.1366 20.0884 57.1634 19.9398C57.1813 19.8523 57.1902 19.7824 57.2171 19.6862C57.2349 19.7211 57.2528 19.7474 57.2707 19.7736C57.3512 19.8786 57.4317 19.9835 57.5301 20.0709C57.6285 20.1409 57.709 20.1322 57.7895 20.0534C57.8074 20.036 57.8163 20.0272 57.8342 20.0097C57.9147 19.8873 58.0131 19.7649 58.0936 19.6424C58.1115 19.6249 58.1204 19.6075 58.1383 19.59Z" fill="#ABABAB"/>
<path d="M37.5289 19.3594C37.4667 19.5256 37.4549 19.6453 37.4836 19.7449C37.5153 19.8802 37.5976 19.9245 37.7093 19.8901C38.7598 19.6361 41.0635 20.357 41.9163 20.558C42.1175 20.6002 42.2811 20.3463 42.1439 20.1187C41.9436 19.8982 39.6409 18.9545 38.7623 18.903C38.4179 18.884 37.8023 18.7976 37.5289 19.3594Z" fill="#ABABAB"/>
<path d="M46.5315 16.3044C46.6435 16.3676 46.7061 16.4279 46.7369 16.4952C46.783 16.5836 46.7587 16.6447 46.6814 16.6759C45.9869 17.0072 45.0629 18.4339 44.6899 18.9259C44.5994 19.0391 44.3909 18.9733 44.3594 18.7872C44.3659 18.5767 45.185 17.0285 45.6421 16.6068C45.8218 16.4422 46.1186 16.1192 46.5315 16.3044Z" fill="#ABABAB"/>
<path d="M41.0013 15.6021C41.1359 15.503 41.2756 15.4683 41.347 15.5327C42.3948 16.4088 42.9504 17.7962 43.2944 19.0663C43.3074 19.0959 43.3082 19.1384 43.2978 19.1826C43.2935 19.2205 43.2652 19.2605 43.2203 19.2915C43.1723 19.3256 43.131 19.336 43.1116 19.3066C42.6524 18.6959 40.0296 16.3198 41.0013 15.6021Z" fill="#ABABAB"/>
<path d="M18.8143 30.7915C19.0654 30.6087 19.3384 30.4565 19.6273 30.3385C19.9296 30.254 20.2517 30.268 20.5451 30.3784C20.8384 30.4889 21.0871 30.6897 21.2533 30.9505C21.402 31.2107 21.4602 31.5111 21.4191 31.8065C21.3781 32.1018 21.24 32.3761 21.0257 32.588C20.8595 32.7599 20.6708 32.9095 20.4647 33.0332C19.546 33.6135 18.6192 34.162 17.6924 34.7422C17.5027 34.8875 17.3015 35.0178 17.0907 35.1318C16.7701 35.2881 16.4037 35.33 16.0548 35.2501C15.7059 35.1704 15.3965 34.9738 15.1802 34.6946C15.0184 34.4969 14.8819 34.2807 14.7737 34.0507C13.8956 32.2462 12.9851 30.4497 12.1395 28.6135C11.7493 27.8186 11.4322 26.9044 11.1233 26.0221C10.9896 25.7657 10.9635 25.4685 11.0505 25.1936C11.1375 24.9187 11.3308 24.6878 11.5892 24.5501C11.8476 24.4124 12.1508 24.3787 12.4343 24.4561C12.7177 24.5336 12.9591 24.7161 13.107 24.9648C13.5617 25.5557 13.9643 26.1833 14.3103 26.8409C15.1883 28.4307 16.0257 30.0205 16.8712 31.5626C16.9205 31.6478 16.9747 31.73 17.0338 31.809C17.6702 31.5474 18.2688 31.2053 18.8143 30.7915Z" fill="#ABABAB"/>
<path d="M27.8917 30.237C25.8836 32.5342 22.5177 31.9539 20.8267 28.9969C19.6234 26.8983 19.412 23.4325 22.0299 21.2465C22.589 20.7889 23.2574 20.4771 23.973 20.3403C24.8504 20.2173 25.745 20.3687 26.5291 20.7727C27.3132 21.1767 27.9466 21.8128 28.3389 22.5899C29.7697 25.1336 29.5665 28.3768 27.8917 30.237ZM27.0787 24.8793C26.8653 24.2542 26.4374 23.7205 25.8673 23.3689C25.5447 23.1441 25.1527 23.0348 24.7574 23.0594C24.362 23.084 23.9874 23.2411 23.6966 23.504C22.534 24.5136 22.2901 26.9063 23.1356 28.3292C23.2434 28.5612 23.4016 28.7674 23.5994 28.9333C23.7972 29.0993 24.0297 29.221 24.2806 29.2899C24.5315 29.3588 24.7948 29.3733 25.052 29.3323C25.3093 29.2912 25.5542 29.1958 25.7698 29.0525C26.4 28.5748 26.8623 27.917 27.0925 27.1705C27.3228 26.424 27.3094 25.6259 27.0543 24.8872L27.0787 24.8793Z" fill="#ABABAB"/>
<path d="M36.0867 25.8808C35.8811 25.924 35.6688 25.9266 35.4621 25.8883C35.2555 25.8501 35.0587 25.7719 34.8835 25.6582C34.7302 25.5725 34.5982 25.4546 34.497 25.313C34.3959 25.1713 34.3281 25.0096 34.2986 24.8393C34.269 24.669 34.2785 24.4945 34.3261 24.3282C34.3738 24.1619 34.4587 24.008 34.5746 23.8776C34.7764 23.6155 35.0629 23.4279 35.3876 23.345C36.2353 23.1045 37.1079 22.9578 37.9892 22.9078C38.1828 22.8858 38.379 22.9018 38.5661 22.955C38.7534 23.0081 38.9278 23.0972 39.0793 23.2172C39.2307 23.3372 39.3562 23.4855 39.4482 23.6535C39.5402 23.8215 39.597 24.0058 39.6152 24.1956C39.8692 25.1276 39.897 26.1049 39.6965 27.0493C38.9648 30.1018 36.4445 31.151 33.6152 30.1733C32.821 29.9119 32.1247 29.4248 31.6152 28.7743C30.9357 27.9909 30.4539 27.0624 30.2087 26.0636C30.01 25.1742 30.0318 24.2513 30.2722 23.3718C30.5126 22.4923 30.9648 21.6818 31.5908 21.008C32.1849 20.2756 32.9561 19.6992 33.8347 19.3307C34.3899 19.0315 35.0396 18.9464 35.6559 19.0922C35.7956 19.1301 35.9225 19.2038 36.0234 19.3057C36.1242 19.4077 36.1953 19.5341 36.2293 19.672C36.2634 19.8099 36.259 19.9541 36.2168 20.0898C36.1745 20.2255 36.096 20.3476 35.9892 20.4436C35.7862 20.6233 35.5656 20.783 35.3306 20.9205C34.6078 21.3706 33.9789 21.9505 33.477 22.6296C33.148 23.069 32.9214 23.5736 32.8133 24.1078C32.7051 24.642 32.718 25.193 32.851 25.7218C33.0354 26.4429 33.4445 27.0902 34.0217 27.5739C35.8103 29.1638 38.1355 27.6296 37.729 25.4595C37.1355 25.6026 36.6152 25.7536 36.0867 25.8808Z" fill="#ABABAB"/>
<path d="M47.0148 30.3641C44.3725 31.954 41.3644 30.3641 40.7058 27.0255C40.2262 24.6408 41.1368 21.3021 44.3238 20.0303C45.0018 19.7655 45.7373 19.6725 46.462 19.76C47.3326 19.9158 48.1313 20.3349 48.7453 20.9581C49.3593 21.5814 49.7579 22.3773 49.8847 23.2338C50.4213 26.0716 49.2018 29.1002 47.0148 30.3641ZM47.9335 25.0144C47.9327 24.354 47.6938 23.715 47.2587 23.2099C47.0262 22.8975 46.69 22.6737 46.3075 22.5765C45.9249 22.4794 45.5198 22.515 45.1611 22.6774C43.7303 23.2815 42.7221 25.4754 43.088 27.0891C43.1159 27.3424 43.2001 27.5866 43.3346 27.8047C43.4691 28.0228 43.6508 28.2096 43.8668 28.3519C44.0828 28.4942 44.3281 28.5887 44.5853 28.6287C44.8426 28.6687 45.1058 28.6533 45.3563 28.5835C46.1126 28.3252 46.7675 27.8424 47.2295 27.2025C47.6916 26.5626 47.9377 25.7976 47.9335 25.0144Z" fill="#ABABAB"/>
<path d="M52.5566 31.0318C52.5168 31.3228 52.3603 31.5863 52.1217 31.7645C51.8831 31.9425 51.5818 32.0208 51.2843 31.9817C50.9868 31.9427 50.7172 31.7898 50.535 31.5564C50.3528 31.3232 50.2729 31.0286 50.3128 30.7377C50.3527 30.4468 50.5091 30.1833 50.7477 30.0051C50.9863 29.8269 51.2876 29.7488 51.5851 29.7878C51.8827 29.8268 52.1522 29.9797 52.3344 30.213C52.5166 30.4464 52.5966 30.7409 52.5566 31.0318ZM51.8493 20.3085C52.004 20.0776 52.2308 19.9017 52.496 19.8072C52.7612 19.7126 53.0505 19.7044 53.3209 19.7838C53.5957 19.8511 53.8385 20.0086 54.0088 20.23C54.179 20.4514 54.2662 20.7232 54.2559 21C54.22 21.444 54.1521 21.885 54.0526 22.3196C53.7843 23.7902 53.5241 25.2607 53.2396 26.7155C53.1095 27.2958 52.9388 27.8522 52.7518 28.4404C52.6867 28.6243 52.578 28.7904 52.4347 28.9253C52.3456 29.0268 52.2318 29.1045 52.1038 29.1515C51.9757 29.1986 51.8377 29.2132 51.7023 29.1942C51.567 29.1752 51.4387 29.1231 51.3294 29.0428C51.2201 28.9624 51.1333 28.8564 51.077 28.7345C50.9803 28.5159 50.9278 28.281 50.9225 28.043C50.9225 27.0573 50.9225 26.0636 50.9876 25.07C51.0981 23.6519 51.3155 22.2437 51.638 20.8569C51.6759 20.6711 51.7475 20.4935 51.8493 20.3323V20.3085Z" fill="#ABABAB"/>
<path fill-rule="evenodd" clip-rule="evenodd" d="M15.3793 37.4196C15.2833 37.6291 15.257 37.8627 15.3039 38.0875C15.3351 38.3838 15.4037 38.6753 15.508 38.9553C15.6382 39.2981 15.784 39.6371 15.9637 40.0549C16.005 40.151 16.0482 40.2514 16.0934 40.357C16.3357 40.9231 16.6397 41.6465 17.0453 42.6934C17.1601 42.9908 17.2621 43.2907 17.3647 43.5926C17.4062 43.7146 17.4478 43.837 17.4904 43.9596C17.6431 44.3957 17.9059 44.7875 18.2541 45.098C18.402 45.2686 18.5982 45.393 18.8181 45.4552C19.0424 45.5186 19.2809 45.5146 19.5027 45.4437C19.7246 45.3727 19.9195 45.2381 20.062 45.0573C20.2018 44.8801 20.2849 44.6666 20.3011 44.4435C20.3918 44.0089 20.3608 43.5583 20.2114 43.1393C19.9741 42.4437 19.7039 41.747 19.3924 41.0656L19.3909 41.0626C18.8783 39.9965 18.3573 38.9377 17.8116 37.8786L17.8075 37.8712C17.6477 37.5952 17.4401 37.3486 17.194 37.1422C17.0342 36.9581 16.8138 36.8339 16.5704 36.791C16.3218 36.7473 16.0654 36.7914 15.847 36.9154C15.6404 37.0308 15.4766 37.2073 15.3793 37.4196Z" fill="#ABABAB"/>
<path fill-rule="evenodd" clip-rule="evenodd" d="M23.2086 34.7945C22.4049 34.5909 21.5655 34.5613 20.749 34.7076C20.1165 34.7685 19.4945 34.9111 19.0626 35.1937C18.8429 35.3375 18.6653 35.5221 18.5665 35.7568C18.4671 35.9928 18.4545 36.2626 18.5359 36.5633C18.6845 37.1141 18.8775 37.6496 19.0699 38.1834L19.101 38.2698L19.1018 38.2717C19.6809 39.8225 20.2656 41.3679 20.8555 42.9081C20.9243 43.1508 21.0216 43.385 21.1455 43.6058L21.1478 43.6099C21.3113 43.8843 21.5211 44.1297 21.7683 44.3358C21.8919 44.4491 22.0448 44.5275 22.2105 44.5625C22.3779 44.5979 22.552 44.5876 22.7138 44.5328C22.8756 44.4781 23.019 44.3809 23.1282 44.2519C23.2356 44.125 23.306 43.9722 23.3318 43.8095C23.4385 43.3675 23.4043 42.9042 23.2339 42.4818C23.1807 42.3396 23.139 42.1943 23.095 42.0414C23.0803 41.9904 23.0655 41.9385 23.0498 41.8857C24.4003 41.3695 25.8372 40.6755 26.3425 39.0609C26.5403 38.503 26.5568 37.8989 26.3897 37.3313C26.2223 36.7632 25.879 36.2596 25.4071 35.8899C24.7648 35.3724 24.0144 34.9985 23.2086 34.7945ZM20.9808 36.7748C21.0074 36.7673 21.0342 36.7604 21.061 36.7539C21.9403 36.6187 22.8398 36.7988 23.594 37.2608C23.9264 37.4868 24.0625 37.7379 24.0859 37.9796C24.1101 38.2284 24.0175 38.498 23.8317 38.7571C23.4805 39.2467 22.8396 39.6385 22.2606 39.7115C21.8386 38.7612 21.41 37.7724 20.9808 36.7748Z" fill="#ABABAB"/>
<path d="M28.5663 33.055C29.5235 32.6228 30.7091 32.5481 31.6368 32.852C31.8705 32.9186 32.0732 33.0625 32.2103 33.2592C32.3466 33.4547 32.4094 33.6902 32.3884 33.9257C32.3871 34.0786 32.3487 34.229 32.2765 34.3647C32.203 34.5028 32.0965 34.6216 31.9662 34.7111C31.8358 34.8004 31.6853 34.8579 31.5275 34.8784C31.3696 34.899 31.209 34.8821 31.0592 34.8291L31.0478 34.8251L31.0371 34.8196C30.9605 34.7804 30.8791 34.7509 30.7949 34.7316L30.7896 34.7305C30.1369 34.561 29.5213 34.8418 29.2964 35.1869C29.1892 35.3514 29.1759 35.5175 29.2652 35.6686C29.3609 35.8304 29.5955 36.012 30.0702 36.1414C30.2008 36.1764 30.3346 36.2102 30.4704 36.2446C30.8458 36.3396 31.2359 36.4384 31.6132 36.5752L31.6146 36.5758C33.355 37.2232 34.0031 38.5641 33.7812 39.8254C33.5618 41.0726 32.4964 42.2077 30.8943 42.4755C30.3114 42.6018 29.7047 42.5772 29.1344 42.4041C28.5626 42.2304 28.0472 41.9136 27.6394 41.4848L27.6288 41.4737C27.5001 41.3121 27.4135 41.1224 27.3751 40.9211C27.3398 40.7393 27.3584 40.5516 27.4286 40.3798C27.4984 40.2091 27.6165 40.0613 27.7689 39.9537C27.9299 39.8316 28.1239 39.7584 28.327 39.7431C28.5295 39.7279 28.732 39.771 28.9098 39.8668C29.0873 39.9507 29.2525 40.0577 29.4007 40.1849L29.4035 40.1872C29.6657 40.4217 29.983 40.4828 30.2872 40.4262C30.5958 40.3688 30.8861 40.1902 31.0728 39.9533C31.2582 39.7178 31.3327 39.4382 31.2443 39.1667C31.1554 38.8932 30.8881 38.5868 30.3007 38.3306C30.1471 38.2669 29.9879 38.2155 29.8223 38.1654C29.7777 38.1519 29.7323 38.1385 29.6863 38.1249C29.5638 38.0885 29.4378 38.0511 29.3143 38.0098C29.2292 37.9815 29.1448 37.9546 29.0612 37.9279C28.8327 37.8552 28.61 37.7843 28.3956 37.6892C27.9291 37.5339 27.526 37.2356 27.2463 36.8386C26.9656 36.44 26.8243 35.9633 26.8435 35.4798C26.845 34.3014 27.6041 33.4896 28.5663 33.055Z" fill="#ABABAB"/>
<path d="M40.7011 32.9294C40.5155 32.8408 40.3102 32.7987 40.1039 32.807C39.8975 32.8153 39.6965 32.8737 39.5191 32.977C39.3427 33.0795 39.195 33.2231 39.0892 33.395C38.9921 33.5397 38.925 33.7016 38.8915 33.8716C38.858 34.0414 38.8589 34.216 38.8938 34.3854C38.9284 34.6032 38.9667 34.8149 39.0046 35.0238C39.0672 35.3694 39.1282 35.7072 39.1684 36.0517L39.1699 36.0604C39.2615 36.6006 39.3094 37.147 39.3137 37.6945L39.3141 37.7022C39.3454 38.2935 39.1394 38.8733 38.7401 39.3185L38.7338 39.3264C38.6039 39.4891 38.4303 39.6134 38.2322 39.6852C38.0342 39.757 37.8197 39.7735 37.6126 39.7328C37.4056 39.6922 37.2142 39.5961 37.0598 39.4551C36.9054 39.3142 36.7941 39.1335 36.7385 38.9343C36.6199 38.5146 36.5512 38.0828 36.5338 37.6476L36.7364 34.4933C36.7394 34.4521 36.7428 34.4099 36.7463 34.3672C36.754 34.2714 36.7619 34.1738 36.7652 34.0828C36.77 33.9489 36.7659 33.8112 36.734 33.6808C36.7013 33.5476 36.6392 33.4208 36.529 33.3129C36.4199 33.2061 36.2726 33.1272 36.0873 33.0736C35.7522 32.9787 35.4689 32.9817 35.2327 33.0797C34.9965 33.1777 34.8346 33.3596 34.7201 33.5697C34.6064 33.7781 34.5334 34.0248 34.4782 34.2719C34.4372 34.4552 34.4043 34.6477 34.373 34.8309C34.3621 34.894 34.3516 34.956 34.3409 35.0162L34.3406 35.018C34.1731 36.0227 34.1233 37.0428 34.192 38.0586C34.2048 38.6076 34.3219 39.1494 34.5374 39.6565C34.7804 40.3107 35.2207 40.8776 35.8 41.2823C36.3806 41.6877 37.0734 41.9112 37.7867 41.923C38.5 41.9348 39.2002 41.7344 39.7944 41.3484C40.3878 40.963 40.8476 40.4106 41.1131 39.7643C41.4845 38.941 41.6589 38.0456 41.6229 37.1464C41.6011 36.49 41.5645 35.8285 41.5282 35.1703C41.5103 34.8475 41.4925 34.5253 41.4766 34.2051C41.4685 33.8841 41.3602 33.5731 41.1662 33.3139C41.0461 33.1501 40.8863 33.0179 40.7011 32.9294Z" fill="#ABABAB"/>
<path d="M47.2699 37.8754C47.251 37.8988 47.2312 37.923 47.2105 37.9481C47.0595 37.0967 46.9196 36.2455 46.7795 35.393C46.7292 35.0872 46.6787 34.78 46.6279 34.4737L46.6222 34.4396L46.6037 34.41C46.5687 34.3545 46.5652 34.3 46.5652 34.1838V34.1704L46.5631 34.1571C46.5252 33.9172 46.4142 33.6939 46.2446 33.5164C46.0755 33.3395 45.8559 33.2164 45.6143 33.1629C45.3732 33.1048 45.1197 33.1176 44.886 33.1998C44.6528 33.2818 44.4495 33.4292 44.3016 33.6236C44.1786 33.7727 44.0777 33.9381 44.0022 34.1148C43.8307 34.4955 43.6577 34.8772 43.4843 35.2599L43.4813 35.2665C43.0482 36.222 42.6123 37.1838 42.189 38.1532L42.1877 38.1564C41.9279 38.7849 41.7134 39.4472 41.4996 40.1075C41.457 40.2393 41.4143 40.371 41.3712 40.5024C41.2941 40.7108 41.2603 40.9321 41.2719 41.1534C41.2579 41.3514 41.3063 41.549 41.4109 41.7194C41.5176 41.8933 41.6773 42.03 41.8676 42.1106C42.0693 42.197 42.2948 42.2154 42.5084 42.1627C42.7215 42.1102 42.9108 41.9899 43.0464 41.8208C43.2196 41.6125 43.3686 41.3853 43.4901 41.1446C43.8486 40.4275 44.1913 39.7016 44.5324 38.9789C44.6644 38.6994 44.7927 38.449 44.9386 38.1763C44.9486 38.2099 44.9588 38.2427 44.9694 38.2756C45.1223 38.9339 45.3805 39.5644 45.7343 40.1441C45.8012 40.2669 45.8945 40.3742 46.0077 40.4587C46.1222 40.5442 46.2544 40.6042 46.3951 40.6347C46.5357 40.6652 46.6815 40.6653 46.8222 40.6351C46.9628 40.605 47.0954 40.5449 47.21 40.4598L47.4368 40.2938L49.1975 38.8438L49.0934 39.4925C48.9505 40.3843 48.8087 41.2686 48.658 42.1531C48.5594 42.5452 48.5595 42.9547 48.6584 43.3466C48.7012 43.5671 48.8103 43.7702 48.9717 43.9299C49.1346 44.0908 49.3431 44.2002 49.5702 44.2438C49.7974 44.2874 50.0328 44.2633 50.2457 44.1744C50.4556 44.0869 50.6341 43.9406 50.7589 43.7542C51.0492 43.402 51.2299 42.9757 51.2795 42.5259C51.3542 41.8907 51.4386 41.2468 51.5231 40.6032C51.6204 39.8613 51.7177 39.1196 51.7999 38.3922L51.8001 38.3899C51.8792 37.5937 51.9175 36.7941 51.9148 35.994C51.9321 35.7412 51.8678 35.4894 51.7306 35.2741C51.5929 35.0581 51.3891 34.8902 51.1481 34.7941C50.8975 34.6827 50.6169 34.6529 50.3477 34.7092C50.0802 34.7651 49.8381 34.903 49.6564 35.1027C49.3317 35.3964 49.027 35.7106 48.7444 36.0434L48.7425 36.0457C48.434 36.4215 48.1276 36.8048 47.8232 37.1856C47.638 37.4171 47.4535 37.648 47.2699 37.8754Z" fill="#ABABAB"/>
</g>
<path d="M69 7.625V0H1V7.625M69 53.375V61H1V53.375" stroke="#ABABAB" stroke-opacity="0.5"/>
<defs>
<clipPath id="clip0_109_2039">
<rect width="47.7273" height="30" fill="white" transform="translate(11 15.5)"/>
</clipPath>
</defs>
</svg>
