<svg width="73" height="80" viewBox="0 0 73 80" fill="none" xmlns="http://www.w3.org/2000/svg">
<g clip-path="url(#clip0_369_28377)">
<g opacity="0.9">
<path d="M65.6973 23.7885C65.9922 24.1908 66.2615 24.6112 66.5035 25.0474C70.3979 20.9979 71.4191 16.4978 69.3768 12.3801C68.8993 11.5697 68.2088 10.5196 67.6817 9.7424C70.4827 13.517 69.8047 19.3318 65.6973 23.7885Z" fill="url(#paint0_linear_369_28377)"/>
<path d="M67.3867 26.9988C67.5669 27.4982 67.7208 28.0067 67.8477 28.5223C71.3473 25.8019 72.7613 22.1907 71.9819 19.0403L71.9695 18.9887C71.7442 18.1411 71.3846 17.029 71.1158 16.1939C72.3726 19.6129 71.091 23.8113 67.3867 26.9988Z" fill="url(#paint1_linear_369_28377)"/>
<path d="M68.2617 30.8023C68.3258 31.3666 68.3671 31.9454 68.3878 32.5346C71.4513 30.732 72.981 28.2184 72.8921 25.742L72.8425 24.6919L72.6854 22.9307C73.0161 25.6944 71.505 28.638 68.2617 30.8023Z" fill="url(#paint2_linear_369_28377)"/>
<path d="M68.3278 35.0709C68.2837 35.6925 68.2148 36.3229 68.1211 36.9624C70.7877 35.8854 72.2698 34.211 72.5158 32.3692L72.7453 30.3351L72.8011 29.6241C72.6667 31.7181 71.1556 33.7128 68.3278 35.0709Z" fill="url(#paint3_linear_369_28377)"/>
<path d="M67.6395 39.6848C67.4906 40.3442 67.3211 41.0119 67.1289 41.6816C69.4358 41.1979 70.7836 40.185 71.1453 38.8972C71.3727 38.0931 71.627 37.0078 71.8337 36.1975C71.4885 37.7024 70.0787 38.9695 67.6395 39.6848Z" fill="url(#paint4_linear_369_28377)"/>
<path d="M66.1933 44.5239C65.9424 45.2061 65.6716 45.8903 65.3809 46.5766C67.3591 46.5993 68.5188 46.126 68.8599 45.3115C69.2009 44.4971 69.5957 43.4511 69.9099 42.6552C69.5523 43.6495 68.3079 44.3358 66.1933 44.5239Z" fill="url(#paint5_linear_369_28377)"/>
<path d="M64.051 49.4395C63.7037 50.1286 63.3365 50.8135 62.9492 51.4943C64.6029 51.9697 65.5476 51.9594 65.775 51.5522L67.1641 48.9641C66.8788 49.5346 65.8453 49.731 64.051 49.4395Z" fill="url(#paint6_linear_369_28377)"/>
<path d="M59.8379 56.3376C61.1877 57.243 61.8575 57.6461 61.905 57.5944L62.2068 57.181L63.6207 55.1138C63.4967 55.3102 62.7112 55.0745 61.227 54.3448C60.7791 55.0105 60.3161 55.6747 59.8379 56.3376Z" fill="url(#paint7_linear_369_28377)"/>
<path d="M56.0879 60.9617C57.1091 62.3012 57.4625 63.095 57.2248 63.3513L58.339 62.0945L59.2754 60.9866C59.3292 60.7798 58.9405 60.2858 57.7333 59.0641C57.4853 59.3618 57.2345 59.6588 56.9809 59.955C56.6818 60.2982 56.3842 60.6338 56.0879 60.9617Z" fill="url(#paint8_linear_369_28377)"/>
<path d="M52.0571 68.4365L54.0415 66.6215L54.2482 66.4148C54.6741 66.0014 54.5314 64.9947 53.7108 63.403C53.1389 63.9542 52.5614 64.4855 51.9785 64.9968C52.6607 66.7724 52.64 67.9321 52.0571 68.4365Z" fill="url(#paint9_linear_369_28377)"/>
<path d="M47.7458 68.2773C48.0331 70.5119 47.5639 72.0126 46.5469 72.6927C47.2642 72.2069 48.1882 71.5186 48.8889 71.0142C49.7158 70.3941 49.9804 69.038 49.5256 67.0019C48.9344 67.4511 48.3411 67.8763 47.7458 68.2773Z" fill="url(#paint10_linear_369_28377)"/>
<path d="M43.4698 70.7765C43.3085 73.5092 42.275 75.3242 40.7246 76.089C41.475 75.7169 42.4507 75.1753 43.1907 74.7826C44.5054 74.0425 45.2868 72.3516 45.2578 69.8318C44.6584 70.168 44.0623 70.4829 43.4698 70.7765Z" fill="url(#paint11_linear_369_28377)"/>
<path d="M39.2725 72.4509C38.5614 75.7459 36.7919 77.8585 34.5801 78.5324C35.3656 78.2905 36.395 77.9122 37.1702 77.6414C40.1386 76.4425 40.7484 73.226 41.0088 71.8535C40.4259 72.0767 39.8471 72.2772 39.2725 72.4509Z" fill="url(#paint12_linear_369_28377)"/>
<path d="M36.9051 73.0503C36.349 73.1557 35.7992 73.2343 35.2514 73.2901C33.8333 77.2404 31.0655 79.5804 28.0371 79.8739L28.9611 79.7685L30.8029 79.4584C33.484 78.9727 35.8054 76.7133 36.9051 73.0503Z" fill="url(#paint13_linear_369_28377)"/>
<path d="M33.0502 73.3563C32.5445 73.3381 32.0401 73.2933 31.5391 73.2219C29.2074 77.9039 25.0649 80.3142 21.1621 79.7334C21.7698 79.8202 22.5864 79.8843 23.1982 79.9401L24.0768 79.9855C27.6157 80.1302 31.1298 77.722 33.0502 73.3563Z" fill="url(#paint14_linear_369_28377)"/>
<path d="M29.5486 72.7692C29.0951 72.6236 28.6511 72.4496 28.2194 72.2483C24.4448 77.7076 19.2109 79.7313 14.2188 77.6641C15.0766 78.0404 16.2425 78.491 17.1127 78.8031C19.3287 79.4315 24.9534 80.0992 29.5486 72.7692Z" fill="url(#paint15_linear_369_28377)"/>
<path d="M26.5138 71.2457L26.3794 71.1465C26.0403 70.891 25.7172 70.6148 25.412 70.3196C21.1206 75.5226 13.4226 78.0817 7.95508 73.3604C8.58555 73.9392 9.46614 74.6627 10.1297 75.2022L10.4315 75.4254C15.1156 78.8238 22.2844 76.9779 26.5138 71.2457Z" fill="url(#paint16_linear_369_28377)"/>
<path d="M24.0649 68.7693C23.7744 68.3623 23.5093 67.9377 23.2711 67.498C18.2563 72.3992 10.3991 73.532 5.71706 70.0282C4.75028 69.3134 3.95102 68.3963 3.375 67.3409C3.84217 68.1678 4.52019 69.2137 5.0287 69.9992C5.53476 70.6971 6.14393 71.3139 6.83537 71.8286C11.5236 75.3366 19.234 73.964 24.0649 68.7693Z" fill="url(#paint17_linear_369_28377)"/>
<path d="M22.4056 65.5322C22.2305 65.0296 22.0815 64.5184 21.9591 64.0004C16.6404 68.0913 8.53519 68.5688 3.85521 65.065C2.24078 63.8578 1.24443 62.3343 0.849609 60.6868L0.924023 60.9948C1.13074 61.7617 1.44907 62.7684 1.68266 63.5271C2.22809 65.0186 3.20534 66.3139 4.48982 67.2479C9.1698 70.7434 17.2006 69.9786 22.4056 65.5322Z" fill="url(#paint18_linear_369_28377)"/>
<path d="M3.30534 61.8134C7.98532 65.3151 16.1629 65.2696 21.5726 61.708C21.5106 61.1416 21.4733 60.5607 21.4589 59.9695C16.0244 63.1281 7.81581 62.847 3.14617 59.3494C1.09144 57.8114 0.0454769 55.9076 0 53.9893L0.0578731 55.2937L0.183965 56.7903C0.390678 58.6321 1.42012 60.4016 3.30534 61.8134Z" fill="url(#paint19_linear_369_28377)"/>
<path d="M21.7513 55.5272C16.3768 57.6564 8.23645 56.5422 3.56061 53.0467C1.19168 51.2731 0.164314 49.2287 0.422705 47.3662L0.15605 49.6545L0.118831 50.1052C-0.0258684 52.0317 1.00356 54.0492 3.26087 55.7381C7.94085 59.2522 16.1267 60.0005 21.5446 57.4311C21.5846 56.804 21.6535 56.1694 21.7513 55.5272Z" fill="url(#paint20_linear_369_28377)"/>
<path d="M5.00566 46.3285C2.41761 44.3916 1.37165 42.401 1.82022 40.8341C1.58663 41.6382 1.32617 42.7235 1.11532 43.5338C0.1293 49.3486 13.1626 55.0663 22.2538 52.7925C22.4068 52.131 22.5804 51.464 22.7747 50.7915C17.6462 51.8333 9.69391 49.8303 5.00566 46.3285Z" fill="url(#paint21_linear_369_28377)"/>
<path d="M7.51738 39.3871C4.78463 37.3427 3.65805 35.5505 4.13349 34.426C3.79448 35.2136 3.38932 36.2864 3.06891 37.0802C2.5852 38.399 3.66838 40.2884 6.34945 42.2956C11.0294 45.7973 18.806 48.3316 23.7133 47.9554C23.9655 47.2663 24.2411 46.5821 24.5402 45.9027C19.8189 45.8097 12.1994 42.8909 7.51738 39.3871Z" fill="url(#paint22_linear_369_28377)"/>
<path d="M25.8835 43.0376C26.2349 42.3486 26.6056 41.6644 26.9956 40.985C22.8448 39.7447 15.6863 35.8998 11.0063 32.3981C8.18678 30.2876 6.90929 28.7807 7.24623 28.1895L5.84471 30.7754C5.43129 31.5919 6.64056 33.225 9.42912 35.3107C14.1174 38.8145 21.4846 42.2728 25.8835 43.0376Z" fill="url(#paint23_linear_369_28377)"/>
<path d="M28.7505 38.1468C29.1956 37.4757 29.6593 36.8094 30.1417 36.1479C26.7185 33.7872 20.1492 29.0349 15.465 25.5332C12.6124 23.3978 11.1241 22.2258 11.1613 22.1576L10.6962 22.819L9.4373 24.6547C9.25746 24.9358 10.6528 26.2525 13.4951 28.3755C18.1771 31.8751 25.0069 36.2554 28.7505 38.1468Z" fill="url(#paint24_linear_369_28377)"/>
<path d="M32.2685 33.4193C32.467 33.1823 32.6675 32.9452 32.8701 32.7082C33.216 32.3099 33.5605 31.9192 33.9036 31.5361C31.3548 28.1088 25.4925 22.4924 20.8125 18.9887C17.9846 16.8719 16.2338 16.012 15.8514 16.4171L14.5512 17.8827L13.8008 18.7654C13.993 18.5422 15.6323 19.5302 18.4766 21.6594C23.169 25.1632 29.3373 30.4282 32.2685 33.4193Z" fill="url(#paint25_linear_369_28377)"/>
<path d="M36.2844 29.1135C36.857 28.5636 37.4378 28.0365 38.0208 27.5321C36.4208 23.1767 31.3315 16.8078 26.6515 13.3041C23.8981 11.2369 21.8971 10.6333 21.0475 11.3651L18.8564 13.3619L18.8398 13.3764C19.491 12.7563 21.3927 13.457 24.1875 15.549C28.8675 19.0527 34.2834 25.1239 36.2844 29.1135Z" fill="url(#paint26_linear_369_28377)"/>
<path d="M40.4828 25.5435C41.0754 25.0984 41.6693 24.6774 42.2647 24.2805C41.6445 19.1706 37.3552 12.1919 32.6753 8.68816C30.0583 6.73059 27.8754 6.27375 26.5669 7.14195C25.8496 7.62152 24.9235 8.30574 24.2207 8.79565C25.3473 7.9688 27.464 8.46698 30.1472 10.4742C34.8271 13.9841 39.4554 20.7271 40.4828 25.5435Z" fill="url(#paint27_linear_369_28377)"/>
<path d="M44.7553 22.7467C45.3506 22.4118 45.9438 22.1011 46.535 21.8144C46.9092 16.136 43.4199 8.69227 38.7378 5.19056C36.3276 3.38388 34.0703 2.97666 32.398 3.78284C31.6455 4.14872 30.6678 4.68618 29.9277 5.0748C31.4657 4.219 33.7064 4.63656 36.2118 6.52179C40.8918 10.0152 44.718 17.2833 44.7553 22.7467Z" fill="url(#paint28_linear_369_28377)"/>
<path d="M42.2324 3.68362C46.9124 7.18741 49.9428 14.8296 48.9981 20.754C49.581 20.5349 50.1591 20.3399 50.7324 20.169C52.0781 14.1082 49.3743 6.35642 44.6923 2.8547C42.5755 1.26922 40.4154 0.824782 38.5612 1.37671L38.4165 1.41805C37.6744 1.64543 36.6987 1.99891 35.9648 2.2449C37.7694 1.58135 39.9875 2.00305 42.2324 3.68362Z" fill="url(#paint29_linear_369_28377)"/>
<path d="M48.0449 2.04852C52.7269 5.56264 54.9863 13.4177 53.0949 19.6005C53.6489 19.5013 54.1967 19.4248 54.7362 19.3752C57.01 13.1325 55.0566 5.2319 50.3766 1.72812C48.6795 0.458901 46.8625 -0.0599485 45.1137 0.0950863L43.923 0.225315L42.3438 0.471304C44.1711 0.148832 46.1617 0.638741 48.0449 2.04852Z" fill="url(#paint30_linear_369_28377)"/>
<path d="M53.502 1.64957C58.182 5.15129 59.722 13.0622 56.9376 19.3194C57.4416 19.3412 57.944 19.3909 58.4425 19.4682C61.5742 13.2462 60.3173 5.36214 55.6374 1.85836C54.5734 1.04554 53.3263 0.506102 52.0054 0.287337C51.315 0.183981 50.3889 0.101295 49.6944 0.0289458L49.0742 -0.00619507C50.6839 0.0840103 52.2281 0.661467 53.502 1.64957Z" fill="url(#paint31_linear_369_28377)"/>
<path d="M56.696 1.52762C56.4892 1.4346 56.266 1.35191 56.0469 1.2775L56.696 1.52762Z" fill="url(#paint32_linear_369_28377)"/>
<path d="M60.4204 19.9437C60.872 20.0929 61.3132 20.2718 61.7413 20.4791C65.6378 14.4844 65.0012 6.79673 60.3212 3.29294C59.8869 2.96788 59.4233 2.68414 58.9362 2.44542C58.2809 2.14776 57.4458 1.81081 56.6934 1.51935C57.315 1.78651 57.9027 2.12652 58.4442 2.53224C63.1242 6.03603 64.0089 13.8312 60.4204 19.9437Z" fill="url(#paint33_linear_369_28377)"/>
<path d="M63.4372 21.5023L63.4641 21.523C63.8395 21.8042 64.1958 22.1101 64.5307 22.4387C68.7683 17.2709 68.9523 10.5506 65.1508 6.82773C64.4604 6.18278 63.4971 5.38074 62.7612 4.77507L62.6992 4.73166L62.722 4.7482C67.4061 8.24991 67.7244 15.7515 63.4372 21.5023Z" fill="url(#paint34_linear_369_28377)"/>
</g>
</g>
<defs>
<linearGradient id="paint0_linear_369_28377" x1="65.6973" y1="9.7424" x2="70.4858" y2="9.78906" gradientUnits="userSpaceOnUse">
<stop stop-color="#6A73FC"/>
<stop offset="0.15136" stop-color="#C0ADFA"/>
<stop offset="0.369792" stop-color="#ABA5F5"/>
<stop offset="0.635417" stop-color="#64FFFD"/>
<stop offset="0.932292" stop-color="#68C0FF"/>
</linearGradient>
<linearGradient id="paint1_linear_369_28377" x1="67.3867" y1="16.1939" x2="72.2723" y2="16.2542" gradientUnits="userSpaceOnUse">
<stop stop-color="#6A73FC"/>
<stop offset="0.15136" stop-color="#C0ADFA"/>
<stop offset="0.369792" stop-color="#ABA5F5"/>
<stop offset="0.635417" stop-color="#64FFFD"/>
<stop offset="0.932292" stop-color="#68C0FF"/>
</linearGradient>
<linearGradient id="paint2_linear_369_28377" x1="68.2617" y1="22.9307" x2="72.9746" y2="23.0027" gradientUnits="userSpaceOnUse">
<stop stop-color="#6A73FC"/>
<stop offset="0.15136" stop-color="#C0ADFA"/>
<stop offset="0.369792" stop-color="#ABA5F5"/>
<stop offset="0.635417" stop-color="#64FFFD"/>
<stop offset="0.932292" stop-color="#68C0FF"/>
</linearGradient>
<linearGradient id="paint3_linear_369_28377" x1="68.1211" y1="29.6241" x2="72.8798" y2="29.7202" gradientUnits="userSpaceOnUse">
<stop stop-color="#6A73FC"/>
<stop offset="0.15136" stop-color="#C0ADFA"/>
<stop offset="0.369792" stop-color="#ABA5F5"/>
<stop offset="0.635417" stop-color="#64FFFD"/>
<stop offset="0.932292" stop-color="#68C0FF"/>
</linearGradient>
<linearGradient id="paint4_linear_369_28377" x1="67.1289" y1="36.1975" x2="71.9113" y2="36.3275" gradientUnits="userSpaceOnUse">
<stop stop-color="#6A73FC"/>
<stop offset="0.15136" stop-color="#C0ADFA"/>
<stop offset="0.369792" stop-color="#ABA5F5"/>
<stop offset="0.635417" stop-color="#64FFFD"/>
<stop offset="0.932292" stop-color="#68C0FF"/>
</linearGradient>
<linearGradient id="paint5_linear_369_28377" x1="65.3809" y1="42.6552" x2="69.9819" y2="42.8235" gradientUnits="userSpaceOnUse">
<stop stop-color="#6A73FC"/>
<stop offset="0.15136" stop-color="#C0ADFA"/>
<stop offset="0.369792" stop-color="#ABA5F5"/>
<stop offset="0.635417" stop-color="#64FFFD"/>
<stop offset="0.932292" stop-color="#68C0FF"/>
</linearGradient>
<linearGradient id="paint6_linear_369_28377" x1="62.9492" y1="48.9641" x2="67.2276" y2="49.1617" gradientUnits="userSpaceOnUse">
<stop stop-color="#6A73FC"/>
<stop offset="0.15136" stop-color="#C0ADFA"/>
<stop offset="0.369792" stop-color="#ABA5F5"/>
<stop offset="0.635417" stop-color="#64FFFD"/>
<stop offset="0.932292" stop-color="#68C0FF"/>
</linearGradient>
<linearGradient id="paint7_linear_369_28377" x1="59.8379" y1="54.3448" x2="63.6808" y2="54.4864" gradientUnits="userSpaceOnUse">
<stop stop-color="#6A73FC"/>
<stop offset="0.15136" stop-color="#C0ADFA"/>
<stop offset="0.369792" stop-color="#ABA5F5"/>
<stop offset="0.635417" stop-color="#64FFFD"/>
<stop offset="0.932292" stop-color="#68C0FF"/>
</linearGradient>
<linearGradient id="paint8_linear_369_28377" x1="56.0879" y1="59.0641" x2="59.3335" y2="59.1407" gradientUnits="userSpaceOnUse">
<stop stop-color="#6A73FC"/>
<stop offset="0.15136" stop-color="#C0ADFA"/>
<stop offset="0.369792" stop-color="#ABA5F5"/>
<stop offset="0.635417" stop-color="#64FFFD"/>
<stop offset="0.932292" stop-color="#68C0FF"/>
</linearGradient>
<linearGradient id="paint9_linear_369_28377" x1="51.9785" y1="63.403" x2="54.5245" y2="63.4431" gradientUnits="userSpaceOnUse">
<stop stop-color="#6A73FC"/>
<stop offset="0.15136" stop-color="#C0ADFA"/>
<stop offset="0.369792" stop-color="#ABA5F5"/>
<stop offset="0.635417" stop-color="#64FFFD"/>
<stop offset="0.932292" stop-color="#68C0FF"/>
</linearGradient>
<linearGradient id="paint10_linear_369_28377" x1="46.5469" y1="67.0019" x2="49.8006" y2="67.0598" gradientUnits="userSpaceOnUse">
<stop stop-color="#6A73FC"/>
<stop offset="0.15136" stop-color="#C0ADFA"/>
<stop offset="0.369792" stop-color="#ABA5F5"/>
<stop offset="0.635417" stop-color="#64FFFD"/>
<stop offset="0.932292" stop-color="#68C0FF"/>
</linearGradient>
<linearGradient id="paint11_linear_369_28377" x1="40.7246" y1="69.8318" x2="45.3344" y2="69.9376" gradientUnits="userSpaceOnUse">
<stop stop-color="#6A73FC"/>
<stop offset="0.15136" stop-color="#C0ADFA"/>
<stop offset="0.369792" stop-color="#ABA5F5"/>
<stop offset="0.635417" stop-color="#64FFFD"/>
<stop offset="0.932292" stop-color="#68C0FF"/>
</linearGradient>
<linearGradient id="paint12_linear_369_28377" x1="34.5801" y1="71.8535" x2="41.1136" y2="72.0527" gradientUnits="userSpaceOnUse">
<stop stop-color="#6A73FC"/>
<stop offset="0.15136" stop-color="#C0ADFA"/>
<stop offset="0.369792" stop-color="#ABA5F5"/>
<stop offset="0.635417" stop-color="#64FFFD"/>
<stop offset="0.932292" stop-color="#68C0FF"/>
</linearGradient>
<linearGradient id="paint13_linear_369_28377" x1="28.0371" y1="73.0503" x2="37.0428" y2="73.4211" gradientUnits="userSpaceOnUse">
<stop stop-color="#6A73FC"/>
<stop offset="0.15136" stop-color="#C0ADFA"/>
<stop offset="0.369792" stop-color="#ABA5F5"/>
<stop offset="0.635417" stop-color="#64FFFD"/>
<stop offset="0.932292" stop-color="#68C0FF"/>
</linearGradient>
<linearGradient id="paint14_linear_369_28377" x1="21.1621" y1="73.2219" x2="33.2179" y2="73.8925" gradientUnits="userSpaceOnUse">
<stop stop-color="#6A73FC"/>
<stop offset="0.15136" stop-color="#C0ADFA"/>
<stop offset="0.369792" stop-color="#ABA5F5"/>
<stop offset="0.635417" stop-color="#64FFFD"/>
<stop offset="0.932292" stop-color="#68C0FF"/>
</linearGradient>
<linearGradient id="paint15_linear_369_28377" x1="14.2187" y1="72.2483" x2="29.7364" y2="73.3378" gradientUnits="userSpaceOnUse">
<stop stop-color="#6A73FC"/>
<stop offset="0.15136" stop-color="#C0ADFA"/>
<stop offset="0.369792" stop-color="#ABA5F5"/>
<stop offset="0.635417" stop-color="#64FFFD"/>
<stop offset="0.932292" stop-color="#68C0FF"/>
</linearGradient>
<linearGradient id="paint16_linear_369_28377" x1="7.95508" y1="70.3196" x2="26.6941" y2="71.938" gradientUnits="userSpaceOnUse">
<stop stop-color="#6A73FC"/>
<stop offset="0.15136" stop-color="#C0ADFA"/>
<stop offset="0.369792" stop-color="#ABA5F5"/>
<stop offset="0.635417" stop-color="#64FFFD"/>
<stop offset="0.932292" stop-color="#68C0FF"/>
</linearGradient>
<linearGradient id="paint17_linear_369_28377" x1="3.375" y1="67.3409" x2="24.2054" y2="69.4637" gradientUnits="userSpaceOnUse">
<stop stop-color="#6A73FC"/>
<stop offset="0.15136" stop-color="#C0ADFA"/>
<stop offset="0.369792" stop-color="#ABA5F5"/>
<stop offset="0.635417" stop-color="#64FFFD"/>
<stop offset="0.932292" stop-color="#68C0FF"/>
</linearGradient>
<linearGradient id="paint18_linear_369_28377" x1="0.849609" y1="60.6868" x2="22.6448" y2="62.3869" gradientUnits="userSpaceOnUse">
<stop stop-color="#6A73FC"/>
<stop offset="0.15136" stop-color="#C0ADFA"/>
<stop offset="0.369792" stop-color="#ABA5F5"/>
<stop offset="0.635417" stop-color="#64FFFD"/>
<stop offset="0.932292" stop-color="#68C0FF"/>
</linearGradient>
<linearGradient id="paint19_linear_369_28377" x1="0" y1="53.9893" x2="21.8506" y2="55.4222" gradientUnits="userSpaceOnUse">
<stop stop-color="#6A73FC"/>
<stop offset="0.15136" stop-color="#C0ADFA"/>
<stop offset="0.369792" stop-color="#ABA5F5"/>
<stop offset="0.635417" stop-color="#64FFFD"/>
<stop offset="0.932292" stop-color="#68C0FF"/>
</linearGradient>
<linearGradient id="paint20_linear_369_28377" x1="0.105469" y1="47.3662" x2="22.0479" y2="48.6642" gradientUnits="userSpaceOnUse">
<stop stop-color="#6A73FC"/>
<stop offset="0.15136" stop-color="#C0ADFA"/>
<stop offset="0.369792" stop-color="#ABA5F5"/>
<stop offset="0.635417" stop-color="#64FFFD"/>
<stop offset="0.932292" stop-color="#68C0FF"/>
</linearGradient>
<linearGradient id="paint21_linear_369_28377" x1="1.0625" y1="40.8341" x2="23.0822" y2="42.0486" gradientUnits="userSpaceOnUse">
<stop stop-color="#6A73FC"/>
<stop offset="0.15136" stop-color="#C0ADFA"/>
<stop offset="0.369792" stop-color="#ABA5F5"/>
<stop offset="0.635417" stop-color="#64FFFD"/>
<stop offset="0.932292" stop-color="#68C0FF"/>
</linearGradient>
<linearGradient id="paint22_linear_369_28377" x1="2.95703" y1="34.426" x2="24.8568" y2="35.5296" gradientUnits="userSpaceOnUse">
<stop stop-color="#6A73FC"/>
<stop offset="0.15136" stop-color="#C0ADFA"/>
<stop offset="0.369792" stop-color="#ABA5F5"/>
<stop offset="0.635417" stop-color="#64FFFD"/>
<stop offset="0.932292" stop-color="#68C0FF"/>
</linearGradient>
<linearGradient id="paint23_linear_369_28377" x1="5.76562" y1="28.1895" x2="27.3175" y2="29.1655" gradientUnits="userSpaceOnUse">
<stop stop-color="#6A73FC"/>
<stop offset="0.15136" stop-color="#C0ADFA"/>
<stop offset="0.369792" stop-color="#ABA5F5"/>
<stop offset="0.635417" stop-color="#64FFFD"/>
<stop offset="0.932292" stop-color="#68C0FF"/>
</linearGradient>
<linearGradient id="paint24_linear_369_28377" x1="9.42187" y1="22.1576" x2="30.4635" y2="23.0213" gradientUnits="userSpaceOnUse">
<stop stop-color="#6A73FC"/>
<stop offset="0.15136" stop-color="#C0ADFA"/>
<stop offset="0.369792" stop-color="#ABA5F5"/>
<stop offset="0.635417" stop-color="#64FFFD"/>
<stop offset="0.932292" stop-color="#68C0FF"/>
</linearGradient>
<linearGradient id="paint25_linear_369_28377" x1="13.8008" y1="16.3198" x2="34.222" y2="17.0803" gradientUnits="userSpaceOnUse">
<stop stop-color="#6A73FC"/>
<stop offset="0.15136" stop-color="#C0ADFA"/>
<stop offset="0.369792" stop-color="#ABA5F5"/>
<stop offset="0.635417" stop-color="#64FFFD"/>
<stop offset="0.932292" stop-color="#68C0FF"/>
</linearGradient>
<linearGradient id="paint26_linear_369_28377" x1="18.8398" y1="11.0669" x2="38.3294" y2="11.7231" gradientUnits="userSpaceOnUse">
<stop stop-color="#6A73FC"/>
<stop offset="0.15136" stop-color="#C0ADFA"/>
<stop offset="0.369792" stop-color="#ABA5F5"/>
<stop offset="0.635417" stop-color="#64FFFD"/>
<stop offset="0.932292" stop-color="#68C0FF"/>
</linearGradient>
<linearGradient id="paint27_linear_369_28377" x1="24.2207" y1="6.72128" x2="42.5589" y2="7.27814" gradientUnits="userSpaceOnUse">
<stop stop-color="#6A73FC"/>
<stop offset="0.15136" stop-color="#C0ADFA"/>
<stop offset="0.369792" stop-color="#ABA5F5"/>
<stop offset="0.635417" stop-color="#64FFFD"/>
<stop offset="0.932292" stop-color="#68C0FF"/>
</linearGradient>
<linearGradient id="paint28_linear_369_28377" x1="29.9277" y1="3.3877" x2="46.8369" y2="3.84794" gradientUnits="userSpaceOnUse">
<stop stop-color="#6A73FC"/>
<stop offset="0.15136" stop-color="#C0ADFA"/>
<stop offset="0.369792" stop-color="#ABA5F5"/>
<stop offset="0.635417" stop-color="#64FFFD"/>
<stop offset="0.932292" stop-color="#68C0FF"/>
</linearGradient>
<linearGradient id="paint29_linear_369_28377" x1="35.9648" y1="1.15039" x2="51.3295" y2="1.5256" gradientUnits="userSpaceOnUse">
<stop stop-color="#6A73FC"/>
<stop offset="0.15136" stop-color="#C0ADFA"/>
<stop offset="0.369792" stop-color="#ABA5F5"/>
<stop offset="0.635417" stop-color="#64FFFD"/>
<stop offset="0.932292" stop-color="#68C0FF"/>
</linearGradient>
<linearGradient id="paint30_linear_369_28377" x1="42.3438" y1="0.0684509" x2="55.9088" y2="0.361944" gradientUnits="userSpaceOnUse">
<stop stop-color="#6A73FC"/>
<stop offset="0.15136" stop-color="#C0ADFA"/>
<stop offset="0.369792" stop-color="#ABA5F5"/>
<stop offset="0.635417" stop-color="#64FFFD"/>
<stop offset="0.932292" stop-color="#68C0FF"/>
</linearGradient>
<linearGradient id="paint31_linear_369_28377" x1="49.0742" y1="-0.00619507" x2="60.3528" y2="0.19727" gradientUnits="userSpaceOnUse">
<stop stop-color="#6A73FC"/>
<stop offset="0.15136" stop-color="#C0ADFA"/>
<stop offset="0.369792" stop-color="#ABA5F5"/>
<stop offset="0.635417" stop-color="#64FFFD"/>
<stop offset="0.932292" stop-color="#68C0FF"/>
</linearGradient>
<linearGradient id="paint32_linear_369_28377" x1="56.0469" y1="1.2775" x2="56.7027" y2="1.33141" gradientUnits="userSpaceOnUse">
<stop stop-color="#6A73FC"/>
<stop offset="0.15136" stop-color="#C0ADFA"/>
<stop offset="0.369792" stop-color="#ABA5F5"/>
<stop offset="0.635417" stop-color="#64FFFD"/>
<stop offset="0.932292" stop-color="#68C0FF"/>
</linearGradient>
<linearGradient id="paint33_linear_369_28377" x1="56.6934" y1="1.51935" x2="64.4234" y2="1.6175" gradientUnits="userSpaceOnUse">
<stop stop-color="#6A73FC"/>
<stop offset="0.15136" stop-color="#C0ADFA"/>
<stop offset="0.369792" stop-color="#ABA5F5"/>
<stop offset="0.635417" stop-color="#64FFFD"/>
<stop offset="0.932292" stop-color="#68C0FF"/>
</linearGradient>
<linearGradient id="paint34_linear_369_28377" x1="62.6992" y1="4.73166" x2="67.9516" y2="4.78018" gradientUnits="userSpaceOnUse">
<stop stop-color="#6A73FC"/>
<stop offset="0.15136" stop-color="#C0ADFA"/>
<stop offset="0.369792" stop-color="#ABA5F5"/>
<stop offset="0.635417" stop-color="#64FFFD"/>
<stop offset="0.932292" stop-color="#68C0FF"/>
</linearGradient>
<clipPath id="clip0_369_28377">
<rect width="72.8891" height="80" fill="white"/>
</clipPath>
</defs>
</svg>
