<svg width="67" height="70" viewBox="0 0 67 70" fill="none" xmlns="http://www.w3.org/2000/svg">
<g clip-path="url(#clip0_196_216)">
<path d="M35.4816 25.5493C34.4821 26.1901 33.6431 26.3377 32.9971 26.0671C33.3298 26.2199 33.7648 26.4413 34.0885 26.6109C34.6465 26.9268 35.4777 26.7779 36.5549 26.093C39.8602 23.9749 44.2376 17.5481 46.3311 11.7453C47.7436 7.83143 47.7553 5.19803 46.603 4.54551C45.5478 3.97585 44.1068 3.278 43.0206 2.7666C44.5095 3.40229 44.9626 6.29205 43.9942 10.5827C42.5985 16.7208 38.7921 23.4273 35.4816 25.5493Z" fill="url(#paint0_linear_196_216)"/>
<path d="M40.3241 43.1314C40.1001 43.2749 39.891 43.4406 39.7001 43.6259C39.6147 43.7075 39.493 43.8085 39.4036 43.8849L39.2871 43.9729C39.3454 43.9315 39.4049 43.89 39.4658 43.8512C42.7711 41.7331 48.6853 44.6798 52.6716 50.4347C56.5868 56.0834 57.1927 62.3355 54.088 64.5688L55.0616 63.8373C55.7931 63.2483 56.7175 62.4054 57.4154 61.7801C59.94 59.3279 58.7761 53.7867 54.5424 48.8668C49.9968 43.5806 43.6308 41.0119 40.3241 43.1314Z" fill="url(#paint1_linear_196_216)"/>
<path d="M41.6388 41.4353C41.1383 41.7469 40.7207 42.1752 40.4218 42.6833L40.4049 42.7118C40.3091 42.8685 40.1706 43.0692 40.0645 43.218C40.3331 42.8772 40.6574 42.5844 41.0238 42.3519C44.3292 40.2338 51.0641 42.3894 56.0655 47.1694C60.3898 51.3008 62.0017 56.0394 60.2241 58.6171C60.9064 57.6746 61.7207 56.4472 62.3228 55.5021L62.4173 55.3377C63.8596 52.8363 61.9331 48.6804 57.4055 45.1743C52.0028 40.9899 44.9441 39.3171 41.6388 41.4353Z" fill="url(#paint2_linear_196_216)"/>
<path d="M42.4706 39.435C41.6834 39.9387 41.2056 40.5537 41.0127 41.2347C40.9635 41.4095 40.8833 41.6386 40.8276 41.8108L40.7344 42.0464C41.02 41.4002 41.4978 40.8577 42.1029 40.4928C45.4082 38.3734 52.7129 39.5516 58.416 43.1236C62.8982 45.9305 65.0577 49.3809 64.1734 51.7579L64.6046 50.6691C64.8868 49.8987 65.1988 48.8487 65.4474 48.0667C66.0624 45.8839 63.7436 43.0084 59.2161 40.8165C53.2735 37.9345 45.7824 37.3169 42.4706 39.435Z" fill="url(#paint3_linear_196_216)"/>
<path d="M40.9004 30.2841C39.6627 31.0777 39.071 31.4661 39.0762 31.4804L39.5604 32.3038L39.8504 32.8592C39.7727 32.6961 40.3165 32.2248 41.5465 31.4351C44.8531 29.3157 51.8626 25.7164 57.2122 23.395C60.5655 21.9372 62.4648 21.3313 62.5943 21.6058L61.8278 20.1363L60.5422 17.9716C60.5422 17.9483 58.8707 18.9698 55.7933 20.8885C50.876 23.9595 44.2058 28.166 40.9004 30.2841Z" fill="url(#paint4_linear_196_216)"/>
<path d="M52.5301 16.6483C48.5852 20.9855 42.7073 26.2187 39.4007 28.3368C38.185 29.1136 37.4858 29.3725 37.2852 29.1537C37.6037 29.5072 38.0076 29.9979 38.3067 30.3681C38.3856 30.4704 39.0239 30.1506 40.2604 29.3583C43.5657 27.2389 49.8967 22.5443 54.401 18.8713C57.2208 16.5719 58.6553 15.219 58.5233 15.0468C57.7465 14.0512 56.6369 12.7707 55.8044 11.8101C56.1488 12.1803 55.025 13.9075 52.5301 16.6483Z" fill="url(#paint5_linear_196_216)"/>
<path d="M48.4643 13.0868C45.7325 18.487 40.8386 24.5837 37.5333 26.7018C36.3991 27.4294 35.599 27.5938 35.1484 27.2766L35.6495 27.6508L36.2632 28.1609C36.5881 28.4418 37.3403 28.2425 38.5224 27.4851C41.8277 25.3657 47.2434 19.6833 50.6187 14.7906C52.786 11.6497 53.5835 9.59891 53.0009 9.09398L51.2764 7.66206L49.8095 6.56934C50.6731 7.17396 50.2575 9.53935 48.4643 13.0868Z" fill="url(#paint6_linear_196_216)"/>
<path d="M39.3187 9.14188C39.3187 15.7202 36.64 22.7724 33.3333 24.8905C32.5254 25.4084 31.7551 25.5845 31.0508 25.4563L31.4288 25.5365L32.0166 25.6958C32.7106 25.9068 33.5314 25.7489 34.4442 25.1637C37.7495 23.0456 41.0147 16.1384 41.7372 9.73614C42.255 5.10373 41.3047 2.00554 39.4857 1.45012L37.2226 0.836435L35.7337 0.524414C37.844 1.0151 39.3174 4.26348 39.3187 9.14188Z" fill="url(#paint7_linear_196_216)"/>
<path d="M34.632 8.84795C36.0328 15.5143 34.4883 22.6351 31.1816 24.7545C30.6682 25.0958 30.0757 25.2995 29.461 25.3462C29.6889 25.3384 29.9931 25.3462 30.2223 25.3462C30.8903 25.3902 31.5856 25.2012 32.2834 24.7545C35.5901 22.6351 37.7146 15.5143 37.031 8.85054C36.4925 3.5941 34.3653 0.191647 31.8691 0.0272209C30.7466 -0.0155039 29.2797 -0.0103246 28.1016 0.0155692C30.8256 0.0673568 33.5082 3.49829 34.632 8.84795Z" fill="url(#paint8_linear_196_216)"/>
<path d="M27.832 0.0258988H28.1013C28.0107 0.0181307 27.9162 0.02072 27.832 0.0258988Z" fill="url(#paint9_linear_196_216)"/>
<path d="M32.4114 9.13426C34.4751 15.7152 33.4691 22.7686 30.1625 24.8868C29.7608 25.147 29.313 25.3281 28.8432 25.4202C28.7306 25.4461 28.5843 25.4784 28.4716 25.5095L28.28 25.5691C28.5741 25.467 28.8549 25.3301 29.1164 25.1612C32.4217 23.0418 32.8775 16.1372 30.134 9.73758C27.6599 3.96715 23.4288 0.578944 20.1973 1.52277L21.492 1.11494C22.2481 0.929802 23.2514 0.661802 24.0153 0.509028C27.0773 -0.0852349 30.613 3.39878 32.4114 9.13426Z" fill="url(#paint10_linear_196_216)"/>
<path d="M12.8389 5.26008C12.7819 5.29633 12.7263 5.33258 12.6719 5.37271L12.8389 5.25879V5.26008Z" fill="url(#paint11_linear_196_216)"/>
<path d="M26.0178 11.8633C29.9239 17.5315 30.513 23.803 27.3928 26.0286L27.5274 25.9379C27.6116 25.8835 27.7294 25.8201 27.8174 25.7709C27.9353 25.7114 28.0518 25.6414 28.1657 25.5715C31.4711 23.4534 31.4283 16.7586 28.0686 10.6204C24.8254 4.69335 19.6764 1.45144 16.3491 3.1436C15.5852 3.54107 14.6025 4.13533 13.8594 4.56776L12.834 5.26042C16.1445 3.1423 22.0457 6.09808 26.0178 11.8633Z" fill="url(#paint12_linear_196_216)"/>
<path d="M22.6151 15.1169C27.0339 19.3634 28.6109 24.2457 26.6144 26.7781L26.7439 26.6228C26.8177 26.5386 26.9239 26.4325 27.0028 26.3522C29.5754 23.913 28.4529 18.3122 24.2413 13.3315C19.7357 8.00382 13.4047 5.40279 10.0994 7.5222C9.8879 7.65663 9.68978 7.81097 9.50769 7.98311C8.88883 8.58255 8.1146 9.43187 7.52681 10.0546L6.75 10.9997C6.99643 10.7154 7.28298 10.4686 7.60061 10.2669C10.9008 8.15272 17.6254 10.3213 22.6151 15.1169Z" fill="url(#paint13_linear_196_216)"/>
<path d="M20.2486 19.1487C24.8059 22.0216 26.9577 25.5587 25.9453 27.9435C26.0346 27.7467 26.1654 27.4891 26.2676 27.2961L26.2793 27.2754C27.7617 24.7676 25.8598 20.5534 21.3375 16.9891C15.9658 12.7555 8.93173 11.04 5.62638 13.1581C5.13532 13.4642 4.72363 13.8821 4.42491 14.3777L4.34982 14.5072C3.81381 15.4821 3.16776 16.7962 2.67578 17.8384C2.97147 17.2822 3.41097 16.8154 3.94846 16.4868C7.2551 14.3661 14.552 15.5585 20.2486 19.1487Z" fill="url(#paint14_linear_196_216)"/>
<path d="M2.58398 18.0263L2.67202 17.8398C2.63966 17.902 2.61117 17.9641 2.58398 18.0263Z" fill="url(#paint15_linear_196_216)"/>
<path d="M1.92442 23.5715C5.22976 21.4533 12.8451 21.531 18.9341 23.7475C23.3865 25.3685 25.7959 27.6847 25.4658 29.641L25.5189 29.3484C25.559 29.1529 25.6263 28.8952 25.6742 28.701C26.3216 26.5001 24.0105 23.5715 19.4778 21.3213C13.5507 18.381 6.06743 17.7143 2.76208 19.8337C1.98527 20.3321 1.50753 20.9394 1.30944 21.6165C1.07769 22.4425 0.831697 23.5585 0.634904 24.3949L0.431641 25.5239C0.549457 24.8105 1.03626 24.1398 1.92442 23.5715Z" fill="url(#paint16_linear_196_216)"/>
<path d="M25.3615 30.6492V30.7359C25.3615 31.0661 25.355 31.5127 25.3615 31.8403C25.3547 31.7194 25.3312 31.6 25.2915 31.4856C24.863 30.2323 22.517 29.1642 18.6886 28.7059C12.5246 27.9705 4.84837 29.0943 1.54303 31.2111C0.5254 31.8584 0.0411852 32.533 0.0373011 33.1712C0.0139967 32.0798 -0.011899 30.6518 0.0191736 29.5772L0.0334172 29.2703C0.0735526 28.5583 0.559061 27.8591 1.53785 27.2325C4.84319 25.1131 12.5207 24.6172 18.686 26.1242C23.0219 27.1846 25.4573 28.9544 25.3615 30.6492Z" fill="url(#paint17_linear_196_216)"/>
<path d="M2.79843 39.0854C6.10507 36.966 13.5819 34.6071 19.4999 33.8173C23.3232 33.2994 25.5617 33.5739 25.7766 34.3986L25.6899 34.0555C25.6199 33.7565 25.5487 33.3525 25.4905 33.0509C25.3209 31.9297 22.9723 31.18 18.9445 31.1826C12.8595 31.1826 5.24798 32.9072 1.94134 35.0266C0.824023 35.7425 0.341103 36.4132 0.427847 36.9867C0.574147 37.8788 0.831792 39.0582 1.01175 39.9425L1.25386 40.907C1.13734 40.4552 1.6332 39.835 2.79843 39.0854Z" fill="url(#paint18_linear_196_216)"/>
<path d="M26.7989 37.1121C26.6695 36.8298 24.7611 37.4267 21.4001 38.8703C16.0491 41.1722 9.02931 44.7534 5.72396 46.8728C4.51342 47.6496 3.96836 48.1221 4.02791 48.2969C3.58125 47.3104 2.98051 45.9988 2.57916 44.9929L2.41085 44.5475C2.29433 44.229 2.79925 43.6749 4.01108 42.9007C7.31643 40.7825 14.6042 37.8242 20.2879 36.2977C23.8962 35.3267 25.9846 35.1636 26.1943 35.7164L26.2565 35.8795C26.4144 36.2459 26.6203 36.7457 26.7989 37.1121Z" fill="url(#paint19_linear_196_216)"/>
<path d="M24.389 43.6587C27.1842 41.3283 28.5941 39.9365 28.4452 39.7475L28.242 39.4782C28.0167 39.1675 27.737 38.7376 27.5247 38.4178C27.5053 38.3751 25.8196 39.363 22.7175 41.2441C17.7589 44.253 11.0588 48.4103 7.75219 50.5297C6.51447 51.3233 5.92797 51.7182 5.93962 51.7441C6.47692 52.5986 7.25373 53.6991 7.82469 54.5315L8.36199 55.2436C8.45132 55.355 9.09349 55.0417 10.3286 54.2506C13.634 52.1312 19.9288 47.39 24.389 43.6587Z" fill="url(#paint20_linear_196_216)"/>
<path d="M28.1957 47.6963C30.3333 44.5204 31.101 42.4424 30.4977 41.9285C30.2142 41.6786 29.8504 41.3251 29.5811 41.0623L29.4128 40.8862C29.7636 41.2552 28.6476 42.9914 26.1631 45.7439C22.2337 50.0979 16.3675 55.344 13.0621 57.4634C11.8464 58.2403 11.146 58.4901 10.9414 58.2752L11.3945 58.7491C12.1286 59.4909 13.1579 60.4322 13.9231 61.1365C14.2584 61.4226 15.0145 61.2271 16.194 60.471C19.5006 58.3529 24.8736 52.633 28.1957 47.6963Z" fill="url(#paint21_linear_196_216)"/>
<path d="M32.4985 50.7134C33.876 46.7672 33.8527 44.1104 32.6706 43.4631L32.4868 43.3582C32.2007 43.1886 31.8304 42.9413 31.5507 42.7588C32.4234 43.366 32.0194 45.7366 30.2353 49.2983C27.523 54.7114 22.6433 60.821 19.3379 62.9353C18.2051 63.6616 17.4037 63.8247 16.9492 63.5088C17.7765 64.0785 18.9184 64.7802 19.7691 65.3123L20.3555 65.645C20.9226 65.9584 21.7538 65.8108 22.8245 65.1272C26.1312 63 30.4619 56.5511 32.4985 50.7134Z" fill="url(#paint22_linear_196_216)"/>
<path d="M37.1086 52.6606C37.589 47.9997 36.5908 44.8834 34.7419 44.3384C34.4934 44.262 34.1658 44.1403 33.9211 44.0522L33.7075 43.9629C35.2054 44.5986 35.6767 47.4935 34.7161 51.7958C33.3398 57.9559 29.5373 64.6676 26.2371 66.787C25.2402 67.4266 24.4013 67.5742 23.7539 67.3049L24.4789 67.6052C25.3749 67.9522 26.5932 68.3536 27.5046 68.6591C28.2012 68.865 29.0194 68.7044 29.9244 68.1244C33.2246 66.0011 36.4419 59.0823 37.1086 52.6606Z" fill="url(#paint23_linear_196_216)"/>
<path d="M46.4202 53.1652C44.5636 47.4155 40.9617 43.9328 37.8752 44.5736C37.7328 44.6008 37.5399 44.6254 37.3962 44.6461L37.2266 44.6604C40.049 44.4662 42.8921 47.9463 44.0716 53.4811C45.4958 60.1462 43.9615 67.2657 40.6562 69.3851C40.1451 69.7241 39.556 69.9273 38.9446 69.9755L39.9027 69.8965C40.8336 69.7916 42.0661 69.5806 42.9905 69.4278C43.4472 69.3313 43.8822 69.1513 44.2736 68.897C47.5802 66.7789 48.5409 59.7293 46.4202 53.1652Z" fill="url(#paint24_linear_196_216)"/>
<path d="M50.7407 51.6296C47.4315 45.7025 42.21 42.4788 38.8827 44.2227L38.8438 44.2434C38.7144 44.3043 38.5357 44.3729 38.4023 44.4312C41.6585 43.2866 46.0255 46.6904 48.567 52.5735C51.3285 58.9666 50.8883 65.866 47.5817 67.9803C47.3885 68.1054 47.1844 68.2129 46.9719 68.3014C48.018 67.8948 49.3166 67.3239 50.298 66.8772L50.6268 66.7076C50.7304 66.6532 50.8314 66.5937 50.9311 66.5302C54.2364 64.4121 54.1523 57.7419 50.7407 51.6296Z" fill="url(#paint25_linear_196_216)"/>
<path d="M46.9721 68.3052L46.7598 68.3867C46.831 68.3621 46.9022 68.335 46.9721 68.3052Z" fill="url(#paint26_linear_196_216)"/>
<path d="M60.2232 58.6172L60.0938 58.792C60.1391 58.735 60.1818 58.6754 60.2232 58.6172Z" fill="url(#paint27_linear_196_216)"/>
<path d="M59.9703 36.0015C53.8011 34.5579 46.1171 35.1056 42.8157 37.2237C41.8291 37.8555 41.3436 38.5572 41.3125 39.268C41.2905 39.5891 41.2439 40.0151 41.2051 40.3348C41.3216 39.6163 41.8084 38.9456 42.6991 38.3747C46.0045 36.2566 53.6225 36.3187 59.714 38.5158C64.0836 40.0914 66.48 42.3364 66.2664 44.2616C66.4231 43.0964 66.5629 41.5752 66.6548 40.4255V40.4022C66.7312 38.7385 64.2959 37.0153 59.9703 36.0015Z" fill="url(#paint28_linear_196_216)"/>
<path d="M59.659 30.9366C53.583 31.0065 45.9793 32.779 42.6727 34.8984C41.5502 35.6182 41.0685 36.285 41.1592 36.8495C41.2006 37.0994 41.2356 37.436 41.2692 37.6871L41.3042 38.1351C41.2679 37.4787 41.7496 36.7809 42.8086 36.1037C46.114 33.9856 53.7902 32.8476 59.9529 33.561C64.1412 34.0465 66.5558 35.2635 66.6296 36.6592L66.5183 35.2272C66.4445 34.4659 66.2865 33.4574 66.1855 32.6987C66.0108 31.6008 63.67 30.8913 59.659 30.9366Z" fill="url(#paint29_linear_196_216)"/>
<path d="M64.1386 25.1494C63.9379 24.6199 61.8574 24.8193 58.2698 25.8304C52.6107 27.4242 45.3423 30.4343 42.0356 32.5537C40.8251 33.3306 40.3137 33.8782 40.4302 34.1838C40.5791 34.5955 40.7539 35.1535 40.8808 35.573C40.763 35.125 41.2537 34.5074 42.4253 33.7604C45.7307 31.6345 53.2049 29.2614 59.1178 28.4496C62.9345 27.9239 65.1692 28.1803 65.3841 28.9972C65.0501 27.8307 64.5335 26.2965 64.1386 25.1494Z" fill="url(#paint30_linear_196_216)"/>
<path d="M41.8088 53.4926C42.552 60.1615 40.4753 67.2836 37.1686 69.4017C36.8985 69.5779 36.6081 69.7209 36.3038 69.8277C35.9299 69.9585 35.5342 70.0157 35.1386 69.996L34.6207 69.9637C33.6069 69.8536 32.2657 69.7047 31.2441 69.5416C31.9251 69.6387 32.6683 69.4574 33.4386 68.9616C36.7453 66.8434 39.4085 59.7887 39.3942 53.2065C39.3787 48.2271 37.8328 44.945 35.6487 44.5566C35.8804 44.5903 36.1873 44.6343 36.4177 44.655H36.5187C39.0369 44.7987 41.2197 48.2064 41.8088 53.4926Z" fill="url(#paint31_linear_196_216)"/>
</g>
<defs>
<linearGradient id="paint0_linear_196_216" x1="32.9971" y1="2.7666" x2="47.6754" y2="3.04621" gradientUnits="userSpaceOnUse">
<stop stop-color="#6A73FC"/>
<stop offset="0.15136" stop-color="#C0ADFA"/>
<stop offset="0.369792" stop-color="#ABA5F5"/>
<stop offset="0.635417" stop-color="#64FFFD"/>
<stop offset="0.932292" stop-color="#68C0FF"/>
</linearGradient>
<linearGradient id="paint1_linear_196_216" x1="39.2871" y1="42.3882" x2="59.0575" y2="42.9373" gradientUnits="userSpaceOnUse">
<stop stop-color="#6A73FC"/>
<stop offset="0.15136" stop-color="#C0ADFA"/>
<stop offset="0.369792" stop-color="#ABA5F5"/>
<stop offset="0.635417" stop-color="#64FFFD"/>
<stop offset="0.932292" stop-color="#68C0FF"/>
</linearGradient>
<linearGradient id="paint2_linear_196_216" x1="40.0645" y1="40.5176" x2="63.2448" y2="41.4435" gradientUnits="userSpaceOnUse">
<stop stop-color="#6A73FC"/>
<stop offset="0.15136" stop-color="#C0ADFA"/>
<stop offset="0.369792" stop-color="#ABA5F5"/>
<stop offset="0.635417" stop-color="#64FFFD"/>
<stop offset="0.932292" stop-color="#68C0FF"/>
</linearGradient>
<linearGradient id="paint3_linear_196_216" x1="40.7344" y1="38.1763" x2="65.8886" y2="39.6318" gradientUnits="userSpaceOnUse">
<stop stop-color="#6A73FC"/>
<stop offset="0.15136" stop-color="#C0ADFA"/>
<stop offset="0.369792" stop-color="#ABA5F5"/>
<stop offset="0.635417" stop-color="#64FFFD"/>
<stop offset="0.932292" stop-color="#68C0FF"/>
</linearGradient>
<linearGradient id="paint4_linear_196_216" x1="39.0762" y1="17.9712" x2="62.9401" y2="19.1653" gradientUnits="userSpaceOnUse">
<stop stop-color="#6A73FC"/>
<stop offset="0.15136" stop-color="#C0ADFA"/>
<stop offset="0.369792" stop-color="#ABA5F5"/>
<stop offset="0.635417" stop-color="#64FFFD"/>
<stop offset="0.932292" stop-color="#68C0FF"/>
</linearGradient>
<linearGradient id="paint5_linear_196_216" x1="37.2852" y1="11.8101" x2="58.8697" y2="12.592" gradientUnits="userSpaceOnUse">
<stop stop-color="#6A73FC"/>
<stop offset="0.15136" stop-color="#C0ADFA"/>
<stop offset="0.369792" stop-color="#ABA5F5"/>
<stop offset="0.635417" stop-color="#64FFFD"/>
<stop offset="0.932292" stop-color="#68C0FF"/>
</linearGradient>
<linearGradient id="paint6_linear_196_216" x1="35.1484" y1="6.56934" x2="53.4838" y2="7.0518" gradientUnits="userSpaceOnUse">
<stop stop-color="#6A73FC"/>
<stop offset="0.15136" stop-color="#C0ADFA"/>
<stop offset="0.369792" stop-color="#ABA5F5"/>
<stop offset="0.635417" stop-color="#64FFFD"/>
<stop offset="0.932292" stop-color="#68C0FF"/>
</linearGradient>
<linearGradient id="paint7_linear_196_216" x1="31.0508" y1="0.524414" x2="42.0623" y2="0.673912" gradientUnits="userSpaceOnUse">
<stop stop-color="#6A73FC"/>
<stop offset="0.15136" stop-color="#C0ADFA"/>
<stop offset="0.369792" stop-color="#ABA5F5"/>
<stop offset="0.635417" stop-color="#64FFFD"/>
<stop offset="0.932292" stop-color="#68C0FF"/>
</linearGradient>
<linearGradient id="paint8_linear_196_216" x1="28.1016" y1="-0.00439453" x2="37.314" y2="0.0998397" gradientUnits="userSpaceOnUse">
<stop stop-color="#6A73FC"/>
<stop offset="0.15136" stop-color="#C0ADFA"/>
<stop offset="0.369792" stop-color="#ABA5F5"/>
<stop offset="0.635417" stop-color="#64FFFD"/>
<stop offset="0.932292" stop-color="#68C0FF"/>
</linearGradient>
<linearGradient id="paint9_linear_196_216" x1="27.832" y1="0.0209961" x2="27.9001" y2="0.139348" gradientUnits="userSpaceOnUse">
<stop stop-color="#6A73FC"/>
<stop offset="0.15136" stop-color="#C0ADFA"/>
<stop offset="0.369792" stop-color="#ABA5F5"/>
<stop offset="0.635417" stop-color="#64FFFD"/>
<stop offset="0.932292" stop-color="#68C0FF"/>
</linearGradient>
<linearGradient id="paint10_linear_196_216" x1="20.1973" y1="0.443359" x2="33.7085" y2="0.669666" gradientUnits="userSpaceOnUse">
<stop stop-color="#6A73FC"/>
<stop offset="0.15136" stop-color="#C0ADFA"/>
<stop offset="0.369792" stop-color="#ABA5F5"/>
<stop offset="0.635417" stop-color="#64FFFD"/>
<stop offset="0.932292" stop-color="#68C0FF"/>
</linearGradient>
<linearGradient id="paint11_linear_196_216" x1="12.6719" y1="5.25879" x2="12.8414" y2="5.26666" gradientUnits="userSpaceOnUse">
<stop stop-color="#6A73FC"/>
<stop offset="0.15136" stop-color="#C0ADFA"/>
<stop offset="0.369792" stop-color="#ABA5F5"/>
<stop offset="0.635417" stop-color="#64FFFD"/>
<stop offset="0.932292" stop-color="#68C0FF"/>
</linearGradient>
<linearGradient id="paint12_linear_196_216" x1="12.834" y1="2.69629" x2="30.913" y2="3.13275" gradientUnits="userSpaceOnUse">
<stop stop-color="#6A73FC"/>
<stop offset="0.15136" stop-color="#C0ADFA"/>
<stop offset="0.369792" stop-color="#ABA5F5"/>
<stop offset="0.635417" stop-color="#64FFFD"/>
<stop offset="0.932292" stop-color="#68C0FF"/>
</linearGradient>
<linearGradient id="paint13_linear_196_216" x1="6.75" y1="6.78418" x2="28.72" y2="7.53679" gradientUnits="userSpaceOnUse">
<stop stop-color="#6A73FC"/>
<stop offset="0.15136" stop-color="#C0ADFA"/>
<stop offset="0.369792" stop-color="#ABA5F5"/>
<stop offset="0.635417" stop-color="#64FFFD"/>
<stop offset="0.932292" stop-color="#68C0FF"/>
</linearGradient>
<linearGradient id="paint14_linear_196_216" x1="2.67578" y1="12.2505" x2="27.1324" y2="13.4401" gradientUnits="userSpaceOnUse">
<stop stop-color="#6A73FC"/>
<stop offset="0.15136" stop-color="#C0ADFA"/>
<stop offset="0.369792" stop-color="#ABA5F5"/>
<stop offset="0.635417" stop-color="#64FFFD"/>
<stop offset="0.932292" stop-color="#68C0FF"/>
</linearGradient>
<linearGradient id="paint15_linear_196_216" x1="2.58398" y1="17.8398" x2="2.67352" y2="17.8412" gradientUnits="userSpaceOnUse">
<stop stop-color="#6A73FC"/>
<stop offset="0.15136" stop-color="#C0ADFA"/>
<stop offset="0.369792" stop-color="#ABA5F5"/>
<stop offset="0.635417" stop-color="#64FFFD"/>
<stop offset="0.932292" stop-color="#68C0FF"/>
</linearGradient>
<linearGradient id="paint16_linear_196_216" x1="0.431641" y1="18.5947" x2="26.0831" y2="20.4594" gradientUnits="userSpaceOnUse">
<stop stop-color="#6A73FC"/>
<stop offset="0.15136" stop-color="#C0ADFA"/>
<stop offset="0.369792" stop-color="#ABA5F5"/>
<stop offset="0.635417" stop-color="#64FFFD"/>
<stop offset="0.932292" stop-color="#68C0FF"/>
</linearGradient>
<linearGradient id="paint17_linear_196_216" x1="0.00488281" y1="25.2524" x2="25.5388" y2="27.8426" gradientUnits="userSpaceOnUse">
<stop stop-color="#6A73FC"/>
<stop offset="0.15136" stop-color="#C0ADFA"/>
<stop offset="0.369792" stop-color="#ABA5F5"/>
<stop offset="0.635417" stop-color="#64FFFD"/>
<stop offset="0.932292" stop-color="#68C0FF"/>
</linearGradient>
<linearGradient id="paint18_linear_196_216" x1="0.417969" y1="31.1826" x2="26.0391" y2="33.299" gradientUnits="userSpaceOnUse">
<stop stop-color="#6A73FC"/>
<stop offset="0.15136" stop-color="#C0ADFA"/>
<stop offset="0.369792" stop-color="#ABA5F5"/>
<stop offset="0.635417" stop-color="#64FFFD"/>
<stop offset="0.932292" stop-color="#68C0FF"/>
</linearGradient>
<linearGradient id="paint19_linear_196_216" x1="2.39453" y1="35.4014" x2="27.1309" y2="36.8842" gradientUnits="userSpaceOnUse">
<stop stop-color="#6A73FC"/>
<stop offset="0.15136" stop-color="#C0ADFA"/>
<stop offset="0.369792" stop-color="#ABA5F5"/>
<stop offset="0.635417" stop-color="#64FFFD"/>
<stop offset="0.932292" stop-color="#68C0FF"/>
</linearGradient>
<linearGradient id="paint20_linear_196_216" x1="5.93945" y1="38.4165" x2="28.8033" y2="39.3843" gradientUnits="userSpaceOnUse">
<stop stop-color="#6A73FC"/>
<stop offset="0.15136" stop-color="#C0ADFA"/>
<stop offset="0.369792" stop-color="#ABA5F5"/>
<stop offset="0.635417" stop-color="#64FFFD"/>
<stop offset="0.932292" stop-color="#68C0FF"/>
</linearGradient>
<linearGradient id="paint21_linear_196_216" x1="10.9414" y1="40.8862" x2="31.0186" y2="41.5028" gradientUnits="userSpaceOnUse">
<stop stop-color="#6A73FC"/>
<stop offset="0.15136" stop-color="#C0ADFA"/>
<stop offset="0.369792" stop-color="#ABA5F5"/>
<stop offset="0.635417" stop-color="#64FFFD"/>
<stop offset="0.932292" stop-color="#68C0FF"/>
</linearGradient>
<linearGradient id="paint22_linear_196_216" x1="16.9492" y1="42.7588" x2="33.8226" y2="43.1437" gradientUnits="userSpaceOnUse">
<stop stop-color="#6A73FC"/>
<stop offset="0.15136" stop-color="#C0ADFA"/>
<stop offset="0.369792" stop-color="#ABA5F5"/>
<stop offset="0.635417" stop-color="#64FFFD"/>
<stop offset="0.932292" stop-color="#68C0FF"/>
</linearGradient>
<linearGradient id="paint23_linear_196_216" x1="23.7539" y1="43.9629" x2="37.4568" y2="44.1989" gradientUnits="userSpaceOnUse">
<stop stop-color="#6A73FC"/>
<stop offset="0.15136" stop-color="#C0ADFA"/>
<stop offset="0.369792" stop-color="#ABA5F5"/>
<stop offset="0.635417" stop-color="#64FFFD"/>
<stop offset="0.932292" stop-color="#68C0FF"/>
</linearGradient>
<linearGradient id="paint24_linear_196_216" x1="37.2266" y1="44.498" x2="47.723" y2="44.6327" gradientUnits="userSpaceOnUse">
<stop stop-color="#6A73FC"/>
<stop offset="0.15136" stop-color="#C0ADFA"/>
<stop offset="0.369792" stop-color="#ABA5F5"/>
<stop offset="0.635417" stop-color="#64FFFD"/>
<stop offset="0.932292" stop-color="#68C0FF"/>
</linearGradient>
<linearGradient id="paint25_linear_196_216" x1="38.4023" y1="43.7505" x2="53.608" y2="44.0439" gradientUnits="userSpaceOnUse">
<stop stop-color="#6A73FC"/>
<stop offset="0.15136" stop-color="#C0ADFA"/>
<stop offset="0.369792" stop-color="#ABA5F5"/>
<stop offset="0.635417" stop-color="#64FFFD"/>
<stop offset="0.932292" stop-color="#68C0FF"/>
</linearGradient>
<linearGradient id="paint26_linear_196_216" x1="46.7598" y1="68.3052" x2="46.9743" y2="68.3229" gradientUnits="userSpaceOnUse">
<stop stop-color="#6A73FC"/>
<stop offset="0.15136" stop-color="#C0ADFA"/>
<stop offset="0.369792" stop-color="#ABA5F5"/>
<stop offset="0.635417" stop-color="#64FFFD"/>
<stop offset="0.932292" stop-color="#68C0FF"/>
</linearGradient>
<linearGradient id="paint27_linear_196_216" x1="60.0938" y1="58.6172" x2="60.2254" y2="58.6203" gradientUnits="userSpaceOnUse">
<stop stop-color="#6A73FC"/>
<stop offset="0.15136" stop-color="#C0ADFA"/>
<stop offset="0.369792" stop-color="#ABA5F5"/>
<stop offset="0.635417" stop-color="#64FFFD"/>
<stop offset="0.932292" stop-color="#68C0FF"/>
</linearGradient>
<linearGradient id="paint28_linear_196_216" x1="41.2051" y1="35.1953" x2="66.8924" y2="37.4795" gradientUnits="userSpaceOnUse">
<stop stop-color="#6A73FC"/>
<stop offset="0.15136" stop-color="#C0ADFA"/>
<stop offset="0.369792" stop-color="#ABA5F5"/>
<stop offset="0.635417" stop-color="#64FFFD"/>
<stop offset="0.932292" stop-color="#68C0FF"/>
</linearGradient>
<linearGradient id="paint29_linear_196_216" x1="41.1484" y1="30.9346" x2="66.7474" y2="33.8041" gradientUnits="userSpaceOnUse">
<stop stop-color="#6A73FC"/>
<stop offset="0.15136" stop-color="#C0ADFA"/>
<stop offset="0.369792" stop-color="#ABA5F5"/>
<stop offset="0.635417" stop-color="#64FFFD"/>
<stop offset="0.932292" stop-color="#68C0FF"/>
</linearGradient>
<linearGradient id="paint30_linear_196_216" x1="40.4141" y1="24.8647" x2="65.6769" y2="26.7307" gradientUnits="userSpaceOnUse">
<stop stop-color="#6A73FC"/>
<stop offset="0.15136" stop-color="#C0ADFA"/>
<stop offset="0.369792" stop-color="#ABA5F5"/>
<stop offset="0.635417" stop-color="#64FFFD"/>
<stop offset="0.932292" stop-color="#68C0FF"/>
</linearGradient>
<linearGradient id="paint31_linear_196_216" x1="31.2441" y1="44.5566" x2="42.1424" y2="44.702" gradientUnits="userSpaceOnUse">
<stop stop-color="#6A73FC"/>
<stop offset="0.15136" stop-color="#C0ADFA"/>
<stop offset="0.369792" stop-color="#ABA5F5"/>
<stop offset="0.635417" stop-color="#64FFFD"/>
<stop offset="0.932292" stop-color="#68C0FF"/>
</linearGradient>
<clipPath id="clip0_196_216">
<rect width="66.6584" height="70" fill="white"/>
</clipPath>
</defs>
</svg>
