<svg width="29" height="29" viewBox="0 0 29 29" fill="none" xmlns="http://www.w3.org/2000/svg">
<path d="M26.9025 7.87285C26.6 6.74828 25.7133 5.8618 24.5889 5.55899C22.5348 4.99695 14.318 4.99695 14.318 4.99695C14.318 4.99695 6.10162 4.99695 4.04747 5.53768C2.9447 5.84017 2.03642 6.74844 1.73393 7.87285C1.19336 9.92683 1.19336 14.1865 1.19336 14.1865C1.19336 14.1865 1.19336 18.4677 1.73393 20.5002C2.03674 21.6246 2.92307 22.5111 4.04763 22.8139C6.12325 23.3761 14.3184 23.3761 14.3184 23.3761C14.3184 23.3761 22.5348 23.3761 24.5889 22.8354C25.7135 22.5327 26.6 21.6462 26.9028 20.5218C27.4432 18.4677 27.4432 14.2082 27.4432 14.2082C27.4432 14.2082 27.4648 9.92683 26.9025 7.87285ZM11.702 18.1218V10.2513L18.5346 14.1865L11.702 18.1218Z" fill="#051A67"/>
</svg>
