<svg width="29" height="28" viewBox="0 0 29 28" fill="none" xmlns="http://www.w3.org/2000/svg">
<path d="M27.4454 7.43889C27.143 6.31432 26.2563 5.42784 25.1319 5.12503C23.0778 4.56299 14.861 4.56299 14.861 4.56299C14.861 4.56299 6.64459 4.56299 4.59044 5.10372C3.48766 5.40621 2.57939 6.31448 2.2769 7.43889C1.73633 9.49287 1.73633 13.7526 1.73633 13.7526C1.73633 13.7526 1.73633 18.0337 2.2769 20.0663C2.57971 21.1907 3.46603 22.0771 4.5906 22.38C6.66622 22.9422 14.8613 22.9422 14.8613 22.9422C14.8613 22.9422 23.0778 22.9422 25.1319 22.4014C26.2565 22.0988 27.143 21.2123 27.4458 20.0879C27.9862 18.0337 27.9862 13.7742 27.9862 13.7742C27.9862 13.7742 28.0078 9.49287 27.4454 7.43889ZM12.245 17.6878V9.81731L19.0776 13.7526L12.245 17.6878Z" fill="#BAC4E7"/>
</svg>
