<svg width="70" height="70" viewBox="0 0 70 70" fill="none" xmlns="http://www.w3.org/2000/svg">
<g clip-path="url(#clip0_420_9335)">
<path d="M59.8805 29.3745C59.9647 19.5054 51.559 10.458 41.1432 9.20691C40.936 9.18235 40.7103 9.14495 40.4714 9.10539C39.9558 9.01995 39.4225 8.93213 38.8845 8.93213C36.7497 8.93213 36.179 10.4317 36.0288 11.326C35.8827 12.1956 36.0221 12.9258 36.4423 13.4973C37.1492 14.4587 38.3932 14.6293 39.3923 14.766C39.6851 14.8065 39.9614 14.8441 40.1927 14.896C49.551 16.9871 52.7021 20.2747 54.2421 29.5534C54.2797 29.7802 54.2966 30.0595 54.3147 30.3558C54.3819 31.465 54.5219 33.7726 57.0027 33.7726H57.0029C57.2095 33.7726 57.4314 33.7547 57.6625 33.7195C59.9727 33.3684 59.9003 31.2591 59.8655 30.2456C59.8558 29.9602 59.8464 29.6902 59.8705 29.5106C59.8771 29.4654 59.8803 29.42 59.8805 29.3745Z" fill="url(#paint0_linear_420_9335)"/>
<path d="M38.2784 5.58435C38.5556 5.60435 38.818 5.62348 39.0364 5.65696C54.4036 8.02022 61.4708 15.3011 63.4293 30.7885C63.4625 31.0517 63.4677 31.3728 63.4732 31.7128C63.4927 32.9228 63.533 35.44 66.2362 35.4922L66.3201 35.493C67.168 35.493 67.8423 35.2374 68.3247 34.7326C69.1662 33.8524 69.1075 32.5448 69.0601 31.4939C69.0486 31.2361 69.0375 30.9933 69.0403 30.7807C69.2358 14.9411 55.5249 0.577826 39.6995 0.0436957C39.6338 0.0415217 39.5712 0.045 39.508 0.053913C39.4769 0.0584783 39.4193 0.0641304 39.3206 0.0641304C39.1627 0.0641304 38.9686 0.0504348 38.7627 0.0365217C38.5138 0.0195652 38.2317 0 37.9456 0C35.4254 0 34.9462 1.7913 34.8849 2.85913C34.7436 5.32696 37.131 5.50065 38.2784 5.58435Z" fill="url(#paint1_linear_420_9335)"/>
<path d="M62.6878 50.805C62.361 50.5554 62.0232 50.2972 61.7069 50.0424C60.0291 48.6922 58.2441 47.4476 56.5178 46.2439C56.1595 45.9943 55.8013 45.7446 55.4443 45.4941C53.233 43.9409 51.2449 43.1861 49.3667 43.1861C46.8369 43.1861 44.6313 44.5839 42.8108 47.3402C42.0043 48.5622 41.0258 49.1563 39.82 49.1563C39.1069 49.1563 38.2967 48.9528 37.4121 48.5513C30.2745 45.3146 25.1778 40.3519 22.2632 33.8013C20.8543 30.6352 21.311 28.5656 23.7906 26.8813C25.1986 25.9256 27.8195 24.1465 27.6339 20.7396C27.4236 16.8706 18.8871 5.22955 15.2904 3.90738C13.7676 3.34738 12.1676 3.34216 10.5263 3.89434C6.39148 5.28434 3.4243 7.72542 1.94474 10.9532C0.514954 14.0722 0.579519 17.7343 2.13148 21.5439C6.618 32.5582 12.9258 42.1613 20.8804 50.0859C28.6665 57.8432 38.2363 64.1976 49.3236 68.9717C50.323 69.4017 51.3713 69.6363 52.1367 69.8074C52.3976 69.8661 52.6228 69.9161 52.7869 69.9611C52.8771 69.9856 52.9702 69.9989 53.0634 69.9998L53.151 70.0002C53.151 70.0002 53.151 70.0002 53.1515 70.0002C58.3663 70.0002 64.6278 65.235 66.5508 59.8024C68.2356 55.0454 65.1595 52.6941 62.6878 50.805Z" fill="url(#paint2_linear_420_9335)"/>
<path d="M40.5838 18.1661C39.6909 18.1887 37.8329 18.2348 37.1809 20.1272C36.8759 21.0115 36.9124 21.7793 37.2896 22.4093C37.8431 23.3337 38.9035 23.617 39.8681 23.7724C43.3661 24.3337 45.1627 26.268 45.522 29.8593C45.689 31.5339 46.8166 32.7033 48.2644 32.7033C48.3714 32.7033 48.4809 32.697 48.5898 32.6837C50.3311 32.4765 51.1753 31.1972 51.099 28.8815C51.1268 26.4648 49.862 23.7211 47.7109 21.5357C45.5525 19.3435 42.9505 18.1089 40.5838 18.1661Z" fill="url(#paint3_linear_420_9335)"/>
</g>
<defs>
<linearGradient id="paint0_linear_420_9335" x1="35.9727" y1="8.93213" x2="60.2709" y2="9.67292" gradientUnits="userSpaceOnUse">
<stop stop-color="#6A73FC"/>
<stop offset="0.15136" stop-color="#C0ADFA"/>
<stop offset="0.369792" stop-color="#ABA5F5"/>
<stop offset="0.635417" stop-color="#64FFFD"/>
<stop offset="0.932292" stop-color="#68C0FF"/>
</linearGradient>
<linearGradient id="paint1_linear_420_9335" x1="34.8789" y1="0" x2="69.6411" y2="1.06115" gradientUnits="userSpaceOnUse">
<stop stop-color="#6A73FC"/>
<stop offset="0.15136" stop-color="#C0ADFA"/>
<stop offset="0.369792" stop-color="#ABA5F5"/>
<stop offset="0.635417" stop-color="#64FFFD"/>
<stop offset="0.932292" stop-color="#68C0FF"/>
</linearGradient>
<linearGradient id="paint2_linear_420_9335" x1="0.917969" y1="3.48376" x2="68.1069" y2="5.5992" gradientUnits="userSpaceOnUse">
<stop stop-color="#6A73FC"/>
<stop offset="0.15136" stop-color="#C0ADFA"/>
<stop offset="0.369792" stop-color="#ABA5F5"/>
<stop offset="0.635417" stop-color="#64FFFD"/>
<stop offset="0.932292" stop-color="#68C0FF"/>
</linearGradient>
<linearGradient id="paint3_linear_420_9335" x1="36.9766" y1="18.1642" x2="51.3338" y2="18.6061" gradientUnits="userSpaceOnUse">
<stop stop-color="#6A73FC"/>
<stop offset="0.15136" stop-color="#C0ADFA"/>
<stop offset="0.369792" stop-color="#ABA5F5"/>
<stop offset="0.635417" stop-color="#64FFFD"/>
<stop offset="0.932292" stop-color="#68C0FF"/>
</linearGradient>
<clipPath id="clip0_420_9335">
<rect width="70" height="70" fill="white"/>
</clipPath>
</defs>
</svg>
