<svg width="154" height="62" viewBox="0 0 154 62" fill="none" xmlns="http://www.w3.org/2000/svg">
<path d="M41.5207 26.75C41.8807 26.75 42.0007 26.88 42.0007 27.23V35.15H46.0707C46.4207 35.15 46.5507 35.28 46.5507 35.63V36.33C46.5507 36.68 46.4207 36.81 46.0707 36.81H40.7107C40.3607 36.81 40.2207 36.68 40.2207 36.33V27.23C40.2207 26.88 40.3607 26.75 40.7107 26.75H41.5207Z" fill="#ABABAB"/>
<path d="M50.0996 30.24C50.0996 27.93 51.5596 26.54 54.0996 26.54C56.6396 26.54 58.0996 27.93 58.0996 30.24V33.32C58.0996 35.63 56.6296 37.02 54.0996 37.02C51.5696 37.02 50.0996 35.63 50.0996 33.32V30.24ZM56.4196 30.24C56.4196 28.94 55.6096 28.24 54.1496 28.24C52.6896 28.24 51.8896 28.95 51.8896 30.24V33.34C51.8896 34.65 52.6896 35.34 54.1496 35.34C55.6096 35.34 56.4196 34.62 56.4196 33.34V30.24Z" fill="#ABABAB"/>
<path d="M70.0097 31.3C70.3997 31.3 70.4897 31.43 70.4897 31.78V33.68C70.5003 34.1275 70.4106 34.5718 70.2272 34.9801C70.0437 35.3885 69.7713 35.7506 69.4297 36.04C68.5814 36.7155 67.5118 37.0506 66.4297 36.98C63.8397 36.98 62.4297 35.59 62.4297 33.28V30.18C62.4297 27.9 63.8897 26.5 66.4297 26.5C68.4297 26.5 69.7297 27.29 70.2797 28.87C70.3105 28.9294 70.327 28.9951 70.3279 29.0619C70.3288 29.1288 70.3141 29.195 70.285 29.2551C70.2559 29.3153 70.2131 29.3679 70.1601 29.4087C70.1071 29.4494 70.0453 29.4773 69.9797 29.49L69.1997 29.76C68.8597 29.88 68.7197 29.81 68.5997 29.46C68.434 29.0329 68.1307 28.6731 67.7377 28.4377C67.3447 28.2023 66.8845 28.1045 66.4297 28.16C64.9597 28.16 64.1597 28.87 64.1597 30.16V33.34C64.1597 34.65 64.9697 35.34 66.4297 35.34C67.8897 35.34 68.7897 34.67 68.7897 33.69V32.95H66.6197C66.2597 32.95 66.1297 32.81 66.1297 32.46V31.78C66.1297 31.43 66.2597 31.3 66.6197 31.3H70.0097Z" fill="#ABABAB"/>
<path d="M74.6191 30.24C74.6191 27.93 76.0791 26.54 78.6191 26.54C81.1591 26.54 82.6191 27.93 82.6191 30.24V33.32C82.6191 35.63 81.1491 37.02 78.6191 37.02C76.0891 37.02 74.6191 35.63 74.6191 33.32V30.24ZM80.9291 30.24C80.9291 28.94 80.1191 28.24 78.6691 28.24C77.2191 28.24 76.3991 28.95 76.3991 30.24V33.34C76.3991 34.65 77.2091 35.34 78.6691 35.34C80.1291 35.34 80.9291 34.62 80.9291 33.34V30.24Z" fill="#ABABAB"/>
<path d="M87.3301 27.04C87.3301 26.82 87.4001 26.75 87.6201 26.75H88.0801C88.3001 26.75 88.3501 26.82 88.3501 27.04V36.52C88.3501 36.74 88.3501 36.81 88.0801 36.81H87.6201C87.4001 36.81 87.3301 36.74 87.3301 36.52V27.04Z" fill="#ABABAB"/>
<path d="M97.4594 26.75C98.2922 26.75 99.0908 27.0808 99.6797 27.6697C100.269 28.2585 100.599 29.0572 100.599 29.89C100.599 30.7228 100.269 31.5215 99.6797 32.1103C99.0908 32.6992 98.2922 33.03 97.4594 33.03H94.4594V36.52C94.4594 36.74 94.4094 36.81 94.1994 36.81H93.7295C93.5195 36.81 93.4395 36.74 93.4395 36.52V27.04C93.4395 26.82 93.5195 26.75 93.7295 26.75H97.4594ZM97.3695 32.04C97.6558 32.04 97.9393 31.9836 98.2038 31.8741C98.4682 31.7645 98.7085 31.6039 98.9109 31.4015C99.1133 31.1991 99.274 30.9587 99.3836 30.6943C99.4931 30.4298 99.5495 30.1463 99.5495 29.86C99.5495 29.5737 99.4931 29.2902 99.3836 29.0257C99.274 28.7613 99.1133 28.5209 98.9109 28.3185C98.7085 28.1161 98.4682 27.9555 98.2038 27.8459C97.9393 27.7364 97.6558 27.68 97.3695 27.68H94.3695V32.04H97.3695Z" fill="#ABABAB"/>
<path d="M108.41 26.55C109.182 26.4648 109.961 26.6309 110.632 27.0236C111.301 27.4164 111.827 28.0148 112.13 28.73C112.21 28.89 112.13 29.02 111.97 29.1L111.53 29.3C111.35 29.37 111.28 29.36 111.17 29.17C110.944 28.6392 110.554 28.1942 110.058 27.8994C109.562 27.6046 108.985 27.4752 108.41 27.53C106.72 27.53 105.8 28.2 105.8 29.4C105.791 29.7667 105.914 30.1247 106.147 30.4077C106.381 30.6907 106.708 30.8798 107.07 30.94C107.608 31.1154 108.166 31.2229 108.73 31.26C109.414 31.2964 110.088 31.4346 110.73 31.67C111.223 31.8259 111.647 32.1465 111.931 32.5781C112.215 33.0097 112.342 33.5259 112.29 34.04C112.29 35.91 110.93 37.04 108.43 37.04C107.61 37.1338 106.783 36.9438 106.086 36.5016C105.389 36.0595 104.865 35.3918 104.6 34.61C104.583 34.5744 104.573 34.5353 104.572 34.4955C104.572 34.4557 104.58 34.4163 104.596 34.38C104.612 34.3437 104.636 34.3114 104.666 34.2855C104.696 34.2595 104.732 34.2406 104.77 34.23L105.21 34.07C105.245 34.0558 105.282 34.049 105.32 34.05C105.357 34.051 105.394 34.0598 105.428 34.0758C105.462 34.0918 105.492 34.1146 105.516 34.1429C105.541 34.1712 105.559 34.2042 105.57 34.24C105.794 34.8049 106.192 35.2839 106.706 35.6076C107.22 35.9312 107.824 36.0827 108.43 36.04C110.32 36.04 111.25 35.38 111.25 34.04C111.268 33.6878 111.16 33.3407 110.946 33.0605C110.732 32.7804 110.425 32.5853 110.08 32.51C109.563 32.3557 109.029 32.2617 108.49 32.23L107.41 32.09C107.072 32.0183 106.739 31.9281 106.41 31.82C106.086 31.7221 105.784 31.5625 105.52 31.35C105.255 31.1098 105.046 30.8142 104.908 30.4841C104.769 30.154 104.705 29.7976 104.72 29.44C104.79 27.69 106.1 26.55 108.41 26.55Z" fill="#ABABAB"/>
<path d="M117.68 33.39C117.722 34.0972 118.033 34.7615 118.549 35.2472C119.065 35.7329 119.747 36.0033 120.455 36.0033C121.163 36.0033 121.845 35.7329 122.361 35.2472C122.877 34.7615 123.187 34.0972 123.23 33.39V27.04C123.23 26.82 123.3 26.75 123.52 26.75H123.98C124.2 26.75 124.27 26.82 124.27 27.04V33.38C124.27 35.65 122.93 37.02 120.46 37.02C117.99 37.02 116.65 35.65 116.65 33.38V27.04C116.65 26.82 116.72 26.75 116.93 26.75H117.4C117.61 26.75 117.68 26.82 117.68 27.04V33.39Z" fill="#ABABAB"/>
<path d="M138.07 26.75C138.29 26.75 138.36 26.82 138.36 27.04V36.52C138.36 36.74 138.29 36.81 138.07 36.81H137.65C137.44 36.81 137.37 36.74 137.37 36.52V30.75C137.37 29.9105 137.427 29.0719 137.54 28.24H137.48C137.168 29.0007 136.803 29.7391 136.39 30.45L134.24 34.24C134.214 34.3058 134.168 34.362 134.109 34.4013C134.05 34.4405 133.981 34.461 133.91 34.46H133.63C133.558 34.4604 133.488 34.4397 133.427 34.4007C133.367 34.3616 133.319 34.3058 133.29 34.24L131.11 30.41C130.723 29.7093 130.389 28.9806 130.11 28.23H130.05C130.152 29.0695 130.206 29.9143 130.21 30.76V36.52C130.21 36.74 130.14 36.81 129.92 36.81H129.53C129.31 36.81 129.24 36.74 129.24 36.52V27.04C129.24 26.82 129.31 26.75 129.53 26.75H129.89C129.972 26.7424 130.055 26.7603 130.126 26.8015C130.198 26.8427 130.255 26.9051 130.29 26.98L133.79 33.2L137.27 27.04C137.38 26.83 137.44 26.8 137.66 26.8L138.07 26.75Z" fill="#ABABAB"/>
<path d="M23.73 35.29V42.52C23.73 42.7972 23.6199 43.063 23.4239 43.2589C23.228 43.4549 22.9622 43.565 22.685 43.565C22.4079 43.565 22.1421 43.4549 21.9461 43.2589C21.7501 43.063 21.64 42.7972 21.64 42.52V35.3C21.931 35.5125 22.2798 35.6311 22.64 35.64C23.0326 35.6512 23.4173 35.5277 23.73 35.29ZM32.63 33.2C32.3648 33.2 32.1104 33.3054 31.9229 33.4929C31.7354 33.6804 31.63 33.9348 31.63 34.2V35.46C31.63 35.7372 31.7401 36.003 31.9361 36.1989C32.132 36.3949 32.3978 36.505 32.675 36.505C32.9522 36.505 33.218 36.3949 33.4139 36.1989C33.6099 36.003 33.72 35.7372 33.72 35.46V34.25C33.7278 34.1066 33.7046 33.9632 33.652 33.8296C33.5994 33.696 33.5187 33.5752 33.4152 33.4756C33.3118 33.376 33.1881 33.2998 33.0527 33.2522C32.9172 33.2047 32.773 33.1869 32.63 33.2ZM19.37 38.03C19.0102 38.0192 18.6618 37.9008 18.37 37.69V44.94C18.37 45.2185 18.4806 45.4856 18.6775 45.6825C18.8744 45.8794 19.1415 45.99 19.42 45.99C19.6985 45.99 19.9656 45.8794 20.1625 45.6825C20.3594 45.4856 20.47 45.2185 20.47 44.94V37.74C20.1435 37.9511 19.7582 38.0527 19.37 38.03ZM29.37 31.03C29.2345 31.0232 29.0991 31.0441 28.9719 31.0913C28.8448 31.1385 28.7286 31.2111 28.6303 31.3046C28.5321 31.3982 28.454 31.5107 28.4006 31.6354C28.3473 31.7601 28.3198 31.8944 28.32 32.03V37.6C28.32 37.8785 28.4306 38.1456 28.6275 38.3425C28.8245 38.5394 29.0915 38.65 29.37 38.65C29.6485 38.65 29.9156 38.5394 30.1125 38.3425C30.3094 38.1456 30.42 37.8785 30.42 37.6V32.1C30.428 31.9557 30.4046 31.8114 30.3514 31.677C30.2982 31.5426 30.2166 31.4213 30.112 31.3215C30.0074 31.2217 29.8825 31.1457 29.7458 31.0989C29.6091 31.052 29.4638 31.0353 29.32 31.05L29.37 31.03ZM26.05 33.17C25.6733 33.1674 25.3067 33.0487 25 32.83V40.1C25 40.3785 25.1106 40.6456 25.3075 40.8425C25.5045 41.0394 25.7715 41.15 26.05 41.15C26.3285 41.15 26.5955 41.0394 26.7925 40.8425C26.9894 40.6456 27.1 40.3785 27.1 40.1V32.84C26.7828 33.0763 26.3955 33.1995 26 33.19L26.05 33.17ZM17.1 38.74V18.43C17.0974 18.1824 16.9972 17.9459 16.8212 17.7718C16.6452 17.5977 16.4076 17.5 16.16 17.5H15.94C15.6924 17.5 15.4548 17.5977 15.2788 17.7718C15.1028 17.9459 15.0026 18.1824 15 18.43V38.74C15 38.9893 15.099 39.2284 15.2753 39.4047C15.4516 39.581 15.6907 39.68 15.94 39.68H16.16C16.4093 39.68 16.6484 39.581 16.8247 39.4047C17.001 39.2284 17.1 38.9893 17.1 38.74ZM19.48 37.26H19.26C19.0107 37.26 18.7716 37.161 18.5953 36.9847C18.419 36.8084 18.32 36.5693 18.32 36.32V20.85C18.3226 20.6024 18.4228 20.3659 18.5988 20.1918C18.7748 20.0177 19.0124 19.92 19.26 19.92H19.48C19.7276 19.92 19.9652 20.0177 20.1412 20.1918C20.3172 20.3659 20.4174 20.6024 20.42 20.85V36.34C20.42 36.5893 20.321 36.8284 20.1447 37.0047C19.9684 37.181 19.7293 37.28 19.48 37.28V37.26ZM22.79 34.88H22.56C22.3134 34.88 22.0768 34.782 21.9024 34.6076C21.728 34.4332 21.63 34.1967 21.63 33.95V23.25C21.6287 23.127 21.6518 23.005 21.6979 22.891C21.744 22.777 21.8123 22.6733 21.8988 22.5859C21.9853 22.4985 22.0883 22.4291 22.2018 22.3817C22.3153 22.3344 22.437 22.31 22.56 22.31H22.79C23.0376 22.3126 23.2741 22.4128 23.4482 22.5888C23.6224 22.7648 23.72 23.0024 23.72 23.25V33.95C23.72 34.1967 23.622 34.4332 23.4476 34.6076C23.2732 34.782 23.0367 34.88 22.79 34.88ZM26.1 32.43H25.89C25.6424 32.43 25.4048 32.3324 25.2288 32.1582C25.0528 31.9841 24.9526 31.7476 24.95 31.5V25.74C24.9418 25.6116 24.96 25.4829 25.0036 25.3618C25.0471 25.2408 25.1151 25.1299 25.2032 25.0362C25.2913 24.9424 25.3977 24.8678 25.5159 24.8168C25.634 24.7659 25.7613 24.7397 25.89 24.74H26.11C26.3593 24.74 26.5984 24.839 26.7747 25.0153C26.951 25.1916 27.05 25.4307 27.05 25.68V31.48C27.0513 31.6043 27.028 31.7276 26.9813 31.8428C26.9347 31.958 26.8657 32.0628 26.7782 32.1512C26.6908 32.2395 26.5868 32.3096 26.472 32.3575C26.3573 32.4054 26.2343 32.43 26.11 32.43H26.1ZM29.42 30.28H29.2C28.9507 30.28 28.7116 30.181 28.5353 30.0047C28.359 29.8284 28.26 29.5893 28.26 29.34V27.85C28.2626 27.6024 28.3628 27.3659 28.5388 27.1918C28.7148 27.0176 28.9524 26.92 29.2 26.92H29.42C29.6676 26.92 29.9052 27.0176 30.0812 27.1918C30.2572 27.3659 30.3574 27.6024 30.36 27.85V29.34C30.36 29.5876 30.2624 29.8252 30.0882 30.0012C29.9141 30.1772 29.6776 30.2774 29.43 30.28H29.42Z" fill="#ABABAB"/>
<path d="M153 8.625V1H1V8.625M153 54.375V62H1V54.375" stroke="#ABABAB" stroke-opacity="0.5"/>
</svg>
