<svg width="26" height="26" viewBox="0 0 26 26" fill="none" xmlns="http://www.w3.org/2000/svg">
<g clip-path="url(#clip0_361_18179)">
<path d="M19.2491 0.755586L16.072 0.750488C12.5026 0.750488 10.196 3.11707 10.196 6.77997V9.55997H7.00152C6.72548 9.55997 6.50195 9.78375 6.50195 10.0598V14.0877C6.50195 14.3637 6.72574 14.5873 7.00152 14.5873H10.196V24.7509C10.196 25.027 10.4195 25.2505 10.6955 25.2505H14.8633C15.1394 25.2505 15.3629 25.0267 15.3629 24.7509V14.5873H19.098C19.374 14.5873 19.5975 14.3637 19.5975 14.0877L19.5991 10.0598C19.5991 9.92725 19.5463 9.80032 19.4528 9.70652C19.3592 9.61273 19.2318 9.55997 19.0992 9.55997H15.3629V7.20333C15.3629 6.07064 15.6328 5.49562 17.1083 5.49562L19.2486 5.49486C19.5244 5.49486 19.7479 5.27107 19.7479 4.99529V1.25515C19.7479 0.979627 19.5246 0.756096 19.2491 0.755586Z" fill="#BAC4E7"/>
</g>
<defs>
<clipPath id="clip0_361_18179">
<rect width="24.5003" height="24.5" fill="white" transform="translate(0.875 0.75)"/>
</clipPath>
</defs>
</svg>
