<svg width="125" height="100" viewBox="0 0 125 100" fill="none" xmlns="http://www.w3.org/2000/svg">
<path d="M59.9371 8.89439L59.8357 8.69984C59.7595 8.53911 59.6833 8.37838 59.5988 8.21765C59.5142 8.05692 59.438 7.90466 59.362 7.7524C59.2857 7.60011 59.2097 7.49016 59.1251 7.36325C59.0404 7.23636 58.9388 7.03335 58.8291 6.87262L58.5837 6.52578L58.1268 5.89133C57.9661 5.68831 57.8137 5.48529 57.6446 5.29919C57.4755 5.11308 57.5346 5.1723 57.4755 5.10461C57.2977 4.90159 57.1117 4.70702 56.9254 4.51247L56.7901 4.37712C56.5788 4.16563 56.3588 3.96262 56.1388 3.76804L56.0625 3.70038C54.4634 2.30857 52.586 1.2733 50.5553 0.663472H50.4793C50.183 0.578873 49.887 0.494298 49.5826 0.42661H49.3794C49.1172 0.367389 48.855 0.325101 48.5928 0.282813L48.3134 0.232059L47.5521 0.147461H47.2645C46.926 0.147461 46.5878 0.147461 46.2494 0.147461H46.114C43.4186 0.148483 40.7745 0.882733 38.4645 2.27159C36.1546 3.66042 34.2661 5.65153 33.0014 8.03154C32.8239 8.36147 32.6545 8.69984 32.5023 9.03821L19.0936 38.9081C18.9521 39.23 18.8927 39.5823 18.9209 39.9329C18.9492 40.2836 19.0641 40.6216 19.2553 40.9169C19.4465 41.212 19.7081 41.4551 20.0166 41.6242C20.325 41.7933 20.6707 41.8833 21.0224 41.8858H29.2875C29.77 41.8753 30.2498 41.9613 30.6987 42.1384C31.1474 42.3157 31.5565 42.5806 31.9016 42.9177C32.4674 43.5008 33.1808 43.9197 33.9657 44.1295C34.7508 44.3393 35.5779 44.3324 36.3591 44.1093C37.1404 43.8862 37.8467 43.4553 38.4025 42.8626C38.9583 42.27 39.3429 41.5378 39.5154 40.7438C39.6594 40.0858 39.6543 39.404 39.5003 38.7483C39.3463 38.0927 39.0471 37.4799 38.6254 36.9548C38.2033 36.4299 37.6691 36.0061 37.062 35.7146C36.4546 35.4232 35.7899 35.2715 35.1164 35.2706C33.9643 35.2672 32.8567 35.7135 32.0285 36.5141C31.334 37.2232 30.39 37.633 29.3975 37.6561H24.3218L36.3937 10.6286C36.5786 10.2217 36.7878 9.82624 37.0198 9.44424C37.9736 7.87081 39.3134 6.56705 40.9123 5.65658C42.5112 4.74611 44.3164 4.25912 46.1562 4.24177H46.2494C46.6594 4.24159 47.0692 4.26701 47.4761 4.3179H47.6958C48.057 4.36865 48.4208 4.43634 48.7872 4.52092L49.1003 4.60551C49.4386 4.69858 49.7686 4.80009 50.0986 4.92697L50.4199 5.06233C50.6779 5.16519 50.9295 5.28385 51.1728 5.41761L51.5366 5.60371C51.8073 5.756 52.0782 5.92517 52.3826 6.10281L52.6871 6.32276C52.9842 6.52269 53.2669 6.74317 53.5331 6.98259L53.7531 7.18561C54.0238 7.44785 54.2945 7.72702 54.5483 8.03154L54.5991 8.09921C54.8792 8.42505 55.1365 8.76988 55.3689 9.13125C55.6021 9.48631 55.8112 9.85652 55.995 10.2394L56.071 10.3832C56.7212 11.8027 57.0554 13.3463 57.051 14.9075C57.0468 16.4687 56.7037 18.0105 56.0456 19.4263L43.5084 47.4943L16.598 47.5621C16.1912 47.5676 15.7941 47.6881 15.4529 47.9096C15.1116 48.1312 14.8399 48.4447 14.6692 48.814L1.40434 78.5147C0.36127 80.7884 -0.112922 83.2821 0.0226689 85.7801C0.158262 88.278 0.899565 90.7055 2.18265 92.8532C3.67638 95.2876 5.83495 97.2445 8.40396 98.4929C10.973 99.7415 13.8454 100.23 16.6826 99.8997C19.318 99.5715 21.8224 98.5627 23.9496 96.9727C26.0768 95.3825 27.753 93.2661 28.8137 90.8315L59.9286 21.152C60.0811 20.822 60.208 20.492 60.3264 20.1538L65.1315 30.9056C65.7124 32.2073 66.0126 33.6168 66.0126 35.0421C66.0126 36.4677 65.7124 37.877 65.1315 39.1787L53.7869 64.5568H52.7718C52.2915 64.5657 51.8142 64.4799 51.3671 64.3044C50.9199 64.1288 50.5119 63.8666 50.1661 63.5333C49.6017 62.9473 48.8883 62.5259 48.1025 62.3144C47.3169 62.1028 46.4885 62.1093 45.706 62.3326C44.9238 62.5559 44.2169 62.9882 43.6613 63.5826C43.1057 64.177 42.7224 64.9114 42.5524 65.7072C42.407 66.3656 42.411 67.0485 42.5644 67.7052C42.7177 68.362 43.0164 68.976 43.4386 69.502C43.8606 70.028 44.3953 70.4526 45.0033 70.7444C45.6113 71.0364 46.2771 71.1882 46.9516 71.1889C48.1083 71.188 49.2192 70.7358 50.0477 69.9284C50.7424 69.2193 51.6864 68.8096 52.6786 68.7865H53.7616L63.7103 91.0768C65.3301 94.7181 68.3302 97.5667 72.0505 98.996C75.7709 100.426 79.9068 100.318 83.5482 98.6987C87.1896 97.0787 90.0386 94.0788 91.468 90.3586C92.8974 86.6385 92.7905 82.5028 91.1704 78.8616L59.9371 8.89439ZM24.8294 89.3764C23.6592 91.9901 21.4986 94.0321 18.8231 95.053C16.1475 96.0738 13.1758 95.9901 10.562 94.8201C7.94812 93.6499 5.90613 91.4895 4.88521 88.814C3.86429 86.1385 3.9481 83.167 5.11815 80.5533L17.9769 51.7915L41.6641 51.7324L24.8294 89.3764ZM86.5007 90.8484C85.4451 92.4788 83.9689 93.7941 82.2277 94.6552C80.4868 95.5163 78.5454 95.8914 76.6087 95.7405C74.6722 95.5898 72.8123 94.919 71.2254 93.7988C69.6385 92.6786 68.3835 91.1506 67.5933 89.3764L57.4415 66.697L69.2851 40.2278L87.3468 80.5533C88.0814 82.2024 88.389 84.0099 88.241 85.8092C88.0932 87.6082 87.4948 89.3413 86.5007 90.8484Z" fill="url(#paint0_linear_527_236)"/>
<path d="M108.11 0.0967469C104.718 0.479782 101.559 2.01084 99.157 4.43596C96.7547 6.86106 95.254 10.0344 94.9033 13.4297C94.5526 16.825 95.3733 20.2381 97.2294 23.1029C99.0852 25.9677 101.865 28.1119 105.107 29.1799C105.847 29.4088 106.495 29.8661 106.958 30.4861C107.422 31.106 107.677 31.8571 107.687 32.6313V60.9025C107.697 61.3849 107.611 61.8644 107.434 62.3133C107.257 62.7622 106.992 63.1711 106.655 63.5164C106.118 64.0328 105.719 64.6764 105.496 65.3875C105.273 66.0986 105.232 66.8543 105.378 67.5852C105.602 68.6736 106.22 69.6409 107.113 70.3016C108.007 70.9622 109.113 71.2696 110.22 71.1649C111.326 71.06 112.354 70.5502 113.108 69.7334C113.862 68.9167 114.287 67.8505 114.303 66.7392C114.304 65.5861 113.855 64.4779 113.05 63.6517C112.349 62.9564 111.943 62.0169 111.917 61.0294V32.7073C111.91 31.9371 112.148 31.1845 112.597 30.5583C113.045 29.9319 113.681 29.4641 114.413 29.2221C115.217 28.9697 115.999 28.647 116.747 28.2579C118.165 27.5132 119.456 26.5482 120.571 25.3986V84.707C120.59 87.4139 119.609 90.0325 117.817 92.0615C116.025 94.0906 113.548 95.3877 110.859 95.7041C109.369 95.8465 107.865 95.6763 106.444 95.2039C105.023 94.7315 103.716 93.9675 102.608 92.9608C101.499 91.9542 100.613 90.7271 100.006 89.3582C99.3992 87.9894 99.085 86.5088 99.0834 85.0115V45.5742C99.0723 45.0928 99.1579 44.6142 99.3352 44.1666C99.5125 43.7191 99.7779 43.3118 100.116 42.9687C100.753 42.3473 101.192 41.5514 101.378 40.6807C101.563 39.8103 101.487 38.9043 101.159 38.077C100.831 37.2497 100.265 36.5381 99.533 36.0317C98.801 35.5255 97.9354 35.2471 97.0456 35.232C96.1556 35.2166 95.2809 35.4651 94.532 35.9459C93.7828 36.4268 93.193 37.1186 92.8366 37.9341C92.4799 38.7496 92.3728 39.6525 92.5286 40.5289C92.6844 41.4051 93.0959 42.2158 93.7115 42.8587C94.4206 43.5531 94.8304 44.4973 94.8535 45.4895V84.6308C94.8535 93.0055 101.706 100.137 110.081 99.9929C114.006 99.9242 117.747 98.3178 120.5 95.5192C123.253 92.7208 124.797 88.9538 124.801 85.0284V14.9767C124.799 12.8658 124.351 10.7791 123.487 8.85328C122.623 6.92739 121.362 5.20574 119.786 3.80104C118.21 2.39632 116.356 1.34021 114.344 0.701866C112.332 0.0635255 110.207 -0.142692 108.11 0.0967469ZM114.802 24.502C113.271 25.3084 111.566 25.7266 109.836 25.72C107.207 25.7213 104.669 24.7598 102.701 23.0167C100.733 21.2738 99.4723 18.8706 99.1561 16.261C98.8401 13.6515 99.491 11.0166 100.986 8.85434C102.481 6.69211 104.716 5.15232 107.269 4.52604C109.822 3.89979 112.516 4.23043 114.841 5.45547C117.167 6.68053 118.964 8.7151 119.891 11.1746C120.819 13.6342 120.813 16.3483 119.875 18.8039C118.938 21.2596 117.133 23.2867 114.802 24.502Z" fill="url(#paint1_linear_527_236)"/>
<defs>
<linearGradient id="paint0_linear_527_236" x1="0" y1="0.147461" x2="93.9816" y2="2.90424" gradientUnits="userSpaceOnUse">
<stop stop-color="#6A73FC"/>
<stop offset="0.15136" stop-color="#C0ADFA"/>
<stop offset="0.369792" stop-color="#ABA5F5"/>
<stop offset="0.635417" stop-color="#64FFFD"/>
<stop offset="0.932292" stop-color="#68C0FF"/>
</linearGradient>
<linearGradient id="paint1_linear_527_236" x1="92.459" y1="0" x2="125.355" y2="0.337028" gradientUnits="userSpaceOnUse">
<stop stop-color="#6A73FC"/>
<stop offset="0.15136" stop-color="#C0ADFA"/>
<stop offset="0.369792" stop-color="#ABA5F5"/>
<stop offset="0.635417" stop-color="#64FFFD"/>
<stop offset="0.932292" stop-color="#68C0FF"/>
</linearGradient>
</defs>
</svg>
