<svg width="138" height="47" viewBox="0 0 138 47" fill="none" xmlns="http://www.w3.org/2000/svg">
<path d="M46.7397 31.8374C44.9877 31.8374 43.4389 31.4929 42.0932 30.8047C40.7476 30.1006 39.7074 29.1071 38.9721 27.8243C38.2368 26.5414 37.8691 25.0317 37.8691 23.2951C37.8691 21.5585 38.2368 20.0487 38.9721 18.7659C39.7074 17.4673 40.7476 16.4739 42.0932 15.7855C43.4389 15.0815 44.9877 14.7294 46.7397 14.7294C47.9288 14.7294 48.9771 14.8546 49.8844 15.1049C50.8077 15.3396 51.6524 15.7151 52.4188 16.2314V19.6342C51.7306 19.0709 50.9406 18.6642 50.0488 18.4138C49.1727 18.1479 48.1715 18.0149 47.045 18.0149C45.9968 18.0149 45.05 18.2339 44.2053 18.672C43.3762 19.0944 42.7191 19.7045 42.2341 20.5025C41.7491 21.3003 41.5065 22.2312 41.5065 23.2951C41.5065 24.3746 41.7256 25.3211 42.1635 26.1347C42.6174 26.9326 43.2509 27.5505 44.0644 27.9886C44.8779 28.4267 45.8168 28.6457 46.8806 28.6457C47.8506 28.6457 48.6953 28.4736 49.415 28.1294V24.9613H46.7632V22.3329H52.8647V30.2415C51.3159 31.3053 49.2744 31.8374 46.7397 31.8374Z" fill="#3A4C89"/>
<path d="M53.6895 20.2208H57.1156V21.84C57.5695 21.2925 58.203 20.8779 59.0165 20.5963C59.83 20.299 60.7533 20.1504 61.7856 20.1504V22.8492C60.7062 22.8492 59.7518 23.0134 58.9227 23.342C58.1092 23.6705 57.5459 24.1711 57.233 24.8439V31.4853H53.6895V20.2208Z" fill="#3A4C89"/>
<path d="M68.5969 31.8375C66.4377 31.8375 64.7401 31.321 63.5042 30.2883C62.2683 29.2404 61.6504 27.7774 61.6504 25.9C61.6504 24.0383 62.198 22.5677 63.293 21.4882C64.4039 20.4086 65.9839 19.8689 68.0336 19.8689C69.3789 19.8689 70.5209 20.1192 71.4598 20.6198C72.3983 21.1205 73.1104 21.8167 73.5954 22.7084C74.0804 23.5846 74.3227 24.578 74.3227 25.6888V27.1204H65.0298C65.2801 28.5597 66.6254 29.2795 69.0659 29.2795C69.7857 29.2795 70.5289 29.2169 71.2954 29.0915C72.0621 28.9665 72.7272 28.7943 73.2904 28.5753V31.063C72.7427 31.2974 72.0386 31.4854 71.178 31.6263C70.3177 31.7668 69.4571 31.8375 68.5969 31.8375ZM70.9668 24.8205C70.9201 24.0696 70.6383 23.4907 70.1221 23.084C69.606 22.6615 68.8939 22.4503 67.9865 22.4503C67.0948 22.4503 66.3907 22.6615 65.8745 23.084C65.3583 23.5064 65.0766 24.0852 65.0298 24.8205H70.9668Z" fill="#3A4C89"/>
<path d="M81.5832 31.8375C79.4244 31.8375 77.7267 31.321 76.4909 30.2883C75.255 29.2404 74.6367 27.7774 74.6367 25.9C74.6367 24.0383 75.1844 22.5677 76.2797 21.4882C77.3902 20.4086 78.9706 19.8689 81.02 19.8689C82.3656 19.8689 83.5076 20.1192 84.4465 20.6198C85.385 21.1205 86.0967 21.8167 86.5817 22.7084C87.0667 23.5846 87.3094 24.578 87.3094 25.6888V27.1204H78.0161C78.2664 28.5597 79.612 29.2795 82.0526 29.2795C82.7723 29.2795 83.5156 29.2169 84.282 29.0915C85.0485 28.9665 85.7135 28.7943 86.2767 28.5753V31.063C85.7291 31.2974 85.0253 31.4854 84.1647 31.6263C83.3041 31.7668 82.4438 31.8375 81.5832 31.8375ZM83.9535 24.8205C83.9064 24.0696 83.625 23.4907 83.1088 23.084C82.5923 22.6615 81.8806 22.4503 80.9732 22.4503C80.0815 22.4503 79.3773 22.6615 78.8612 23.084C78.3447 23.5064 78.0632 24.0852 78.0161 24.8205H83.9535Z" fill="#3A4C89"/>
<path d="M88.0957 20.2209H91.5219V21.6055C92.0384 21.0266 92.6483 20.5964 93.3525 20.3148C94.0722 20.0175 94.823 19.8689 95.6054 19.8689C97.1386 19.8689 98.2807 20.2835 99.0316 21.1127C99.798 21.9262 100.182 23.0292 100.182 24.4216V31.4854H96.6377V24.8205C96.6377 23.3655 95.9651 22.6381 94.6195 22.6381C94.0251 22.6381 93.4698 22.7867 92.9533 23.084C92.4372 23.3655 91.9992 23.788 91.6392 24.3512V31.4854H88.0957V20.2209Z" fill="#3A4C89"/>
<path d="M103.311 18.4845C102.764 18.4845 102.302 18.3046 101.927 17.9447C101.551 17.5849 101.363 17.1312 101.363 16.5836C101.363 16.0517 101.551 15.6058 101.927 15.2459C102.302 14.8705 102.764 14.6827 103.311 14.6827C103.859 14.6827 104.32 14.8705 104.696 15.2459C105.071 15.6058 105.259 16.0517 105.259 16.5836C105.259 17.1312 105.071 17.5849 104.696 17.9447C104.32 18.3046 103.859 18.4845 103.311 18.4845ZM101.527 20.2211H105.095V31.4856H101.527V20.2211Z" fill="#3A4C89"/>
<path d="M111.137 31.8375C110.293 31.8375 109.385 31.7433 108.415 31.5557C107.461 31.3836 106.71 31.1333 106.162 30.8048V28.0356C106.788 28.4111 107.539 28.7161 108.415 28.9508C109.291 29.1854 110.105 29.3027 110.856 29.3027C111.497 29.3027 111.967 29.248 112.264 29.1386C112.561 29.029 112.71 28.8256 112.71 28.5284C112.71 28.2937 112.624 28.106 112.452 27.9652C112.28 27.8087 112.013 27.6757 111.654 27.5662C111.31 27.4411 110.73 27.2611 109.917 27.0265C108.963 26.7449 108.212 26.4633 107.664 26.1816C107.132 25.8844 106.726 25.5167 106.444 25.0787C106.178 24.6406 106.045 24.0774 106.045 23.389C106.045 22.2156 106.506 21.3395 107.43 20.7607C108.368 20.1661 109.636 19.8689 111.231 19.8689C112.013 19.8689 112.819 19.9549 113.648 20.127C114.493 20.2835 115.143 20.4947 115.596 20.7607V23.4594C115.143 23.1622 114.548 22.9197 113.813 22.7319C113.093 22.5442 112.389 22.4503 111.7 22.4503C111.059 22.4503 110.558 22.5129 110.199 22.6381C109.855 22.7632 109.682 22.9979 109.682 23.3421C109.682 23.6393 109.847 23.8662 110.175 24.0227C110.519 24.1791 111.153 24.3747 112.076 24.6093L112.546 24.7266C113.531 24.9926 114.298 25.2899 114.845 25.6184C115.393 25.9313 115.776 26.3146 115.995 26.7683C116.23 27.2064 116.347 27.7618 116.347 28.4345C116.347 29.4672 115.901 30.2963 115.01 30.9222C114.118 31.5321 112.827 31.8375 111.137 31.8375Z" fill="#3A4C89"/>
<path d="M117.166 14.1429H120.71V21.5118C121.242 20.9642 121.844 20.5574 122.517 20.2914C123.189 20.0098 123.909 19.869 124.676 19.869C126.209 19.869 127.351 20.2836 128.102 21.1128C128.868 21.9263 129.252 23.0293 129.252 24.4217V31.4855H125.708V24.8207C125.708 23.3657 125.035 22.6382 123.69 22.6382C123.095 22.6382 122.54 22.7868 122.024 23.0841C121.507 23.3657 121.07 23.7881 120.71 24.3513V31.4855H117.166V14.1429Z" fill="#3A4C89"/>
<path fill-rule="evenodd" clip-rule="evenodd" d="M25.7671 17.4631C25.7671 20.4441 23.3507 22.8607 20.3697 22.8607C17.3887 22.8607 14.9722 20.4441 14.9722 17.4631C14.9722 14.4822 17.3887 12.0656 20.3697 12.0656C23.3507 12.0656 25.7671 14.4822 25.7671 17.4631ZM7.81461 22.4684C13.6951 22.072 18.8201 26.4747 19.2975 32.3677C19.347 32.9784 19.3446 33.5811 19.2941 34.172C13.4136 34.5684 8.28857 30.1656 7.81119 24.2727C7.76175 23.6621 7.76411 23.0592 7.81461 22.4684ZM23.0988 33.9657C28.9917 33.4883 33.3945 28.3633 32.9981 22.4828C32.4072 22.4323 31.8045 22.43 31.1938 22.4794C25.3008 22.9568 20.8981 28.0818 21.2945 33.9622C21.8853 34.0127 22.4882 34.0152 23.0988 33.9657Z" fill="#3A4C89"/>
<path d="M136.874 6.625V1H0.398438V6.625M136.874 40.375V46H0.398438V40.375" stroke="#3A4C89" stroke-width="0.737705"/>
</svg>
