<svg width="52" height="47" viewBox="0 0 52 47" fill="none" xmlns="http://www.w3.org/2000/svg">
<g clip-path="url(#clip0_279_7687)">
<path d="M41.6246 15.1549C41.6246 15.1807 41.6246 15.2129 41.6181 15.2323C41.5851 15.4839 41.5851 15.7355 41.6048 15.9935C41.6181 16.0581 41.6312 16.1226 41.684 16.1742C41.7698 16.2709 41.9017 16.2516 41.9546 16.1355C41.981 16.0774 41.981 16.0193 41.9677 15.9613C41.9017 15.7161 41.8886 15.4581 41.882 15.2065C41.882 15.1936 41.882 15.1742 41.882 15.1549C41.9546 15.1484 42.0205 15.142 42.0799 15.142C42.1261 15.1355 42.1657 15.1291 42.1987 15.1097C42.2976 15.0581 42.2976 14.9485 42.1921 14.8968C42.1525 14.8775 42.0997 14.871 42.0535 14.871C41.8886 14.8775 41.7236 14.8775 41.5587 14.8775C41.4993 14.8775 41.4399 14.8839 41.3805 14.8904C41.3475 14.8968 41.3079 14.8968 41.2816 14.9162C41.2353 14.9355 41.209 14.9678 41.209 15.013C41.2156 15.0581 41.2353 15.0839 41.2816 15.1033C41.3079 15.1226 41.3409 15.1291 41.3739 15.1291C41.4531 15.1355 41.5389 15.1484 41.6246 15.1549ZM43.4391 15.4516C43.4391 15.4581 43.4457 15.4645 43.4457 15.4645C43.4721 15.6387 43.4985 15.8065 43.5183 15.9742C43.5249 16.0322 43.5315 16.0839 43.5711 16.129C43.6568 16.2387 43.7888 16.2258 43.8482 16.1097C43.8746 16.0516 43.8812 15.9935 43.868 15.929C43.8284 15.7355 43.8086 15.542 43.769 15.3549C43.7426 15.2388 43.7097 15.1291 43.6767 15.0259C43.6568 14.9614 43.6107 14.9162 43.5315 14.9097C43.4523 14.8968 43.3929 14.9355 43.3599 14.9936C43.3203 15.0452 43.2873 15.0968 43.2609 15.1549C43.2148 15.2581 43.1752 15.3613 43.1224 15.4581C43.1158 15.4839 43.1092 15.5033 43.096 15.5226C43.0894 15.5097 43.0828 15.5033 43.0828 15.5033C42.997 15.342 42.9179 15.1807 42.8321 15.0259C42.8189 15.013 42.8123 15.0001 42.8057 14.9872C42.7661 14.9291 42.7199 14.8968 42.6474 14.8968C42.5814 14.9033 42.5286 14.942 42.4956 15.0001C42.4824 15.0259 42.4824 15.0452 42.4758 15.071C42.4494 15.2775 42.4164 15.4839 42.39 15.6903C42.3768 15.8065 42.3702 15.9226 42.3702 16.0387C42.3636 16.0645 42.3702 16.0968 42.3834 16.1226C42.3966 16.1742 42.4362 16.2064 42.489 16.2129C42.555 16.2193 42.6011 16.2 42.621 16.1484C42.6407 16.1097 42.6474 16.0774 42.6539 16.0452C42.6804 15.929 42.7001 15.8194 42.7199 15.7097C42.7331 15.6452 42.7397 15.5936 42.7595 15.5226C42.7727 15.5484 42.7859 15.5678 42.7991 15.5871C42.8585 15.6645 42.9179 15.7419 42.9904 15.8065C43.063 15.8581 43.1224 15.8516 43.1818 15.7936C43.195 15.7807 43.2016 15.7742 43.2148 15.7613C43.2742 15.671 43.3468 15.5807 43.4061 15.4903C43.4193 15.4774 43.4259 15.4645 43.4391 15.4516Z" fill="#3A4C89"/>
<path d="M28.2338 15.2816C28.188 15.4042 28.1792 15.4925 28.2004 15.5659C28.2238 15.6657 28.2845 15.6984 28.3669 15.673C29.1419 15.4856 30.8413 16.0175 31.4705 16.1657C31.6188 16.1969 31.7396 16.0096 31.6383 15.8417C31.4905 15.679 29.7919 14.9828 29.1437 14.9449C28.8897 14.9308 28.4355 14.8671 28.2338 15.2816Z" fill="#3A4C89"/>
<path d="M34.8758 13.0279C34.9584 13.0745 35.0046 13.1189 35.0274 13.1686C35.0613 13.2338 35.0434 13.2789 34.9864 13.3019C34.4741 13.5463 33.7924 14.5988 33.5172 14.9618C33.4505 15.0453 33.2967 14.9967 33.2734 14.8594C33.2782 14.7042 33.8825 13.562 34.2197 13.251C34.3523 13.1295 34.5712 12.8912 34.8758 13.0279Z" fill="#3A4C89"/>
<path d="M30.7967 12.5098C30.8959 12.4367 30.9991 12.411 31.0517 12.4586C31.8247 13.1049 32.2345 14.1284 32.4883 15.0653C32.4979 15.0872 32.4985 15.1185 32.4908 15.1512C32.4877 15.1791 32.4668 15.2086 32.4337 15.2314C32.3983 15.2566 32.3678 15.2643 32.3534 15.2426C32.0147 14.7921 30.0799 13.0392 30.7967 12.5098Z" fill="#3A4C89"/>
<path d="M14.4287 23.715C14.614 23.5802 14.8154 23.4679 15.0285 23.3808C15.2514 23.3185 15.4891 23.3288 15.7055 23.4103C15.9219 23.4918 16.1054 23.6399 16.228 23.8323C16.3377 24.0243 16.3806 24.2459 16.3503 24.4638C16.32 24.6816 16.2182 24.884 16.06 25.0403C15.9375 25.1671 15.7983 25.2775 15.6462 25.3687C14.9685 25.7968 14.2848 26.2014 13.6011 26.6295C13.4611 26.7366 13.3127 26.8328 13.1572 26.9169C12.9207 27.0322 12.6504 27.0631 12.393 27.0042C12.1356 26.9453 11.9074 26.8003 11.7478 26.5943C11.6285 26.4485 11.5278 26.289 11.4479 26.1193C10.8002 24.7882 10.1285 23.4629 9.5047 22.1083C9.21681 21.5219 8.98291 20.8475 8.755 20.1966C8.6564 20.0075 8.63714 19.7882 8.70134 19.5854C8.76553 19.3826 8.90811 19.2123 9.09874 19.1107C9.28937 19.0091 9.51302 18.9842 9.72212 19.0414C9.93122 19.0985 10.1093 19.2332 10.2184 19.4167C10.5539 19.8525 10.8508 20.3155 11.1061 20.8006C11.7538 21.9734 12.3715 23.1462 12.9953 24.2838C13.0316 24.3467 13.0717 24.4074 13.1152 24.4656C13.5847 24.2726 14.0263 24.0203 14.4287 23.715Z" fill="#3A4C89"/>
<path d="M21.1246 23.3059C19.6432 25.0006 17.1602 24.5725 15.9127 22.3911C15.025 20.843 14.8691 18.2862 16.8004 16.6736C17.2128 16.336 17.7059 16.106 18.2338 16.0051C18.881 15.9144 19.541 16.026 20.1194 16.3241C20.6979 16.6221 21.1651 17.0913 21.4545 17.6647C22.5101 19.5412 22.3601 21.9337 21.1246 23.3059ZM20.5248 19.3535C20.3675 18.8924 20.0517 18.4987 19.6312 18.2393C19.3932 18.0735 19.1041 17.9929 18.8124 18.011C18.5208 18.0292 18.2444 18.145 18.0299 18.339C17.1722 19.0838 16.9923 20.8489 17.616 21.8986C17.6955 22.0697 17.8123 22.2218 17.9582 22.3442C18.1041 22.4667 18.2756 22.5565 18.4607 22.6073C18.6458 22.6581 18.84 22.6688 19.0298 22.6385C19.2196 22.6083 19.4002 22.5378 19.5593 22.4322C20.0242 22.0797 20.3652 21.5944 20.535 21.0438C20.7049 20.4931 20.695 19.9043 20.5069 19.3594L20.5248 19.3535Z" fill="#3A4C89"/>
<path d="M27.1718 20.0924C27.0201 20.1242 26.8634 20.1262 26.711 20.0979C26.5586 20.0697 26.4134 20.012 26.2842 19.9282C26.171 19.8649 26.0737 19.7779 25.999 19.6735C25.9244 19.569 25.8744 19.4497 25.8527 19.3241C25.8308 19.1985 25.8378 19.0697 25.873 18.947C25.9082 18.8243 25.9708 18.7108 26.0563 18.6146C26.2051 18.4213 26.4165 18.2828 26.656 18.2217C27.2814 18.0443 27.9251 17.9361 28.5752 17.8992C28.7181 17.883 28.8628 17.8948 29.0009 17.934C29.139 17.9732 29.2676 18.0389 29.3794 18.1275C29.4911 18.2159 29.5837 18.3254 29.6516 18.4493C29.7194 18.5733 29.7613 18.7092 29.7747 18.8492C29.9622 19.5368 29.9827 20.2577 29.8347 20.9544C29.295 23.2062 27.4357 23.9802 25.3485 23.259C24.7626 23.0661 24.2489 22.7068 23.8731 22.2269C23.3719 21.649 23.0164 20.9641 22.8355 20.2273C22.689 19.5711 22.705 18.8903 22.8824 18.2415C23.0598 17.5927 23.3933 16.9948 23.8551 16.4977C24.2934 15.9574 24.8623 15.5322 25.5105 15.2604C25.9201 15.0396 26.3993 14.9769 26.8539 15.0844C26.957 15.1123 27.0507 15.1667 27.125 15.2419C27.1994 15.3171 27.2519 15.4104 27.277 15.5121C27.3021 15.6138 27.2989 15.7202 27.2677 15.8203C27.2366 15.9204 27.1786 16.0105 27.0998 16.0813C26.9501 16.2139 26.7873 16.3317 26.614 16.4332C26.0808 16.7652 25.6168 17.193 25.2466 17.6939C25.0039 18.0181 24.8367 18.3904 24.757 18.7845C24.6771 19.1785 24.6866 19.5849 24.7848 19.9751C24.9208 20.5071 25.2226 20.9845 25.6484 21.3414C26.9679 22.5143 28.6832 21.3825 28.3833 19.7816C27.9455 19.8871 27.5616 19.9985 27.1718 20.0924Z" fill="#3A4C89"/>
<path d="M35.2328 23.3998C33.2836 24.5726 31.0645 23.3998 30.5787 20.9369C30.2248 19.1777 30.8966 16.7147 33.2477 15.7765C33.7479 15.5811 34.2904 15.5126 34.825 15.5771C35.4673 15.692 36.0565 16.0012 36.5094 16.4609C36.9624 16.9207 37.2565 17.5079 37.35 18.1397C37.7458 20.2332 36.8462 22.4674 35.2328 23.3998ZM35.9106 19.4532C35.91 18.9661 35.7337 18.4947 35.4128 18.1221C35.2412 17.8916 34.9932 17.7265 34.711 17.6548C34.4288 17.5832 34.13 17.6095 33.8654 17.7292C32.8098 18.1749 32.0661 19.7934 32.336 20.9838C32.3566 21.1706 32.4187 21.3508 32.5179 21.5117C32.6172 21.6726 32.7512 21.8104 32.9106 21.9154C33.0699 22.0204 33.2508 22.0901 33.4406 22.1196C33.6304 22.1491 33.8245 22.1377 34.0093 22.0862C34.5673 21.8957 35.0504 21.5395 35.3912 21.0675C35.7321 20.5954 35.9137 20.0311 35.9106 19.4532Z" fill="#3A4C89"/>
<path d="M39.3209 23.8924C39.2915 24.107 39.1761 24.3014 39.0001 24.4328C38.824 24.5642 38.6018 24.6219 38.3823 24.5931C38.1628 24.5643 37.964 24.4515 37.8296 24.2794C37.6951 24.1073 37.6362 23.89 37.6656 23.6754C37.695 23.4608 37.8105 23.2664 37.9865 23.1349C38.1625 23.0035 38.3847 22.9459 38.6042 22.9746C38.8237 23.0034 39.0226 23.1162 39.157 23.2883C39.2914 23.4605 39.3504 23.6777 39.3209 23.8924ZM38.7991 15.9817C38.9132 15.8113 39.0805 15.6816 39.2762 15.6119C39.4718 15.5421 39.6853 15.5361 39.8847 15.5946C40.0875 15.6442 40.2666 15.7604 40.3922 15.9238C40.5177 16.0871 40.582 16.2877 40.5744 16.4919C40.548 16.8194 40.4979 17.1447 40.4245 17.4653C40.2266 18.5502 40.0346 19.635 39.8248 20.7081C39.7288 21.1362 39.6028 21.5467 39.4649 21.9806C39.4169 22.1163 39.3367 22.2389 39.231 22.3384C39.1652 22.4132 39.0813 22.4706 38.9868 22.5052C38.8924 22.54 38.7905 22.5508 38.6907 22.5367C38.5908 22.5227 38.4962 22.4843 38.4156 22.425C38.3349 22.3657 38.2709 22.2875 38.2294 22.1976C38.1581 22.0364 38.1193 21.8631 38.1154 21.6875C38.1154 20.9603 38.1154 20.2273 38.1634 19.4943C38.2449 18.4482 38.4053 17.4093 38.6432 16.3863C38.6712 16.2492 38.724 16.1182 38.7991 15.9993V15.9817Z" fill="#3A4C89"/>
<path fill-rule="evenodd" clip-rule="evenodd" d="M11.8946 28.6046C11.8238 28.7592 11.8044 28.9315 11.839 29.0973C11.862 29.3159 11.9126 29.531 11.9895 29.7375C12.0856 29.9904 12.1931 30.2405 12.3257 30.5487C12.3562 30.6196 12.388 30.6936 12.4214 30.7716C12.6001 31.1891 12.8244 31.7228 13.1236 32.4951C13.2083 32.7145 13.2835 32.9357 13.3593 33.1585C13.3898 33.2484 13.4205 33.3387 13.452 33.4292C13.5646 33.7509 13.7584 34.0399 14.0154 34.269C14.1245 34.3949 14.2692 34.4866 14.4314 34.5325C14.5969 34.5793 14.7728 34.5763 14.9365 34.524C15.1001 34.4716 15.2439 34.3723 15.3491 34.239C15.4522 34.1083 15.5135 33.9507 15.5254 33.7862C15.5923 33.4656 15.5695 33.1332 15.4592 32.8241C15.2842 32.3109 15.0849 31.7969 14.855 31.2943L14.854 31.292C14.4758 30.5056 14.0915 29.7246 13.6889 28.9432L13.6859 28.9377C13.568 28.7342 13.4149 28.5522 13.2333 28.4C13.1154 28.2641 12.9528 28.1725 12.7733 28.1409C12.5899 28.1087 12.4007 28.1412 12.2396 28.2327C12.0872 28.3178 11.9664 28.448 11.8946 28.6046Z" fill="#3A4C89"/>
<path fill-rule="evenodd" clip-rule="evenodd" d="M17.6701 26.6681C17.0772 26.5179 16.458 26.496 15.8556 26.604C15.3891 26.6489 14.9302 26.7541 14.6116 26.9626C14.4495 27.0686 14.3185 27.2048 14.2456 27.378C14.1723 27.5521 14.163 27.7511 14.223 27.9729C14.3327 28.3793 14.4751 28.7743 14.617 29.1681L14.6399 29.2319L14.6405 29.2333C15.0677 30.3772 15.499 31.5174 15.9343 32.6535C15.985 32.8326 16.0568 33.0053 16.1481 33.1682L16.1498 33.1713C16.2705 33.3737 16.4253 33.5547 16.6076 33.7067C16.6988 33.7903 16.8116 33.8482 16.9338 33.874C17.0573 33.9001 17.1857 33.8925 17.3051 33.8521C17.4245 33.8117 17.5302 33.74 17.6108 33.6449C17.6901 33.5513 17.742 33.4385 17.761 33.3185C17.8397 32.9924 17.8145 32.6507 17.6888 32.339C17.6495 32.2341 17.6187 32.127 17.5863 32.0141C17.5755 31.9765 17.5645 31.9382 17.553 31.8993C18.5492 31.5185 19.6092 31.0065 19.982 29.8155C20.128 29.4039 20.1401 28.9582 20.0168 28.5395C19.8934 28.1204 19.6401 27.7489 19.292 27.4762C18.8181 27.0944 18.2646 26.8186 17.6701 26.6681ZM16.0267 28.129C16.0463 28.1234 16.066 28.1183 16.0859 28.1135C16.7345 28.0138 17.398 28.1467 17.9544 28.4875C18.1996 28.6542 18.3001 28.8395 18.3173 29.0177C18.3351 29.2013 18.2669 29.4002 18.1298 29.5913C17.8707 29.9525 17.3979 30.2415 16.9708 30.2954C16.6595 29.5944 16.3433 28.8649 16.0267 28.129Z" fill="#3A4C89"/>
<path d="M21.6238 25.3849C22.3299 25.066 23.2045 25.0109 23.8889 25.2351C24.0613 25.2842 24.2108 25.3904 24.312 25.5355C24.4124 25.6797 24.4588 25.8535 24.4433 26.0272C24.4423 26.14 24.414 26.2509 24.3607 26.351C24.3065 26.4529 24.228 26.5405 24.1318 26.6065C24.0357 26.6725 23.9247 26.7149 23.8082 26.73C23.6917 26.7452 23.5733 26.7327 23.4628 26.6937L23.4544 26.6907L23.4465 26.6866C23.3899 26.6577 23.3299 26.6359 23.2678 26.6217L23.2638 26.6209C22.7824 26.4958 22.3282 26.703 22.1624 26.9576C22.0832 27.0789 22.0734 27.2015 22.1393 27.3129C22.2099 27.4323 22.383 27.5662 22.7332 27.6617C22.8295 27.6875 22.9283 27.7125 23.0284 27.7378C23.3053 27.808 23.5931 27.8808 23.8714 27.9817L23.8725 27.9821C25.1564 28.4598 25.6345 29.449 25.4708 30.3794C25.3089 31.2995 24.523 32.1369 23.3411 32.3344C22.9111 32.4276 22.4635 32.4094 22.0428 32.2817C21.621 32.1536 21.2408 31.9199 20.94 31.6036L20.9321 31.5954C20.8372 31.4762 20.7733 31.3362 20.745 31.1877C20.7189 31.0536 20.7326 30.9151 20.7844 30.7884C20.836 30.6625 20.9231 30.5535 21.0355 30.4741C21.1542 30.384 21.2974 30.33 21.4472 30.3187C21.5966 30.3075 21.746 30.3393 21.8771 30.41C22.0081 30.4718 22.1299 30.5508 22.2393 30.6446L22.2413 30.6463C22.4348 30.8193 22.6688 30.8644 22.8932 30.8226C23.1209 30.7803 23.3351 30.6485 23.4728 30.4738C23.6096 30.3001 23.6645 30.0938 23.5993 29.8935C23.5337 29.6917 23.3365 29.4657 22.9032 29.2767C22.7899 29.2297 22.6725 29.1918 22.5503 29.1548C22.5174 29.1449 22.4839 29.135 22.45 29.1249C22.3596 29.0981 22.2667 29.0705 22.1755 29.0401C22.1128 29.0191 22.0505 28.9993 21.9888 28.9797C21.8203 28.926 21.656 28.8737 21.4978 28.8035C21.1536 28.6889 20.8563 28.4689 20.65 28.176C20.4429 27.882 20.3387 27.5304 20.3528 27.1737C20.3539 26.3043 20.9139 25.7055 21.6238 25.3849Z" fill="#3A4C89"/>
<path d="M30.5758 25.2922C30.4389 25.2268 30.2875 25.1958 30.1353 25.2019C29.983 25.208 29.8347 25.2511 29.7038 25.3273C29.5737 25.4029 29.4647 25.5088 29.3867 25.6356C29.3151 25.7424 29.2656 25.8618 29.2409 25.9872C29.2162 26.1125 29.2168 26.2413 29.2426 26.3663C29.2681 26.5269 29.2963 26.6831 29.3242 26.8372C29.3705 27.0922 29.4154 27.3414 29.4451 27.5955L29.4462 27.6019C29.5138 28.0004 29.5491 28.4035 29.5523 28.8074L29.5526 28.8131C29.5757 29.2493 29.4237 29.677 29.1292 30.0054L29.1245 30.0113C29.0287 30.1313 28.9006 30.223 28.7545 30.2759C28.6084 30.3289 28.4502 30.3411 28.2974 30.3111C28.1447 30.2811 28.0035 30.2102 27.8896 30.1062C27.7757 30.0023 27.6936 29.869 27.6526 29.722C27.5651 29.4124 27.5144 29.0938 27.5015 28.7728L27.651 26.4459C27.6532 26.4155 27.6558 26.3843 27.6583 26.3528C27.664 26.2822 27.6698 26.2102 27.6723 26.143C27.6758 26.0443 27.6728 25.9427 27.6492 25.8465C27.6251 25.7482 27.5793 25.6547 27.498 25.5751C27.4176 25.4963 27.3089 25.4381 27.1722 25.3985C26.925 25.3286 26.7159 25.3308 26.5418 25.4031C26.3675 25.4753 26.2481 25.6095 26.1636 25.7645C26.0797 25.9183 26.0259 26.1002 25.9851 26.2825C25.9549 26.4178 25.9306 26.5598 25.9075 26.6949C25.8995 26.7415 25.8917 26.7872 25.8838 26.8316L25.8836 26.8329C25.7601 27.5741 25.7233 28.3267 25.774 29.076C25.7835 29.481 25.8698 29.8807 26.0288 30.2548C26.2081 30.7374 26.5329 31.1556 26.9602 31.4541C27.3885 31.7532 27.8996 31.9181 28.4258 31.9268C28.952 31.9355 29.4686 31.7876 29.907 31.5029C30.3446 31.2186 30.6839 30.8111 30.8797 30.3343C31.1537 29.7269 31.2824 29.0664 31.2558 28.4031C31.2397 27.9188 31.2127 27.4308 31.1859 26.9453C31.1728 26.7071 31.1596 26.4695 31.1479 26.2333C31.1419 25.9964 31.062 25.767 30.9189 25.5758C30.8303 25.455 30.7124 25.3575 30.5758 25.2922Z" fill="#3A4C89"/>
<path d="M35.4206 28.9408C35.4067 28.9581 35.3921 28.9759 35.3768 28.9945C35.2654 28.3664 35.1622 27.7385 35.0589 27.1096C35.0218 26.8839 34.9845 26.6574 34.9471 26.4314L34.9428 26.4062L34.9292 26.3844C34.9033 26.3434 34.9008 26.3033 34.9008 26.2175V26.2076L34.8992 26.1978C34.8713 26.0208 34.7894 25.8561 34.6643 25.7252C34.5395 25.5947 34.3775 25.5039 34.1993 25.4644C34.0214 25.4215 33.8345 25.431 33.662 25.4916C33.49 25.5522 33.34 25.6609 33.2309 25.8042C33.1402 25.9143 33.0658 26.0363 33.01 26.1666C32.8835 26.4475 32.7559 26.7291 32.628 27.0114L32.6258 27.0163C32.3063 27.7211 31.9847 28.4307 31.6725 29.1458L31.6715 29.1481C31.4798 29.6118 31.3216 30.1004 31.1639 30.5875C31.1324 30.6847 31.1009 30.7819 31.0692 30.8788C31.0122 31.0325 30.9873 31.1958 30.9959 31.359C30.9855 31.5051 31.0213 31.6509 31.0985 31.7766C31.1771 31.9049 31.295 32.0057 31.4353 32.0652C31.5841 32.1289 31.7505 32.1425 31.908 32.1036C32.0653 32.0648 32.2049 31.9761 32.305 31.8514C32.4327 31.6977 32.5426 31.5301 32.6322 31.3526C32.8968 30.8235 33.1496 30.2881 33.4012 29.7549C33.4986 29.5487 33.5932 29.364 33.7008 29.1629C33.7082 29.1876 33.7158 29.2118 33.7236 29.2361C33.8364 29.7217 34.0268 30.1869 34.2878 30.6145C34.3372 30.7051 34.406 30.7843 34.4895 30.8466C34.574 30.9097 34.6715 30.9539 34.7753 30.9764C34.8791 30.9989 34.9866 30.999 35.0904 30.9767C35.1941 30.9545 35.2919 30.9102 35.3765 30.8474L35.5438 30.7249L36.8426 29.6552L36.7658 30.1338C36.6604 30.7917 36.5558 31.444 36.4446 32.0965C36.3719 32.3858 36.372 32.6878 36.4449 32.977C36.4765 33.1397 36.557 33.2895 36.6761 33.4073C36.7962 33.526 36.95 33.6067 37.1176 33.6389C37.2852 33.671 37.4588 33.6532 37.6159 33.5877C37.7707 33.5231 37.9024 33.4152 37.9945 33.2776C38.2086 33.0178 38.3419 32.7033 38.3785 32.3715C38.4337 31.9029 38.4959 31.428 38.5583 30.9532C38.63 30.4059 38.7018 29.8587 38.7624 29.3221L38.7626 29.3204C38.821 28.733 38.8492 28.1432 38.8472 27.553C38.86 27.3665 38.8125 27.1807 38.7113 27.0219C38.6098 26.8625 38.4594 26.7386 38.2816 26.6678C38.0967 26.5856 37.8897 26.5636 37.6911 26.6051C37.4938 26.6464 37.3152 26.7481 37.1812 26.8954C36.9416 27.112 36.7169 27.3439 36.5084 27.5894L36.507 27.591C36.2794 27.8683 36.0534 28.1511 35.8288 28.432C35.6922 28.6027 35.5561 28.7731 35.4206 28.9408Z" fill="#3A4C89"/>
</g>
<path d="M51.451 6.625V1H1.28711V6.625M51.451 40.375V46H1.28711V40.375" stroke="#3A4C89" stroke-width="0.737705"/>
<defs>
<clipPath id="clip0_279_7687">
<rect width="35.2086" height="22.1311" fill="white" transform="translate(8.66406 12.4344)"/>
</clipPath>
</defs>
</svg>
