<svg clip-rule="evenodd" fill-rule="evenodd" stroke-linejoin="round" stroke-miterlimit="2" viewBox="0 0 560 400" xmlns="http://www.w3.org/2000/svg"><g fill="#0f5fdc" fill-rule="nonzero" transform="matrix(3.214 0 0 3.214 34.1259 155)"><path d="m21.291.313v27.302h-5.893v-11.427h-9.543v11.427h-5.855v-27.302h5.855v10.842h9.543v-10.842z"/><path d="m24.474 13.964c0-9.204 5.953-13.964 12.739-13.964 6.39 0 11.07 3.901 11.761 9.79h-5.699c-.363-2.846-2.868-4.76-6.062-4.76-4.102 0-7.261 3.082-7.261 8.931 0 5.85 3.159 8.895 7.261 8.895 3.268 0 5.771-1.911 6.208-4.72h5.446c-.472 5.851-5.155 9.79-11.651 9.79-6.896 0-12.742-4.76-12.742-13.965z"/><path d="m78.271 5.415h-8.081v-5.03h22.014v5.03h-8.081v22.272h-5.855v-22.272z"/><path d="m108.931 21.019c-.78 4.251-4.527 6.984-9.367 6.984-6.675 0-10.109-5.227-10.109-10.18s3.044-10.103 9.719-10.103 9.719 5.11 9.719 9.597c0 .742-.039 1.325-.077 1.754h-14.129c.39 2.77 2.145 4.487 4.879 4.487 2.186 0 3.631-.859 4.06-2.536h5.31zm-14.17-5.382h8.704c-.156-2.184-1.679-3.941-4.293-3.941-2.459 0-3.944 1.208-4.411 3.941z"/><path d="m111.458 17.858c0-5.733 4.061-10.143 10.149-10.143 5.153 0 9.25 3.12 9.603 7.683h-5.466c-.313-1.754-1.991-3.042-3.98-3.042-2.928 0-4.644 2.3-4.644 5.499s1.756 5.462 4.723 5.462c1.992 0 3.591-1.208 3.981-2.965h5.542c-.586 4.367-4.643 7.645-9.756 7.645-6.089 0-10.149-4.407-10.149-10.142z"/><path d="m134.267.352h5.425v10.408c1.133-1.911 3.278-3.042 6.012-3.042 4.41 0 7.298 3.199 7.298 7.723v12.246h-5.425v-11.038c0-2.38-1.562-4.094-3.825-4.094-2.381 0-4.06 1.833-4.06 4.367v10.765h-5.425z"/><path d="m58.273 22.545v-22.232h-5.855v22.076c0 3.392 1.835 5.226 5.23 5.226h12.51v-5.07z"/></g></svg><svg clip-rule="evenodd" fill-rule="evenodd" stroke-linejoin="round" stroke-miterlimit="2" viewBox="0 0 560 400" xmlns="http://www.w3.org/2000/svg"><g fill="#0f5fdc" fill-rule="nonzero" transform="matrix(3.214 0 0 3.214 34.1259 155)"><path d="m21.291.313v27.302h-5.893v-11.427h-9.543v11.427h-5.855v-27.302h5.855v10.842h9.543v-10.842z"/><path d="m24.474 13.964c0-9.204 5.953-13.964 12.739-13.964 6.39 0 11.07 3.901 11.761 9.79h-5.699c-.363-2.846-2.868-4.76-6.062-4.76-4.102 0-7.261 3.082-7.261 8.931 0 5.85 3.159 8.895 7.261 8.895 3.268 0 5.771-1.911 6.208-4.72h5.446c-.472 5.851-5.155 9.79-11.651 9.79-6.896 0-12.742-4.76-12.742-13.965z"/><path d="m78.271 5.415h-8.081v-5.03h22.014v5.03h-8.081v22.272h-5.855v-22.272z"/><path d="m108.931 21.019c-.78 4.251-4.527 6.984-9.367 6.984-6.675 0-10.109-5.227-10.109-10.18s3.044-10.103 9.719-10.103 9.719 5.11 9.719 9.597c0 .742-.039 1.325-.077 1.754h-14.129c.39 2.77 2.145 4.487 4.879 4.487 2.186 0 3.631-.859 4.06-2.536h5.31zm-14.17-5.382h8.704c-.156-2.184-1.679-3.941-4.293-3.941-2.459 0-3.944 1.208-4.411 3.941z"/><path d="m111.458 17.858c0-5.733 4.061-10.143 10.149-10.143 5.153 0 9.25 3.12 9.603 7.683h-5.466c-.313-1.754-1.991-3.042-3.98-3.042-2.928 0-4.644 2.3-4.644 5.499s1.756 5.462 4.723 5.462c1.992 0 3.591-1.208 3.981-2.965h5.542c-.586 4.367-4.643 7.645-9.756 7.645-6.089 0-10.149-4.407-10.149-10.142z"/><path d="m134.267.352h5.425v10.408c1.133-1.911 3.278-3.042 6.012-3.042 4.41 0 7.298 3.199 7.298 7.723v12.246h-5.425v-11.038c0-2.38-1.562-4.094-3.825-4.094-2.381 0-4.06 1.833-4.06 4.367v10.765h-5.425z"/><path d="m58.273 22.545v-22.232h-5.855v22.076c0 3.392 1.835 5.226 5.23 5.226h12.51v-5.07z"/></g></svg><svg clip-rule="evenodd" fill-rule="evenodd" stroke-linejoin="round" stroke-miterlimit="2" viewBox="0 0 560 400" xmlns="http://www.w3.org/2000/svg"><g fill="#0f5fdc" fill-rule="nonzero" transform="matrix(3.214 0 0 3.214 34.1259 155)"><path d="m21.291.313v27.302h-5.893v-11.427h-9.543v11.427h-5.855v-27.302h5.855v10.842h9.543v-10.842z"/><path d="m24.474 13.964c0-9.204 5.953-13.964 12.739-13.964 6.39 0 11.07 3.901 11.761 9.79h-5.699c-.363-2.846-2.868-4.76-6.062-4.76-4.102 0-7.261 3.082-7.261 8.931 0 5.85 3.159 8.895 7.261 8.895 3.268 0 5.771-1.911 6.208-4.72h5.446c-.472 5.851-5.155 9.79-11.651 9.79-6.896 0-12.742-4.76-12.742-13.965z"/><path d="m78.271 5.415h-8.081v-5.03h22.014v5.03h-8.081v22.272h-5.855v-22.272z"/><path d="m108.931 21.019c-.78 4.251-4.527 6.984-9.367 6.984-6.675 0-10.109-5.227-10.109-10.18s3.044-10.103 9.719-10.103 9.719 5.11 9.719 9.597c0 .742-.039 1.325-.077 1.754h-14.129c.39 2.77 2.145 4.487 4.879 4.487 2.186 0 3.631-.859 4.06-2.536h5.31zm-14.17-5.382h8.704c-.156-2.184-1.679-3.941-4.293-3.941-2.459 0-3.944 1.208-4.411 3.941z"/><path d="m111.458 17.858c0-5.733 4.061-10.143 10.149-10.143 5.153 0 9.25 3.12 9.603 7.683h-5.466c-.313-1.754-1.991-3.042-3.98-3.042-2.928 0-4.644 2.3-4.644 5.499s1.756 5.462 4.723 5.462c1.992 0 3.591-1.208 3.981-2.965h5.542c-.586 4.367-4.643 7.645-9.756 7.645-6.089 0-10.149-4.407-10.149-10.142z"/><path d="m134.267.352h5.425v10.408c1.133-1.911 3.278-3.042 6.012-3.042 4.41 0 7.298 3.199 7.298 7.723v12.246h-5.425v-11.038c0-2.38-1.562-4.094-3.825-4.094-2.381 0-4.06 1.833-4.06 4.367v10.765h-5.425z"/><path d="m58.273 22.545v-22.232h-5.855v22.076c0 3.392 1.835 5.226 5.23 5.226h12.51v-5.07z"/></g></svg><svg clip-rule="evenodd" fill-rule="evenodd" stroke-linejoin="round" stroke-miterlimit="2" viewBox="0 0 560 400" xmlns="http://www.w3.org/2000/svg"><g fill="#0f5fdc" fill-rule="nonzero" transform="matrix(3.214 0 0 3.214 34.1259 155)"><path d="m21.291.313v27.302h-5.893v-11.427h-9.543v11.427h-5.855v-27.302h5.855v10.842h9.543v-10.842z"/><path d="m24.474 13.964c0-9.204 5.953-13.964 12.739-13.964 6.39 0 11.07 3.901 11.761 9.79h-5.699c-.363-2.846-2.868-4.76-6.062-4.76-4.102 0-7.261 3.082-7.261 8.931 0 5.85 3.159 8.895 7.261 8.895 3.268 0 5.771-1.911 6.208-4.72h5.446c-.472 5.851-5.155 9.79-11.651 9.79-6.896 0-12.742-4.76-12.742-13.965z"/><path d="m78.271 5.415h-8.081v-5.03h22.014v5.03h-8.081v22.272h-5.855v-22.272z"/><path d="m108.931 21.019c-.78 4.251-4.527 6.984-9.367 6.984-6.675 0-10.109-5.227-10.109-10.18s3.044-10.103 9.719-10.103 9.719 5.11 9.719 9.597c0 .742-.039 1.325-.077 1.754h-14.129c.39 2.77 2.145 4.487 4.879 4.487 2.186 0 3.631-.859 4.06-2.536h5.31zm-14.17-5.382h8.704c-.156-2.184-1.679-3.941-4.293-3.941-2.459 0-3.944 1.208-4.411 3.941z"/><path d="m111.458 17.858c0-5.733 4.061-10.143 10.149-10.143 5.153 0 9.25 3.12 9.603 7.683h-5.466c-.313-1.754-1.991-3.042-3.98-3.042-2.928 0-4.644 2.3-4.644 5.499s1.756 5.462 4.723 5.462c1.992 0 3.591-1.208 3.981-2.965h5.542c-.586 4.367-4.643 7.645-9.756 7.645-6.089 0-10.149-4.407-10.149-10.142z"/><path d="m134.267.352h5.425v10.408c1.133-1.911 3.278-3.042 6.012-3.042 4.41 0 7.298 3.199 7.298 7.723v12.246h-5.425v-11.038c0-2.38-1.562-4.094-3.825-4.094-2.381 0-4.06 1.833-4.06 4.367v10.765h-5.425z"/><path d="m58.273 22.545v-22.232h-5.855v22.076c0 3.392 1.835 5.226 5.23 5.226h12.51v-5.07z"/></g></svg>