<svg width="56" height="47" viewBox="0 0 56 47" fill="none" xmlns="http://www.w3.org/2000/svg">
<g clip-path="url(#clip0_279_7719)">
<path d="M17.1857 15.7542C15.6394 15.7542 14.1565 16.3684 13.0631 17.4618L9.49475 21.0301C8.40137 22.1235 7.78711 23.6065 7.78711 25.1528C7.78711 28.3727 10.3974 30.983 13.6174 30.983C15.1637 30.983 16.6466 30.3687 17.74 29.2754L20.2082 26.8071C20.2082 26.8071 20.2083 26.8072 20.2082 26.8071L27.3999 19.6155C27.9221 19.0933 28.6303 18.7999 29.3688 18.7999C30.6052 18.7999 31.6534 19.6057 32.0168 20.7208L34.2865 18.4512C33.2511 16.8295 31.4355 15.7542 29.3688 15.7542C27.8225 15.7542 26.3396 16.3684 25.2462 17.4618L15.5863 27.1217C15.0641 27.6439 14.3559 27.9373 13.6174 27.9373C12.0795 27.9373 10.8329 26.6906 10.8329 25.1528C10.8329 24.4143 11.1262 23.706 11.6484 23.1838L15.2168 19.6155C15.739 19.0933 16.4472 18.7999 17.1857 18.7999C18.4221 18.7999 19.4703 19.6058 19.8337 20.7209L22.1034 18.4512C21.068 16.8295 19.2525 15.7542 17.1857 15.7542Z" fill="#3A4C89"/>
<path d="M27.7692 27.1217C27.247 27.6439 26.5388 27.9373 25.8003 27.9373C24.564 27.9373 23.5159 27.1316 23.1524 26.0167L20.8828 28.2864C21.9183 29.9078 23.7337 30.983 25.8003 30.983C27.3466 30.983 28.8295 30.3687 29.9229 29.2754L39.5828 19.6155C40.105 19.0933 40.8132 18.7999 41.5517 18.7999C43.0896 18.7999 44.3362 20.0466 44.3362 21.5844C44.3362 22.3229 44.0428 23.0312 43.5206 23.5534L39.9523 27.1217C39.4301 27.6439 38.7219 27.9373 37.9834 27.9373C36.747 27.9373 35.6989 27.1315 35.3354 26.0165L33.0658 28.2861C34.1012 29.9078 35.9167 30.983 37.9834 30.983C39.5297 30.983 41.0126 30.3687 42.106 29.2754L45.6743 25.707C46.7677 24.6137 47.382 23.1307 47.382 21.5844C47.382 18.3645 44.7717 15.7542 41.5517 15.7542C40.0054 15.7542 38.5225 16.3684 37.4291 17.4618L27.7692 27.1217Z" fill="#3A4C89"/>
</g>
<path d="M55.0003 6.625V1H0.410156V6.625M55.0003 40.375V46H0.410156V40.375" stroke="#3A4C89" stroke-width="0.737705"/>
<defs>
<clipPath id="clip0_279_7719">
<rect width="39.5951" height="15.2289" fill="white" transform="translate(7.78711 15.7542)"/>
</clipPath>
</defs>
</svg>
