<?xml version="1.0" encoding="UTF-8"?><svg id="Layer_2" xmlns="http://www.w3.org/2000/svg" viewBox="0 0 643.84 170.28"><defs><style>.cls-1{fill:#d40511;stroke-width:0px;}</style></defs><g id="katman_1"><polygon class="cls-1" points="0 72.6 87.07 72.6 82.31 79.07 0 79.07 0 72.6"/><polygon class="cls-1" points="0 60.59 95.91 60.59 91.15 67.05 0 67.05 0 60.59"/><polygon class="cls-1" points="0 84.62 78.23 84.62 73.49 91.04 0 91.04 0 84.62"/><polygon class="cls-1" points="643.84 79.07 557.11 79.07 561.86 72.6 643.84 72.6 643.84 79.07"/><polygon class="cls-1" points="643.84 91.04 548.29 91.05 553.02 84.62 643.84 84.62 643.84 91.04"/><polygon class="cls-1" points="570.7 60.59 643.84 60.59 643.84 67.06 565.94 67.06 570.7 60.59"/><path class="cls-1" d="m84.33,91.04l41.32-56.13h51.27c5.67,0,5.59,2.15,2.82,5.9-2.81,3.81-7.6,10.36-10.46,14.23-1.45,1.96-4.08,5.55,4.63,5.55h68.69c-5.71,7.83-24.24,30.45-57.51,30.45h-100.76Z"/><path class="cls-1" d="m320.95,60.59l-22.4,30.46h-59.1s22.39-30.45,22.41-30.45h59.09Z"/><path class="cls-1" d="m406.42,60.59l-22.42,30.45h-59.08s22.4-30.45,22.42-30.45h59.08Z"/><path class="cls-1" d="m425.64,60.59s-4.32,5.9-6.41,8.74c-7.42,10.03-.86,21.71,23.36,21.71h94.88l22.41-30.45h-134.24Z"/><path class="cls-1" d="m113.22,0l-20.57,27.95h112.11c5.67,0,5.59,2.15,2.82,5.9-2.81,3.81-7.52,10.43-10.38,14.3-1.45,1.96-4.08,5.54,4.63,5.54h45.85s7.39-10.06,13.58-18.46C269.69,23.79,261.99,0,231.86,0h-118.64Z"/><polygon class="cls-1" points="411.49 53.7 266.93 53.7 306.46 0 365.55 0 342.89 30.79 369.26 30.79 391.94 0 451.01 0 411.49 53.7"/><path class="cls-1" d="m532.83,0l-39.52,53.69h-62.61S470.24,0,470.25,0h62.58Z"/><path class="cls-1" d="m423.23,158.97c-5.9,0-10.49-1.81-13.77-5.43-3.27-3.62-4.91-8.64-4.91-15.06v-3.75c0-4.26.8-7.92,2.39-10.95,1.59-3.04,3.84-5.36,6.72-6.98,2.89-1.62,6.27-2.42,10.15-2.42,3.1,0,5.88.53,8.34,1.58,2.46,1.06,4.59,2.6,6.4,4.62l-5.68,6.01c-1.42-1.42-2.87-2.41-4.33-2.97-1.47-.56-2.99-.84-4.59-.84-3.1,0-5.48,1.05-7.14,3.13-1.66,2.09-2.49,5.16-2.49,9.21v2.97c0,4.05.77,7.14,2.3,9.27,1.53,2.13,3.76,3.2,6.69,3.2,2.67,0,4.73-.88,6.17-2.65s2.16-4.05,2.16-6.85h-8.53v-7.88h18.03v7.5c0,3.84-.73,7.12-2.2,9.85-1.46,2.74-3.53,4.83-6.2,6.27s-5.85,2.17-9.51,2.17h0Z"/><path class="cls-1" d="m448.3,158v-32.96h8.85v8.21c.47-1.46,1.11-2.85,1.91-4.17.8-1.31,1.83-2.39,3.1-3.23,1.27-.84,2.85-1.26,4.75-1.26.39,0,.74.01,1.07.03.32.02.72.08,1.2.16v8.66c-.35-.04-.72-.07-1.13-.1-.41-.02-.81-.03-1.2-.03-2.37,0-4.31.45-5.82,1.36s-2.63,1.87-3.36,2.91v20.42h-9.37Z"/><path class="cls-1" d="m488.3,158.78c-4.91,0-8.78-1.42-11.6-4.26-2.82-2.84-4.23-6.74-4.23-11.7v-2.59c0-4.95,1.41-8.85,4.23-11.7,2.82-2.84,6.69-4.27,11.6-4.27s8.78,1.42,11.6,4.27c2.82,2.84,4.23,6.74,4.23,11.7v2.59c0,4.95-1.41,8.85-4.23,11.7-2.83,2.84-6.69,4.26-11.6,4.26Zm0-7.82c2.03,0,3.61-.69,4.75-2.07s1.71-3.47,1.71-6.27v-2.2c0-2.8-.57-4.89-1.71-6.27-1.14-1.38-2.72-2.07-4.75-2.07s-3.61.69-4.75,2.07-1.71,3.47-1.71,6.27v2.2c0,2.8.57,4.89,1.71,6.27,1.14,1.38,2.72,2.07,4.75,2.07Z"/><path class="cls-1" d="m520.67,158.65c-3.23,0-5.71-1.14-7.43-3.42s-2.58-5.51-2.58-9.69v-20.48h9.37v19.9c0,1.77.38,3.17,1.13,4.2s1.95,1.55,3.59,1.55c1.2,0,2.26-.29,3.17-.87s1.64-1.32,2.2-2.23v-22.55h9.37v32.96h-8.85v-5.75c-.99,1.9-2.32,3.44-3.97,4.62s-3.67,1.76-6,1.76h0Z"/><path class="cls-1" d="m548,170.28v-45.23h8.85v5.68c.9-1.98,2.21-3.53,3.91-4.65,1.7-1.12,3.65-1.68,5.85-1.68,3.7,0,6.6,1.41,8.69,4.23s3.13,6.69,3.13,11.6v2.59c0,4.91-1.04,8.78-3.13,11.6s-4.99,4.23-8.69,4.23c-4.27,0-7.35-1.98-9.24-5.95v17.58h-9.37Zm15.06-38c-2.37,0-4.27,1.01-5.69,3.04v12.47c1.42,1.98,3.32,2.97,5.69,2.97,1.94,0,3.42-.7,4.46-2.1,1.03-1.4,1.55-3.41,1.55-6.04v-2.2c0-2.63-.52-4.64-1.55-6.04-1.04-1.4-2.52-2.1-4.46-2.1h0Z"/></g></svg>