<?xml version="1.0" encoding="UTF-8"?><svg id="Layer_2" xmlns="http://www.w3.org/2000/svg" xmlns:xlink="http://www.w3.org/1999/xlink" viewBox="0 0 610.08 168.39"><defs><style>.cls-1{fill:url(#linear-gradient);}.cls-1,.cls-2,.cls-3,.cls-4,.cls-5,.cls-6,.cls-7,.cls-8,.cls-9,.cls-10{stroke-width:0px;}.cls-2{fill:url(#linear-gradient-6);}.cls-3{fill:url(#linear-gradient-5);}.cls-4{fill:url(#linear-gradient-2);}.cls-5{fill:#007dc5;}.cls-6{fill:url(#linear-gradient-7);}.cls-7{fill:url(#linear-gradient-3);}.cls-8{fill:url(#linear-gradient-9);}.cls-9{fill:url(#linear-gradient-8);}.cls-10{fill:url(#linear-gradient-4);}</style><linearGradient id="linear-gradient" x1="11.68" y1="164.63" x2="11.68" y2="116.46" gradientTransform="translate(0 171.06) scale(1 -1)" gradientUnits="userSpaceOnUse"><stop offset="0" stop-color="#ffc708"/><stop offset="1" stop-color="#f05731"/><stop offset="1" stop-color="#f05731"/></linearGradient><linearGradient id="linear-gradient-2" x1="38.16" y1="127.61" x2="25.57" y2="36.46" gradientTransform="translate(0 171.06) scale(1 -1)" gradientUnits="userSpaceOnUse"><stop offset="0" stop-color="#f80000"/><stop offset="1" stop-color="#ee3984"/></linearGradient><linearGradient id="linear-gradient-3" x1="20.67" y1="19.78" x2="86.63" y2="40.71" gradientTransform="translate(0 171.06) scale(1 -1)" gradientUnits="userSpaceOnUse"><stop offset="0" stop-color="#ee3984"/><stop offset="1" stop-color="#7800da"/><stop offset="1" stop-color="#7800da"/></linearGradient><linearGradient id="linear-gradient-4" x1="110.32" y1="102.31" x2="134.42" y2="17.33" gradientTransform="translate(0 171.06) scale(1 -1)" gradientUnits="userSpaceOnUse"><stop offset="0" stop-color="red"/><stop offset="1" stop-color="#ee3984"/><stop offset="1" stop-color="#ee3984"/></linearGradient><linearGradient id="linear-gradient-5" x1="61.08" y1="102.07" x2="167.42" y2="102.07" gradientTransform="translate(0 171.06) scale(1 -1)" gradientUnits="userSpaceOnUse"><stop offset="0" stop-color="#ffc708"/><stop offset="1" stop-color="#fa3b00"/></linearGradient><linearGradient id="linear-gradient-6" x1="194.89" y1="70.56" x2="268.38" y2="70.56" gradientTransform="translate(0 171.06) scale(1 -1)" gradientUnits="userSpaceOnUse"><stop offset="0" stop-color="red"/><stop offset="1" stop-color="#ee3984"/></linearGradient><linearGradient id="linear-gradient-7" x1="254.18" y1="35.09" x2="189.49" y2="17.96" gradientTransform="translate(0 171.06) scale(1 -1)" gradientUnits="userSpaceOnUse"><stop offset="0" stop-color="#ee3984"/><stop offset="1" stop-color="#7800da"/></linearGradient><linearGradient id="linear-gradient-8" x1="202.93" y1="111.56" x2="264.74" y2="111.56" gradientTransform="translate(0 171.06) scale(1 -1)" gradientUnits="userSpaceOnUse"><stop offset="0" stop-color="#ffc708"/><stop offset="1" stop-color="#f05731"/><stop offset="1" stop-color="#f05731"/></linearGradient><linearGradient id="linear-gradient-9" x1="121.92" y1="32.55" x2="166.95" y2="106.12" xlink:href="#linear-gradient-7"/></defs><g id="Layer_1-2"><polygon class="cls-5" points="312.75 70.54 325.62 70.54 325.62 47.58 334.75 47.58 334.75 38.3 303.62 38.3 303.62 47.58 312.75 47.58 312.75 70.54"/><polygon class="cls-5" points="344.24 70.54 350.8 51.26 357.35 70.54 369.94 70.54 357.6 38.3 343.99 38.3 331.66 70.54 344.24 70.54"/><polygon class="cls-5" points="375.98 70.54 388.85 70.54 388.85 47.58 397.98 47.58 397.98 38.3 366.85 38.3 366.85 47.58 375.98 47.58 375.98 70.54"/><polygon class="cls-5" points="407.47 70.54 414.03 51.26 420.58 70.54 433.17 70.54 420.84 38.3 407.22 38.3 394.89 70.54 407.47 70.54"/><path class="cls-5" d="m530.98,93.59c1.59,3.65,3.69,7.6,5.78,11.12l8.42,14.18h6.1v-32.24h-5.45v11.25c0,4.93.11,9.08.53,13.36l-.11.03c-1.49-3.5-3.36-7.25-5.49-10.8l-8.33-13.84h-6.73v32.24h5.44v-11.53c0-5.29-.08-9.55-.31-13.74l.15-.03Z"/><path class="cls-5" d="m501.75,109.78h10.24l2.92,9.11h6.32l-10.47-32.24h-7.49l-10.35,32.24h6.09l2.74-9.11Zm3.45-12.41c.57-1.92,1.06-4.15,1.53-6.04h.1c.49,1.87,1.02,4.07,1.63,6.06l2.54,7.95h-8.31l2.51-7.97Z"/><path class="cls-5" d="m405.77,114.52c-3,0-5.89-.96-7.79-2.06l-1.31,4.88c1.76,1.08,5.3,2.06,8.71,2.06,8.32,0,12.23-4.5,12.23-9.69,0-4.63-2.69-7.45-8.29-9.58-4.3-1.64-6.17-2.81-6.17-5.28,0-1.9,1.59-3.88,5.33-3.88,3.03,0,5.28.92,6.44,1.53l1.41-4.75c-1.68-.85-4.24-1.59-7.73-1.59-6.99,0-11.41,3.98-11.41,9.26,0,4.62,3.4,7.48,8.73,9.37,4.07,1.48,5.71,2.92,5.71,5.35,0,2.62-2.11,4.38-5.86,4.38Z"/><path class="cls-5" d="m321.13,91.01c2.63,0,4.78.58,6.28,1.26l1.28-4.69c-1.2-.65-3.93-1.43-7.81-1.43-9.85,0-17.26,6.4-17.26,17,0,9.81,6.23,16.25,16.46,16.25,3.9,0,6.97-.77,8.36-1.47l-.97-4.64c-1.55.7-4.04,1.17-6.43,1.17-7.09,0-11.22-4.5-11.22-11.61,0-7.74,4.73-11.84,11.31-11.84Z"/><polygon class="cls-5" points="485.74 118.89 485.74 91.6 495.03 91.6 495.03 86.65 470.64 86.65 470.64 91.6 479.85 91.6 479.85 118.89 485.74 118.89"/><path class="cls-5" d="m603.44,86.65l-3.88,8.26c-1.1,2.34-1.99,4.34-2.79,6.4h-.1c-.88-2.18-1.72-4.02-2.81-6.39l-3.84-8.27h-6.74l10.2,18.82v13.42h5.89v-13.58l10.71-18.65h-6.64Z"/><path class="cls-5" d="m345.76,86.13c-9.1,0-15.35,6.99-15.35,16.89s5.76,16.41,14.88,16.41h.05c8.83,0,15.38-6.18,15.38-16.98-.02-9.22-5.56-16.32-14.96-16.32Zm-.23,28.58h-.05c-5.63,0-8.92-5.42-8.9-11.83-.01-6.43,3.09-12.04,8.97-12.04s8.9,5.75,8.9,11.83c-.01,6.74-3.23,12.04-8.92,12.04Z"/><path class="cls-5" d="m573.86,91.01c2.63,0,4.78.58,6.28,1.26l1.28-4.69c-1.2-.65-3.93-1.43-7.81-1.43-9.85,0-17.26,6.4-17.26,17,0,9.81,6.23,16.25,16.46,16.25,3.9,0,6.97-.76,8.36-1.47l-.97-4.64c-1.55.7-4.04,1.17-6.43,1.17-7.09,0-11.22-4.5-11.22-11.61,0-7.74,4.73-11.84,11.31-11.84Z"/><polygon class="cls-5" points="460.65 86.65 454.76 86.65 454.76 118.89 473.91 118.89 473.91 113.95 460.65 113.95 460.65 86.65"/><path class="cls-5" d="m448.06,105.07v-18.41h-5.89v18.8c0,6.32-2.55,9.23-6.79,9.23-3.99,0-6.61-2.93-6.61-9.23v-18.8h-5.89v18.45c0,10.14,4.85,14.33,12.28,14.33,7.79,0,12.9-4.44,12.9-14.37Z"/><path class="cls-5" d="m391.33,86.65h-5.45v11.25c0,4.93.11,9.08.53,13.36l-.11.03c-1.49-3.5-3.36-7.25-5.49-10.8l-8.33-13.84h-6.73v32.24h5.45v-11.53c0-5.29-.08-9.55-.31-13.73l.15-.03c1.59,3.65,3.69,7.6,5.78,11.12l8.42,14.18h6.1v-32.25h-.01Z"/><rect class="cls-5" x="410.64" y="135.01" width="5.89" height="32.24"/><path class="cls-5" d="m370.15,152.13v-.13c3.01-1.07,5.81-3.87,5.81-7.99,0-2.74-1-4.96-2.75-6.42-2.16-1.8-5.88-2.58-9.87-2.58s-6.63.28-8.86.69v31.55h5.8v-13.15h2.94c3.32.08,4.84,1.43,5.76,5.6.89,3.98,1.66,6.62,2.15,7.55h6c-.64-1.25-1.51-4.92-2.52-8.92-.8-3.11-2.14-5.32-4.46-6.2Zm-6.41-2.32h-3.46v-10.11c.59-.15,1.78-.29,3.63-.29,3.78,0,6.23,1.64,6.23,5.13,0,3.18-2.44,5.27-6.4,5.27Z"/><path class="cls-5" d="m396.2,149.75c-1.25,3.91-2.42,7.85-3.28,11.65h-.1c-.84-3.9-1.94-7.67-3.16-11.74l-4.4-14.66h-6.42l10.43,32.24h6.75l11.14-32.24h-6.27l-4.69,14.75Z"/><polygon class="cls-5" points="457.28 152.94 469.43 152.94 469.43 148.14 457.28 148.14 457.28 139.85 470.15 139.85 470.15 135.01 451.39 135.01 451.39 167.24 470.86 167.24 470.86 162.4 457.28 162.4 457.28 152.94"/><path class="cls-5" d="m439.1,139.36c2.63,0,4.78.58,6.28,1.26l1.28-4.69c-1.2-.65-3.93-1.43-7.81-1.43-9.85,0-17.26,6.4-17.26,17,0,9.81,6.23,16.25,16.46,16.25,3.9,0,6.97-.76,8.36-1.47l-.97-4.64c-1.56.7-4.04,1.17-6.43,1.17-7.09,0-11.22-4.5-11.22-11.61,0-7.74,4.73-11.84,11.31-11.84Z"/><path class="cls-5" d="m316.27,148.48c-4.31-1.64-6.17-2.81-6.17-5.28,0-1.9,1.59-3.88,5.32-3.88,3.03,0,5.28.92,6.44,1.53l1.41-4.75c-1.68-.85-4.24-1.59-7.73-1.59-6.99,0-11.41,3.98-11.41,9.26,0,4.62,3.4,7.48,8.73,9.37,4.07,1.48,5.71,2.92,5.71,5.35,0,2.64-2.1,4.4-5.86,4.4-3,0-5.89-.96-7.79-2.06l-1.31,4.88c1.76,1.08,5.3,2.06,8.71,2.06,8.32,0,12.23-4.5,12.23-9.69,0-4.65-2.68-7.47-8.28-9.6Z"/><polygon class="cls-5" points="335.74 152.94 347.89 152.94 347.89 148.14 335.74 148.14 335.74 139.85 348.62 139.85 348.62 135.01 329.85 135.01 329.85 167.24 349.33 167.24 349.33 162.4 335.74 162.4 335.74 152.94"/><path class="cls-5" d="m487.26,148.48c-4.3-1.64-6.17-2.81-6.17-5.28,0-1.9,1.59-3.88,5.32-3.88,3.03,0,5.28.92,6.44,1.53l1.41-4.75c-1.68-.85-4.24-1.59-7.73-1.59-6.99,0-11.41,3.98-11.41,9.26,0,4.62,3.4,7.48,8.73,9.37,4.07,1.48,5.71,2.92,5.71,5.35,0,2.64-2.1,4.4-5.86,4.4-3,0-5.89-.96-7.79-2.06l-1.31,4.88c1.76,1.08,5.3,2.06,8.71,2.06,8.32,0,12.23-4.5,12.23-9.69,0-4.65-2.68-7.47-8.28-9.6Z"/><path class="cls-1" d="m0,60.35c0-14.6,9.49-23.36,23.36-23.36V12.17C23.36,4.87,18.49,0,11.68,0S0,4.87,0,12.17v48.18Z"/><path class="cls-4" d="m41.37,168.14c5.84,0,11.19-.97,16.06-2.68-24.58,4.14-34.07-12.65-34.07-31.63V55.97h28.47c6.57,0,10.95-3.89,10.95-9.49s-4.38-9.49-10.95-9.49h-28.47C9.49,36.99,0,45.75,0,60.35v66.91c0,26.77,15.33,40.88,41.37,40.88Z"/><path class="cls-7" d="m57.43,165.46c9.73-3.65,17.28-10.46,22.14-20.44l-10.95-19.71c-4.87,14.6-13.38,22.39-25.06,22.39s-20.2-7.06-20.2-23.12v9.25c0,18.98,9.49,35.77,34.07,31.63Z"/><path class="cls-10" d="m157.43,161.57c-55.48,8.27-73-21.41-73-59.61,0-27.74,17.03-46.72,41.61-46.72,9,0,16.55,1.95,23.36,5.11,3.16,1.46,5.84,1.95,8.27,1.95,5.84,0,9.73-3.89,9.73-9.73,0-3.65-2.19-7.3-7.3-9.73-9.25-4.62-21.17-7.3-34.07-7.3-38.45,0-64.97,27.25-64.97,66.91s25.55,65.94,66.67,65.94c11.21,0,20.94-2.2,29.7-6.82Z"/><path class="cls-3" d="m61.08,102.44c0-39.66,26.52-66.91,64.97-66.91,12.9,0,24.82,2.68,34.07,7.3,5.11,2.43,7.3,6.08,7.3,9.73,0,5.84-3.89,9.73-9.73,9.73-2.43,0-5.11-.49-8.27-1.95-8.27-3.89-16.3-5.11-23.36-5.11-33.84.01-64.98,21.42-64.98,47.21Z"/><path class="cls-2" d="m206.34,43.32c-2.19,2.19-3.41,4.87-3.41,8.03,0,8.03,7.54,19.95,25.06,32.12l19.95,13.87c14.6,10.22,20.44,19.95,20.44,34.55,0,10.46-4.14,19.47-10.95,25.79,2.43-2.19,3.89-5.11,3.89-9,0-8.52-8.52-21.9-26.77-34.55l-18.25-12.65c-15.33-10.71-21.41-20.68-21.41-34.31,0-8.03,2.92-15.33,7.79-20.68,1.23-1.23,2.44-2.2,3.66-3.17Z"/><path class="cls-6" d="m190.53,152.57c0,3.89,1.95,7.06,7.06,9.49,7.06,3.41,18.49,6.33,28.71,6.33,12.9,0,23.6-3.89,31.15-10.71,2.43-2.19,3.89-5.11,3.89-9,0-8.52-8.52-21.9-26.77-34.55,8.27,5.84,11.68,10.71,11.68,17.76,0,10.46-8.27,17.52-20.2,17.52s-21.17-5.84-26.52-5.84-9,3.65-9,9Z"/><path class="cls-9" d="m228,83.47c-7.79-5.6-11.19-10.71-11.19-16.79,0-7.79,6.33-12.65,15.33-12.65,11.44,0,16.79,5.35,23.6,5.35,5.35,0,9-3.65,9-9,0-3.89-1.95-7.06-7.06-9.49-8.03-3.89-16.79-5.35-26.28-5.35-9.98,0-18.74,2.92-25.06,7.79-2.19,2.19-3.41,4.87-3.41,8.03,0,8.02,7.55,19.94,25.07,32.11Z"/><path class="cls-8" d="m84.44,101.96c0,38.2,17.52,67.89,73,59.61,17.76-9.25,30.42-27.98,39.17-56.69l5.11-16.79c-4.87-6.33-6.81-13.38-6.81-20.93,0-8.03,2.92-15.33,7.79-20.68-7.3,7.79-13.38,19.22-18.25,35.28l-5.6,18.49c-9.98,32.61-25.79,48.18-50.37,48.18-27.01,0-44.04-18.73-44.04-46.47Z"/></g></svg>