<svg width="25" height="25" viewBox="0 0 25 25" fill="none" xmlns="http://www.w3.org/2000/svg">
<g clip-path="url(#clip0_270_36)">
<path d="M18.7901 0.189668L15.613 0.18457C12.0437 0.18457 9.73697 2.55115 9.73697 6.21405V8.99405H6.54254C6.2665 8.99405 6.04297 9.21783 6.04297 9.49387V13.5218C6.04297 13.7978 6.26676 14.0213 6.54254 14.0213H9.73697V24.185C9.73697 24.461 9.9605 24.6846 10.2365 24.6846H14.4044C14.6804 24.6846 14.9039 24.4608 14.9039 24.185V14.0213H18.639C18.915 14.0213 19.1385 13.7978 19.1385 13.5218L19.1401 9.49387C19.1401 9.36133 19.0873 9.2344 18.9938 9.14061C18.9002 9.04681 18.7728 8.99405 18.6402 8.99405H14.9039V6.63741C14.9039 5.50472 15.1739 4.9297 16.6494 4.9297L18.7896 4.92894C19.0654 4.92894 19.2889 4.70515 19.2889 4.42937V0.689236C19.2889 0.413709 19.0656 0.190178 18.7901 0.189668Z" fill="#051A67"/>
</g>
<defs>
<clipPath id="clip0_270_36">
<rect width="24.5003" height="24.5" fill="white" transform="translate(0.416016 0.18396)"/>
</clipPath>
</defs>
</svg>
