<svg width="71" height="70" viewBox="0 0 71 70" fill="none" xmlns="http://www.w3.org/2000/svg">
<g clip-path="url(#clip0_196_251)">
<path d="M40.3494 0.951041C38.7842 0.976935 37.1943 1.17632 35.3726 1.43267L35.4659 1.41454L35.6277 1.38088L35.7908 1.34851L36.0731 1.29284L36.1922 1.26953L36.4654 1.20998L36.7696 1.15301L37.3095 1.05721C39.6322 0.657147 41.046 0.614421 43.1175 0.951041L43.1939 0.963989C43.3324 0.985998 43.4722 1.0106 43.6172 1.03779L43.6884 1.05591L43.8917 1.1077C43.9318 1.11676 43.9733 1.12841 44.0212 1.14006C44.3125 1.21645 44.6206 1.30061 44.8757 1.36664L45.7819 1.63852L45.6667 1.60874C45.4881 1.56084 45.312 1.51553 45.1372 1.4728L44.9559 1.43008C44.8433 1.40418 44.7307 1.37829 44.6206 1.35498L44.4044 1.30967C44.3073 1.28895 44.2115 1.27083 44.1157 1.2527L43.8852 1.20998L43.6392 1.16984C43.4683 1.14266 43.2974 1.11806 43.1291 1.09605L42.9841 1.07663L42.6514 1.03908L42.5362 1.02743C42.4183 1.01578 42.2992 1.00542 42.1814 0.996356L41.8603 0.974344L41.6739 0.963989C41.5315 0.957515 41.3891 0.951041 41.2479 0.947157H41.0783H40.8997H40.7301L40.3494 0.951041ZM39.9105 0.525087C40.4601 0.509324 41.0101 0.538772 41.5548 0.613129H41.5975L41.1211 0.532855L41.0499 0.519911C41.0421 0.52053 41.0343 0.52053 41.0266 0.519911L40.9463 0.506963H40.932L40.4737 0.431869L40.4142 0.422809L39.939 0.358074C39.3844 0.301727 38.8242 0.335833 38.2805 0.45906L38.2469 0.465532C37.571 0.595001 36.7126 0.860414 35.4477 1.40159H35.4374C35.4154 1.41066 35.3947 1.42101 35.3726 1.42878C36.9884 0.970462 38.2909 0.600179 39.7047 0.528971C39.7737 0.523792 39.8428 0.520774 39.9118 0.519911L39.9105 0.525087ZM38.3698 0.18329L38.0837 0.161279L37.8248 0.141859L37.6241 0.12762L37.4027 0.113376L37.2474 0.10302L37.0998 0.0939565H36.9703H36.9457C36.6583 0.229899 36.534 0.311462 35.4076 1.41065C35.3979 1.42123 35.3875 1.43118 35.3765 1.44043C37.0596 0.455174 37.448 0.275214 38.3996 0.192354L38.3698 0.18329ZM35.3921 1.40159C35.4257 1.31744 35.4555 1.24235 35.4814 1.17502L35.5086 1.1077C35.5189 1.07921 35.5306 1.05203 35.541 1.02484C35.5617 0.967873 35.5811 0.917378 35.5992 0.869475C35.5992 0.853939 35.6096 0.840993 35.6148 0.826752C35.752 0.449997 35.7352 0.37361 35.6717 0.106904C35.623 0.0841279 35.5728 0.0646617 35.5215 0.0486415H35.4956C35.0878 -0.0523444 34.5155 0.0577048 34.0948 0.069357H34.065C34.368 0.110787 34.8094 0.198825 35.0205 0.420217L35.0283 0.427985C35.2017 0.667503 35.2962 1.03649 35.3584 1.3265C35.3584 1.3265 35.3584 1.33297 35.3584 1.33427C35.3584 1.36793 35.37 1.4003 35.3752 1.43137L35.3882 1.4003L35.3921 1.40159ZM35.3584 1.40159C35.2419 1.26436 35.1331 1.14266 35.0296 1.03261L34.9532 0.953629C34.9324 0.932914 34.9117 0.910907 34.891 0.891486C34.706 0.694945 34.4866 0.533908 34.2437 0.416333C33.8436 0.231192 33.3374 0.174226 32.4984 0.157395H32.4725H32.4518C31.9922 0.198825 31.3966 0.264856 30.9124 0.320527L30.8503 0.328295L30.7532 0.338651H30.7208C31.609 0.286863 32.4311 0.237665 33.2455 0.399502C33.2532 0.398801 33.261 0.398801 33.2688 0.399502C34.1233 0.600179 34.7188 0.983408 35.3403 1.37958L35.3869 1.41583C35.3778 1.40677 35.37 1.39512 35.361 1.38476L35.3584 1.40159ZM35.3235 1.40159C35.1215 1.31528 34.9268 1.23544 34.7395 1.16208C33.7478 0.759428 32.7354 0.438345 31.2439 0.438345C30.1666 0.455173 29.0938 0.581407 28.0421 0.8151H28.0188H27.9916C27.5579 0.901844 27.1565 0.998944 26.6568 1.1323L26.6322 1.13877C26.359 1.21128 26.056 1.29543 25.7013 1.39771L25.6612 1.40807L25.2378 1.52588L25.1951 1.53883L25.1342 1.55696C26.64 1.14913 27.9217 0.855233 29.1361 0.711522C29.2306 0.69987 29.3238 0.689514 29.4184 0.680451C31.7216 0.465532 33.3529 0.824163 35.1344 1.34463L35.3765 1.42101L35.3131 1.39383L35.3235 1.40159ZM35.2846 1.41195L35.2302 1.40289H35.1862L35.0438 1.38088H35.0347L34.9312 1.36664C34.6644 1.32607 34.3731 1.28637 34.0572 1.24753C33.9312 1.23113 33.8018 1.21559 33.6688 1.20092C33.4371 1.17502 33.1937 1.15042 32.9386 1.12971L32.6926 1.10899C32.5865 1.10123 32.4777 1.09346 32.369 1.08828L32.2214 1.07921L32.0194 1.06886L31.7941 1.0585H31.7307C31.5119 1.04944 31.2866 1.04426 31.0561 1.04296C30.8645 1.04296 30.6677 1.04296 30.4684 1.04296H30.2716L30.0424 1.05073H29.8845L29.755 1.05721C29.3666 1.07533 28.9613 1.10511 28.5432 1.14654L28.3839 1.16337C28.2078 1.18279 28.0304 1.20221 27.8505 1.22681C27.7987 1.23328 27.7469 1.23976 27.6938 1.24882C27.5488 1.26824 27.4025 1.28896 27.2562 1.31226L27.2187 1.31873C21.4625 2.26645 17.1421 5.14066 14.9191 6.62697L16.1633 5.77765L16.1853 5.7634L16.2151 5.74269L16.2514 5.71939L16.5919 5.50059C16.5297 5.53813 16.4624 5.57697 16.4054 5.61322C17.3503 4.99649 18.3299 4.43453 19.3392 3.93013H19.3521H19.3625C19.6577 3.77606 19.9645 3.62069 20.2869 3.46533C20.3413 3.43943 20.3957 3.41225 20.4513 3.38765C20.7815 3.2297 21.1285 3.07045 21.4871 2.9125C21.5479 2.88401 21.6166 2.85812 21.6709 2.83223C21.8004 2.77785 21.9208 2.72606 22.049 2.67169L22.128 2.64061L22.1798 2.6199C23.4971 2.10248 24.8501 1.68103 26.2283 1.35887L26.4315 1.31355L26.6011 1.27601L26.6594 1.26436L26.7474 1.24493H26.772L26.9856 1.20351C27.0789 1.18538 27.1721 1.16596 27.2666 1.14913C27.9211 1.03015 28.5815 0.945875 29.2449 0.896662L29.5828 0.873359C29.8132 0.859117 30.045 0.850055 30.2819 0.846171C30.3984 0.846171 30.515 0.846171 30.6328 0.846171C31.3819 0.846178 32.1303 0.891574 32.8739 0.982112L33.1652 1.01966C33.2636 1.03261 33.362 1.04685 33.4604 1.06238C33.7336 1.10381 34.0093 1.15042 34.2903 1.2061C34.6191 1.26997 34.9532 1.34376 35.2924 1.42749H35.2859L35.2846 1.41195ZM16.6877 5.43067L16.6294 5.46433L16.6048 5.48116L16.6877 5.43067ZM19.3651 3.912L19.2007 3.99486L19.1476 4.02204C19.1256 4.0337 19.1062 4.04535 19.0841 4.05571L19.3651 3.912ZM35.2704 1.41195C33.0396 1.16078 28.4719 0.635136 22.3972 2.84388C15.2467 5.28049 9.47106 10.3531 5.68539 16.7411C5.67374 16.7579 5.66468 16.7773 5.65432 16.7942C-2.56567 30.5943 -1.05995 50.1027 13.293 61.9439C15.9202 64.0945 18.8102 65.9022 21.8936 67.3234L22.5526 67.5914C23.3152 67.871 23.7955 68.0471 24.1749 68.1792H24.1839C24.5607 68.3009 25.0281 68.4459 25.7609 68.6698H25.7725C23.1243 67.8416 20.6043 66.6486 18.2853 65.125C18.275 65.1197 18.2655 65.1132 18.2568 65.1056C15.9678 63.6024 13.4095 61.4973 10.8434 58.5195C8.70344 56.0515 6.881 53.3253 5.41868 50.4043C5.41442 50.3974 5.41095 50.39 5.40832 50.3823C0.409524 39.7426 0.502735 26.8669 6.27576 16.8317L6.29002 16.8071C11.817 7.37788 21.8988 0.882421 34.7874 1.38606H34.8276L35.3752 1.41713L35.2639 1.40677L35.2704 1.41195ZM35.2574 1.42619C32.8079 1.3524 26.3007 1.15949 19.0336 5.24035C14.5942 7.73393 11.1904 10.9927 8.72014 14.7227C0.951994 26.1587 0.750027 42.921 10.9755 56.5917C13.9533 60.8551 17.7415 64.4284 22.1564 66.8366C24.1375 67.9234 26.2465 68.7589 28.4344 69.3237L28.6441 69.3638L28.7529 69.3832L28.9756 69.4233L29.3717 69.4933L29.9712 69.5942L30.1007 69.615L30.2042 69.6318L30.379 69.6564C28.8439 69.358 27.3561 68.8533 25.9564 68.1558C24.18 67.2871 22.0037 65.9083 19.5347 63.6736C17.253 61.611 15.1936 59.315 13.3901 56.8234C3.23584 41.9345 0.845838 18.2753 18.3578 6.43405C19.7657 5.47977 21.2563 4.65349 22.8116 3.96508C26.2697 2.5228 30.2392 1.63464 34.7227 1.4495C34.8936 1.44173 35.0658 1.43525 35.2406 1.43137L35.2574 1.42619ZM34.7253 1.44561L35.2548 1.43137C31.2737 1.57638 27.5799 2.42181 24.2241 3.95343C20.2558 5.63653 17.0735 8.05759 14.6213 10.9978C3.78867 23.9797 7.18463 47.0731 19.9995 61.5154C21.2685 62.95 22.6346 64.2957 24.0881 65.5432C25.3513 66.6441 26.7194 67.6185 28.1729 68.4523H28.1871C29.432 69.1143 30.7692 69.5857 32.154 69.8506L32.7496 69.8959L33.3633 69.9386C33.419 69.9386 33.4746 69.9464 33.5264 69.949H33.6326H33.6598C25.4786 68.5054 10.0796 45.012 11.5387 25.4298C11.9478 21.0356 13.1299 16.8977 15.2208 13.327L15.2285 13.3114C17.0411 10.3337 19.5515 7.67566 22.9203 5.4708C23.2181 5.27574 23.5202 5.08758 23.8266 4.90632C26.9455 3.16496 30.7118 1.95572 35.1927 1.43008L35.2587 1.42231H35.3752H35.2458C35.0684 1.43137 34.8962 1.43785 34.7253 1.44561ZM35.2678 1.44561C33.7064 1.65794 30.1693 2.14086 26.3512 4.36255C23.6157 5.8082 21.2449 7.85717 19.4182 10.3544C18.7784 11.2312 18.2074 12.1562 17.7105 13.1211C13.2775 21.2324 14.1022 31.6999 17.1214 41.4451L17.1318 41.4787C20.1652 51.9761 25.7686 61.8274 31.2814 67.1965C32.1106 68.0135 33.0024 68.7646 33.9485 69.4428L34.0974 69.5451C34.4205 69.7414 34.769 69.8925 35.1331 69.9943C35.5539 69.9943 36.1016 69.9839 36.5197 69.9736C36.398 69.7561 36.2738 69.5386 36.1495 69.3262C35.2768 67.89 34.4426 66.5163 33.6468 65.2052C28.0796 56.0129 24.3768 49.6534 22.0166 43.8752C20.4423 39.3438 19.2486 34.4978 18.7061 30.4506V30.4363C18.5404 28.7118 18.4471 26.8979 18.4135 24.9455C18.4135 24.6025 18.4135 24.2011 18.4135 23.7518C18.454 22.0199 18.6346 20.294 18.9534 18.5912C19.6862 14.7071 21.3498 10.0734 25.0216 6.52987C27.6291 4.09844 31.0169 2.40886 35.1849 1.46115L35.2652 1.44302L35.2678 1.44561ZM35.2846 1.45209C31.2673 2.51078 27.7851 5.02107 25.511 8.49779C20.3322 16.2387 19.0971 31.6572 35.405 62.3453C38.1239 67.458 38.6003 68.7087 38.432 69.5632C38.4203 69.6163 38.4087 69.668 38.3932 69.7185L38.0967 69.8687L38.0669 69.8959L38.1782 69.8868L38.8994 69.8169C38.9706 69.8079 39.0392 69.8014 39.1065 69.7949L39.2697 69.7768L39.3642 69.7664L39.5377 69.7483L39.6503 69.7341C40.3883 69.5256 40.844 69.1398 41.0382 68.5132C41.6092 66.6708 39.9274 62.7492 36.4835 55.1403C28.535 37.5791 24.9197 24.2158 25.6379 15.0502C26.3033 8.93799 29.0546 3.91588 35.2911 1.45597L35.2846 1.45209ZM35.3105 1.45209C29.096 4.4726 27.945 11.3241 29.2254 19.557C29.2254 19.5816 29.2319 19.6049 29.2371 19.6295C30.6703 29.1028 35.383 40.4909 39.548 50.5597C42.8741 58.5997 44.9741 63.9753 44.2309 66.935C43.9228 68.1675 43.1201 68.9819 41.7089 69.3949L41.6454 69.4169L41.7658 69.3936L42.5426 69.2291L42.6721 69.1994L43.0955 69.1061L43.3674 69.0453L43.7104 68.9663L43.7493 68.9573C51.3685 66.0947 47.9091 57.8423 39.5519 37.9054C32.8829 21.9988 27.5449 7.23935 35.3584 1.4249L35.304 1.45468L35.3105 1.45209ZM35.3416 1.45209C34.2437 2.62896 33.7374 4.29005 33.674 6.29553C33.6734 6.30458 33.6734 6.31366 33.674 6.32271C33.6611 6.55576 33.6559 6.79528 33.6559 7.03738C33.6559 13.1949 37.4972 22.1633 42.3627 32.715C48.8918 46.8789 53.3132 57.1743 51.3064 63.2464C50.5128 65.4694 48.8309 67.1149 46.1043 68.2788L46.0577 68.2983L46.4034 68.1817L46.5329 68.1364L46.5627 68.1261L46.8061 68.0419L46.9808 67.9798C47.4042 67.8283 47.834 67.6703 48.1953 67.5357L48.2095 67.5292C48.2898 67.4943 48.3675 67.458 48.4464 67.4218L48.5759 67.3609C50.4933 66.4443 51.9524 65.2998 53.0154 63.9546C59.0033 56.5412 52.9235 43.2512 44.4407 27.109C39.0884 16.9236 35.1409 8.9833 35.0127 3.97803C35.0127 3.91329 35.0127 3.84856 35.0127 3.789C35.0127 3.72945 35.0127 3.69449 35.0127 3.64788C35.0147 2.99913 35.1026 2.3535 35.2743 1.72786L35.2937 1.667C35.3183 1.58673 35.3454 1.50776 35.3739 1.43008L35.348 1.46245L35.3416 1.45209ZM35.3752 1.45209C35.4555 2.25091 35.7028 3.1805 36.0912 4.23179C36.0912 4.24215 36.099 4.25121 36.1015 4.26027C37.3574 7.72486 40.1695 12.5554 44.9741 20.3222C50.9892 30.044 59.0629 43.0919 58.9567 53.4132C58.9567 53.4559 58.9567 53.4999 58.9567 53.5427C58.8687 58.5272 56.8529 62.8644 51.7479 65.8759C51.7194 65.894 51.6909 65.9121 51.6611 65.929L52.4289 65.5017L52.4638 65.4823C52.9675 65.191 53.4879 64.8816 53.9217 64.6278L54.9652 63.9429L54.9794 63.9339L54.9911 63.9248C57.1921 62.2417 59.3166 60.2077 60.6554 57.3219C62.3902 53.5906 62.8162 48.4468 60.434 40.8469C59.7236 38.6008 58.8513 36.4092 57.8239 34.2893C57.8205 34.2836 57.8179 34.2775 57.8161 34.2712C52.1492 22.2215 42.2384 12.8738 35.4529 1.53495C35.4283 1.49481 35.4037 1.45338 35.3804 1.41195C35.381 1.42316 35.381 1.4344 35.3804 1.44561L35.3752 1.45209ZM64.8061 45.5881C65.0754 50.9753 63.4713 56.1528 59.0487 60.6816L59.3192 60.4227C59.2092 60.534 59.0966 60.644 58.9826 60.7541L58.9179 60.8201C59.5856 60.2272 60.2201 59.5978 60.8185 58.9351L60.8276 58.9234C61.2483 58.4573 61.783 57.8372 62.6401 56.8441L62.7903 56.6538L62.8628 56.5593C66.0698 52.3464 67.2531 47.7878 67.0058 43.1502C67.0058 43.1256 67.0058 43.1023 67.0058 43.0777C66.3585 23.814 41.5004 4.91927 35.4296 1.45468L35.3765 1.4236C43.2262 8.47319 63.6539 28.3855 64.8061 45.5972V45.5881ZM36.6324 1.99845C40.3365 3.80454 47.7913 8.31007 54.582 14.6372C62.0174 21.6687 68.4028 30.7186 68.685 40.43V40.4391C68.7805 43.912 68.084 47.361 66.6485 50.5247C66.6462 50.5324 66.6432 50.5398 66.6394 50.5468C66.6187 50.5947 66.5967 50.6426 66.5747 50.6905C66.7042 50.4173 66.8336 50.1273 66.9773 49.8295L66.9903 49.7997C67.4201 48.8378 67.8629 47.7735 68.2138 46.9126C68.2293 46.8621 68.2461 46.8103 68.263 46.7572L68.3083 46.6148L69.0346 44.3296C69.0475 44.2856 69.0592 44.2429 69.0708 44.2002C73.8042 22.4636 49.2957 6.33954 36.3838 1.76799L36.2038 1.70455L35.9112 1.60227L35.4555 1.4495L35.3778 1.4236C35.7645 1.58932 36.171 1.7736 36.5974 1.97644L36.6324 1.99845ZM70.2943 35.0791C70.2412 33.7041 70.2063 32.8056 70.1649 32.1142C70.1106 31.1295 69.9912 30.1495 69.8075 29.1805L69.7324 28.7571C69.7234 28.7066 69.713 28.6561 69.7026 28.6056C68.887 24.5584 66.8984 20.6679 63.9918 17.1347L63.9685 17.1062C56.1071 7.39602 43.0191 2.70146 35.4853 1.44043L35.3817 1.42231C37.8912 2.05257 40.3512 2.86564 42.742 3.85503C42.909 3.92365 43.0773 3.99356 43.247 4.06607C43.4386 4.14634 43.6315 4.2292 43.8257 4.31464C44.0199 4.40009 44.2132 4.48641 44.4057 4.57358L45.1566 4.91538C45.3003 4.98141 45.4427 5.04485 45.5864 5.11735C45.7302 5.18986 45.8635 5.24682 46.0034 5.31673C52.5195 8.44859 60.1867 13.4642 65.1298 20.6303L65.223 20.7598C68.2073 25.132 70.1765 30.3004 70.262 36.3246L70.2723 35.8676L70.2943 35.0791ZM60.3252 11.9378C63.3626 14.5906 65.7513 17.628 67.3282 20.9475C67.222 20.7184 67.1133 20.4802 67.0032 20.238C67.0032 20.2316 67.0032 20.2251 66.9929 20.2199C66.6808 19.5726 66.3455 18.9058 66.0685 18.3504C65.7111 17.7484 65.2787 17.0104 64.8592 16.3268C64.8437 16.3035 64.8294 16.2802 64.8152 16.2569C64.6521 15.9979 64.4954 15.7545 64.3517 15.5254V15.5189C64.3323 15.4904 64.3141 15.4606 64.296 15.4322C64.1666 15.2509 64.0267 15.0696 63.8882 14.8923C61.5129 11.8023 58.5619 9.2267 55.0351 7.16556L55.0092 7.15002L54.78 7.02055C49.5702 4.00133 43.2068 2.14086 35.7481 1.46374L35.4892 1.44173L35.3765 1.43137C45.3987 2.7895 54.1586 6.56482 60.2877 11.9067L60.3252 11.9378ZM53.6847 5.7893C56.0143 6.99051 58.1615 8.51619 60.0624 10.3207L59.0461 9.33546C58.5023 8.86678 57.8368 8.2997 57.2011 7.77147L57.1364 7.71969C56.893 7.5216 56.6561 7.33127 56.4373 7.1552L56.3505 7.08788C56.3026 7.05292 56.256 7.01926 56.2081 6.98689C56.1997 6.97957 56.1906 6.97307 56.1809 6.96746C55.7058 6.6425 55.1452 6.26186 54.4784 5.85533C51.4592 4.04276 48.3144 2.98371 45.3922 2.35967C45.3405 2.34801 45.2887 2.33636 45.2356 2.3273C43.5382 1.97301 41.8195 1.72953 40.0905 1.59839L40.0115 1.59191C38.6508 1.48316 37.1878 1.4249 35.6096 1.42619H35.3688C38.4139 1.57638 46.1263 1.95442 53.365 5.62617L53.6847 5.7893ZM38.2002 1.37311C37.2474 1.37311 36.3061 1.39641 35.3765 1.42749L35.4879 1.41842H35.5228H35.5474C36.9405 1.28895 37.6914 1.23328 38.5925 1.21645H38.6042C39.2904 1.19185 39.9144 1.19574 40.8311 1.22422H40.8492L41.3826 1.24235L41.1988 1.22811L40.9023 1.20998H40.8194L40.6174 1.20092L40.7702 1.20998C40.3999 1.19703 40.0115 1.18538 39.605 1.17502H39.346H39.5131C39.6309 1.17502 39.7487 1.17502 39.8652 1.17502C39.9817 1.17502 40.0996 1.17502 40.2161 1.18408H40.2575C42.1633 1.22681 43.5266 1.34722 44.7268 1.56602L44.9857 1.61522L45.1152 1.63982C46.2318 1.88275 47.3305 2.20155 48.4037 2.594L48.4348 2.60436L48.5642 2.65485L48.7688 2.74419L48.8219 2.76749L48.9436 2.82187L49.1922 2.9358L49.3216 2.99277L49.7554 3.19215L49.9664 3.29055L50.6008 3.59221L50.5568 3.57279L50.47 3.53265L50.4493 3.52229L50.2914 3.45109L50.0493 3.34492C50.089 3.36477 50.1291 3.3829 50.1697 3.3993L50.2124 3.41743L50.2305 3.42519L51.6016 4.0816L51.3867 3.9845L51.3685 3.97673C51.2481 3.92106 51.1277 3.86539 51.0073 3.8123C50.9258 3.77476 50.8416 3.73851 50.76 3.70355C50.5891 3.62846 50.4195 3.55596 50.2499 3.48734L50.0169 3.39412L49.7489 3.28925C49.6595 3.2543 49.5702 3.21934 49.4809 3.18697L49.2142 3.08987C49.1494 3.06398 49.0847 3.04067 49.02 3.01866C48.9552 2.99665 48.8905 2.97076 48.8193 2.94875C48.6368 2.88531 48.4529 2.81928 48.2704 2.7649L48.0244 2.68722C47.9156 2.65356 47.8056 2.6199 47.6929 2.58753L47.6191 2.56552C47.5117 2.53445 47.4029 2.50208 47.2916 2.4723C47.1802 2.44252 47.0753 2.41275 46.9653 2.38426C46.7556 2.32859 46.5406 2.27422 46.318 2.22243C46.0953 2.17064 45.8946 2.12403 45.6706 2.07742C45.4466 2.03081 45.2576 1.99068 45.044 1.94795C44.8304 1.90523 44.6103 1.86898 44.3966 1.83402L44.1869 1.79906L43.9746 1.76669C43.7635 1.73433 43.5538 1.70455 43.3441 1.67736C41.637 1.46465 39.9179 1.36302 38.1977 1.37311H38.2002ZM49.2582 3.01737L49.4252 3.08469L49.4641 3.10022L49.4149 3.07951L49.3967 3.07175L49.2582 3.01737ZM47.7395 2.4723L47.9985 2.56034L48.1616 2.61601L48.3118 2.6678L48.6147 2.77526L48.4309 2.70923L48.2937 2.66133L48.2509 2.64579L48.1616 2.61601L48.1241 2.60177L47.9946 2.56034L47.9661 2.55128C47.9285 2.53704 47.8923 2.52409 47.8547 2.51373L47.7395 2.4723ZM47.4806 2.39203L47.6101 2.43087L47.5906 2.4244L47.4806 2.39203ZM47.1025 2.27551L47.3692 2.35707L47.3187 2.34025H47.3097L47.1686 2.29752C47.1479 2.28975 47.1271 2.28198 47.1051 2.27551H47.1025ZM46.731 2.16805L46.9485 2.2302L46.8553 2.20301L46.731 2.16805ZM46.472 2.09555L46.5303 2.11238L46.6455 2.14345L46.472 2.09555ZM46.283 2.04506L46.3296 2.058L46.4138 2.08131H46.4021H46.3866L46.283 2.04506ZM45.9956 1.97255C46.0192 1.97738 46.0425 1.98343 46.0655 1.99068H46.0849C46.0526 1.98679 46.0241 1.97773 45.9943 1.97255H45.9956ZM45.659 1.88969L45.7651 1.91559C45.7457 1.90911 45.725 1.90523 45.7056 1.90005L45.659 1.88969ZM45.3094 1.80942L45.4389 1.8392L45.3443 1.81719L45.3094 1.80942ZM44.9404 1.73044L44.9818 1.73951C44.9758 1.7389 44.9697 1.7389 44.9637 1.73951C44.9563 1.73416 44.9479 1.73021 44.9391 1.72786L44.9404 1.73044ZM43.568 1.48316L43.7117 1.50517L43.6328 1.49222L43.568 1.48316ZM43.2949 1.44173L43.3777 1.45468H43.4165L43.3233 1.44043L43.2949 1.44173ZM42.7135 1.36534C42.7407 1.36534 42.7692 1.36534 42.7964 1.3757L42.8819 1.38606L42.9582 1.39512L42.8093 1.377L42.7705 1.37052L42.7135 1.36534Z" fill="url(#paint0_linear_196_251)"/>
</g>
<defs>
<linearGradient id="paint0_linear_196_251" x1="0.658203" y1="0.00634766" x2="71.425" y2="2.23668" gradientUnits="userSpaceOnUse">
<stop stop-color="#6A73FC"/>
<stop offset="0.15136" stop-color="#C0ADFA"/>
<stop offset="0.369792" stop-color="#ABA5F5"/>
<stop offset="0.635417" stop-color="#64FFFD"/>
<stop offset="0.932292" stop-color="#68C0FF"/>
</linearGradient>
<clipPath id="clip0_196_251">
<rect width="69.6323" height="70" fill="white" transform="translate(0.658203)"/>
</clipPath>
</defs>
</svg>
