<svg width="150" height="150" viewBox="0 0 150 150" fill="none" xmlns="http://www.w3.org/2000/svg">
<g clip-path="url(#clip0_111_2739)">
<path d="M75 150C33.5775 150 0 116.422 0 75C41.4225 75 75 108.578 75 150Z" fill="url(#paint0_linear_111_2739)"/>
<path d="M150 75C150 116.422 116.422 150 75 150C75 108.578 108.578 75 150 75Z" fill="url(#paint1_linear_111_2739)"/>
<path d="M75 75C33.5775 75 0 41.4225 0 0C41.4225 0 75 33.5775 75 75Z" fill="url(#paint2_linear_111_2739)"/>
<path d="M150 0C150 41.4225 116.422 75 75 75C75 33.5775 108.578 0 150 0Z" fill="url(#paint3_linear_111_2739)"/>
</g>
<defs>
<linearGradient id="paint0_linear_111_2739" x1="0" y1="75" x2="76.217" y2="77.4142" gradientUnits="userSpaceOnUse">
<stop stop-color="#6A73FC"/>
<stop offset="0.15136" stop-color="#C0ADFA"/>
<stop offset="0.369792" stop-color="#ABA5F5"/>
<stop offset="0.635417" stop-color="#64FFFD"/>
<stop offset="0.932292" stop-color="#68C0FF"/>
</linearGradient>
<linearGradient id="paint1_linear_111_2739" x1="75" y1="75" x2="151.217" y2="77.4142" gradientUnits="userSpaceOnUse">
<stop stop-color="#6A73FC"/>
<stop offset="0.15136" stop-color="#C0ADFA"/>
<stop offset="0.369792" stop-color="#ABA5F5"/>
<stop offset="0.635417" stop-color="#64FFFD"/>
<stop offset="0.932292" stop-color="#68C0FF"/>
</linearGradient>
<linearGradient id="paint2_linear_111_2739" x1="0" y1="0" x2="76.217" y2="2.41424" gradientUnits="userSpaceOnUse">
<stop stop-color="#6A73FC"/>
<stop offset="0.15136" stop-color="#C0ADFA"/>
<stop offset="0.369792" stop-color="#ABA5F5"/>
<stop offset="0.635417" stop-color="#64FFFD"/>
<stop offset="0.932292" stop-color="#68C0FF"/>
</linearGradient>
<linearGradient id="paint3_linear_111_2739" x1="75" y1="0" x2="151.217" y2="2.41424" gradientUnits="userSpaceOnUse">
<stop stop-color="#6A73FC"/>
<stop offset="0.15136" stop-color="#C0ADFA"/>
<stop offset="0.369792" stop-color="#ABA5F5"/>
<stop offset="0.635417" stop-color="#64FFFD"/>
<stop offset="0.932292" stop-color="#68C0FF"/>
</linearGradient>
<clipPath id="clip0_111_2739">
<rect width="150" height="150" fill="white"/>
</clipPath>
</defs>
</svg>
