<svg width="148" height="150" viewBox="0 0 148 150" fill="none" xmlns="http://www.w3.org/2000/svg">
<g clip-path="url(#clip0_111_2296)">
<path d="M72.5467 0H74V5.7301C74 14.5401 70.5003 22.9892 64.2707 29.2188C58.0411 35.4484 49.592 38.9481 40.782 38.9481H37.2526V35.2941C37.2526 25.9335 40.9711 16.9563 47.59 10.3374C54.2089 3.71848 63.1861 0 72.5467 0Z" fill="url(#paint0_linear_111_2296)"/>
<path d="M74 72.3738V76.0277H70.4706C61.6606 76.0277 53.2115 72.528 46.9819 66.2984C40.7523 60.0688 37.2526 51.6197 37.2526 42.8097V39.135H40.6574C45.0319 39.1186 49.3665 39.9664 53.4125 41.6297C57.4584 43.293 61.136 45.7391 64.234 48.8275C67.3321 51.9159 69.7896 55.5858 71.4656 59.6266C73.1415 63.6673 74.0028 67.9993 74 72.3738Z" fill="url(#paint1_linear_111_2296)"/>
<path d="M3.82697 76.0485H0.297563V72.3737C0.297563 63.5638 3.79731 55.1146 10.0269 48.8851C16.2565 42.6555 24.7056 39.1557 33.5156 39.1557H37.045V42.6229C37.0723 47.0025 36.2333 51.3444 34.5762 55.3986C32.9191 59.4528 30.4767 63.1393 27.3893 66.2459C24.302 69.3525 20.6309 71.8179 16.5871 73.5002C12.5433 75.1825 8.20674 76.0485 3.82697 76.0485Z" fill="url(#paint2_linear_111_2296)"/>
<path d="M0.297577 3.63325L0.297577 -0.0207192H1.75086C11.1114 -0.0207192 20.0886 3.69773 26.7076 10.3167C33.3265 16.9356 37.045 25.9128 37.045 35.2734V38.9274H35.5917C26.2311 38.9274 17.2539 35.2089 10.635 28.59C4.01605 21.971 0.297577 12.9938 0.297577 3.63325Z" fill="url(#paint3_linear_111_2296)"/>
<path d="M144.173 0H147.702V5.7301C147.702 14.5401 144.203 22.9892 137.973 29.2188C131.744 35.4484 123.294 38.9481 114.484 38.9481H110.955V33.218C110.955 24.408 114.455 15.9589 120.684 9.72933C126.914 3.49974 135.363 0 144.173 0Z" fill="url(#paint4_linear_111_2296)"/>
<path d="M147.702 72.3737V76.0485H144.173C135.363 76.0485 126.914 72.5487 120.684 66.3192C114.455 60.0896 110.955 51.6404 110.955 42.8305V39.1558H114.36C118.733 39.1394 123.066 39.9864 127.11 41.6485C131.155 43.3105 134.831 45.7547 137.929 48.8409C141.027 51.9271 143.485 55.5946 145.162 59.6329C146.839 63.6713 147.702 68.001 147.702 72.3737Z" fill="url(#paint5_linear_111_2296)"/>
<path d="M77.5709 76.0485H74.0415V72.3737C74.0415 63.5638 77.5413 55.1146 83.7709 48.8851C90.0004 42.6555 98.4496 39.1557 107.26 39.1557H110.789V42.6229C110.816 47.0025 109.977 51.3444 108.32 55.3986C106.663 59.4528 104.221 63.1393 101.133 66.2459C98.046 69.3525 94.3748 71.8179 90.331 73.5002C86.2872 75.1825 81.9507 76.0485 77.5709 76.0485Z" fill="url(#paint6_linear_111_2296)"/>
<path d="M74 5.73006V-2.82874e-05H77.5294C86.3394 -2.82874e-05 94.7885 3.49972 101.018 9.7293C107.248 15.9589 110.747 24.408 110.747 33.218V38.9481H107.218C98.408 38.9481 89.9589 35.4483 83.7293 29.2188C77.4997 22.9892 74 14.54 74 5.73006Z" fill="url(#paint7_linear_111_2296)"/>
<path d="M70.4706 76.0277H74V79.7025C74 88.5124 70.5003 96.9615 64.2707 103.191C58.0411 109.421 49.592 112.92 40.782 112.92H37.2526V109.35C37.2389 104.979 38.0881 100.648 39.7513 96.6057C41.4146 92.5635 43.8592 88.8893 46.9452 85.7937C50.0311 82.6981 53.6976 80.242 57.7346 78.5662C61.7716 76.8903 66.0996 76.0277 70.4706 76.0277Z" fill="url(#paint8_linear_111_2296)"/>
<path d="M74 146.325V149.979H70.4706C61.6606 149.979 53.2115 146.479 46.9819 140.25C40.7523 134.02 37.2526 125.571 37.2526 116.761V113.086H40.782C45.146 113.086 49.4672 113.946 53.4988 115.617C57.5303 117.288 61.1932 119.736 64.278 122.823C67.3629 125.91 69.8093 129.574 71.4774 133.607C73.1455 137.639 74.0027 141.961 74 146.325Z" fill="url(#paint9_linear_111_2296)"/>
<path d="M3.82698 150H0.297573V146.325C0.297573 137.515 3.79732 129.066 10.0269 122.837C16.2565 116.607 24.7056 113.107 33.5156 113.107H37.045V116.678C37.0586 121.049 36.2095 125.38 34.5463 129.422C32.883 133.464 30.4384 137.138 27.3524 140.234C24.2665 143.33 20.6 145.786 16.563 147.462C12.526 149.137 8.19798 150 3.82698 150Z" fill="url(#paint10_linear_111_2296)"/>
<path d="M0.297577 79.6817L0.297577 76.0069H3.82699C12.637 76.0069 21.0861 79.5067 27.3157 85.7362C33.5452 91.9658 37.045 100.415 37.045 109.225V112.9H33.5156C24.7056 112.9 16.2565 109.4 10.0269 103.17C3.79732 96.9408 0.297577 88.4916 0.297577 79.6817Z" fill="url(#paint11_linear_111_2296)"/>
<path d="M144.173 76.0277H147.702V79.7025C147.702 88.5124 144.203 96.9615 137.973 103.191C131.744 109.421 123.294 112.92 114.484 112.92H110.955V109.35C110.941 104.979 111.79 100.648 113.454 96.6057C115.117 92.5635 117.562 88.8893 120.648 85.7937C123.734 82.6981 127.4 80.242 131.437 78.5662C135.474 76.8903 139.802 76.0277 144.173 76.0277Z" fill="url(#paint12_linear_111_2296)"/>
<path d="M147.702 146.325V150H144.173C135.363 150 126.914 146.5 120.684 140.271C114.455 134.041 110.955 125.592 110.955 116.782V113.107H114.484C123.294 113.107 131.744 116.607 137.973 122.837C144.203 129.066 147.702 137.515 147.702 146.325Z" fill="url(#paint13_linear_111_2296)"/>
<path d="M77.5709 150H74.0415V146.325C74.0415 137.515 77.5413 129.066 83.7709 122.837C90.0005 116.607 98.4496 113.107 107.26 113.107H110.789L110.789 116.678C110.803 121.049 109.953 125.38 108.29 129.422C106.627 133.464 104.182 137.138 101.096 140.234C98.0104 143.33 94.3439 145.786 90.3069 147.462C86.27 149.137 81.9419 150 77.5709 150Z" fill="url(#paint14_linear_111_2296)"/>
<path d="M74 79.6609V75.9862H77.5294C86.3394 75.9862 94.7885 79.4859 101.018 85.7155C107.248 91.9451 110.747 100.394 110.747 109.204V112.879H107.218C98.408 112.879 89.9589 109.379 83.7293 103.15C77.4997 96.92 74 88.4709 74 79.6609Z" fill="url(#paint15_linear_111_2296)"/>
</g>
<defs>
<linearGradient id="paint0_linear_111_2296" x1="37.2526" y1="0" x2="74.6004" y2="1.11618" gradientUnits="userSpaceOnUse">
<stop stop-color="#6A73FC"/>
<stop offset="0.15136" stop-color="#C0ADFA"/>
<stop offset="0.369792" stop-color="#ABA5F5"/>
<stop offset="0.635417" stop-color="#64FFFD"/>
<stop offset="0.932292" stop-color="#68C0FF"/>
</linearGradient>
<linearGradient id="paint1_linear_111_2296" x1="74" y1="39.1348" x2="72.8077" y2="76.6261" gradientUnits="userSpaceOnUse">
<stop stop-color="#6A73FC"/>
<stop offset="0.15136" stop-color="#C0ADFA"/>
<stop offset="0.369792" stop-color="#ABA5F5"/>
<stop offset="0.635417" stop-color="#64FFFD"/>
<stop offset="0.932292" stop-color="#68C0FF"/>
</linearGradient>
<linearGradient id="paint2_linear_111_2296" x1="37.0456" y1="76.0485" x2="-0.299006" y2="74.8702" gradientUnits="userSpaceOnUse">
<stop stop-color="#6A73FC"/>
<stop offset="0.15136" stop-color="#C0ADFA"/>
<stop offset="0.369792" stop-color="#ABA5F5"/>
<stop offset="0.635417" stop-color="#64FFFD"/>
<stop offset="0.932292" stop-color="#68C0FF"/>
</linearGradient>
<linearGradient id="paint3_linear_111_2296" x1="0.297577" y1="38.9274" x2="1.62623" y2="-0.647797" gradientUnits="userSpaceOnUse">
<stop stop-color="#6A73FC"/>
<stop offset="0.15136" stop-color="#C0ADFA"/>
<stop offset="0.369792" stop-color="#ABA5F5"/>
<stop offset="0.635417" stop-color="#64FFFD"/>
<stop offset="0.932292" stop-color="#68C0FF"/>
</linearGradient>
<linearGradient id="paint4_linear_111_2296" x1="110.955" y1="0" x2="148.303" y2="1.11618" gradientUnits="userSpaceOnUse">
<stop stop-color="#6A73FC"/>
<stop offset="0.15136" stop-color="#C0ADFA"/>
<stop offset="0.369792" stop-color="#ABA5F5"/>
<stop offset="0.635417" stop-color="#64FFFD"/>
<stop offset="0.932292" stop-color="#68C0FF"/>
</linearGradient>
<linearGradient id="paint5_linear_111_2296" x1="147.702" y1="39.1555" x2="146.51" y2="76.6468" gradientUnits="userSpaceOnUse">
<stop stop-color="#6A73FC"/>
<stop offset="0.15136" stop-color="#C0ADFA"/>
<stop offset="0.369792" stop-color="#ABA5F5"/>
<stop offset="0.635417" stop-color="#64FFFD"/>
<stop offset="0.932292" stop-color="#68C0FF"/>
</linearGradient>
<linearGradient id="paint6_linear_111_2296" x1="110.79" y1="76.0485" x2="73.445" y2="74.8702" gradientUnits="userSpaceOnUse">
<stop stop-color="#6A73FC"/>
<stop offset="0.15136" stop-color="#C0ADFA"/>
<stop offset="0.369792" stop-color="#ABA5F5"/>
<stop offset="0.635417" stop-color="#64FFFD"/>
<stop offset="0.932292" stop-color="#68C0FF"/>
</linearGradient>
<linearGradient id="paint7_linear_111_2296" x1="74" y1="38.9481" x2="75.3287" y2="-0.627106" gradientUnits="userSpaceOnUse">
<stop stop-color="#6A73FC"/>
<stop offset="0.15136" stop-color="#C0ADFA"/>
<stop offset="0.369792" stop-color="#ABA5F5"/>
<stop offset="0.635417" stop-color="#64FFFD"/>
<stop offset="0.932292" stop-color="#68C0FF"/>
</linearGradient>
<linearGradient id="paint8_linear_111_2296" x1="37.2524" y1="76.0277" x2="74.5966" y2="77.206" gradientUnits="userSpaceOnUse">
<stop stop-color="#6A73FC"/>
<stop offset="0.15136" stop-color="#C0ADFA"/>
<stop offset="0.369792" stop-color="#ABA5F5"/>
<stop offset="0.635417" stop-color="#64FFFD"/>
<stop offset="0.932292" stop-color="#68C0FF"/>
</linearGradient>
<linearGradient id="paint9_linear_111_2296" x1="74" y1="113.086" x2="72.8078" y2="150.578" gradientUnits="userSpaceOnUse">
<stop stop-color="#6A73FC"/>
<stop offset="0.15136" stop-color="#C0ADFA"/>
<stop offset="0.369792" stop-color="#ABA5F5"/>
<stop offset="0.635417" stop-color="#64FFFD"/>
<stop offset="0.932292" stop-color="#68C0FF"/>
</linearGradient>
<linearGradient id="paint10_linear_111_2296" x1="37.0451" y1="150" x2="-0.298988" y2="148.822" gradientUnits="userSpaceOnUse">
<stop stop-color="#6A73FC"/>
<stop offset="0.15136" stop-color="#C0ADFA"/>
<stop offset="0.369792" stop-color="#ABA5F5"/>
<stop offset="0.635417" stop-color="#64FFFD"/>
<stop offset="0.932292" stop-color="#68C0FF"/>
</linearGradient>
<linearGradient id="paint11_linear_111_2296" x1="0.297577" y1="112.9" x2="1.48983" y2="75.4086" gradientUnits="userSpaceOnUse">
<stop stop-color="#6A73FC"/>
<stop offset="0.15136" stop-color="#C0ADFA"/>
<stop offset="0.369792" stop-color="#ABA5F5"/>
<stop offset="0.635417" stop-color="#64FFFD"/>
<stop offset="0.932292" stop-color="#68C0FF"/>
</linearGradient>
<linearGradient id="paint12_linear_111_2296" x1="110.955" y1="76.0277" x2="148.299" y2="77.206" gradientUnits="userSpaceOnUse">
<stop stop-color="#6A73FC"/>
<stop offset="0.15136" stop-color="#C0ADFA"/>
<stop offset="0.369792" stop-color="#ABA5F5"/>
<stop offset="0.635417" stop-color="#64FFFD"/>
<stop offset="0.932292" stop-color="#68C0FF"/>
</linearGradient>
<linearGradient id="paint13_linear_111_2296" x1="147.702" y1="113.107" x2="146.51" y2="150.598" gradientUnits="userSpaceOnUse">
<stop stop-color="#6A73FC"/>
<stop offset="0.15136" stop-color="#C0ADFA"/>
<stop offset="0.369792" stop-color="#ABA5F5"/>
<stop offset="0.635417" stop-color="#64FFFD"/>
<stop offset="0.932292" stop-color="#68C0FF"/>
</linearGradient>
<linearGradient id="paint14_linear_111_2296" x1="110.789" y1="150" x2="73.445" y2="148.822" gradientUnits="userSpaceOnUse">
<stop stop-color="#6A73FC"/>
<stop offset="0.15136" stop-color="#C0ADFA"/>
<stop offset="0.369792" stop-color="#ABA5F5"/>
<stop offset="0.635417" stop-color="#64FFFD"/>
<stop offset="0.932292" stop-color="#68C0FF"/>
</linearGradient>
<linearGradient id="paint15_linear_111_2296" x1="74" y1="112.879" x2="75.1923" y2="75.3878" gradientUnits="userSpaceOnUse">
<stop stop-color="#6A73FC"/>
<stop offset="0.15136" stop-color="#C0ADFA"/>
<stop offset="0.369792" stop-color="#ABA5F5"/>
<stop offset="0.635417" stop-color="#64FFFD"/>
<stop offset="0.932292" stop-color="#68C0FF"/>
</linearGradient>
<clipPath id="clip0_111_2296">
<rect width="147.405" height="150" fill="white" transform="translate(0.297577)"/>
</clipPath>
</defs>
</svg>
