<svg width="879" height="25" viewBox="0 0 879 25" fill="none" xmlns="http://www.w3.org/2000/svg">
<path d="M7.02872 0H0.814017C0.364448 0 0 0.402789 0 0.899654V24.1003C0 24.5972 0.364448 25 0.814017 25H7.02872C7.47829 25 7.84274 24.5972 7.84274 24.1003V0.899654C7.84274 0.402789 7.47829 0 7.02872 0Z" fill="white"/>
<path d="M20.5072 0H14.2925C13.843 0 13.4785 0.402789 13.4785 0.899654V24.1003C13.4785 24.5972 13.843 25 14.2925 25H20.5072C20.9568 25 21.3213 24.5972 21.3213 24.1003V0.899654C21.3213 0.402789 20.9568 0 20.5072 0Z" fill="white"/>
<path d="M34.0014 0H27.7867C27.3371 0 26.9727 0.402789 26.9727 0.899654V24.1003C26.9727 24.5972 27.3371 25 27.7867 25H34.0014C34.4509 25 34.8154 24.5972 34.8154 24.1003V0.899654C34.8154 0.402789 34.4509 0 34.0014 0Z" fill="white"/>
<path d="M47.4789 0H41.2642C40.8146 0 40.4502 0.402789 40.4502 0.899654V24.1003C40.4502 24.5972 40.8146 25 41.2642 25H47.4789C47.9285 25 48.2929 24.5972 48.2929 24.1003V0.899654C48.2929 0.402789 47.9285 0 47.4789 0Z" fill="white"/>
<path d="M60.9731 0H54.7584C54.3088 0 53.9443 0.402789 53.9443 0.899654V24.1003C53.9443 24.5972 54.3088 25 54.7584 25H60.9731C61.4226 25 61.7871 24.5972 61.7871 24.1003V0.899654C61.7871 0.402789 61.4226 0 60.9731 0Z" fill="white"/>
<path d="M74.4506 0H68.2359C67.7863 0 67.4219 0.402789 67.4219 0.899654V24.1003C67.4219 24.5972 67.7863 25 68.2359 25H74.4506C74.9002 25 75.2646 24.5972 75.2646 24.1003V0.899654C75.2646 0.402789 74.9002 0 74.4506 0Z" fill="white"/>
<path d="M87.9301 0H81.7154C81.2658 0 80.9014 0.402789 80.9014 0.899654V24.1003C80.9014 24.5972 81.2658 25 81.7154 25H87.9301C88.3797 25 88.7441 24.5972 88.7441 24.1003V0.899654C88.7441 0.402789 88.3797 0 87.9301 0Z" fill="white"/>
<path d="M101.423 0H95.2085C94.759 0 94.3945 0.402789 94.3945 0.899654V24.1003C94.3945 24.5972 94.759 25 95.2085 25H101.423C101.873 25 102.237 24.5972 102.237 24.1003V0.899654C102.237 0.402789 101.873 0 101.423 0Z" fill="white"/>
<path d="M114.903 0H108.688C108.238 0 107.874 0.402789 107.874 0.899654V24.1003C107.874 24.5972 108.238 25 108.688 25H114.903C115.352 25 115.717 24.5972 115.717 24.1003V0.899654C115.717 0.402789 115.352 0 114.903 0Z" fill="white"/>
<path d="M128.396 0H122.181C121.732 0 121.367 0.402789 121.367 0.899654V24.1003C121.367 24.5972 121.732 25 122.181 25H128.396C128.845 25 129.21 24.5972 129.21 24.1003V0.899654C129.21 0.402789 128.845 0 128.396 0Z" fill="white"/>
<path d="M521.614 0H515.399C514.949 0 514.585 0.402789 514.585 0.899654V24.1003C514.585 24.5972 514.949 25 515.399 25H521.614C522.063 25 522.428 24.5972 522.428 24.1003V0.899654C522.428 0.402789 522.063 0 521.614 0Z" fill="white"/>
<path d="M155.368 0H149.153C148.703 0 148.339 0.402789 148.339 0.899654V24.1003C148.339 24.5972 148.703 25 149.153 25H155.368C155.817 25 156.182 24.5972 156.182 24.1003V0.899654C156.182 0.402789 155.817 0 155.368 0Z" fill="white"/>
<path d="M168.846 0H162.631C162.182 0 161.817 0.402789 161.817 0.899654V24.1003C161.817 24.5972 162.182 25 162.631 25H168.846C169.296 25 169.66 24.5972 169.66 24.1003V0.899654C169.66 0.402789 169.296 0 168.846 0Z" fill="white"/>
<path d="M182.325 0H176.11C175.66 0 175.296 0.402789 175.296 0.899654V24.1003C175.296 24.5972 175.66 25 176.11 25H182.325C182.774 25 183.139 24.5972 183.139 24.1003V0.899654C183.139 0.402789 182.774 0 182.325 0Z" fill="white"/>
<path d="M195.819 0H189.604C189.154 0 188.79 0.402789 188.79 0.899654V24.1003C188.79 24.5972 189.154 25 189.604 25H195.819C196.268 25 196.633 24.5972 196.633 24.1003V0.899654C196.633 0.402789 196.268 0 195.819 0Z" fill="white"/>
<path d="M209.296 0H203.082C202.632 0 202.268 0.402789 202.268 0.899654V24.1003C202.268 24.5972 202.632 25 203.082 25H209.296C209.746 25 210.11 24.5972 210.11 24.1003V0.899654C210.11 0.402789 209.746 0 209.296 0Z" fill="white"/>
<path d="M222.79 0H216.576C216.126 0 215.762 0.402789 215.762 0.899654V24.1003C215.762 24.5972 216.126 25 216.576 25H222.79C223.24 25 223.604 24.5972 223.604 24.1003V0.899654C223.604 0.402789 223.24 0 222.79 0Z" fill="white"/>
<path d="M236.268 0H230.053C229.604 0 229.239 0.402789 229.239 0.899654V24.1003C229.239 24.5972 229.604 25 230.053 25H236.268C236.718 25 237.082 24.5972 237.082 24.1003V0.899654C237.082 0.402789 236.718 0 236.268 0Z" fill="white"/>
<path d="M249.746 0H243.532C243.082 0 242.718 0.402789 242.718 0.899654V24.1003C242.718 24.5972 243.082 25 243.532 25H249.746C250.196 25 250.561 24.5972 250.561 24.1003V0.899654C250.561 0.402789 250.196 0 249.746 0Z" fill="white"/>
<path d="M263.241 0H257.026C256.576 0 256.212 0.402789 256.212 0.899654V24.1003C256.212 24.5972 256.576 25 257.026 25H263.241C263.69 25 264.055 24.5972 264.055 24.1003V0.899654C264.055 0.402789 263.69 0 263.241 0Z" fill="white"/>
<path d="M276.718 0H270.503C270.054 0 269.689 0.402789 269.689 0.899654V24.1003C269.689 24.5972 270.054 25 270.503 25H276.718C277.168 25 277.532 24.5972 277.532 24.1003V0.899654C277.532 0.402789 277.168 0 276.718 0Z" fill="white"/>
<path d="M290.213 0H283.999C283.549 0 283.185 0.402789 283.185 0.899654V24.1003C283.185 24.5972 283.549 25 283.999 25H290.213C290.663 25 291.027 24.5972 291.027 24.1003V0.899654C291.027 0.402789 290.663 0 290.213 0Z" fill="white"/>
<path d="M303.691 0H297.476C297.027 0 296.662 0.402789 296.662 0.899654V24.1003C296.662 24.5972 297.027 25 297.476 25H303.691C304.14 25 304.505 24.5972 304.505 24.1003V0.899654C304.505 0.402789 304.14 0 303.691 0Z" fill="white"/>
<path d="M536.218 0H530.004C529.554 0 529.189 0.402789 529.189 0.899654V24.1003C529.189 24.5972 529.554 25 530.004 25H536.218C536.668 25 537.032 24.5972 537.032 24.1003V0.899654C537.032 0.402789 536.668 0 536.218 0Z" fill="white"/>
<path d="M330.663 0H324.449C323.999 0 323.635 0.402789 323.635 0.899654V24.1003C323.635 24.5972 323.999 25 324.449 25H330.663C331.113 25 331.477 24.5972 331.477 24.1003V0.899654C331.477 0.402789 331.113 0 330.663 0Z" fill="white"/>
<path d="M344.142 0H337.927C337.478 0 337.113 0.402789 337.113 0.899654V24.1003C337.113 24.5972 337.478 25 337.927 25H344.142C344.592 25 344.956 24.5972 344.956 24.1003V0.899654C344.956 0.402789 344.592 0 344.142 0Z" fill="white"/>
<path d="M357.636 0H351.421C350.972 0 350.607 0.402789 350.607 0.899654V24.1003C350.607 24.5972 350.972 25 351.421 25H357.636C358.086 25 358.45 24.5972 358.45 24.1003V0.899654C358.45 0.402789 358.086 0 357.636 0Z" fill="white"/>
<path d="M371.114 0H364.899C364.449 0 364.085 0.402789 364.085 0.899654V24.1003C364.085 24.5972 364.449 25 364.899 25H371.114C371.563 25 371.928 24.5972 371.928 24.1003V0.899654C371.928 0.402789 371.563 0 371.114 0Z" fill="white"/>
<path d="M384.608 0H378.393C377.944 0 377.579 0.402789 377.579 0.899654V24.1003C377.579 24.5972 377.944 25 378.393 25H384.608C385.057 25 385.422 24.5972 385.422 24.1003V0.899654C385.422 0.402789 385.057 0 384.608 0Z" fill="white"/>
<path d="M478.391 0H472.176C471.727 0 471.362 0.402789 471.362 0.899654V24.1003C471.362 24.5972 471.727 25 472.176 25H478.391C478.841 25 479.205 24.5972 479.205 24.1003V0.899654C479.205 0.402789 478.841 0 478.391 0Z" fill="white"/>
<path d="M411.564 0H405.349C404.9 0 404.535 0.402789 404.535 0.899654V24.1003C404.535 24.5972 404.9 25 405.349 25H411.564C412.013 25 412.378 24.5972 412.378 24.1003V0.899654C412.378 0.402789 412.013 0 411.564 0Z" fill="white"/>
<path d="M425.058 0H418.843C418.394 0 418.029 0.402789 418.029 0.899654V24.1003C418.029 24.5972 418.394 25 418.843 25H425.058C425.508 25 425.872 24.5972 425.872 24.1003V0.899654C425.872 0.402789 425.508 0 425.058 0Z" fill="white"/>
<path d="M438.536 0H432.321C431.871 0 431.507 0.402789 431.507 0.899654V24.1003C431.507 24.5972 431.871 25 432.321 25H438.536C438.985 25 439.35 24.5972 439.35 24.1003V0.899654C439.35 0.402789 438.985 0 438.536 0Z" fill="white"/>
<path d="M581.552 0H575.337C574.888 0 574.523 0.402789 574.523 0.899654V24.1003C574.523 24.5972 574.888 25 575.337 25H581.552C582.002 25 582.366 24.5972 582.366 24.1003V0.899654C582.366 0.402789 582.002 0 581.552 0Z" fill="white"/>
<path d="M607.649 0H601.434C600.985 0 600.62 0.402789 600.62 0.899654V24.1003C600.62 24.5972 600.985 25 601.434 25H607.649C608.098 25 608.463 24.5972 608.463 24.1003V0.899654C608.463 0.402789 608.098 0 607.649 0Z" fill="white"/>
<path d="M621.142 0H614.927C614.478 0 614.113 0.402789 614.113 0.899654V24.1003C614.113 24.5972 614.478 25 614.927 25H621.142C621.592 25 621.956 24.5972 621.956 24.1003V0.899654C621.956 0.402789 621.592 0 621.142 0Z" fill="white"/>
<path d="M634.621 0H628.406C627.956 0 627.592 0.402789 627.592 0.899654V24.1003C627.592 24.5972 627.956 25 628.406 25H634.621C635.07 25 635.435 24.5972 635.435 24.1003V0.899654C635.435 0.402789 635.07 0 634.621 0Z" fill="white"/>
<path d="M648.114 0H641.899C641.449 0 641.085 0.402789 641.085 0.899654V24.1003C641.085 24.5972 641.449 25 641.899 25H648.114C648.563 25 648.928 24.5972 648.928 24.1003V0.899654C648.928 0.402789 648.563 0 648.114 0Z" fill="white"/>
<path d="M661.593 0H655.378C654.929 0 654.564 0.402789 654.564 0.899654V24.1003C654.564 24.5972 654.929 25 655.378 25H661.593C662.043 25 662.407 24.5972 662.407 24.1003V0.899654C662.407 0.402789 662.043 0 661.593 0Z" fill="white"/>
<path d="M675.086 0H668.872C668.422 0 668.058 0.402789 668.058 0.899654V24.1003C668.058 24.5972 668.422 25 668.872 25H675.086C675.536 25 675.9 24.5972 675.9 24.1003V0.899654C675.9 0.402789 675.536 0 675.086 0Z" fill="white"/>
<path d="M688.565 0H682.35C681.901 0 681.536 0.402789 681.536 0.899654V24.1003C681.536 24.5972 681.901 25 682.35 25H688.565C689.014 25 689.379 24.5972 689.379 24.1003V0.899654C689.379 0.402789 689.014 0 688.565 0Z" fill="white"/>
<path d="M702.042 0H695.828C695.378 0 695.014 0.402789 695.014 0.899654V24.1003C695.014 24.5972 695.378 25 695.828 25H702.042C702.492 25 702.856 24.5972 702.856 24.1003V0.899654C702.856 0.402789 702.492 0 702.042 0Z" fill="white"/>
<path d="M715.537 0H709.322C708.872 0 708.508 0.402789 708.508 0.899654V24.1003C708.508 24.5972 708.872 25 709.322 25H715.537C715.986 25 716.351 24.5972 716.351 24.1003V0.899654C716.351 0.402789 715.986 0 715.537 0Z" fill="white"/>
<path d="M729.015 0H722.8C722.351 0 721.986 0.402789 721.986 0.899654V24.1003C721.986 24.5972 722.351 25 722.8 25H729.015C729.465 25 729.829 24.5972 729.829 24.1003V0.899654C729.829 0.402789 729.465 0 729.015 0Z" fill="white"/>
<path d="M742.509 0H736.295C735.845 0 735.48 0.402789 735.48 0.899654V24.1003C735.48 24.5972 735.845 25 736.295 25H742.509C742.959 25 743.323 24.5972 743.323 24.1003V0.899654C743.323 0.402789 742.959 0 742.509 0Z" fill="white"/>
<path d="M755.988 0H749.773C749.323 0 748.959 0.402789 748.959 0.899654V24.1003C748.959 24.5972 749.323 25 749.773 25H755.988C756.437 25 756.802 24.5972 756.802 24.1003V0.899654C756.802 0.402789 756.437 0 755.988 0Z" fill="white"/>
<path d="M782.959 0H776.745C776.295 0 775.931 0.402789 775.931 0.899654V24.1003C775.931 24.5972 776.295 25 776.745 25H782.959C783.409 25 783.773 24.5972 783.773 24.1003V0.899654C783.773 0.402789 783.409 0 782.959 0Z" fill="white"/>
<path d="M796.438 0H790.223C789.774 0 789.409 0.402789 789.409 0.899654V24.1003C789.409 24.5972 789.774 25 790.223 25H796.438C796.887 25 797.252 24.5972 797.252 24.1003V0.899654C797.252 0.402789 796.887 0 796.438 0Z" fill="white"/>
<path d="M809.931 0H803.716C803.267 0 802.902 0.402789 802.902 0.899654V24.1003C802.902 24.5972 803.267 25 803.716 25H809.931C810.381 25 810.745 24.5972 810.745 24.1003V0.899654C810.745 0.402789 810.381 0 809.931 0Z" fill="white"/>
<path d="M823.41 0H817.195C816.745 0 816.381 0.402789 816.381 0.899654V24.1003C816.381 24.5972 816.745 25 817.195 25H823.41C823.859 25 824.224 24.5972 824.224 24.1003V0.899654C824.224 0.402789 823.859 0 823.41 0Z" fill="white"/>
<path d="M836.904 0H830.689C830.239 0 829.875 0.402789 829.875 0.899654V24.1003C829.875 24.5972 830.239 25 830.689 25H836.904C837.353 25 837.718 24.5972 837.718 24.1003V0.899654C837.718 0.402789 837.353 0 836.904 0Z" fill="white"/>
<path d="M850.382 0H844.168C843.718 0 843.354 0.402789 843.354 0.899654V24.1003C843.354 24.5972 843.718 25 844.168 25H850.382C850.832 25 851.196 24.5972 851.196 24.1003V0.899654C851.196 0.402789 850.832 0 850.382 0Z" fill="white"/>
<path d="M863.86 0H857.645C857.196 0 856.831 0.402789 856.831 0.899654V24.1003C856.831 24.5972 857.196 25 857.645 25H863.86C864.309 25 864.674 24.5972 864.674 24.1003V0.899654C864.674 0.402789 864.309 0 863.86 0Z" fill="white"/>
<path d="M877.354 0H871.139C870.69 0 870.325 0.402789 870.325 0.899654V24.1003C870.325 24.5972 870.69 25 871.139 25H877.354C877.804 25 878.168 24.5972 878.168 24.1003V0.899654C878.168 0.402789 877.804 0 877.354 0Z" fill="white"/>
</svg>
