<svg width="187" height="62" viewBox="0 0 187 62" fill="none" xmlns="http://www.w3.org/2000/svg">
<path d="M63.8194 42.8018C61.4445 42.8018 59.345 42.3348 57.5209 41.4019C55.6969 40.4474 54.2867 39.1006 53.29 37.3618C52.2933 35.6228 51.7949 33.5762 51.7949 31.2222C51.7949 28.8681 52.2933 26.8216 53.29 25.0826C54.2867 23.3223 55.6969 21.9756 57.5209 21.0425C59.345 20.0882 61.4445 19.611 63.8194 19.611C65.4314 19.611 66.8523 19.7806 68.0823 20.12C69.3338 20.4381 70.4788 20.9471 71.5178 21.6469V26.2596C70.5849 25.4961 69.514 24.9447 68.3052 24.6054C67.1175 24.2448 65.7603 24.0646 64.2333 24.0646C62.8124 24.0646 61.529 24.3615 60.3839 24.9553C59.26 25.5279 58.3694 26.355 57.7119 27.4366C57.0545 28.5182 56.7255 29.78 56.7255 31.2222C56.7255 32.6855 57.0226 33.9686 57.6162 35.0714C58.2314 36.153 59.0902 36.9907 60.1929 37.5845C61.2957 38.1783 62.5684 38.4752 64.0104 38.4752C65.3253 38.4752 66.4703 38.2419 67.446 37.7753V33.4808H63.8514V29.9179H72.1222V40.6384C70.0227 42.0805 67.2554 42.8018 63.8194 42.8018Z" fill="#ABABAB"/>
<path d="M73.2383 27.0548H77.8826V29.2498C78.4978 28.5075 79.3566 27.9455 80.4594 27.5638C81.5622 27.1608 82.8137 26.9594 84.213 26.9594V30.6177C82.7499 30.6177 81.4561 30.8404 80.3322 31.2857C79.2294 31.7311 78.4659 32.4097 78.0417 33.3217V42.3244H73.2383V27.0548Z" fill="#ABABAB"/>
<path d="M93.4456 42.8018C90.5188 42.8018 88.2175 42.1016 86.5422 40.7018C84.8669 39.2813 84.0293 37.2982 84.0293 34.7533C84.0293 32.2295 84.7717 30.236 86.256 28.7727C87.7619 27.3094 89.9036 26.5777 92.6821 26.5777C94.5057 26.5777 96.0538 26.9171 97.3265 27.5957C98.5987 28.2743 99.5639 29.2181 100.221 30.4269C100.879 31.6145 101.207 32.9612 101.207 34.467V36.4075H88.6103C88.9496 38.3586 90.7731 39.3344 94.0815 39.3344C95.0571 39.3344 96.0646 39.2494 97.1036 39.0795C98.143 38.91 99.0445 38.6767 99.808 38.3798V41.752C99.0656 42.0697 98.1111 42.3245 96.9445 42.5155C95.7784 42.706 94.6118 42.8018 93.4456 42.8018ZM96.6582 33.2899C96.5949 32.272 96.2129 31.4873 95.5132 30.9359C94.8135 30.3633 93.8483 30.077 92.6183 30.077C91.4095 30.077 90.455 30.3633 89.7553 30.9359C89.0556 31.5085 88.6736 32.2932 88.6103 33.2899H96.6582Z" fill="#ABABAB"/>
<path d="M111.051 42.8018C108.125 42.8018 105.823 42.1016 104.148 40.7018C102.473 39.2813 101.635 37.2982 101.635 34.7533C101.635 32.2295 102.377 30.236 103.862 28.7727C105.367 27.3094 107.51 26.5777 110.288 26.5777C112.112 26.5777 113.66 26.9171 114.932 27.5957C116.205 28.2743 117.169 29.2181 117.827 30.4269C118.484 31.6145 118.813 32.9612 118.813 34.467V36.4075H106.216C106.555 38.3586 108.379 39.3344 111.687 39.3344C112.663 39.3344 113.671 39.2494 114.71 39.0795C115.748 38.91 116.65 38.6767 117.413 38.3798V41.752C116.671 42.0697 115.717 42.3245 114.55 42.5155C113.384 42.706 112.218 42.8018 111.051 42.8018ZM114.264 33.2899C114.2 32.272 113.819 31.4873 113.119 30.9359C112.419 30.3633 111.454 30.077 110.224 30.077C109.015 30.077 108.061 30.3633 107.361 30.9359C106.661 31.5085 106.28 32.2932 106.216 33.2899H114.264Z" fill="#ABABAB"/>
<path d="M119.879 27.0549H124.523V28.9318C125.223 28.1471 126.05 27.5639 127.005 27.1821C127.98 26.7792 128.998 26.5777 130.059 26.5777C132.137 26.5777 133.685 27.1397 134.703 28.2637C135.742 29.3665 136.262 30.8617 136.262 32.7492V42.3245H131.458V33.2899C131.458 31.3176 130.546 30.3315 128.722 30.3315C127.917 30.3315 127.164 30.533 126.464 30.9359C125.764 31.3176 125.17 31.8903 124.682 32.6537V42.3245H119.879V27.0549Z" fill="#ABABAB"/>
<path d="M140.503 24.7012C139.761 24.7012 139.136 24.4573 138.627 23.9695C138.118 23.4817 137.863 22.8667 137.863 22.1244C137.863 21.4034 138.118 20.799 138.627 20.3112C139.136 19.8022 139.761 19.5477 140.503 19.5477C141.246 19.5477 141.871 19.8022 142.38 20.3112C142.89 20.799 143.144 21.4034 143.144 22.1244C143.144 22.8667 142.89 23.4817 142.38 23.9695C141.871 24.4573 141.246 24.7012 140.503 24.7012ZM138.086 27.0552H142.922V42.3248H138.086V27.0552Z" fill="#ABABAB"/>
<path d="M151.112 42.8018C149.967 42.8018 148.737 42.6741 147.422 42.4198C146.128 42.1866 145.11 41.8473 144.368 41.4019V37.6481C145.217 38.1571 146.234 38.5707 147.422 38.8888C148.61 39.2067 149.713 39.3658 150.73 39.3658C151.6 39.3658 152.236 39.2917 152.639 39.1434C153.042 38.9948 153.243 38.7191 153.243 38.3162C153.243 37.9981 153.127 37.7436 152.894 37.5527C152.661 37.3406 152.3 37.1603 151.812 37.0119C151.346 36.8422 150.561 36.5983 149.458 36.2802C148.164 35.8985 147.146 35.5168 146.404 35.135C145.683 34.7321 145.132 34.2337 144.75 33.6399C144.389 33.0461 144.209 32.2826 144.209 31.3494C144.209 29.7588 144.835 28.5712 146.086 27.7866C147.358 26.9806 149.076 26.5777 151.24 26.5777C152.3 26.5777 153.392 26.6943 154.516 26.9277C155.661 27.1397 156.541 27.426 157.157 27.7866V31.4449C156.541 31.0419 155.736 30.7132 154.738 30.4587C153.763 30.2042 152.809 30.077 151.875 30.077C151.006 30.077 150.327 30.1618 149.84 30.3315C149.373 30.5011 149.14 30.8193 149.14 31.2858C149.14 31.6888 149.362 31.9963 149.808 32.2084C150.274 32.4204 151.134 32.6855 152.385 33.0036L153.021 33.1627C154.357 33.5232 155.396 33.9262 156.138 34.3716C156.881 34.7957 157.4 35.3153 157.697 35.9303C158.015 36.5241 158.174 37.277 158.174 38.1889C158.174 39.5887 157.57 40.7126 156.361 41.561C155.152 42.3879 153.402 42.8018 151.112 42.8018Z" fill="#ABABAB"/>
<path d="M159.285 18.8159H164.089V28.8048C164.81 28.0625 165.626 27.5111 166.538 27.1505C167.45 26.7688 168.426 26.5779 169.465 26.5779C171.543 26.5779 173.091 27.1399 174.109 28.2639C175.148 29.3668 175.668 30.8619 175.668 32.7494V42.3247H170.865V33.2902C170.865 31.3178 169.953 30.3317 168.129 30.3317C167.323 30.3317 166.57 30.5332 165.87 30.9361C165.17 31.3178 164.577 31.8905 164.089 32.6539V42.3247H159.285V18.8159Z" fill="#ABABAB"/>
<path fill-rule="evenodd" clip-rule="evenodd" d="M35.3887 23.3166C35.3887 27.3575 32.1132 30.6333 28.0723 30.6333C24.0314 30.6333 20.7556 27.3575 20.7556 23.3166C20.7556 19.2758 24.0314 16 28.0723 16C32.1132 16 35.3887 19.2758 35.3887 23.3166ZM11.0532 30.1016C19.0245 29.5642 25.9717 35.5323 26.6188 43.5206C26.6859 44.3484 26.6827 45.1654 26.6142 45.9664C18.6429 46.5037 11.6956 40.5356 11.0485 32.5474C10.9815 31.7197 10.9847 30.9024 11.0532 30.1016ZM31.7718 45.6867C39.7599 45.0396 45.7281 38.0924 45.1908 30.1211C44.3897 30.0527 43.5727 30.0495 42.7449 30.1165C34.7566 30.7636 28.7886 37.7108 29.3259 45.682C30.1268 45.7506 30.944 45.7538 31.7718 45.6867Z" fill="#ABABAB"/>
<path d="M186 8.625V1H1V8.625M186 54.375V62H1V54.375" stroke="#ABABAB" stroke-opacity="0.5"/>
</svg>
