<svg width="76" height="62" viewBox="0 0 76 62" fill="none" xmlns="http://www.w3.org/2000/svg">
<g clip-path="url(#clip0_109_2072)">
<path d="M23.7403 20C21.6442 20 19.634 20.8327 18.1519 22.3148L13.3148 27.1519C11.8327 28.634 11 30.6442 11 32.7403C11 37.1052 14.5384 40.6436 18.9033 40.6436C20.9993 40.6436 23.0095 39.8109 24.4917 38.3288L27.8375 34.9829C27.8375 34.9828 27.8376 34.983 27.8375 34.9829L37.5862 25.2343C38.2941 24.5264 39.2541 24.1287 40.2552 24.1287C41.9312 24.1287 43.3521 25.221 43.8447 26.7326L46.9214 23.656C45.5178 21.4577 43.0567 20 40.2552 20C38.1591 20 36.1489 20.8327 34.6668 22.3148L21.5723 35.4093C20.8644 36.1172 19.9043 36.5149 18.9033 36.5149C16.8186 36.5149 15.1287 34.825 15.1287 32.7403C15.1287 31.7393 15.5264 30.7792 16.2343 30.0713L21.0713 25.2343C21.7792 24.5264 22.7393 24.1287 23.7403 24.1287C25.4164 24.1287 26.8372 25.2211 27.3298 26.7327L30.4066 23.656C29.003 21.4577 26.5419 20 23.7403 20Z" fill="#ABABAB"/>
<path d="M38.0868 35.4093C37.379 36.1172 36.4189 36.5149 35.4178 36.5149C33.7421 36.5149 32.3213 35.4228 31.8285 33.9115L28.752 36.9881C30.1556 39.1861 32.6165 40.6436 35.4178 40.6436C37.5139 40.6436 39.5241 39.8109 41.0063 38.3287L54.1008 25.2342C54.8086 24.5264 55.7687 24.1287 56.7698 24.1287C58.8544 24.1287 60.5443 25.8186 60.5443 27.9032C60.5443 28.9043 60.1467 29.8644 59.4388 30.5723L54.6017 35.4093C53.8939 36.1172 52.9338 36.5149 51.9327 36.5149C50.2568 36.5149 48.836 35.4226 48.3433 33.9111L45.2667 36.9878C46.6702 39.186 49.1312 40.6436 51.9327 40.6436C54.0288 40.6436 56.039 39.8109 57.5211 38.3287L62.3582 33.4917C63.8404 32.0095 64.673 29.9993 64.673 27.9032C64.673 23.5384 61.1347 20 56.7698 20C54.6737 20 52.6635 20.8326 51.1814 22.3148L38.0868 35.4093Z" fill="#ABABAB"/>
</g>
<path d="M75 7.625V0H1V7.625M75 53.375V61H1V53.375" stroke="#ABABAB" stroke-opacity="0.5"/>
<defs>
<clipPath id="clip0_109_2072">
<rect width="53.6733" height="20.6436" fill="white" transform="translate(11 20)"/>
</clipPath>
</defs>
</svg>
