<svg width="169" height="41" viewBox="0 0 169 41" fill="none" xmlns="http://www.w3.org/2000/svg">
<path d="M23.3999 5.39878L23.3627 5.32731C23.3347 5.26827 23.3067 5.20922 23.2756 5.15018C23.2445 5.09113 23.2165 5.0352 23.1886 4.97926C23.1606 4.92332 23.1327 4.88293 23.1016 4.83631C23.0705 4.78969 23.0332 4.71511 22.9929 4.65607L22.9027 4.52866L22.7349 4.29559C22.6759 4.22101 22.6199 4.14643 22.5578 4.07806C22.4956 4.00969 22.5174 4.03145 22.4956 4.00658C22.4303 3.932 22.362 3.86053 22.2936 3.78906L22.2439 3.73933C22.1663 3.66164 22.0854 3.58707 22.0046 3.51559L21.9766 3.49073C21.3892 2.97944 20.6996 2.59913 19.9536 2.37511H19.9257C19.8169 2.34403 19.7081 2.31296 19.5963 2.28809H19.5217C19.4254 2.26634 19.329 2.2508 19.2327 2.23527L19.1301 2.21662L18.8504 2.18555H18.7448C18.6205 2.18555 18.4962 2.18555 18.3719 2.18555H18.3222C17.332 2.18592 16.3608 2.45565 15.5122 2.96586C14.6637 3.47605 13.97 4.2075 13.5054 5.08181C13.4402 5.20301 13.378 5.32731 13.3221 5.45161L8.39659 16.4245C8.34459 16.5427 8.3228 16.6721 8.33316 16.801C8.34353 16.9298 8.38574 17.0539 8.45599 17.1624C8.52623 17.2708 8.62233 17.3601 8.73563 17.4223C8.84894 17.4844 8.9759 17.5174 9.10511 17.5183H12.1412C12.3184 17.5145 12.4947 17.5461 12.6596 17.6112C12.8244 17.6763 12.9747 17.7736 13.1014 17.8974C13.3093 18.1116 13.5713 18.2655 13.8596 18.3426C14.148 18.4196 14.4519 18.4171 14.7388 18.3352C15.0258 18.2532 15.2853 18.0949 15.4894 17.8772C15.6936 17.6595 15.8349 17.3905 15.8983 17.0988C15.9511 16.8571 15.9493 16.6067 15.8927 16.3658C15.8361 16.125 15.7263 15.8998 15.5713 15.7069C15.4163 15.5141 15.22 15.3584 14.997 15.2513C14.7739 15.1443 14.5298 15.0885 14.2823 15.0882C13.8591 15.087 13.4523 15.2509 13.148 15.545C12.8929 15.8055 12.5462 15.9561 12.1816 15.9645H10.3171L14.7516 6.03583C14.8195 5.88638 14.8963 5.7411 14.9815 5.60077C15.3319 5.02276 15.824 4.54382 16.4114 4.20935C16.9987 3.87489 17.6618 3.69599 18.3377 3.68961H18.3719C18.5225 3.68955 18.673 3.69889 18.8225 3.71758H18.9032C19.0359 3.73622 19.1695 3.76109 19.3041 3.79216L19.4191 3.82324C19.5434 3.85742 19.6646 3.89471 19.7858 3.94133L19.9039 3.99105C19.9987 4.02884 20.0911 4.07243 20.1805 4.12156L20.3141 4.18993C20.4135 4.24587 20.513 4.30802 20.6249 4.37328L20.7367 4.45408C20.8458 4.52752 20.9497 4.60852 21.0475 4.69647L21.1283 4.77105C21.2277 4.86738 21.3271 4.96994 21.4204 5.08181L21.4391 5.10667C21.5419 5.22636 21.6365 5.35304 21.7218 5.48579C21.8075 5.61622 21.8843 5.75222 21.9518 5.89289L21.9797 5.94572C22.2186 6.46717 22.3414 7.03422 22.3397 7.60774C22.3382 8.18126 22.2121 8.74765 21.9704 9.26773L17.365 19.5787L7.47987 19.6036C7.33041 19.6056 7.18458 19.6498 7.05921 19.7312C6.93384 19.8126 6.83404 19.9278 6.77134 20.0635L1.89868 30.9742C1.51552 31.8094 1.34133 32.7255 1.39114 33.6432C1.44095 34.5608 1.71326 35.4525 2.18458 36.2415C2.73328 37.1358 3.5262 37.8547 4.46989 38.3133C5.41359 38.772 6.46872 38.9512 7.51094 38.8301C8.47902 38.7095 9.39899 38.3389 10.1804 37.7548C10.9618 37.1707 11.5775 36.3932 11.9671 35.4988L23.3968 9.90169C23.4528 9.78046 23.4994 9.65924 23.5429 9.53499L25.308 13.4847C25.5214 13.9629 25.6316 14.4807 25.6316 15.0043C25.6316 15.528 25.5214 16.0457 25.308 16.5239L21.1407 25.8467H20.7678C20.5914 25.8499 20.416 25.8184 20.2518 25.7539C20.0876 25.6894 19.9377 25.5931 19.8107 25.4707C19.6033 25.2554 19.3413 25.1006 19.0526 25.0229C18.764 24.9452 18.4597 24.9476 18.1723 25.0296C17.8849 25.1116 17.6253 25.2704 17.4212 25.4888C17.2171 25.7072 17.0763 25.977 17.0138 26.2693C16.9605 26.5112 16.9619 26.762 17.0183 27.0032C17.0746 27.2445 17.1843 27.4701 17.3394 27.6633C17.4944 27.8565 17.6908 28.0125 17.9142 28.1197C18.1375 28.227 18.3821 28.2827 18.6298 28.283C19.0547 28.2827 19.4628 28.1165 19.7671 27.82C20.0223 27.5595 20.3691 27.4089 20.7336 27.4005H21.1314L24.7859 35.5889C25.3809 36.9266 26.483 37.973 27.8496 38.4981C29.2162 39.0232 30.7355 38.9839 32.0731 38.3889C33.4107 37.7938 34.4573 36.6917 34.9823 35.3251C35.5074 33.9585 35.4681 32.4392 34.873 31.1016L23.3999 5.39878ZM10.5036 34.9643C10.0737 35.9245 9.28005 36.6746 8.29722 37.0496C7.31437 37.4246 6.22278 37.3938 5.26262 36.9641C4.30245 36.5342 3.55235 35.7405 3.17733 34.7577C2.80231 33.7748 2.83309 32.6832 3.2629 31.7231L7.9864 21.1573L16.6876 21.1356L10.5036 34.9643ZM33.1577 35.505C32.7699 36.104 32.2276 36.5872 31.588 36.9035C30.9485 37.2198 30.2354 37.3576 29.524 37.3022C28.8126 37.2468 28.1294 37.0004 27.5465 36.5889C26.9636 36.1774 26.5026 35.6161 26.2123 34.9643L22.4831 26.6329L26.8338 16.9093L33.4685 31.7231C33.7383 32.3289 33.8513 32.9929 33.7969 33.6538C33.7427 34.3147 33.5228 34.9514 33.1577 35.505Z" fill="#051A67"/>
<path d="M41.0968 2.16689C39.8508 2.3076 38.6904 2.87004 37.8081 3.76092C36.9256 4.65179 36.3744 5.81756 36.2455 7.06484C36.1167 8.31211 36.4182 9.56592 37.1 10.6183C37.7817 11.6707 38.8027 12.4584 39.9936 12.8507C40.2654 12.9348 40.5034 13.1028 40.6737 13.3306C40.844 13.5583 40.9378 13.8342 40.9415 14.1187V24.5042C40.9453 24.6814 40.9137 24.8576 40.8486 25.0225C40.7835 25.1874 40.6862 25.3376 40.5624 25.4644C40.365 25.6542 40.2186 25.8906 40.1366 26.1518C40.0546 26.413 40.0396 26.6907 40.0931 26.9591C40.1754 27.359 40.4025 27.7143 40.7308 27.957C41.059 28.1997 41.4653 28.3126 41.8717 28.2742C42.2781 28.2356 42.656 28.0484 42.9328 27.7483C43.2096 27.4483 43.3659 27.0566 43.3716 26.6484C43.3722 26.2248 43.2072 25.8177 42.9117 25.5142C42.6539 25.2587 42.5047 24.9136 42.4953 24.5508V14.1466C42.4928 13.8636 42.5802 13.5871 42.745 13.3571C42.9097 13.127 43.1433 12.9551 43.412 12.8662C43.7077 12.7735 43.9947 12.655 44.2697 12.512C44.7905 12.2385 45.2646 11.884 45.6743 11.4617V33.2489C45.6811 34.2433 45.3209 35.2053 44.6627 35.9507C44.0045 36.696 43.0944 37.1725 42.1068 37.2888C41.5593 37.3411 41.0068 37.2786 40.4848 37.105C39.9628 36.9315 39.4828 36.6508 39.0756 36.281C38.6684 35.9112 38.3428 35.4604 38.1199 34.9576C37.8971 34.4547 37.7816 33.9108 37.7811 33.3608V18.8733C37.777 18.6964 37.8084 18.5206 37.8735 18.3562C37.9387 18.1918 38.0362 18.0422 38.1602 17.9161C38.3944 17.6879 38.5557 17.3955 38.6239 17.0756C38.6921 16.7559 38.6642 16.4231 38.5436 16.1191C38.4229 15.8152 38.2151 15.5538 37.9462 15.3678C37.6773 15.1818 37.3593 15.0795 37.0325 15.074C36.7055 15.0684 36.3842 15.1596 36.1091 15.3363C35.8339 15.5129 35.6173 15.7671 35.4864 16.0667C35.3553 16.3662 35.316 16.6979 35.3732 17.0199C35.4304 17.3418 35.5816 17.6396 35.8077 17.8757C36.0682 18.1308 36.2188 18.4777 36.2273 18.8422V33.2209C36.2273 36.2974 38.7444 38.9171 41.8209 38.8643C43.2627 38.8391 44.637 38.2489 45.6482 37.2209C46.6593 36.1929 47.2267 34.809 47.2281 33.367V7.63313C47.2274 6.85768 47.0629 6.09113 46.7455 5.38365C46.428 4.67616 45.9647 4.0437 45.3859 3.52768C44.8071 3.01165 44.1259 2.62368 43.3868 2.38918C42.6476 2.15468 41.8673 2.07893 41.0968 2.16689ZM43.5549 11.1323C42.9927 11.4285 42.3663 11.5822 41.7308 11.5797C40.7651 11.5802 39.8328 11.227 39.11 10.5867C38.3871 9.94641 37.9239 9.06355 37.8077 8.10493C37.6917 7.1463 37.9308 6.17836 38.4798 5.38404C39.029 4.58973 39.85 4.02408 40.7878 3.79401C41.7256 3.56396 42.7153 3.68542 43.5695 4.13544C44.4239 4.58548 45.0838 5.33289 45.4245 6.23641C45.7652 7.13994 45.7632 8.13698 45.4187 9.03906C45.0742 9.94118 44.4112 10.6858 43.5549 11.1323Z" fill="#051A67"/>
<path d="M53.9238 24.696V22.2144H65.2218V24.696H53.9238Z" fill="#051A67"/>
<path d="M82.1712 39.3574C79.8637 39.3574 77.9808 38.8676 76.5223 37.888C75.0855 36.9084 74.2365 35.5805 73.9753 33.9044H78.6121C78.7862 34.318 79.1563 34.6336 79.7223 34.8513C80.31 35.069 81.0502 35.1778 81.9427 35.1778C83.4229 35.1778 84.5005 34.8948 85.1756 34.3288C85.8499 33.7629 86.1878 32.8813 86.1878 31.684V28.0595L86.449 28.1248C86.2311 29.3438 85.6001 30.3125 84.5552 31.0309C83.5103 31.7275 82.2148 32.0758 80.6692 32.0758C79.189 32.0758 77.8937 31.7384 76.7835 31.0635C75.6951 30.367 74.8461 29.3982 74.2365 28.1574C73.627 26.9166 73.3223 25.4581 73.3223 23.7819C73.3223 22.084 73.6379 20.6037 74.2692 19.3411C74.9005 18.0785 75.7821 17.0989 76.9141 16.4023C78.0678 15.7057 79.4066 15.3574 80.9304 15.3574C82.498 15.3574 83.7715 15.7275 84.7511 16.4676C85.7519 17.2078 86.3397 18.22 86.5143 19.5044L86.2858 19.537V15.684H91.0858V31.6186C91.0858 34.0132 90.2907 35.8962 88.7021 37.2676C87.1127 38.6609 84.9356 39.3574 82.1712 39.3574ZM82.3672 28.3207C83.5209 28.3207 84.4572 27.9288 85.1756 27.1452C85.8939 26.3397 86.2531 25.1969 86.2531 23.7166C86.2531 22.2364 85.8825 21.1044 85.1429 20.3207C84.4246 19.5152 83.4776 19.1125 82.3019 19.1125C81.1699 19.1125 80.2339 19.5152 79.4937 20.3207C78.7753 21.1262 78.4161 22.269 78.4161 23.7493C78.4161 25.2295 78.7753 26.3615 79.4937 27.1452C80.2339 27.9288 81.1916 28.3207 82.3672 28.3207ZM102.838 32.6635C100.988 32.6635 99.3772 32.3044 98.0058 31.586C96.6343 30.8458 95.5674 29.8227 94.8058 28.5166C94.0654 27.2105 93.6956 25.7084 93.6956 24.0105C93.6956 22.2907 94.0654 20.7887 94.8058 19.5044C95.5674 18.1982 96.6237 17.186 97.9731 16.4676C99.3225 15.7275 100.89 15.3574 102.675 15.3574C104.395 15.3574 105.886 15.7057 107.149 16.4023C108.411 17.0989 109.391 18.0676 110.087 19.3084C110.784 20.5493 111.132 22.0078 111.132 23.684C111.132 24.0323 111.122 24.3588 111.1 24.6635C111.078 24.9466 111.045 25.2186 111.002 25.4799H96.569V22.2472H107.051L106.202 22.835C106.202 21.4853 105.875 20.4948 105.222 19.8635C104.591 19.2105 103.72 18.884 102.61 18.884C101.326 18.884 100.324 19.3193 99.6058 20.1901C98.9094 21.0609 98.5609 22.367 98.5609 24.1084C98.5609 25.8064 98.9094 27.069 99.6058 27.8962C100.324 28.7234 101.391 29.137 102.806 29.137C103.589 29.137 104.265 29.0064 104.83 28.7452C105.396 28.484 105.82 28.0595 106.104 27.4717H110.708C110.163 29.0826 109.228 30.356 107.9 31.2921C106.594 32.2064 104.906 32.6635 102.838 32.6635ZM113.752 32.337V15.684H118.552V19.6023H118.65V32.337H113.752ZM125.344 32.337V22.0186C125.344 21.1044 125.104 20.4186 124.625 19.9615C124.168 19.5044 123.493 19.2758 122.601 19.2758C121.838 19.2758 121.153 19.4499 120.544 19.7982C119.956 20.1466 119.487 20.6254 119.14 21.235C118.813 21.8445 118.65 22.5629 118.65 23.3901L118.225 19.3737C118.769 18.1547 119.564 17.186 120.609 16.4676C121.675 15.7275 122.981 15.3574 124.527 15.3574C126.377 15.3574 127.793 15.8799 128.772 16.9248C129.752 17.9479 130.242 19.3302 130.242 21.0717V32.337H125.344ZM141.511 32.6635C139.77 32.6635 138.235 32.2935 136.907 31.5533C135.58 30.8132 134.535 29.7901 133.772 28.484C133.033 27.1778 132.662 25.6866 132.662 24.0105C132.662 22.3343 133.033 20.8431 133.772 19.537C134.535 18.2309 135.58 17.2078 136.907 16.4676C138.235 15.7275 139.77 15.3574 141.511 15.3574C142.97 15.3574 144.276 15.6295 145.429 16.1737C146.605 16.6962 147.563 17.4254 148.303 18.3615C149.065 19.2976 149.555 20.3969 149.772 21.6595H145.038C144.798 20.854 144.363 20.2445 143.731 19.8309C143.123 19.4173 142.404 19.2105 141.576 19.2105C140.793 19.2105 140.107 19.4064 139.519 19.7982C138.954 20.1901 138.518 20.7452 138.213 21.4635C137.909 22.1819 137.756 23.0309 137.756 24.0105C137.756 24.9901 137.909 25.8391 138.213 26.5574C138.518 27.2758 138.954 27.8309 139.519 28.2227C140.107 28.6146 140.793 28.8105 141.576 28.8105C142.404 28.8105 143.123 28.6037 143.731 28.1901C144.363 27.7764 144.798 27.167 145.038 26.3615H149.772C149.555 27.6241 149.065 28.7234 148.303 29.6595C147.563 30.5955 146.605 31.3356 145.429 31.8799C144.276 32.4023 142.97 32.6635 141.511 32.6635ZM152.674 39.0309L157.278 28.8431L158.127 27.4391L162.438 15.684H167.662L157.572 39.0309H152.674ZM156.201 32.0105L149.801 15.684H155.091L160.348 30.5737L156.201 32.0105Z" fill="#051A67"/>
</svg>
