<svg width="451" height="421" viewBox="0 0 451 421" fill="none" xmlns="http://www.w3.org/2000/svg">
<path d="M22.936 221.505C22.9438 222.046 22.7904 222.578 22.4952 223.032C22.2 223.486 21.7765 223.842 21.2784 224.055C20.7803 224.268 20.2303 224.327 19.6982 224.226C19.166 224.126 18.676 223.869 18.2902 223.489C17.9045 223.108 17.6405 222.622 17.532 222.092C17.4234 221.561 17.4751 221.01 17.6805 220.509C17.8859 220.008 18.2357 219.579 18.6855 219.277C19.1352 218.976 19.6645 218.815 20.2061 218.814C20.9244 218.811 21.6148 219.092 22.1263 219.596C22.6379 220.1 22.929 220.787 22.936 221.505Z" fill="#051A67"/>
<path d="M27.8691 344.854L33.8156 341.414L39.7686 337.98V344.854V351.734L33.8156 348.301L27.8691 344.854Z" fill="#051A67"/>
<path d="M96.1664 409.824C96.1743 410.366 96.0208 410.897 95.7257 411.351C95.4305 411.805 95.007 412.162 94.5089 412.374C94.0108 412.587 93.4607 412.647 92.9286 412.546C92.3965 412.445 91.9064 412.188 91.5207 411.808C91.135 411.428 90.871 410.941 90.7624 410.411C90.6539 409.88 90.7056 409.329 90.911 408.828C91.1164 408.327 91.4662 407.899 91.916 407.597C92.3657 407.295 92.895 407.134 93.4366 407.134C94.1548 407.13 94.8452 407.411 95.3568 407.916C95.8684 408.42 96.1595 409.106 96.1664 409.824Z" fill="#051A67"/>
<path d="M277.468 355.694C275.178 355.724 272.949 356.43 271.06 357.725C269.172 359.019 267.708 360.843 266.854 362.967C265.999 365.091 265.793 367.421 266.259 369.662C266.726 371.904 267.846 373.957 269.477 375.564C271.108 377.17 273.178 378.258 275.427 378.691C277.675 379.124 280.001 378.881 282.112 377.995C284.223 377.108 286.024 375.617 287.29 373.709C288.555 371.801 289.228 369.561 289.223 367.271C289.191 364.18 287.937 361.226 285.734 359.057C283.532 356.887 280.559 355.678 277.468 355.694ZM277.468 378.223C275.312 378.195 273.213 377.529 271.434 376.311C269.655 375.092 268.277 373.375 267.471 371.375C266.666 369.375 266.47 367.182 266.908 365.071C267.346 362.96 268.398 361.025 269.933 359.511C271.468 357.996 273.416 356.969 275.532 356.559C277.649 356.149 279.84 356.374 281.829 357.205C283.818 358.037 285.517 359.438 286.712 361.232C287.907 363.027 288.545 365.135 288.545 367.291C288.517 370.205 287.336 372.989 285.26 375.035C283.184 377.08 280.382 378.219 277.468 378.204V378.223Z" fill="#051A67"/>
<path d="M51.0421 265.129C51.0146 266.956 51.5314 268.75 52.5265 270.283C53.5216 271.815 54.9501 273.017 56.6302 273.735C58.3104 274.454 60.1662 274.656 61.9616 274.316C63.757 273.977 65.4108 273.111 66.7125 271.828C68.0143 270.546 68.9052 268.906 69.2719 267.115C69.6385 265.325 69.4644 263.467 68.7716 261.776C68.0789 260.085 66.8988 258.639 65.3815 257.62C63.8642 256.602 62.0784 256.059 60.2511 256.058C59.0507 256.049 57.8602 256.276 56.7476 256.727C55.635 257.178 54.6221 257.843 53.7669 258.686C52.9117 259.528 52.2308 260.531 51.7633 261.636C51.2957 262.742 51.0507 263.929 51.0421 265.129ZM67.7302 265.129C67.7498 266.617 67.3267 268.076 66.5147 269.322C65.7027 270.568 64.5385 271.545 63.1701 272.127C61.8017 272.71 60.291 272.873 58.8299 272.595C57.3688 272.316 56.0234 271.61 54.9648 270.565C53.9062 269.521 53.1821 268.185 52.8847 266.728C52.5873 265.27 52.7299 263.758 53.2945 262.382C53.859 261.006 54.82 259.829 56.0552 259C57.2904 258.172 58.7441 257.729 60.2314 257.729C62.2064 257.719 64.1049 258.492 65.5106 259.879C66.9164 261.266 67.7146 263.154 67.7302 265.129Z" fill="#051A67"/>
<path d="M308.201 357.582C309.001 357.572 309.78 357.325 310.441 356.873C311.101 356.421 311.613 355.784 311.912 355.042C312.212 354.3 312.285 353.486 312.123 352.702C311.961 351.919 311.571 351.201 311.002 350.638C310.433 350.075 309.71 349.693 308.925 349.54C308.14 349.387 307.327 349.47 306.588 349.777C305.849 350.085 305.218 350.604 304.774 351.27C304.329 351.935 304.091 352.717 304.09 353.517C304.097 354.601 304.534 355.638 305.304 356.4C306.075 357.162 307.117 357.587 308.201 357.582Z" fill="#051A67"/>
<path d="M392.726 377.954C391.642 377.947 390.599 378.371 389.827 379.132C389.055 379.893 388.617 380.929 388.608 382.013C388.607 382.305 388.64 382.596 388.707 382.881H326.907L314.35 368.107H337.728C337.927 368.714 338.335 369.23 338.88 369.562C339.425 369.895 340.071 370.023 340.701 369.922C341.332 369.821 341.906 369.499 342.32 369.013C342.734 368.528 342.962 367.91 342.962 367.272C342.962 366.633 342.734 366.016 342.32 365.53C341.906 365.044 341.332 364.722 340.701 364.621C340.071 364.521 339.425 364.648 338.88 364.981C338.335 365.313 337.927 365.83 337.728 366.436H294.761C294.489 362.034 292.549 357.901 289.336 354.88C286.122 351.859 281.878 350.177 277.467 350.177C273.057 350.177 268.812 351.859 265.599 354.88C262.386 357.901 260.446 362.034 260.174 366.436H241.644L219.74 344.828H181.246C181.039 343.914 180.527 343.097 179.795 342.512C179.063 341.928 178.154 341.609 177.217 341.609C176.279 341.609 175.37 341.928 174.638 342.512C173.906 343.097 173.394 343.914 173.188 344.828H155.427L170.938 329.528H218.661C218.86 330.136 219.269 330.654 219.815 330.988C220.361 331.322 221.009 331.45 221.641 331.349C222.273 331.248 222.849 330.926 223.265 330.439C223.68 329.952 223.909 329.332 223.909 328.692C223.909 328.052 223.68 327.433 223.265 326.946C222.849 326.459 222.273 326.136 221.641 326.035C221.009 325.935 220.361 326.063 219.815 326.397C219.269 326.73 218.86 327.248 218.661 327.857H170.234L153.033 344.828H138.561C138.408 336.253 135.746 327.911 130.905 320.832L147.35 304.637L146.165 303.466L167.544 315.642L189.172 303.321V278.693L167.544 266.373L145.909 278.693V303.341L146.152 303.479L129.938 319.47C125.797 313.878 120.425 309.315 114.236 306.134C108.048 302.954 101.21 301.242 94.2525 301.131V293.014L108.263 285.035V278.845L120.656 266.623V287.284L115.539 292.329L116.729 293.52L122.353 287.975V264.952L134.332 253.112V223.281L144.449 213.302C144.813 213.496 145.216 213.603 145.628 213.616C146.04 213.63 146.45 213.549 146.826 213.38C147.201 213.21 147.534 212.958 147.797 212.64C148.06 212.323 148.247 211.95 148.344 211.549C148.441 211.149 148.445 210.731 148.355 210.329C148.266 209.926 148.086 209.55 147.829 209.227C147.572 208.905 147.244 208.646 146.872 208.47C146.499 208.294 146.091 208.205 145.679 208.211C145.322 208.208 144.969 208.276 144.639 208.41C144.308 208.545 144.008 208.743 143.754 208.993C143.501 209.244 143.299 209.542 143.161 209.87C143.023 210.199 142.951 210.552 142.949 210.908C142.949 211.33 143.053 211.746 143.251 212.118L132.635 222.59V252.421L108.296 276.463V268.938L128.03 249.494V201.113H126.333V248.803L107.303 267.55L94.2525 260.131V242.877L74.6635 223.551V205.1C75.5817 204.916 76.4079 204.419 77.0015 203.695C77.5952 202.971 77.9196 202.063 77.9196 201.127C77.9196 200.19 77.5952 199.282 77.0015 198.558C76.4079 197.834 75.5817 197.337 74.6635 197.154V176.828C75.2832 176.627 75.8107 176.211 76.1512 175.655C76.4917 175.1 76.6228 174.441 76.5209 173.797C76.4191 173.154 76.0909 172.568 75.5954 172.144C75.1 171.721 74.4698 171.489 73.8182 171.489C73.1666 171.489 72.5364 171.721 72.041 172.144C71.5455 172.568 71.2173 173.154 71.1154 173.797C71.0136 174.441 71.1447 175.1 71.4852 175.655C71.8257 176.211 72.3532 176.627 72.9729 176.828V197.167C72.0547 197.351 71.2285 197.847 70.6349 198.571C70.0412 199.296 69.7168 200.203 69.7168 201.14C69.7168 202.076 70.0412 202.984 70.6349 203.708C71.2285 204.433 72.0547 204.929 72.9729 205.113V224.261L92.562 243.587V260.144L78.551 268.123V285.048L87.8259 290.31V307.413C79.964 308.528 72.625 312 66.7765 317.372L59.5408 310.228H29.0785C28.9713 309.723 28.7231 309.26 28.3627 308.891C28.0023 308.522 27.5445 308.263 27.0427 308.144C26.5408 308.025 26.0155 308.051 25.5279 308.219C25.0402 308.387 24.6103 308.69 24.2881 309.093C23.9659 309.495 23.7648 309.981 23.7079 310.494C23.6511 311.007 23.7411 311.525 23.9673 311.988C24.1935 312.452 24.5466 312.841 24.9857 313.112C25.4247 313.383 25.9316 313.523 26.4473 313.517C26.9775 313.518 27.4967 313.365 27.9416 313.077C28.3865 312.788 28.7381 312.377 28.9535 311.892H58.8567L65.5859 318.523C61.9993 322.076 59.1522 326.304 57.2092 330.963C55.2662 335.623 54.2658 340.621 54.2658 345.67C54.2658 350.718 55.2662 355.717 57.2092 360.376C59.1522 365.036 61.9993 369.264 65.5859 372.817L62.5601 375.797C58.5808 371.853 55.4214 367.16 53.264 361.989C51.1065 356.819 49.9937 351.272 49.9897 345.67H48.2663C48.2746 351.494 49.4362 357.259 51.684 362.632C53.9318 368.005 57.2214 372.879 61.3629 376.974L23.8687 413.975C23.4895 413.775 23.0672 413.671 22.6387 413.672C22.1067 413.679 21.5886 413.842 21.1494 414.143C20.7102 414.443 20.3697 414.866 20.1706 415.36C19.9715 415.853 19.9228 416.394 20.0305 416.915C20.1383 417.436 20.3977 417.914 20.7761 418.288C21.1546 418.661 21.6352 418.915 22.1574 419.016C22.6796 419.118 23.2202 419.063 23.7111 418.858C24.202 418.653 24.6213 418.307 24.9162 417.864C25.2111 417.421 25.3685 416.901 25.3685 416.369C25.3672 415.945 25.2634 415.528 25.0659 415.152L62.5601 378.138C70.9583 385.923 81.9921 390.24 93.4434 390.222V388.584C82.442 388.598 71.8412 384.456 63.7638 376.987L66.7897 374.007C74.1432 380.742 83.7731 384.443 93.7439 384.367C103.715 384.291 113.287 380.444 120.538 373.6L134.417 387.269H158.282L187.83 416.422C187.724 416.704 187.669 417.002 187.666 417.303C187.66 417.912 187.858 418.505 188.229 418.988C188.6 419.471 189.122 419.816 189.712 419.967C190.302 420.118 190.925 420.067 191.483 419.823C192.041 419.578 192.5 419.154 192.788 418.617C193.076 418.081 193.176 417.463 193.072 416.863C192.968 416.263 192.666 415.716 192.214 415.308C191.762 414.9 191.186 414.655 190.579 414.612C189.971 414.57 189.367 414.732 188.863 415.073L160.69 387.269H167.57L197.072 416.376C196.867 416.92 196.842 417.516 197 418.076C197.158 418.637 197.49 419.132 197.949 419.489C198.408 419.847 198.969 420.049 199.551 420.065C200.133 420.081 200.704 419.911 201.183 419.58C201.661 419.248 202.021 418.772 202.21 418.222C202.398 417.672 202.406 417.075 202.232 416.52C202.058 415.965 201.711 415.479 201.242 415.135C200.773 414.791 200.206 414.606 199.624 414.606C199.091 414.606 198.57 414.762 198.125 415.054L169.951 387.269H204.439C204.638 387.879 205.048 388.398 205.596 388.733C206.143 389.069 206.793 389.197 207.427 389.097C208.061 388.996 208.638 388.672 209.055 388.184C209.472 387.696 209.701 387.075 209.701 386.433C209.701 385.791 209.472 385.17 209.055 384.682C208.638 384.194 208.061 383.87 207.427 383.77C206.793 383.669 206.143 383.798 205.596 384.133C205.048 384.468 204.638 384.987 204.439 385.598H168.261L168.136 385.473L168.011 385.598H158.979L158.854 385.473L158.736 385.598H135.115L121.722 372.383C128.705 365.238 132.619 355.647 132.628 345.657C132.628 324.607 115.526 307.465 94.2788 307.018V302.795C117.861 303.242 136.904 322.292 136.904 345.657V346.485H173.188C173.394 347.399 173.906 348.216 174.638 348.801C175.37 349.386 176.279 349.704 177.217 349.704C178.154 349.704 179.063 349.386 179.795 348.801C180.527 348.216 181.039 347.399 181.246 346.485H219.042L240.94 368.107H260.167C260.439 372.509 262.379 376.642 265.593 379.663C268.806 382.684 273.05 384.366 277.461 384.366C281.871 384.366 286.116 382.684 289.329 379.663C292.542 376.642 294.483 372.509 294.754 368.107H312.126L326.111 384.552H389.509C389.898 385.028 390.387 385.411 390.943 385.674C391.498 385.937 392.105 386.073 392.719 386.071C393.796 386.071 394.828 385.644 395.589 384.883C396.35 384.121 396.778 383.089 396.778 382.013C396.778 380.936 396.35 379.904 395.589 379.143C394.828 378.382 393.796 377.954 392.719 377.954H392.726ZM147.593 279.66L167.537 268.3L187.475 279.66V302.374L167.537 313.727L147.593 302.374V279.66ZM80.2679 269.076L93.4237 261.578L106.58 269.07V284.074L93.4237 291.573L80.2679 284.074V269.076ZM89.5493 291.284L92.5883 293.014V307.018C91.5621 307.018 90.5491 307.084 89.5493 307.182V291.284ZM92.5883 346.012L115.381 368.495C109.435 374.069 101.587 377.164 93.4368 377.152C75.8343 377.152 61.5142 363.029 61.5142 345.663C61.5142 328.561 75.3805 314.642 92.5883 314.194V346.012ZM94.2788 345.354V314.194C111.493 314.642 125.353 328.58 125.353 345.663C125.348 353.746 122.202 361.511 116.578 367.318L94.2788 345.354ZM93.4303 382.664C72.7559 382.664 55.9361 366.068 55.9361 345.67C55.9361 325.554 72.302 309.143 92.5883 308.695V313.537C75.0055 313.984 60.8432 328.219 60.8432 345.67C60.8432 363.43 75.4594 377.829 93.4368 377.829C101.766 377.841 109.786 374.674 115.861 368.975L119.328 372.396C112.326 379.005 103.058 382.679 93.4303 382.664ZM130.924 345.67C130.917 355.216 127.181 364.382 120.512 371.212L117.045 367.791C122.793 361.861 126.011 353.929 126.017 345.67C126.017 328.219 111.848 313.984 94.2657 313.537V308.695C114.572 309.136 130.938 325.548 130.938 345.663L130.924 345.67ZM277.467 382.664C274.428 382.624 271.469 381.686 268.961 379.968C266.454 378.25 264.51 375.829 263.375 373.01C262.239 370.19 261.963 367.098 262.581 364.122C263.198 361.146 264.682 358.419 266.845 356.284C269.008 354.149 271.755 352.701 274.739 352.123C277.723 351.544 280.811 351.861 283.615 353.034C286.42 354.206 288.815 356.181 290.499 358.711C292.184 361.241 293.083 364.212 293.083 367.252C293.05 371.365 291.388 375.296 288.461 378.185C285.533 381.074 281.58 382.685 277.467 382.664Z" fill="#051A67"/>
<path d="M105.179 224.925C104.379 224.937 103.6 225.185 102.941 225.638C102.281 226.091 101.77 226.729 101.472 227.471C101.174 228.214 101.102 229.028 101.265 229.811C101.428 230.595 101.819 231.312 102.389 231.874C102.959 232.436 103.682 232.816 104.468 232.968C105.254 233.12 106.067 233.036 106.805 232.728C107.543 232.419 108.173 231.899 108.617 231.233C109.06 230.566 109.297 229.784 109.297 228.984C109.293 228.447 109.184 227.916 108.975 227.421C108.766 226.927 108.462 226.478 108.08 226.101C107.697 225.724 107.244 225.426 106.746 225.224C106.249 225.023 105.716 224.921 105.179 224.925Z" fill="#051A67"/>
<path d="M105.179 237.378C104.377 237.388 103.596 237.635 102.934 238.089C102.272 238.542 101.759 239.181 101.46 239.925C101.161 240.669 101.088 241.485 101.251 242.27C101.414 243.055 101.806 243.775 102.378 244.338C102.949 244.901 103.674 245.282 104.461 245.434C105.249 245.586 106.064 245.501 106.803 245.191C107.543 244.881 108.174 244.359 108.618 243.691C109.062 243.023 109.298 242.238 109.296 241.436C109.288 240.352 108.849 239.316 108.077 238.555C107.305 237.794 106.263 237.371 105.179 237.378Z" fill="#051A67"/>
<path d="M198.321 288.692C199.126 288.688 199.911 288.445 200.577 287.995C201.244 287.545 201.761 286.907 202.065 286.163C202.369 285.418 202.445 284.6 202.284 283.812C202.123 283.024 201.732 282.301 201.16 281.736C200.588 281.17 199.861 280.787 199.071 280.635C198.281 280.483 197.464 280.568 196.723 280.88C195.982 281.193 195.35 281.718 194.907 282.389C194.465 283.061 194.231 283.849 194.236 284.653C194.249 285.728 194.684 286.756 195.449 287.512C196.214 288.268 197.246 288.692 198.321 288.692Z" fill="#051A67"/>
<path d="M198.322 293.026C197.522 293.036 196.743 293.283 196.082 293.735C195.422 294.188 194.91 294.825 194.61 295.568C194.311 296.31 194.238 297.124 194.401 297.908C194.563 298.692 194.954 299.41 195.524 299.972C196.093 300.535 196.817 300.916 197.602 301.069C198.388 301.221 199.201 301.138 199.94 300.829C200.679 300.52 201.309 300 201.753 299.334C202.197 298.668 202.433 297.885 202.434 297.085C202.43 296.548 202.321 296.018 202.113 295.523C201.904 295.029 201.6 294.581 201.219 294.204C200.837 293.827 200.385 293.529 199.888 293.327C199.391 293.125 198.859 293.022 198.322 293.026Z" fill="#051A67"/>
<path d="M57.5022 265.13C57.4956 265.671 57.6502 266.202 57.9461 266.655C58.2421 267.108 58.6661 267.463 59.1643 267.675C59.6625 267.887 60.2124 267.946 60.7441 267.844C61.2758 267.742 61.7653 267.485 62.1503 267.105C62.5354 266.724 62.7987 266.238 62.9067 265.707C63.0147 265.177 62.9626 264.626 62.757 264.126C62.5514 263.625 62.2016 263.197 61.752 262.895C61.3024 262.594 60.7733 262.433 60.232 262.433C59.8753 262.429 59.5215 262.496 59.1908 262.63C58.8602 262.764 58.5594 262.962 58.3056 263.213C58.0519 263.464 57.8502 263.762 57.7123 264.091C57.5744 264.42 57.503 264.773 57.5022 265.13Z" fill="#051A67"/>
<path d="M93.4387 400.76C91.6505 400.787 89.9102 401.342 88.4366 402.355C86.9631 403.369 85.822 404.795 85.1567 406.455C84.4915 408.115 84.3318 409.935 84.6978 411.686C85.0638 413.436 85.9391 415.04 87.2137 416.294C88.4883 417.549 90.1052 418.398 91.8614 418.737C93.6175 419.075 95.4345 418.886 97.0838 418.195C98.7332 417.504 100.141 416.34 101.131 414.851C102.121 413.361 102.649 411.612 102.648 409.824C102.638 408.624 102.393 407.438 101.925 406.333C101.457 405.228 100.776 404.226 99.9206 403.384C99.0655 402.543 98.0529 401.878 96.9407 401.427C95.8285 400.977 94.6385 400.75 93.4387 400.76ZM93.4387 417.204C91.9791 417.186 90.5575 416.737 89.3528 415.913C88.148 415.089 87.2138 413.927 86.6678 412.573C86.1218 411.219 85.9884 409.734 86.2842 408.305C86.5801 406.875 87.292 405.566 88.3305 404.54C89.369 403.514 90.6877 402.818 92.1206 402.54C93.5535 402.262 95.0367 402.414 96.3836 402.977C97.7304 403.539 98.8808 404.488 99.6899 405.703C100.499 406.918 100.931 408.345 100.931 409.804C100.927 410.783 100.729 411.752 100.35 412.655C99.9715 413.558 99.4183 414.378 98.7225 415.067C98.0267 415.756 97.2019 416.301 96.2953 416.671C95.3886 417.041 94.4179 417.229 93.4387 417.224V417.204Z" fill="#051A67"/>
<path d="M29.3956 221.505C29.4243 219.677 28.9087 217.883 27.9144 216.35C26.9201 214.816 25.4921 213.613 23.8121 212.894C22.1321 212.175 20.276 211.972 18.4802 212.311C16.6844 212.649 15.03 213.515 13.7276 214.797C12.4251 216.079 11.5336 217.719 11.1664 219.509C10.7991 221.3 10.9729 223.159 11.6654 224.85C12.358 226.541 13.5381 227.988 15.0555 229.006C16.5729 230.025 18.359 230.569 20.1865 230.569C21.3863 230.579 22.5763 230.352 23.6885 229.901C24.8007 229.451 25.8132 228.786 26.6684 227.944C27.5235 227.103 28.2045 226.101 28.6725 224.996C29.1404 223.891 29.3861 222.705 29.3956 221.505ZM20.1865 228.898C18.7297 228.874 17.3127 228.419 16.1134 227.592C14.9141 226.765 13.9859 225.602 13.4454 224.249C12.905 222.896 12.7763 221.413 13.0755 219.987C13.3747 218.561 14.0886 217.256 15.1274 216.234C16.1662 215.212 17.4837 214.521 18.9144 214.245C20.3451 213.97 21.8252 214.124 23.169 214.687C24.5127 215.25 25.6601 216.197 26.4672 217.41C27.2742 218.623 27.7048 220.048 27.705 221.505C27.6808 223.473 26.8785 225.352 25.4735 226.731C24.0685 228.111 22.1749 228.878 20.2062 228.865L20.1865 228.898Z" fill="#051A67"/>
<path d="M233.173 393.458C231.385 393.485 229.645 394.04 228.171 395.054C226.697 396.067 225.556 397.494 224.891 399.154C224.226 400.814 224.066 402.633 224.432 404.384C224.798 406.135 225.673 407.738 226.948 408.992C228.223 410.247 229.84 411.097 231.596 411.435C233.352 411.773 235.169 411.585 236.818 410.893C238.468 410.202 239.876 409.038 240.866 407.549C241.856 406.059 242.383 404.311 242.382 402.522C242.374 401.322 242.128 400.135 241.661 399.03C241.193 397.925 240.512 396.923 239.657 396.081C238.802 395.239 237.789 394.574 236.676 394.124C235.564 393.674 234.373 393.447 233.173 393.458ZM233.173 409.903C231.714 409.884 230.292 409.435 229.087 408.611C227.882 407.787 226.948 406.625 226.402 405.271C225.856 403.918 225.723 402.433 226.019 401.003C226.314 399.574 227.026 398.264 228.065 397.238C229.103 396.212 230.422 395.517 231.855 395.239C233.288 394.96 234.771 395.112 236.118 395.675C237.465 396.238 238.615 397.186 239.424 398.401C240.233 399.616 240.665 401.043 240.665 402.502C240.655 404.48 239.86 406.372 238.455 407.763C237.05 409.155 235.15 409.931 233.173 409.922V409.903Z" fill="#051A67"/>
<path d="M233.167 399.832C232.635 399.84 232.118 400.005 231.679 400.306C231.241 400.608 230.901 401.032 230.703 401.526C230.505 402.02 230.458 402.561 230.567 403.082C230.676 403.602 230.937 404.079 231.316 404.452C231.695 404.825 232.176 405.077 232.699 405.178C233.221 405.278 233.762 405.221 234.252 405.015C234.743 404.809 235.161 404.462 235.455 404.019C235.749 403.575 235.905 403.055 235.904 402.523C235.902 402.166 235.83 401.813 235.691 401.484C235.552 401.156 235.35 400.858 235.096 400.608C234.841 400.358 234.54 400.16 234.209 400.027C233.878 399.894 233.524 399.828 233.167 399.832Z" fill="#051A67"/>
<path d="M60.2318 290.25C60.7637 290.244 61.2819 290.08 61.7211 289.78C62.1602 289.479 62.5008 289.056 62.6999 288.563C62.899 288.069 62.9477 287.528 62.84 287.007C62.7322 286.486 62.4728 286.009 62.0943 285.635C61.7159 285.261 61.2353 285.007 60.7131 284.906C60.1908 284.804 59.6503 284.86 59.1594 285.065C58.6685 285.27 58.2492 285.616 57.9543 286.058C57.6594 286.501 57.502 287.021 57.502 287.553C57.5037 287.91 57.5757 288.262 57.7139 288.591C57.8521 288.919 58.0538 289.217 58.3073 289.468C58.5609 289.719 58.8614 289.917 59.1917 290.051C59.5219 290.185 59.8753 290.253 60.2318 290.25Z" fill="#051A67"/>
<path d="M241.835 376.625C241.408 376.626 240.986 376.728 240.605 376.921L216.03 352.688H138.371V354.379H170.346L184.423 368.271H209.755V366.6H185.127L172.741 354.379H215.333L239.408 378.125C239.208 378.5 239.102 378.917 239.099 379.342C239.091 379.885 239.245 380.417 239.541 380.873C239.837 381.328 240.261 381.685 240.76 381.898C241.26 382.111 241.811 382.171 242.344 382.07C242.878 381.969 243.369 381.711 243.756 381.33C244.142 380.949 244.407 380.462 244.516 379.93C244.625 379.398 244.573 378.846 244.367 378.343C244.161 377.841 243.81 377.411 243.36 377.109C242.909 376.806 242.378 376.645 241.835 376.645V376.625Z" fill="#051A67"/>
<path d="M10.4372 174.276C10.8301 174.275 11.2184 174.19 11.5752 174.026L44.3793 206.376L45.5765 205.192L12.8184 172.888C13.0503 172.488 13.1728 172.034 13.1736 171.572C13.1828 171.029 13.0301 170.495 12.735 170.039C12.4399 169.583 12.0158 169.226 11.5167 169.011C11.0175 168.797 10.4659 168.736 9.93214 168.837C9.39833 168.937 8.90645 169.194 8.51914 169.575C8.13182 169.955 7.86659 170.443 7.75722 170.975C7.64785 171.507 7.69929 172.06 7.90498 172.562C8.11067 173.065 8.46131 173.495 8.91225 173.798C9.3632 174.101 9.89405 174.262 10.4372 174.262V174.276Z" fill="#051A67"/>
<path d="M44.2605 131.71V161.449L65.9281 182.827V228.004L87.7734 249.553L88.9706 248.376L67.6252 227.326V116.482L81.6362 108.503V91.5779L67.6252 83.5989V8.38037H65.9281V83.6317L61.4749 86.1708V43.2433C62.0922 43.0414 62.6174 42.626 62.956 42.0717C63.2945 41.5174 63.4244 40.8605 63.3221 40.2191C63.2199 39.5777 62.8923 38.9937 62.3982 38.5721C61.9041 38.1505 61.2759 37.9189 60.6263 37.9189C59.9768 37.9189 59.3486 38.1505 58.8544 38.5721C58.3603 38.9937 58.0327 39.5777 57.9305 40.2191C57.8283 40.8605 57.9581 41.5174 58.2967 42.0717C58.6353 42.626 59.1604 43.0414 59.7778 43.2433V87.1049L51.8843 91.5844V108.509L65.8887 116.488V180.472L45.9115 160.738V131.644C46.433 131.46 46.8848 131.119 47.2051 130.668C47.5253 130.217 47.6985 129.678 47.7007 129.125C47.7118 128.611 47.5782 128.105 47.3153 127.664C47.0524 127.223 46.6707 126.865 46.2139 126.631C45.7571 126.396 45.2436 126.295 44.732 126.339C44.2205 126.383 43.7315 126.57 43.3211 126.878C42.9106 127.186 42.5952 127.604 42.4109 128.083C42.2266 128.562 42.1808 129.084 42.2788 129.588C42.3768 130.092 42.6146 130.558 42.965 130.933C43.3154 131.308 43.7643 131.578 44.2605 131.71ZM53.5814 92.5777L61.0736 88.3087H61.442V88.0982L66.7438 85.0789L79.8996 92.5777V107.569L66.7438 115.074L53.588 107.569L53.5814 92.5777Z" fill="#051A67"/>
<path d="M80.4599 148.345L78.1379 144.175L75.6383 148.247L73.1387 152.312L77.9603 152.417L82.7819 152.522L80.4599 148.345Z" fill="#051A67"/>
<path d="M325.572 353.695L321.448 351.228L317.324 348.761L317.219 353.517L317.113 358.273L321.343 355.99L325.572 353.695Z" fill="#051A67"/>
<path d="M190.1 262.61L185.975 260.144L181.845 257.67L181.746 262.433L181.641 267.189L185.87 264.9L190.1 262.61Z" fill="#051A67"/>
<path d="M30.4421 272.576L30.5473 267.82L30.6526 263.058L26.423 265.353L22.1934 267.642L26.3177 270.109L30.4421 272.576Z" fill="#051A67"/>
<path d="M130.471 295.026L127.964 299.098L125.465 303.169L130.286 303.275L135.108 303.38L132.786 299.203L130.471 295.026Z" fill="#051A67"/>
<path d="M125.257 116.923L122.935 112.746L120.613 108.575L118.114 112.64L115.607 116.712L120.436 116.817L125.257 116.923Z" fill="#051A67"/>
<path d="M71.5658 8.34738L69.2438 4.1704L66.9218 0L64.4222 4.07173L61.916 8.14346L66.7442 8.24213L71.5658 8.34738Z" fill="#051A67"/>
<path d="M75.6383 159.626L73.1387 163.698L77.9603 163.796L82.7819 163.902L80.4599 159.731L78.1379 155.554L75.6383 159.626Z" fill="#051A67"/>
<path d="M76.9151 105.832V94.2488L66.7456 88.4536L56.5762 94.2488V105.832L66.7456 111.654L76.9151 105.832ZM57.2537 94.65L66.7456 89.2364L76.2442 94.65V105.464L66.7522 110.871L57.2603 105.464L57.2537 94.65Z" fill="#051A67"/>
<path d="M184.239 300.723L184.404 300.624V281.41L167.538 271.8L150.823 281.311L150.652 281.41V300.624L167.525 310.235L184.239 300.723ZM151.35 281.792L167.544 272.583L183.739 281.792V300.243L167.544 309.452L151.35 300.243V281.792Z" fill="#051A67"/>
<path d="M110.08 392.011V399.023L116.224 402.522L122.374 399.023V392.011L116.224 388.511L110.08 392.011Z" fill="#051A67"/>
<path d="M164.208 243.639V239.232L160.34 237.028L156.473 239.232V243.639L160.34 245.843L164.208 243.639Z" fill="#051A67"/>
<path d="M294.176 332.816V326.784L288.881 323.765L283.586 326.778V332.816L288.881 335.829L294.176 332.816Z" fill="#051A67"/>
<path d="M104.284 270.392L93.4368 264.215L82.5898 270.392V282.751L93.4303 288.928L104.284 282.751V270.392ZM103.626 282.363L93.4631 288.158L83.2937 282.363V270.786L93.4631 264.991L103.626 270.786V282.363Z" fill="#051A67"/>
<path d="M121.283 248.961V172.558C121.827 172.388 122.303 172.049 122.641 171.59C122.979 171.131 123.163 170.576 123.164 170.006C123.173 169.501 123.04 169.003 122.782 168.569C122.525 168.134 122.151 167.779 121.704 167.545C121.256 167.31 120.752 167.204 120.248 167.238C119.744 167.273 119.259 167.447 118.848 167.741C118.437 168.035 118.115 168.437 117.919 168.902C117.723 169.368 117.66 169.879 117.737 170.379C117.814 170.878 118.029 171.346 118.356 171.731C118.684 172.116 119.112 172.402 119.593 172.558V248.961H121.283Z" fill="#051A67"/>
<path d="M364.83 362.311L361.12 360.193L357.41 358.088V362.311V366.541L361.12 364.43L364.83 362.311Z" fill="#051A67"/>
<path d="M84.9001 254.433L19.7786 190.193C20.0534 189.768 20.1996 189.272 20.1996 188.766C20.2075 188.224 20.054 187.693 19.7589 187.239C19.4637 186.785 19.0402 186.429 18.5421 186.216C18.044 186.003 17.4939 185.943 16.9618 186.044C16.4297 186.145 15.9396 186.402 15.5539 186.782C15.1682 187.162 14.9042 187.649 14.7957 188.179C14.6871 188.71 14.7388 189.261 14.9442 189.762C15.1496 190.263 15.4994 190.692 15.9492 190.993C16.3989 191.295 16.9282 191.456 17.4698 191.456C17.8154 191.449 18.1567 191.378 18.4762 191.246L67.6857 239.791H50.6488L38.1508 227.464L36.9536 228.648L49.945 241.455H69.3828L83.7292 255.611L84.9001 254.433Z" fill="#051A67"/>
<path d="M151.988 370.811L151.883 375.573L156.112 373.277L160.342 370.988L156.218 368.521L152.093 366.055L151.988 370.811Z" fill="#051A67"/>
<path d="M140.444 370.811L140.346 375.573L144.575 373.277L148.805 370.988L144.681 368.521L140.55 366.055L140.444 370.811Z" fill="#051A67"/>
<path d="M57.1289 409.824L59.4378 414.027L61.74 418.231L64.2265 414.133L66.7064 410.028L61.9176 409.929L57.1289 409.824Z" fill="#051A67"/>
<path d="M57.1289 398.358L59.4378 402.562L61.74 406.765L64.2265 402.667L66.7064 398.569L61.9176 398.464L57.1289 398.358Z" fill="#051A67"/>
<path d="M450.053 361.483C449.846 360.569 449.335 359.753 448.603 359.168C447.871 358.583 446.961 358.264 446.024 358.264C445.087 358.264 444.178 358.583 443.446 359.168C442.714 359.753 442.202 360.569 441.995 361.483H394.772L399.805 356.523H424.426C424.625 357.132 425.034 357.65 425.58 357.984C426.126 358.317 426.774 358.446 427.406 358.345C428.038 358.244 428.614 357.921 429.03 357.434C429.445 356.947 429.674 356.328 429.674 355.688C429.674 355.048 429.445 354.429 429.03 353.942C428.614 353.455 428.038 353.132 427.406 353.031C426.774 352.93 426.126 353.059 425.58 353.392C425.034 353.726 424.625 354.244 424.426 354.853H399.101L392.372 361.49H375.131L352.174 348.419V376.237L375.131 363.147H441.995C442.199 364.063 442.709 364.882 443.441 365.468C444.173 366.055 445.083 366.375 446.021 366.375C446.959 366.375 447.869 366.055 448.601 365.468C449.333 364.882 449.843 364.063 450.047 363.147H450.119V361.483H450.053ZM353.838 373.323V351.287L373.157 362.312L353.838 373.323Z" fill="#051A67"/>
<path d="M309.476 372.659L308.16 373.711L322.48 391.11L374.63 391.103V389.439H323.289L309.476 372.659Z" fill="#051A67"/>
<path d="M51.0823 288.389C51.2972 290.711 52.3984 292.86 54.1572 294.391C55.916 295.922 58.1971 296.716 60.5262 296.608C62.8554 296.501 65.0535 295.5 66.6637 293.814C68.2739 292.127 69.1724 289.885 69.1724 287.554C69.1724 285.222 68.2739 282.98 66.6637 281.294C65.0535 279.607 62.8554 278.606 60.5262 278.499C58.1971 278.391 55.916 279.185 54.1572 280.716C52.3984 282.247 51.2972 284.397 51.0823 286.718H5.24073C5.02746 286.113 4.60521 285.603 4.04988 285.281C3.49455 284.959 2.84256 284.846 2.21111 284.961C1.57966 285.077 1.01017 285.414 0.605012 285.912C0.199851 286.41 -0.0144072 287.036 0.000752724 287.678C0.0159127 288.32 0.259497 288.935 0.687718 289.413C1.11594 289.891 1.70071 290.201 2.33692 290.287C2.97312 290.373 3.61903 290.229 4.15854 289.881C4.69804 289.533 5.09576 289.004 5.28019 288.389H51.0823ZM60.2322 280.16C61.6917 280.18 63.1129 280.63 64.3169 281.455C65.5209 282.281 66.4541 283.443 66.9989 284.798C67.5437 286.152 67.6758 287.637 67.3787 289.066C67.0816 290.495 66.3685 291.804 65.3291 292.829C64.2897 293.854 62.9704 294.548 61.5372 294.825C60.1041 295.102 58.621 294.949 57.2747 294.385C55.9283 293.821 54.7788 292.872 53.9708 291.656C53.1627 290.441 52.7322 289.013 52.7333 287.554C52.7507 285.58 53.5497 283.693 54.9552 282.308C56.3608 280.922 58.2583 280.15 60.2322 280.16Z" fill="#051A67"/>
<path d="M111.321 204.626V197.62L105.171 194.121L99.0273 197.62V204.626L105.171 208.125L111.321 204.626Z" fill="#051A67"/>
<path d="M300.755 381.276L294.611 384.782V391.787L300.762 395.287L306.905 391.781V384.782L300.755 381.276Z" fill="#051A67"/>
<path d="M240.986 318.2V350.34L269.225 334.283L240.986 318.2ZM242.677 334.27V321.114L265.811 334.27L242.677 347.426V334.27Z" fill="#051A67"/>
<path d="M120.433 137.965L106.33 162.06H134.536L120.433 137.965ZM120.433 141.307L131.616 160.383H109.251L120.433 141.307Z" fill="#051A67"/>
<path d="M284.078 367.272C284.097 368.585 283.726 369.874 283.01 370.975C282.295 372.077 281.268 372.94 280.06 373.456C278.853 373.972 277.519 374.117 276.229 373.872C274.938 373.627 273.75 373.004 272.815 372.082C271.88 371.16 271.24 369.981 270.977 368.694C270.715 367.407 270.841 366.072 271.34 364.857C271.839 363.642 272.688 362.603 273.779 361.872C274.87 361.141 276.154 360.752 277.467 360.753C279.207 360.744 280.88 361.425 282.119 362.647C283.358 363.869 284.062 365.532 284.078 367.272Z" fill="#051A67"/>
<path d="M104.975 345.663C105.006 347.951 104.356 350.197 103.108 352.114C101.86 354.032 100.069 355.536 97.9643 356.433C95.8594 357.331 93.5351 357.583 91.2869 357.156C89.0387 356.729 86.9681 355.644 85.3384 354.037C83.7088 352.431 82.5936 350.376 82.1347 348.134C81.6759 345.892 81.894 343.565 82.7614 341.447C83.6288 339.33 85.1064 337.518 87.0061 336.242C88.9059 334.966 91.1421 334.284 93.4304 334.283C96.4696 334.264 99.3922 335.451 101.557 337.585C103.721 339.718 104.95 342.624 104.975 345.663Z" fill="#051A67"/>
<path d="M71.5658 102.786L66.7442 105.536L61.916 102.786V97.2935L66.7442 94.5439L71.5658 97.2935V102.786Z" fill="#051A67"/>
<path d="M177.194 296.52L167.531 302.019L157.875 296.52V285.508L167.531 280.009L177.194 285.508V296.52Z" fill="#051A67"/>
<path d="M98.1675 279.265L93.4314 281.962L88.6953 279.265V273.878L93.4314 271.181L98.1675 273.878V279.265Z" fill="#051A67"/>
<path d="M255.729 334.283L251.374 336.763L247.02 339.243V334.277V329.317L251.374 331.803L255.729 334.283Z" fill="#051A67"/>
<path d="M120.433 149.509L122.578 153.173L124.716 156.837H120.433L116.145 156.831L118.289 153.173L120.433 149.509Z" fill="#051A67"/>
</svg>
