<svg width="254" height="261" viewBox="0 0 254 261" fill="none" xmlns="http://www.w3.org/2000/svg">
<mask id="path-1-inside-1_213_1334" fill="white">
<path d="M225.199 209.762C243.578 184.767 252.652 153.708 250.752 122.306C248.852 90.9039 236.106 61.2728 214.86 38.8694L201.112 52.9668C219.089 71.9234 229.875 96.9958 231.482 123.567C233.09 150.138 225.411 176.418 209.86 197.568L225.199 209.762Z"/>
</mask>
<path d="M225.199 209.762C243.578 184.767 252.652 153.708 250.752 122.306C248.852 90.9039 236.106 61.2728 214.86 38.8694L201.112 52.9668C219.089 71.9234 229.875 96.9958 231.482 123.567C233.09 150.138 225.411 176.418 209.86 197.568L225.199 209.762Z" stroke="white" stroke-width="2" mask="url(#path-1-inside-1_213_1334)"/>
<path d="M190.245 181.973C202.18 165.741 208.073 145.571 206.839 125.179C205.605 104.786 197.328 85.5436 183.53 70.9948L178.642 76.0072C191.277 89.3305 198.858 106.952 199.988 125.627C201.117 144.302 195.721 162.772 184.791 177.637L190.245 181.973Z" fill="white"/>
<path d="M63.7551 181.973C51.8202 165.741 45.927 145.571 47.1608 125.179C48.3946 104.786 56.6724 85.5436 70.4697 70.9948L75.3579 76.0072C62.7228 89.3305 55.1423 106.952 54.0125 125.627C52.8826 144.302 58.2793 162.772 69.2089 177.637L63.7551 181.973Z" fill="white"/>
<path d="M72.7876 93.0236C66.6648 103.099 63.1486 114.651 62.5815 126.557C62.0143 138.464 64.4155 150.321 69.5512 160.977" stroke="white"/>
<path d="M182.212 93.0236C188.335 103.099 191.851 114.651 192.419 126.557C192.986 138.464 190.584 150.321 185.449 160.977" stroke="white"/>
<mask id="path-6-inside-2_213_1334" fill="white">
<path d="M28.8009 209.762C10.4225 184.767 1.34771 153.708 3.24764 122.306C5.14756 90.9039 17.8943 61.2728 39.1404 38.8694L52.8884 52.9668C34.911 71.9234 24.1254 96.9958 22.5178 123.567C20.9102 150.138 28.5888 176.418 44.1396 197.568L28.8009 209.762Z"/>
</mask>
<path d="M28.8009 209.762C10.4225 184.767 1.34771 153.708 3.24764 122.306C5.14756 90.9039 17.8943 61.2728 39.1404 38.8694L52.8884 52.9668C34.911 71.9234 24.1254 96.9958 22.5178 123.567C20.9102 150.138 28.5888 176.418 44.1396 197.568L28.8009 209.762Z" stroke="white" stroke-width="2" mask="url(#path-6-inside-2_213_1334)"/>
<path d="M99.8189 219.76C80.5933 213.463 63.9359 200.671 52.4918 183.407C41.0475 166.142 35.4731 145.396 36.6558 124.46C37.8384 103.523 45.71 83.5994 59.0183 67.848C72.3263 52.097 90.3081 41.4208 110.109 37.5084" stroke="white" stroke-dasharray="10 10"/>
<path d="M154.181 219.76C173.407 213.463 190.064 200.671 201.508 183.407C212.953 166.142 218.527 145.396 217.344 124.46C216.162 103.523 208.29 83.5994 194.982 67.848C181.674 52.097 163.692 41.4208 143.891 37.5084" stroke="white" stroke-dasharray="10 10"/>
</svg>
