<svg width="114" height="47" viewBox="0 0 114 47" fill="none" xmlns="http://www.w3.org/2000/svg">
<path d="M30.7559 19.9959C31.0215 19.9959 31.11 20.0918 31.11 20.35V26.1926H34.1124C34.3706 26.1926 34.4665 26.2885 34.4665 26.5467V27.0631C34.4665 27.3213 34.3706 27.4172 34.1124 27.4172H30.1583C29.9002 27.4172 29.7969 27.3213 29.7969 27.0631V20.35C29.7969 20.0918 29.9002 19.9959 30.1583 19.9959H30.7559Z" fill="#3A4C89"/>
<path d="M37.0879 22.5705C37.0879 20.8664 38.1649 19.841 40.0387 19.841C41.9125 19.841 42.9895 20.8664 42.9895 22.5705V24.8426C42.9895 26.5467 41.9051 27.5722 40.0387 27.5722C38.1723 27.5722 37.0879 26.5467 37.0879 24.8426V22.5705ZM41.7502 22.5705C41.7502 21.6115 41.1526 21.0951 40.0756 21.0951C38.9985 21.0951 38.4084 21.6189 38.4084 22.5705V24.8574C38.4084 25.8238 38.9985 26.3328 40.0756 26.3328C41.1526 26.3328 41.7502 25.8017 41.7502 24.8574V22.5705Z" fill="#3A4C89"/>
<path d="M51.7754 23.3525C52.0631 23.3525 52.1295 23.4484 52.1295 23.7066V25.1082C52.1373 25.4384 52.0711 25.7661 51.9358 26.0673C51.8005 26.3686 51.5995 26.6357 51.3475 26.8492C50.7217 27.3475 49.9327 27.5948 49.1344 27.5427C47.2238 27.5427 46.1836 26.5173 46.1836 24.8132V22.5263C46.1836 20.8443 47.2606 19.8115 49.1344 19.8115C50.6098 19.8115 51.5688 20.3943 51.9745 21.5599C51.9973 21.6037 52.0094 21.6522 52.0101 21.7014C52.0108 21.7508 51.9999 21.7996 51.9785 21.844C51.957 21.8884 51.9254 21.9272 51.8863 21.9573C51.8472 21.9873 51.8016 22.0079 51.7532 22.0173L51.1778 22.2164C50.927 22.305 50.8237 22.2533 50.7352 21.9951C50.613 21.6801 50.3892 21.4146 50.0993 21.241C49.8094 21.0673 49.4699 20.9952 49.1344 21.0361C48.05 21.0361 47.4598 21.5599 47.4598 22.5115V24.8574C47.4598 25.8238 48.0574 26.3328 49.1344 26.3328C50.2114 26.3328 50.8754 25.8386 50.8754 25.1156V24.5697H49.2746C49.009 24.5697 48.9131 24.4664 48.9131 24.2082V23.7066C48.9131 23.4484 49.009 23.3525 49.2746 23.3525H51.7754Z" fill="#3A4C89"/>
<path d="M55.1758 22.5705C55.1758 20.8664 56.2528 19.841 58.1266 19.841C60.0004 19.841 61.0774 20.8664 61.0774 22.5705V24.8426C61.0774 26.5467 59.993 27.5722 58.1266 27.5722C56.2602 27.5722 55.1758 26.5467 55.1758 24.8426V22.5705ZM59.8307 22.5705C59.8307 21.6115 59.2331 21.0951 58.1635 21.0951C57.0938 21.0951 56.4889 21.6189 56.4889 22.5705V24.8574C56.4889 25.8238 57.0864 26.3328 58.1635 26.3328C59.2405 26.3328 59.8307 25.8017 59.8307 24.8574V22.5705Z" fill="#3A4C89"/>
<path d="M64.5508 20.2098C64.5508 20.0475 64.6024 19.9959 64.7647 19.9959H65.1041C65.2664 19.9959 65.3032 20.0475 65.3032 20.2098V27.2033C65.3032 27.3656 65.3032 27.4172 65.1041 27.4172H64.7647C64.6024 27.4172 64.5508 27.3656 64.5508 27.2033V20.2098Z" fill="#3A4C89"/>
<path d="M72.0242 19.9959C72.6385 19.9959 73.2276 20.2399 73.6621 20.6744C74.0965 21.1087 74.3405 21.6979 74.3405 22.3123C74.3405 22.9267 74.0965 23.5159 73.6621 23.9502C73.2276 24.3847 72.6385 24.6287 72.0242 24.6287H69.811V27.2033C69.811 27.3656 69.7742 27.4172 69.6192 27.4172H69.2725C69.1176 27.4172 69.0586 27.3656 69.0586 27.2033V20.2098C69.0586 20.0475 69.1176 19.9959 69.2725 19.9959H72.0242ZM71.9578 23.8984C72.169 23.8984 72.3781 23.8568 72.5732 23.776C72.7683 23.6951 72.9456 23.5767 73.0949 23.4273C73.2442 23.278 73.3627 23.1007 73.4436 22.9056C73.5243 22.7105 73.5659 22.5014 73.5659 22.2902C73.5659 22.079 73.5243 21.8698 73.4436 21.6747C73.3627 21.4797 73.2442 21.3023 73.0949 21.153C72.9456 21.0037 72.7683 20.8852 72.5732 20.8044C72.3781 20.7236 72.169 20.682 71.9578 20.682H69.7447V23.8984H71.9578Z" fill="#3A4C89"/>
<path d="M80.1009 19.8483C80.6705 19.7855 81.245 19.908 81.7395 20.1977C82.2336 20.4875 82.6216 20.9289 82.8451 21.4565C82.9041 21.5746 82.8451 21.6705 82.7271 21.7295L82.4025 21.877C82.2697 21.9287 82.2181 21.9213 82.1369 21.7811C81.9698 21.3896 81.6824 21.0613 81.3164 20.8438C80.9504 20.6263 80.5247 20.5309 80.1009 20.5713C78.8542 20.5713 78.1755 21.0656 78.1755 21.9508C78.1682 22.2213 78.259 22.4854 78.4313 22.6942C78.6035 22.903 78.8454 23.0425 79.1123 23.0869C79.5091 23.2163 79.9205 23.2956 80.3369 23.3229C80.841 23.3498 81.3383 23.4517 81.8123 23.6254C82.176 23.7404 82.4888 23.9769 82.6983 24.2953C82.9078 24.6137 83.0015 24.9945 82.9632 25.3738C82.9632 26.7533 81.9599 27.5869 80.1156 27.5869C79.5107 27.6561 78.9003 27.5159 78.3862 27.1897C77.8721 26.8636 77.4853 26.371 77.2902 25.7942C77.2772 25.768 77.2702 25.7391 77.2696 25.7098C77.269 25.6804 77.275 25.6514 77.2869 25.6246C77.2989 25.5978 77.3166 25.574 77.3389 25.5549C77.3611 25.5357 77.3873 25.5217 77.4156 25.5139L77.7402 25.3959C77.7657 25.3854 77.7933 25.3804 77.8209 25.3811C77.8484 25.3819 77.8756 25.3884 77.9006 25.4002C77.9255 25.412 77.9478 25.4288 77.9659 25.4497C77.984 25.4705 77.9976 25.4949 78.0058 25.5213C78.1708 25.938 78.4643 26.2914 78.8436 26.5302C79.2229 26.7689 79.6685 26.8807 80.1156 26.8492C81.5099 26.8492 82.1959 26.3623 82.1959 25.3738C82.2092 25.1139 82.1295 24.8579 81.9712 24.6512C81.8132 24.4445 81.587 24.3006 81.3328 24.2451C80.9511 24.1312 80.5575 24.0619 80.1599 24.0385L79.3632 23.9352C79.1138 23.8823 78.8676 23.8158 78.6255 23.7361C78.3863 23.6638 78.1634 23.5461 77.9689 23.3893C77.7732 23.2121 77.6189 22.9941 77.5169 22.7506C77.415 22.507 77.3678 22.2441 77.3788 21.9803C77.4304 20.6893 78.3968 19.8483 80.1009 19.8483Z" fill="#3A4C89"/>
<path d="M86.9395 24.8943C86.9705 25.416 87.1999 25.906 87.5806 26.2643C87.9612 26.6226 88.4643 26.8221 88.9866 26.8221C89.5089 26.8221 90.012 26.6226 90.3927 26.2643C90.7734 25.906 91.002 25.416 91.0338 24.8943V20.2098C91.0338 20.0475 91.0854 19.9959 91.2477 19.9959H91.587C91.7493 19.9959 91.801 20.0475 91.801 20.2098V24.8869C91.801 26.5615 90.8124 27.5721 88.9903 27.5721C87.1682 27.5721 86.1797 26.5615 86.1797 24.8869V20.2098C86.1797 20.0475 86.2313 19.9959 86.3862 19.9959H86.733C86.8879 19.9959 86.9395 20.0475 86.9395 20.2098V24.8943Z" fill="#3A4C89"/>
<path d="M101.983 19.9959C102.145 19.9959 102.197 20.0476 102.197 20.2099V27.2033C102.197 27.3656 102.145 27.4173 101.983 27.4173H101.673C101.518 27.4173 101.466 27.3656 101.466 27.2033V22.9468C101.466 22.3275 101.508 21.7088 101.592 21.0951H101.547C101.317 21.6563 101.048 22.201 100.743 22.7255L99.1573 25.5214C99.1381 25.5699 99.1041 25.6114 99.0606 25.6404C99.0171 25.6693 98.9662 25.6844 98.9138 25.6837H98.7073C98.6541 25.6839 98.6025 25.6687 98.5575 25.6399C98.5132 25.6111 98.4778 25.5699 98.4564 25.5214L96.8483 22.6959C96.5628 22.179 96.3164 21.6415 96.1106 21.0878H96.0663C96.1415 21.7071 96.1814 22.3303 96.1843 22.9541V27.2033C96.1843 27.3656 96.1327 27.4173 95.9704 27.4173H95.6827C95.5204 27.4173 95.4688 27.3656 95.4688 27.2033V20.2099C95.4688 20.0476 95.5204 19.9959 95.6827 19.9959H95.9483C96.0087 19.9903 96.07 20.0035 96.1224 20.0339C96.1755 20.0643 96.2175 20.1104 96.2433 20.1656L98.8253 24.7541L101.392 20.2099C101.474 20.055 101.518 20.0328 101.68 20.0328L101.983 19.9959Z" fill="#3A4C89"/>
<path d="M17.6315 26.296V31.6296C17.6315 31.834 17.5503 32.0301 17.4057 32.1746C17.2612 32.3192 17.0651 32.4005 16.8606 32.4005C16.6562 32.4005 16.4601 32.3192 16.3156 32.1746C16.171 32.0301 16.0897 31.834 16.0897 31.6296V26.3033C16.3044 26.4601 16.5617 26.5476 16.8274 26.5541C17.1171 26.5624 17.4009 26.4713 17.6315 26.296ZM24.1971 24.7541C24.0014 24.7541 23.8138 24.8319 23.6755 24.9702C23.5371 25.1085 23.4594 25.2962 23.4594 25.4919V26.4214C23.4594 26.6259 23.5406 26.8219 23.6852 26.9665C23.8297 27.111 24.0258 27.1923 24.2303 27.1923C24.4348 27.1923 24.6308 27.111 24.7754 26.9665C24.92 26.8219 25.0012 26.6259 25.0012 26.4214V25.5287C25.0069 25.423 24.9898 25.3172 24.951 25.2186C24.9122 25.12 24.8527 25.0309 24.7763 24.9575C24.7 24.884 24.6088 24.8278 24.5089 24.7927C24.4089 24.7576 24.3026 24.7445 24.1971 24.7541ZM14.4152 28.3173C14.1497 28.3093 13.8927 28.222 13.6775 28.0664V33.4148C13.6775 33.6203 13.7591 33.8173 13.9043 33.9625C14.0496 34.1078 14.2466 34.1894 14.452 34.1894C14.6575 34.1894 14.8545 34.1078 14.9998 33.9625C15.145 33.8173 15.2266 33.6203 15.2266 33.4148V28.1033C14.9857 28.2591 14.7015 28.334 14.4152 28.3173ZM21.7922 23.1533C21.6922 23.1483 21.5923 23.1637 21.4985 23.1985C21.4047 23.2334 21.319 23.2869 21.2465 23.3559C21.1741 23.425 21.1164 23.5079 21.077 23.5999C21.0377 23.6919 21.0174 23.791 21.0176 23.891V28C21.0176 28.2055 21.0992 28.4025 21.2444 28.5478C21.3898 28.693 21.5867 28.7746 21.7922 28.7746C21.9976 28.7746 22.1947 28.693 22.3399 28.5478C22.4852 28.4025 22.5668 28.2055 22.5668 28V23.9427C22.5727 23.8362 22.5554 23.7298 22.5162 23.6306C22.4769 23.5315 22.4167 23.442 22.3395 23.3684C22.2624 23.2947 22.1702 23.2387 22.0694 23.2042C21.9686 23.1696 21.8614 23.1572 21.7553 23.1681L21.7922 23.1533ZM19.343 24.732C19.0651 24.7301 18.7947 24.6425 18.5684 24.4812V29.8443C18.5684 30.0498 18.65 30.2468 18.7953 30.3921C18.9406 30.5373 19.1376 30.6189 19.343 30.6189C19.5485 30.6189 19.7454 30.5373 19.8907 30.3921C20.036 30.2468 20.1176 30.0498 20.1176 29.8443V24.4886C19.8836 24.6629 19.5979 24.7538 19.3061 24.7468L19.343 24.732ZM12.7406 28.841V13.8582C12.7386 13.6756 12.6647 13.5011 12.5349 13.3727C12.4051 13.2442 12.2298 13.1722 12.0471 13.1722H11.8848C11.7022 13.1722 11.5269 13.2442 11.3971 13.3727C11.2673 13.5011 11.1933 13.6756 11.1914 13.8582V28.841C11.1914 29.0249 11.2645 29.2013 11.3945 29.3314C11.5246 29.4614 11.7009 29.5345 11.8848 29.5345H12.0471C12.2311 29.5345 12.4074 29.4614 12.5375 29.3314C12.6675 29.2013 12.7406 29.0249 12.7406 28.841ZM14.4963 27.7492H14.334C14.1501 27.7492 13.9737 27.6762 13.8437 27.5461C13.7136 27.4161 13.6406 27.2397 13.6406 27.0558V15.6435C13.6425 15.4609 13.7164 15.2864 13.8463 15.1579C13.9761 15.0295 14.1514 14.9574 14.334 14.9574H14.4963C14.6789 14.9574 14.8542 15.0295 14.9841 15.1579C15.1139 15.2864 15.1878 15.4609 15.1897 15.6435V27.0705C15.1897 27.2545 15.1167 27.4308 14.9866 27.5609C14.8566 27.691 14.6802 27.764 14.4963 27.764V27.7492ZM16.9381 25.9935H16.7684C16.5865 25.9935 16.412 25.9212 16.2833 25.7925C16.1547 25.6639 16.0824 25.4894 16.0824 25.3074V17.414C16.0814 17.3233 16.0984 17.2333 16.1325 17.1492C16.1665 17.0651 16.2168 16.9886 16.2807 16.9241C16.3445 16.8596 16.4205 16.8084 16.5042 16.7735C16.5879 16.7385 16.6777 16.7205 16.7684 16.7205H16.9381C17.1208 16.7225 17.2952 16.7964 17.4237 16.9262C17.5522 17.0561 17.6242 17.2313 17.6242 17.414V25.3074C17.6242 25.4894 17.5519 25.6639 17.4232 25.7925C17.2946 25.9212 17.1201 25.9935 16.9381 25.9935ZM19.3799 24.1861H19.225C19.0423 24.1861 18.867 24.1141 18.7372 23.9856C18.6074 23.8572 18.5335 23.6827 18.5315 23.5V19.2509C18.5255 19.1561 18.5389 19.0612 18.5711 18.9719C18.6032 18.8826 18.6533 18.8008 18.7183 18.7317C18.7833 18.6625 18.8618 18.6074 18.949 18.5698C19.0361 18.5323 19.13 18.5129 19.225 18.5132H19.3873C19.5712 18.5132 19.7476 18.5862 19.8776 18.7163C20.0077 18.8463 20.0807 19.0227 20.0807 19.2066V23.4853C20.0817 23.577 20.0645 23.668 20.03 23.7529C19.9957 23.8379 19.9447 23.9152 19.8802 23.9804C19.8157 24.0456 19.739 24.0973 19.6543 24.1326C19.5697 24.168 19.479 24.1861 19.3873 24.1861H19.3799ZM21.8291 22.6H21.6668C21.4829 22.6 21.3065 22.527 21.1764 22.397C21.0464 22.2669 20.9733 22.0905 20.9733 21.9066V20.8074C20.9752 20.6248 21.0492 20.4503 21.179 20.3219C21.3088 20.1934 21.4841 20.1214 21.6668 20.1214H21.8291C22.0117 20.1214 22.187 20.1934 22.3168 20.3219C22.4467 20.4503 22.5206 20.6248 22.5225 20.8074V21.9066C22.5225 22.0893 22.4505 22.2645 22.322 22.3944C22.1936 22.5242 22.0191 22.5981 21.8364 22.6H21.8291Z" fill="#3A4C89"/>
<path d="M112.996 6.625V1H0.865234V6.625M112.996 40.375V46H0.865234V40.375" stroke="#3A4C89" stroke-width="0.737703"/>
</svg>
