<svg width="123" height="47" viewBox="0 0 123 47" fill="none" xmlns="http://www.w3.org/2000/svg">
<path d="M8.37695 27.5306L15.9025 24.181L20.2341 26.6931L21.1092 34.9345L15.7713 34.8906L16.5588 29.161L15.64 28.6322L11.1334 32.1581L8.37695 27.5306Z" fill="#3A4C89"/>
<path d="M21.3281 26.4653L27.9787 31.3571L30.6039 26.6416L25.2658 24.4821V23.4244L30.6039 21.2208L27.9787 16.5492L21.3281 21.4412V26.4653Z" fill="#3A4C89"/>
<path d="M20.8454 21.0447L21.7205 12.8033L16.3826 12.8914L17.1701 18.6207L16.2513 19.1496L11.701 15.6239L8.98828 20.2073L16.5138 23.5568L20.8454 21.0447Z" fill="#3A4C89"/>
<path d="M47.8012 22.8187V30.5399H50.674V20.7H46.4902V22.8187H47.8012Z" fill="#3A4C89"/>
<path d="M47.711 19.3174C47.9743 19.5926 48.3753 19.7303 48.9139 19.7303C49.4528 19.7303 49.8476 19.5926 50.0988 19.3174C50.3625 19.03 50.4939 18.6708 50.4939 18.24C50.4939 17.797 50.3625 17.4379 50.0988 17.1627C49.8476 16.8754 49.4528 16.7317 48.9139 16.7317C48.3753 16.7317 47.9743 16.8754 47.711 17.1627C47.4597 17.4379 47.334 17.797 47.334 18.24C47.334 18.6708 47.4597 19.03 47.711 19.3174Z" fill="#3A4C89"/>
<path d="M37.7983 30.3242C38.6122 30.6952 39.6117 30.8809 40.7966 30.8809C41.91 30.8809 42.8674 30.7071 43.6697 30.3601C44.4717 30.0131 45.088 29.5282 45.5189 28.9056C45.962 28.2712 46.1833 27.5351 46.1833 26.6971C46.1833 25.8832 45.9742 25.1948 45.5551 24.6322C45.1479 24.0577 44.5796 23.6088 43.8491 23.2856C43.1189 22.9504 42.2751 22.7409 41.3174 22.6572L40.312 22.5674C39.7134 22.5194 39.2825 22.3579 39.0191 22.0825C38.7557 21.8072 38.6241 21.484 38.6241 21.113C38.6241 20.8256 38.6961 20.5623 38.8394 20.3229C38.9832 20.0715 39.1986 19.874 39.486 19.7303C39.7852 19.5868 40.1503 19.5149 40.5813 19.5149C41.0359 19.5149 41.4132 19.5986 41.7125 19.7663C41.7783 19.8017 41.8409 19.8396 41.8996 19.8798L41.9139 19.8898C41.9358 19.9049 41.9575 19.9207 41.9785 19.9366C42.1603 20.0755 42.3051 20.2402 42.4127 20.4306C42.5681 20.694 42.6464 20.9872 42.6464 21.3105H45.5189C45.5189 20.4485 45.3214 19.7004 44.9266 19.066C44.5316 18.4196 43.963 17.9229 43.2209 17.5756C42.4904 17.2165 41.6107 17.0369 40.5813 17.0369C39.5995 17.0369 38.7498 17.2046 38.0315 17.5397C37.3134 17.863 36.7508 18.3298 36.3439 18.9402C35.9485 19.5508 35.751 20.2751 35.751 21.113C35.751 22.2741 36.1404 23.2077 36.9184 23.9141C37.6963 24.6203 38.7379 25.0273 40.0427 25.135L41.0303 25.2248C41.832 25.2966 42.4127 25.4583 42.7719 25.7095C43.1308 25.9489 43.3105 26.2781 43.3105 26.6971C43.3105 26.8897 43.2791 27.0702 43.2159 27.239C43.169 27.3642 43.105 27.4829 43.0234 27.595C42.8315 27.8462 42.5503 28.0437 42.1793 28.1876C41.8083 28.3311 41.3474 28.4029 40.7966 28.4029C40.1862 28.4029 39.6894 28.3192 39.3065 28.1514C38.9233 27.9719 38.6362 27.7385 38.4443 27.4514C38.2649 27.1639 38.1753 26.8528 38.1753 26.5175H35.3203C35.3203 27.3675 35.5297 28.1217 35.9485 28.7799C36.3676 29.4264 36.9842 29.9413 37.7983 30.3242Z" fill="#3A4C89"/>
<path d="M57.0837 30.6653C56.0902 30.6653 55.2882 30.5457 54.6778 30.3061C54.0671 30.0549 53.6184 29.6417 53.331 29.0672C53.0557 28.4806 52.9181 27.6907 52.9181 26.6971V22.8007H51.4277V20.6999H52.9181V18.0425H55.5934V20.6999H58.4665V22.8007H55.5934V26.8049C55.5934 27.2717 55.7132 27.6308 55.9525 27.882C56.2038 28.1217 56.557 28.2412 57.012 28.2412H58.4665V30.6653H57.0837Z" fill="#3A4C89"/>
<path fill-rule="evenodd" clip-rule="evenodd" d="M61.9241 30.45C62.5704 30.7371 63.3127 30.881 64.1506 30.881C64.9763 30.881 65.7068 30.7371 66.3412 30.45C66.9757 30.1626 67.5024 29.7616 67.9212 29.247C68.3403 28.7322 68.6217 28.1455 68.765 27.4874H66.1256C66.0061 27.7866 65.7786 28.0378 65.4435 28.2413C65.1083 28.4448 64.6771 28.5468 64.1506 28.5468C63.8244 28.5468 63.5328 28.5079 63.276 28.4308C63.0805 28.3721 62.9052 28.2911 62.7501 28.1876C62.3909 27.9483 62.1276 27.6128 61.96 27.1821C61.9134 27.0593 61.8737 26.9309 61.8402 26.7972C61.806 26.6617 61.7785 26.5208 61.7577 26.374H68.9447V25.4044C68.9447 24.5066 68.7531 23.6807 68.3702 22.9266C67.987 22.1604 67.4303 21.5439 66.7004 21.0771C65.9821 20.5982 65.0962 20.3588 64.0427 20.3588C63.2407 20.3588 62.5223 20.5025 61.8879 20.7898C61.266 21.0651 60.7451 21.4421 60.3261 21.9209C59.9073 22.3998 59.584 22.9445 59.3562 23.555C59.1409 24.1534 59.0332 24.7819 59.0332 25.4403V25.7994C59.0332 26.4339 59.1409 27.0563 59.3562 27.6668C59.584 28.2653 59.9073 28.8099 60.3261 29.3007C60.757 29.7797 61.2894 30.1626 61.9241 30.45ZM61.8072 24.5986C61.8152 24.5605 61.8235 24.5231 61.8327 24.4862C61.8577 24.3847 61.8864 24.2874 61.9191 24.1945C61.9374 24.1416 61.957 24.09 61.9781 24.0398C62.1575 23.5968 62.4209 23.2617 62.7679 23.0343C62.8978 22.9493 63.0384 22.8802 63.1894 22.827C63.4432 22.7378 63.728 22.6931 64.0427 22.6931C64.5338 22.6931 64.9404 22.8069 65.2637 23.0343C65.5989 23.2497 65.8504 23.5669 66.018 23.9859C66.0316 24.0197 66.0444 24.0541 66.0568 24.0889C66.0767 24.1444 66.0951 24.2014 66.1123 24.2598C66.1375 24.3467 66.1597 24.4366 66.1793 24.5296C66.1935 24.5981 66.2057 24.6683 66.2167 24.7401H61.7797C61.788 24.6921 61.7972 24.645 61.8072 24.5986Z" fill="#3A4C89"/>
<path d="M70.1309 30.5398V20.7H72.4114V23.1782C72.4422 23.0309 72.4775 22.8895 72.5169 22.7539C72.5508 22.6397 72.5869 22.5295 72.6267 22.4237C72.8782 21.7533 73.2552 21.2507 73.7579 20.9154C74.2606 20.5683 74.8769 20.3948 75.6074 20.3948H75.7329C76.4753 20.3948 77.0916 20.5683 77.5825 20.9154C78.0852 21.2507 78.4624 21.7533 78.7137 22.4237L78.7335 22.4743L78.7504 22.5206C78.7617 22.4879 78.7736 22.4556 78.7854 22.4237C79.0488 21.7533 79.432 21.2507 79.9347 20.9154C80.4375 20.5683 81.0541 20.3948 81.7843 20.3948H81.91C82.6518 20.3948 83.2744 20.5683 83.7771 20.9154C84.292 21.2507 84.6811 21.7533 84.9442 22.4237C85.2075 23.0941 85.3395 23.932 85.3395 24.9375V30.5398H82.4664V24.7759C82.4664 24.2372 82.3229 23.8003 82.0355 23.4652C81.7602 23.1299 81.3652 22.9624 80.8506 22.9624C80.3357 22.9624 79.9288 23.136 79.6295 23.4831C79.3303 23.8183 79.1805 24.2671 79.1805 24.8298V30.5398H76.2896V24.7759C76.2896 24.2372 76.1461 23.8003 75.8587 23.4652C75.5834 23.1299 75.1943 22.9624 74.6919 22.9624C74.1648 22.9624 73.752 23.136 73.4527 23.4831C73.1534 23.8183 73.0037 24.2671 73.0037 24.8298V30.5398H70.1309Z" fill="#3A4C89"/>
<path fill-rule="evenodd" clip-rule="evenodd" d="M93.0138 28.6437V30.5398H95.294V24.5065C95.294 23.5967 95.1145 22.8546 94.7554 22.2799C94.3962 21.6934 93.8697 21.2565 93.1754 20.9692C92.4932 20.682 91.6491 20.5383 90.6437 20.5383C90.4257 20.5383 90.1982 20.5406 89.9609 20.5454C89.8209 20.5483 89.6771 20.5519 89.5303 20.5562C89.1352 20.5682 88.752 20.5861 88.3813 20.6101L88.0977 20.6292C87.9521 20.6393 87.8154 20.6493 87.6867 20.6594C87.59 20.6669 87.4983 20.6745 87.4117 20.682V23.106C87.7828 23.082 88.1956 23.058 88.6506 23.0342C88.7778 23.0275 88.9039 23.0213 89.029 23.0155C89.21 23.0071 89.3882 22.9999 89.5647 22.9935C89.7041 22.9885 89.8423 22.984 89.9793 22.9802C90.41 22.9683 90.7573 22.9623 91.0207 22.9623C91.5474 22.9623 91.9303 23.088 92.17 23.3394C92.4093 23.5908 92.5288 23.9678 92.5288 24.4706V24.5065H90.7514C89.8776 24.5065 89.1056 24.6203 88.435 24.8477C87.7647 25.0631 87.2439 25.4043 86.8731 25.8711C86.5018 26.3261 86.3164 26.9126 86.3164 27.6308C86.3164 28.2892 86.4659 28.8578 86.7652 29.3368C87.0644 29.8033 87.4773 30.1625 88.004 30.4137C88.5429 30.6652 89.1655 30.791 89.8714 30.791C90.5538 30.791 91.1283 30.6652 91.5955 30.4137C92.0742 30.1625 92.4452 29.8033 92.7086 29.3368C92.7548 29.2579 92.7981 29.1763 92.8385 29.0915C92.8954 28.9717 92.9461 28.8456 92.9909 28.7134L93.0138 28.6437ZM92.5288 26.8947V26.1046H90.7333C90.2305 26.1046 89.8417 26.2302 89.5665 26.4817C89.3031 26.7211 89.1711 27.0503 89.1711 27.4692C89.1711 27.6664 89.204 27.8455 89.2696 28.0072C89.3357 28.1691 89.4345 28.313 89.5665 28.4387C89.8417 28.6784 90.2305 28.7979 90.7333 28.7979C90.8291 28.7979 90.9216 28.7931 91.0109 28.784C91.0838 28.7762 91.1547 28.7653 91.2232 28.7513C91.3549 28.7246 91.4792 28.6861 91.5955 28.6363C91.8588 28.5167 92.0742 28.3192 92.2414 28.0437C92.4093 27.7684 92.5051 27.3852 92.5288 26.8947Z" fill="#3A4C89"/>
<path d="M97.0137 30.5397V20.6998H99.2942V23.9476C99.4033 23.0205 99.6789 22.2729 100.12 21.7053C100.719 20.9512 101.58 20.5742 102.706 20.5742H103.083V23.052H102.364C101.575 23.052 100.964 23.2674 100.533 23.6984C100.102 24.1173 99.8865 24.7279 99.8865 25.5298V30.5397H97.0137Z" fill="#3A4C89"/>
<path d="M106.724 25.9429H107.676L110.782 30.5397H114.014L110.076 24.8943L113.314 20.6999H110.298L106.724 25.3785V17.4319H103.852V30.5397H106.724V25.9429Z" fill="#3A4C89"/>
<path d="M121.984 6.625V1H1V6.625M121.984 40.375V46H1V40.375" stroke="#3A4C89" stroke-width="0.737705"/>
</svg>
