<svg width="25" height="24" viewBox="0 0 25 24" fill="none" xmlns="http://www.w3.org/2000/svg">
<g clip-path="url(#clip0_361_18183)">
<path d="M12.377 7.12451C9.66289 7.12451 7.45508 9.33232 7.45508 12.0464C7.45508 14.7604 9.66289 16.9683 12.377 16.9683C15.091 16.9683 17.2988 14.7604 17.2988 12.0464C17.2988 9.33232 15.091 7.12451 12.377 7.12451ZM12.377 7.12451C9.66289 7.12451 7.45508 9.33232 7.45508 12.0464C7.45508 14.7604 9.66289 16.9683 12.377 16.9683C15.091 16.9683 17.2988 14.7604 17.2988 12.0464C17.2988 9.33232 15.091 7.12451 12.377 7.12451ZM20.8613 -0.000488281H3.89258C1.95195 -0.000488281 0.376953 1.57451 0.376953 3.51514V20.4839C0.376953 22.4245 1.95195 23.9995 3.89258 23.9995H20.8613C22.802 23.9995 24.377 22.4245 24.377 20.4839V3.51514C24.377 1.57451 22.802 -0.000488281 20.8613 -0.000488281ZM12.377 18.3745C8.8895 18.3745 6.04883 15.5338 6.04883 12.0464C6.04883 8.55884 8.8895 5.71826 12.377 5.71826C15.8644 5.71826 18.7051 8.55884 18.7051 12.0464C18.7051 15.5338 15.8644 18.3745 12.377 18.3745ZM20.1113 5.71826C19.3379 5.71826 18.7051 5.08545 18.7051 4.31201C18.7051 3.53857 19.3379 2.90576 20.1113 2.90576C20.8848 2.90576 21.5176 3.53857 21.5176 4.31201C21.5176 5.08545 20.8848 5.71826 20.1113 5.71826ZM12.377 7.12451C9.66289 7.12451 7.45508 9.33232 7.45508 12.0464C7.45508 14.7604 9.66289 16.9683 12.377 16.9683C15.091 16.9683 17.2988 14.7604 17.2988 12.0464C17.2988 9.33232 15.091 7.12451 12.377 7.12451ZM12.377 7.12451C9.66289 7.12451 7.45508 9.33232 7.45508 12.0464C7.45508 14.7604 9.66289 16.9683 12.377 16.9683C15.091 16.9683 17.2988 14.7604 17.2988 12.0464C17.2988 9.33232 15.091 7.12451 12.377 7.12451ZM12.377 7.12451C9.66289 7.12451 7.45508 9.33232 7.45508 12.0464C7.45508 14.7604 9.66289 16.9683 12.377 16.9683C15.091 16.9683 17.2988 14.7604 17.2988 12.0464C17.2988 9.33232 15.091 7.12451 12.377 7.12451Z" fill="#BAC4E7"/>
</g>
<defs>
<clipPath id="clip0_361_18183">
<rect width="24" height="24" fill="white" transform="translate(0.375)"/>
</clipPath>
</defs>
</svg>
