<svg width="477" height="465" viewBox="0 0 477 465" fill="none" xmlns="http://www.w3.org/2000/svg">
<g clip-path="url(#clip0_109_414)">
<path d="M409.112 314.971L338.303 266.903L342.43 260.837L283.315 220.711L297.718 199.491L238.77 159.469L239.166 158.886L298.719 199.303L284.315 220.523L343.41 260.628L339.303 266.715L409.508 314.366L409.112 314.971Z" fill="#051A67"/>
<path d="M437.838 272.616L367.633 224.965L365.799 227.654L317.96 195.178L312.332 203.475L227.307 145.756L227.703 145.172L312.144 202.474L317.772 194.178L365.611 226.654L367.445 223.965L438.255 272.033L437.838 272.616Z" fill="#051A67"/>
<path d="M418.952 300.466L356.356 257.984L360.775 251.502L326.923 228.531L317.001 243.143L316.396 242.747L326.735 227.53L361.754 251.314L357.356 257.797L419.348 299.882L418.952 300.466Z" fill="#051A67"/>
<path d="M428.394 286.541L384.12 256.483L386.809 252.522L312.748 202.245L313.144 201.64L387.789 252.314L385.1 256.274L428.811 285.936L428.394 286.541Z" fill="#051A67"/>
<path d="M426.665 289.104L317.648 215.085L312.812 222.193L292.238 208.227L292.634 207.622L312.624 221.213L317.46 214.084L427.062 288.5L426.665 289.104Z" fill="#051A67"/>
<path d="M391.728 340.568L309.162 284.517L313.435 278.222L260.177 242.056L284.607 206.078L226.242 166.453L226.638 165.869L285.587 205.891L261.157 241.869L314.436 278.034L310.163 284.329L392.124 339.964L391.728 340.568Z" fill="#051A67"/>
<path d="M401.025 326.874L352.749 294.086L355.959 289.354L268.703 230.134L269.12 229.53L356.959 289.166L353.729 293.898L401.421 326.27L401.025 326.874Z" fill="#051A67"/>
<path d="M381.807 355.181L323.338 315.493L319.648 320.954L250.423 273.97L242.731 285.289L225.118 273.324L228.953 267.654L148.951 213.354L149.368 212.77L229.954 267.467L226.097 273.116L242.544 284.288L250.235 272.97L319.461 319.954L323.15 314.513L382.203 354.597L381.807 355.181Z" fill="#051A67"/>
<path d="M386.955 347.593L222.199 235.782L209.713 254.167L209.129 253.771L222.011 234.782L387.351 347.009L386.955 347.593Z" fill="#051A67"/>
<path d="M389.039 344.508L287.526 275.596L288.86 273.657L233.059 235.782L263.325 191.196L263.909 191.613L234.059 235.595L289.839 273.47L288.526 275.408L389.456 343.925L389.039 344.508Z" fill="#051A67"/>
<path d="M441.589 267.112L384.996 228.717L390.561 220.525L278.521 144.463L267.411 160.867L212.193 123.389L212.61 122.805L267.223 159.867L278.333 143.462L391.562 220.316L385.996 228.529L441.985 266.529L441.589 267.112Z" fill="#051A67"/>
<path d="M461.309 238.055L390.5 190.008L392.564 186.965L303.911 126.786L292.968 142.899L189.203 72.4444L189.599 71.8607L292.78 141.899L303.724 125.786L393.564 186.777L391.501 189.8L461.705 237.472L461.309 238.055Z" fill="#051A67"/>
<path d="M452.429 251.146L381.62 203.078L385.33 197.637L323.109 155.406L314.333 168.33L313.729 167.934L322.921 154.406L386.31 197.429L382.62 202.89L452.825 250.541L452.429 251.146Z" fill="#051A67"/>
<g opacity="0.38">
<path d="M359.753 387.677L288.944 339.609L292.008 335.086L233.497 295.377L223.054 310.781L105.428 230.946L105.845 230.342L222.867 309.781L233.31 294.376L293.009 334.898L289.945 339.422L360.15 387.073L359.753 387.677Z" fill="#051A67"/>
</g>
<path d="M178.021 174.631L177.623 175.217L244.021 220.29L244.42 219.704L178.021 174.631Z" fill="#051A67"/>
<path d="M341.055 415.214L260.907 360.83L264.388 355.723L228.535 331.377L205.418 365.458L81.0801 281.058L81.4761 280.474L205.21 364.457L228.348 330.397L265.368 355.515L261.908 360.643L341.451 414.63L341.055 415.214Z" fill="#051A67"/>
<path d="M353.207 397.287L282.419 349.24L286.775 342.799L233.142 306.383L211.088 338.859L36.4102 220.295L36.8062 219.711L210.901 337.858L232.954 305.383L287.776 342.611L283.399 349.052L353.624 396.703L353.207 397.287Z" fill="#051A67"/>
<path d="M476.462 215.732L389.853 156.95L382.391 167.935L333.176 134.521L345.641 116.157L177.779 2.21962L178.175 1.63597L346.621 115.969L334.156 134.333L382.203 166.955L389.665 155.97L476.859 215.148L476.462 215.732Z" fill="#051A67"/>
<path d="M370.426 371.96L309.539 330.625L305.432 336.67L167.42 242.973L175.549 230.988L176.154 231.384L168.4 242.786L305.245 335.67L309.351 329.625L370.822 371.356L370.426 371.96Z" fill="#051A67"/>
<path d="M315.416 452.983L211.589 382.529L206.732 389.699L121.373 331.772L132.442 315.492L133.025 315.888L122.374 331.584L206.523 388.719L211.401 381.528L315.812 452.4L315.416 452.983Z" fill="#051A67"/>
<path d="M331.591 429.138L252.048 375.15L243.668 387.511L226.18 375.651L247.691 343.967L248.296 344.363L227.18 375.463L243.46 386.531L251.86 374.15L332.008 428.554L331.591 429.138Z" fill="#051A67"/>
<path d="M177.05 176.042C176.901 175.942 176.774 175.813 176.675 175.662C176.577 175.512 176.509 175.344 176.476 175.168C176.443 174.991 176.446 174.81 176.483 174.634C176.521 174.459 176.593 174.293 176.696 174.145C176.899 173.846 177.212 173.638 177.567 173.568C177.922 173.498 178.291 173.57 178.593 173.77C178.894 173.977 179.101 174.294 179.171 174.652C179.242 175.011 179.169 175.382 178.968 175.688C178.866 175.837 178.735 175.965 178.583 176.064C178.431 176.163 178.261 176.23 178.083 176.263C177.904 176.296 177.722 176.294 177.544 176.256C177.367 176.218 177.199 176.145 177.05 176.042Z" fill="#051A67"/>
<path d="M225.679 167.287C225.381 167.082 225.176 166.768 225.109 166.412C225.043 166.056 225.12 165.689 225.325 165.39C225.529 165.092 225.844 164.887 226.2 164.82C226.556 164.754 226.923 164.831 227.222 165.036C227.52 165.24 227.725 165.555 227.792 165.911C227.858 166.267 227.781 166.634 227.576 166.933C227.372 167.231 227.057 167.436 226.701 167.503C226.345 167.569 225.978 167.492 225.679 167.287Z" fill="#051A67"/>
<path d="M238.208 160.306C238.06 160.205 237.932 160.076 237.834 159.926C237.735 159.776 237.667 159.608 237.634 159.431C237.601 159.255 237.604 159.073 237.642 158.898C237.679 158.722 237.751 158.556 237.854 158.409C238.057 158.109 238.37 157.902 238.725 157.832C239.08 157.761 239.449 157.834 239.751 158.034C240.052 158.241 240.26 158.557 240.33 158.916C240.4 159.274 240.327 159.646 240.126 159.951C240.024 160.101 239.893 160.229 239.741 160.327C239.589 160.426 239.419 160.494 239.241 160.527C239.063 160.56 238.88 160.557 238.703 160.519C238.525 160.481 238.357 160.409 238.208 160.306Z" fill="#051A67"/>
<path d="M226.743 146.588C226.595 146.488 226.467 146.359 226.369 146.209C226.27 146.059 226.202 145.89 226.17 145.714C226.137 145.537 226.139 145.356 226.177 145.181C226.214 145.005 226.287 144.839 226.389 144.691C226.592 144.392 226.905 144.185 227.261 144.114C227.616 144.044 227.984 144.117 228.286 144.316C228.587 144.523 228.795 144.84 228.865 145.198C228.935 145.557 228.862 145.929 228.661 146.234C228.559 146.383 228.428 146.511 228.276 146.61C228.124 146.709 227.954 146.777 227.776 146.81C227.598 146.842 227.415 146.84 227.238 146.802C227.061 146.764 226.893 146.691 226.743 146.588Z" fill="#051A67"/>
<path d="M211.632 124.222C211.355 124.008 211.17 123.696 211.115 123.35C211.06 123.005 211.139 122.651 211.335 122.361C211.532 122.072 211.832 121.868 212.173 121.791C212.515 121.715 212.873 121.772 213.174 121.95C213.336 122.046 213.476 122.173 213.587 122.325C213.697 122.477 213.775 122.65 213.816 122.834C213.857 123.017 213.86 123.207 213.825 123.391C213.79 123.576 213.717 123.751 213.612 123.907C213.506 124.062 213.37 124.194 213.211 124.295C213.053 124.396 212.875 124.463 212.69 124.493C212.504 124.522 212.315 124.513 212.133 124.467C211.951 124.42 211.78 124.337 211.632 124.222Z" fill="#051A67"/>
<path d="M188.64 73.2982C188.339 73.0911 188.131 72.7744 188.061 72.4159C187.991 72.0574 188.064 71.6857 188.265 71.3805C188.367 71.2309 188.498 71.1031 188.65 71.0043C188.802 70.9055 188.972 70.8377 189.15 70.8048C189.328 70.7719 189.511 70.7745 189.688 70.8124C189.865 70.8504 190.033 70.923 190.183 71.0261C190.331 71.1265 190.459 71.2555 190.557 71.4056C190.656 71.5557 190.724 71.7239 190.756 71.9004C190.789 72.0769 190.787 72.2582 190.749 72.4337C190.712 72.6093 190.639 72.7756 190.537 72.923C190.334 73.2225 190.021 73.4298 189.665 73.5C189.31 73.5703 188.942 73.4977 188.64 73.2982Z" fill="#051A67"/>
<path d="M242.126 69.5667C241.979 69.4655 241.852 69.3361 241.754 69.1859C241.657 69.0358 241.589 68.8678 241.556 68.6917C241.523 68.5156 241.526 68.3347 241.563 68.1593C241.6 67.984 241.671 67.8177 241.772 67.6699C241.873 67.5221 242.003 67.3956 242.153 67.2978C242.303 67.2 242.471 67.1328 242.647 67.0998C242.823 67.0669 243.004 67.0691 243.179 67.1061C243.355 67.1431 243.521 67.2142 243.669 67.3155C243.968 67.5201 244.172 67.8348 244.239 68.1906C244.305 68.5463 244.228 68.9139 244.023 69.2124C243.819 69.5109 243.504 69.716 243.148 69.7824C242.793 69.8489 242.425 69.7713 242.126 69.5667Z" fill="#051A67"/>
<path d="M177.195 3.0515C177.046 2.95107 176.918 2.82206 176.82 2.67197C176.721 2.52188 176.654 2.35369 176.621 2.1772C176.588 2.00071 176.59 1.81942 176.628 1.64387C176.666 1.46833 176.738 1.30203 176.84 1.15464C177.044 0.855151 177.357 0.647824 177.712 0.577591C178.067 0.507359 178.435 0.579879 178.737 0.779435C179.038 0.986522 179.246 1.30326 179.316 1.66175C179.386 2.02023 179.313 2.39192 179.112 2.69714C179.01 2.84667 178.879 2.9745 178.727 3.07329C178.575 3.17209 178.405 3.23989 178.227 3.27282C178.049 3.30574 177.866 3.30314 177.689 3.26516C177.512 3.22718 177.344 3.15457 177.195 3.0515Z" fill="#051A67"/>
<path d="M148.387 214.167C148.111 213.953 147.926 213.641 147.871 213.295C147.816 212.95 147.894 212.596 148.091 212.306C148.288 212.017 148.587 211.813 148.929 211.736C149.271 211.66 149.629 211.717 149.93 211.895C150.092 211.991 150.232 212.119 150.342 212.27C150.453 212.422 150.531 212.595 150.572 212.779C150.613 212.962 150.616 213.152 150.581 213.336C150.546 213.521 150.473 213.696 150.368 213.852C150.262 214.007 150.126 214.139 149.967 214.24C149.809 214.341 149.631 214.408 149.446 214.438C149.26 214.467 149.071 214.458 148.889 214.412C148.707 214.365 148.536 214.282 148.387 214.167Z" fill="#051A67"/>
<path d="M104.864 231.78C104.715 231.678 104.587 231.547 104.488 231.395C104.389 231.243 104.321 231.073 104.289 230.895C104.256 230.717 104.258 230.534 104.296 230.357C104.334 230.18 104.407 230.012 104.51 229.863C104.61 229.714 104.739 229.586 104.889 229.488C105.039 229.389 105.208 229.322 105.384 229.289C105.561 229.256 105.742 229.258 105.917 229.296C106.093 229.333 106.259 229.406 106.407 229.508C106.706 229.711 106.914 230.025 106.984 230.38C107.054 230.735 106.981 231.103 106.782 231.405C106.575 231.706 106.258 231.914 105.9 231.984C105.541 232.054 105.169 231.981 104.864 231.78Z" fill="#051A67"/>
<path d="M35.847 221.128C35.6982 221.027 35.5708 220.898 35.4723 220.748C35.3737 220.598 35.306 220.43 35.273 220.253C35.2401 220.077 35.2425 219.896 35.2802 219.72C35.3179 219.545 35.3901 219.378 35.4926 219.231C35.6959 218.931 36.009 218.724 36.3641 218.654C36.7191 218.584 37.0875 218.656 37.3895 218.856C37.6904 219.063 37.8982 219.38 37.9684 219.738C38.0385 220.097 37.9654 220.468 37.7647 220.773C37.6623 220.923 37.5314 221.051 37.3795 221.15C37.2276 221.248 37.0577 221.316 36.8795 221.349C36.7013 221.382 36.5183 221.379 36.3412 221.341C36.164 221.303 35.9961 221.231 35.847 221.128Z" fill="#051A67"/>
<path d="M80.5169 281.891C80.3681 281.79 80.2407 281.661 80.1422 281.511C80.0437 281.361 79.9759 281.193 79.943 281.017C79.91 280.84 79.9124 280.659 79.9501 280.483C79.9878 280.308 80.0601 280.141 80.1626 279.994C80.3659 279.694 80.6789 279.487 81.034 279.417C81.389 279.347 81.7575 279.419 82.0594 279.619C82.2211 279.714 82.3615 279.842 82.4719 279.994C82.5823 280.146 82.6603 280.319 82.7013 280.502C82.7423 280.686 82.7454 280.876 82.7102 281.06C82.6751 281.245 82.6025 281.42 82.497 281.575C82.3915 281.731 82.2552 281.863 82.0967 281.964C81.9382 282.065 81.7607 282.132 81.5752 282.161C81.3897 282.191 81.2001 282.182 81.0181 282.136C80.8361 282.089 80.6655 282.006 80.5169 281.891Z" fill="#051A67"/>
<path d="M1.20384 261.234C0.926938 261.02 0.742122 260.708 0.687053 260.363C0.631984 260.017 0.710792 259.663 0.90744 259.373C1.10409 259.084 1.40378 258.88 1.74544 258.804C2.08711 258.727 2.44503 258.784 2.74633 258.962C2.90799 259.058 3.04836 259.186 3.15876 259.338C3.26916 259.49 3.34725 259.663 3.38825 259.846C3.42924 260.029 3.43227 260.219 3.39712 260.404C3.36197 260.588 3.2894 260.763 3.18389 260.919C3.07838 261.074 2.94215 261.206 2.78361 261.307C2.62507 261.408 2.44756 261.475 2.26204 261.505C2.07653 261.534 1.88695 261.526 1.70495 261.479C1.52296 261.432 1.35242 261.349 1.20384 261.234Z" fill="#051A67"/>
<g opacity="0.26">
<path d="M56.0872 333.19C55.9384 333.09 55.811 332.961 55.7125 332.81C55.614 332.66 55.5462 332.492 55.5133 332.316C55.4803 332.139 55.4828 331.958 55.5205 331.782C55.5582 331.607 55.6304 331.441 55.7329 331.293C55.9362 330.994 56.2492 330.786 56.6043 330.716C56.9594 330.646 57.3278 330.718 57.6298 330.918C57.9307 331.125 58.1385 331.442 58.2086 331.8C58.2787 332.159 58.2057 332.53 58.005 332.836C57.9026 332.985 57.7717 333.113 57.6198 333.212C57.4679 333.311 57.2979 333.378 57.1197 333.411C56.9416 333.444 56.7586 333.442 56.5815 333.404C56.4043 333.366 56.2363 333.293 56.0872 333.19Z" fill="#051A67"/>
</g>
<path d="M143.156 274.617C142.984 274.527 142.833 274.403 142.713 274.251C142.592 274.1 142.505 273.925 142.457 273.737C142.409 273.55 142.401 273.354 142.434 273.163C142.466 272.973 142.539 272.791 142.647 272.63C142.754 272.469 142.895 272.333 143.059 272.23C143.223 272.128 143.407 272.06 143.598 272.033C143.79 272.006 143.985 272.02 144.171 272.074C144.357 272.127 144.529 272.22 144.677 272.345C144.849 272.434 145 272.558 145.12 272.71C145.241 272.861 145.328 273.037 145.376 273.224C145.424 273.411 145.432 273.607 145.399 273.798C145.367 273.988 145.294 274.17 145.186 274.331C145.079 274.492 144.938 274.628 144.774 274.731C144.61 274.834 144.426 274.901 144.235 274.928C144.043 274.955 143.848 274.941 143.662 274.887C143.476 274.834 143.304 274.741 143.156 274.617Z" fill="#051A67"/>
<path d="M201.292 173.458C201.143 173.357 201.016 173.228 200.918 173.078C200.819 172.928 200.751 172.76 200.718 172.583C200.685 172.407 200.688 172.226 200.726 172.05C200.763 171.875 200.835 171.708 200.938 171.561C201.141 171.261 201.454 171.054 201.809 170.984C202.164 170.914 202.533 170.986 202.835 171.186C203.136 171.393 203.344 171.709 203.414 172.068C203.484 172.426 203.411 172.798 203.21 173.103C203.108 173.253 202.977 173.381 202.825 173.48C202.673 173.578 202.503 173.646 202.325 173.679C202.147 173.712 201.964 173.709 201.786 173.671C201.609 173.633 201.441 173.561 201.292 173.458Z" fill="#051A67"/>
<path d="M348.184 404.708L260.949 345.467L263.513 341.694L225.889 316.18L226.306 315.576L264.493 341.507L261.929 345.28L348.601 404.103L348.184 404.708Z" fill="#051A67"/>
<path d="M144.75 273.644L144.352 274.23L219.787 325.438L220.185 324.852L144.75 273.644Z" fill="#051A67"/>
<path d="M202.246 172.061L201.848 172.648L252.845 207.267L253.243 206.68L202.246 172.061Z" fill="#051A67"/>
<g opacity="0.38">
<path d="M307.83 464.177L237.604 416.506L235.77 419.236L1.76758 260.4L2.18447 259.816L235.582 418.236L237.416 415.526L308.226 463.573L307.83 464.177Z" fill="#051A67"/>
</g>
<path d="M243.111 68.1787L242.713 68.7651L335.516 131.763L335.914 131.176L243.111 68.1787Z" fill="#051A67"/>
<g opacity="0.26">
<path d="M198.498 428.659L57.7344 333.107L58.1304 332.503L198.311 427.659L214.236 404.188L214.82 404.584L198.498 428.659Z" fill="#051A67"/>
</g>
</g>
<defs>
<clipPath id="clip0_109_414">
<rect width="476.259" height="463.627" fill="white" transform="translate(0.599609 0.551025)"/>
</clipPath>
</defs>
</svg>
