<svg width="137" height="62" viewBox="0 0 137 62" fill="none" xmlns="http://www.w3.org/2000/svg">
<path d="M20.4233 43.534L17.7129 38.8395L21.6905 31.969L24.2181 36.3472L39.1391 36.3392L34.9052 43.5988L20.4233 43.534Z" fill="#ABABAB"/>
<path d="M41.8036 31.6778L39.0933 36.3722L31.1544 36.3629L33.6823 31.9847L26.2148 19.0667L34.6188 19.1036L41.8036 31.6778Z" fill="#ABABAB"/>
<path d="M20.8401 19.0418H26.2608L30.2221 25.9218L25.1665 25.9215L17.713 38.8475L13.543 31.5511L20.8401 19.0418Z" fill="#ABABAB"/>
<path d="M83.7047 26.0875C84.4684 26.0875 85.0888 25.467 85.0888 24.6875C85.0888 23.9079 84.4684 23.3034 83.7047 23.3034C82.9252 23.3034 82.3047 23.9079 82.3047 24.6875C82.3047 25.467 82.9252 26.0875 83.7047 26.0875ZM82.4638 35.2829H84.9297V27.3284H82.4638V35.2829Z" fill="#ABABAB"/>
<path d="M86.3652 39.1011H88.7835V34.4874C89.2448 35.092 90.2948 35.5056 91.3926 35.5056C93.763 35.5056 95.1949 33.692 95.1316 31.1783C95.0674 28.6169 93.588 27.0737 91.3767 27.0737C90.2471 27.0737 89.1811 27.5669 88.7357 28.2987L88.6085 27.3283H86.3652V39.1011ZM88.8312 31.3056C88.8312 30.1124 89.6267 29.317 90.7721 29.317C91.9335 29.317 92.6653 30.1283 92.6653 31.3056C92.6653 32.4828 91.9335 33.2942 90.7721 33.2942C89.6267 33.2942 88.8312 32.4987 88.8312 31.3056Z" fill="#ABABAB"/>
<path d="M95.3926 32.7692C95.4559 34.3761 96.7292 35.4896 98.7334 35.4896C100.658 35.4896 101.995 34.4715 101.995 32.8328C101.995 31.6556 101.295 30.8761 99.9901 30.5578L98.5742 30.2078C98.0651 30.0806 97.7467 29.9533 97.7467 29.5396C97.7467 29.1261 98.0809 28.8556 98.5742 28.8556C99.1309 28.8556 99.4967 29.2215 99.4809 29.7624H101.693C101.629 28.1078 100.372 27.0737 98.6217 27.0737C96.8559 27.0737 95.5359 28.1237 95.5359 29.7146C95.5359 30.7806 96.1242 31.6556 97.6992 32.0692L99.0992 32.4351C99.5126 32.5465 99.6876 32.7374 99.6876 33.0078C99.6876 33.4056 99.3217 33.6601 98.7017 33.6601C97.9859 33.6601 97.6042 33.3261 97.6042 32.7692H95.3926Z" fill="#ABABAB"/>
<path d="M105.746 35.4898C106.716 35.4898 107.687 35.0444 108.18 34.3921L108.339 35.283H110.646V27.3285H108.196V31.4648C108.196 32.658 107.846 33.3103 106.716 33.3103C105.841 33.3103 105.268 32.9125 105.268 31.433V27.3285H102.818V32.3239C102.818 34.2171 103.868 35.4898 105.746 35.4898Z" fill="#ABABAB"/>
<path d="M114.53 35.2829V30.9397C114.53 29.6034 115.246 29.2215 115.946 29.2215C116.726 29.2215 117.235 29.6988 117.235 30.6852V35.2829H119.653V30.9397C119.653 29.5874 120.353 29.2056 121.053 29.2056C121.833 29.2056 122.358 29.6829 122.358 30.6852V35.2829H124.744V30.0806C124.744 28.2669 123.789 27.0579 121.737 27.0579C120.592 27.0579 119.653 27.6147 119.239 28.4738C118.762 27.6147 117.935 27.0579 116.614 27.0579C115.739 27.0579 114.928 27.4556 114.451 28.0919L114.355 27.3284H112.064V35.2829H114.53Z" fill="#ABABAB"/>
<path d="M50.1032 23.5114H47.4941V35.2841H54.7169V32.9773H50.1032V23.5114Z" fill="#ABABAB"/>
<path d="M54.9668 31.2909C54.9668 33.8045 56.6532 35.475 59.1986 35.475C61.7282 35.475 63.4145 33.8045 63.4145 31.2909C63.4145 28.7772 61.7282 27.0908 59.1986 27.0908C56.6532 27.0908 54.9668 28.7772 54.9668 31.2909ZM57.4327 31.275C57.4327 30.0817 58.1327 29.2863 59.1986 29.2863C60.2486 29.2863 60.9486 30.0817 60.9486 31.275C60.9486 32.4841 60.2486 33.2795 59.1986 33.2795C58.1327 33.2795 57.4327 32.4841 57.4327 31.275Z" fill="#ABABAB"/>
<path d="M63.8091 31.1636C63.8091 33.5659 65.3683 35.1886 67.5796 35.1886C68.6455 35.1886 69.5683 34.8068 70.0296 34.1863V35.2841C70.0296 36.3818 69.3455 37.1136 68.1364 37.1136C67.0546 37.1136 66.3068 36.6045 66.2591 35.6977H63.7773C64 37.8772 65.6864 39.3409 67.9933 39.3409C70.7137 39.3409 72.4318 37.575 72.4318 34.775V27.3295H70.2205L70.0933 28.1409C69.6478 27.4886 68.7092 27.0591 67.6273 27.0591C65.4 27.0591 63.8091 28.7295 63.8091 31.1636ZM66.2909 31.1C66.2909 29.9545 67.0546 29.1909 68.025 29.1909C69.1546 29.1909 69.9818 29.9386 69.9818 31.1C69.9818 32.2613 69.1705 33.0567 68.0409 33.0567C67.0705 33.0567 66.2909 32.2613 66.2909 31.1Z" fill="#ABABAB"/>
<path d="M73.1445 31.2909C73.1445 33.8045 74.8309 35.475 77.3764 35.475C79.9059 35.475 81.5923 33.8045 81.5923 31.2909C81.5923 28.7772 79.9059 27.0908 77.3764 27.0908C74.8309 27.0908 73.1445 28.7772 73.1445 31.2909ZM75.6104 31.275C75.6104 30.0817 76.3104 29.2863 77.3764 29.2863C78.4264 29.2863 79.1264 30.0817 79.1264 31.275C79.1264 32.4841 78.4264 33.2795 77.3764 33.2795C76.3104 33.2795 75.6104 32.4841 75.6104 31.275Z" fill="#ABABAB"/>
<path d="M136 8.625V1H1V8.625M136 54.375V62H1V54.375" stroke="#ABABAB" stroke-opacity="0.5"/>
</svg>
