<svg width="166" height="62" viewBox="0 0 166 62" fill="none" xmlns="http://www.w3.org/2000/svg">
<path d="M11 35.9637L21.2013 31.4231L27.073 34.8284L28.2592 46L21.0234 45.9405L22.091 38.1738L20.8455 37.4569L14.7365 42.2364L11 35.9637Z" fill="#ABABAB"/>
<path d="M28.5566 34.5197L37.5719 41.1508L41.1304 34.7587L33.8944 31.8313V30.3975L41.1304 27.4104L37.5719 21.0778L28.5566 27.7092V34.5197Z" fill="#ABABAB"/>
<path d="M27.9011 27.1717L29.0873 16L21.8515 16.1195L22.9191 23.8859L21.6736 24.6028L15.5053 19.8235L11.8281 26.0366L22.0294 30.577L27.9011 27.1717Z" fill="#ABABAB"/>
<path d="M64.4411 29.5765V40.0429H68.3353V26.7045H62.6641V29.5765H64.4411Z" fill="#ABABAB"/>
<path d="M64.3196 24.8302C64.6766 25.2033 65.2202 25.3899 65.9503 25.3899C66.6808 25.3899 67.2159 25.2033 67.5565 24.8302C67.9139 24.4406 68.092 23.9538 68.092 23.3697C68.092 22.7693 67.9139 22.2825 67.5565 21.9094C67.2159 21.5199 66.6808 21.3251 65.9503 21.3251C65.2202 21.3251 64.6766 21.5199 64.3196 21.9094C63.9791 22.2825 63.8086 22.7693 63.8086 23.3697C63.8086 23.9538 63.9791 24.4406 64.3196 24.8302Z" fill="#ABABAB"/>
<path d="M50.8825 39.7506C51.9858 40.2536 53.3407 40.5053 54.9468 40.5053C56.4561 40.5053 57.7539 40.2697 58.8415 39.7993C59.9286 39.3289 60.7641 38.6715 61.3482 37.8276C61.9489 36.9676 62.2488 35.9698 62.2488 34.8339C62.2488 33.7305 61.9654 32.7975 61.3973 32.0348C60.8453 31.256 60.075 30.6475 59.0847 30.2094C58.0949 29.755 56.951 29.471 55.6528 29.3575L54.2899 29.2358C53.4786 29.1708 52.8944 28.9519 52.5374 28.5785C52.1804 28.2054 52.0018 27.7672 52.0018 27.2643C52.0018 26.8747 52.0995 26.5178 52.2937 26.1933C52.4887 25.8525 52.7806 25.5848 53.1702 25.39C53.5759 25.1954 54.0708 25.098 54.655 25.098C55.2713 25.098 55.7827 25.2115 56.1884 25.4388C56.2776 25.4868 56.3625 25.5382 56.4421 25.5926L56.4614 25.6061C56.4911 25.6267 56.5205 25.6481 56.549 25.6697C56.7955 25.858 56.9917 26.0812 57.1376 26.3393C57.3483 26.6964 57.4544 27.0938 57.4544 27.532H61.3482C61.3482 26.3636 61.0805 25.3494 60.5454 24.4895C60.0098 23.6133 59.2391 22.9399 58.2332 22.4692C57.2429 21.9824 56.0505 21.739 54.655 21.739C53.3242 21.739 52.1723 21.9663 51.1986 22.4206C50.2252 22.8588 49.4625 23.4916 48.9109 24.319C48.375 25.1466 48.1072 26.1284 48.1072 27.2643C48.1072 28.8382 48.6351 30.1038 49.6897 31.0613C50.7442 32.0187 52.1562 32.5704 53.9248 32.7164L55.2637 32.8381C56.3504 32.9355 57.1376 33.1545 57.6245 33.4952C58.111 33.8197 58.3546 34.2659 58.3546 34.8339C58.3546 35.0949 58.312 35.3397 58.2263 35.5684C58.1628 35.7382 58.076 35.899 57.9654 36.051C57.7053 36.3915 57.3242 36.6593 56.8212 36.8543C56.3182 37.0489 55.6934 37.1462 54.9468 37.1462C54.1194 37.1462 53.446 37.0328 52.927 36.8052C52.4075 36.562 52.0183 36.2456 51.7582 35.8564C51.515 35.4667 51.3935 35.0449 51.3935 34.5905H47.5234C47.5234 35.7426 47.8073 36.765 48.375 37.6572C48.9431 38.5336 49.7789 39.2316 50.8825 39.7506Z" fill="#ABABAB"/>
<path d="M77.0245 40.2129C75.6776 40.2129 74.5905 40.0509 73.7631 39.726C72.9352 39.3855 72.3269 38.8254 71.9374 38.0467C71.5643 37.2514 71.3777 36.1808 71.3777 34.8338V29.552H69.3574V26.7043H71.3777V23.1021H75.0042V26.7043H78.8988V29.552H75.0042V34.98C75.0042 35.6128 75.1666 36.0995 75.4911 36.4401C75.8316 36.7649 76.3104 36.927 76.9272 36.927H78.8988V40.2129H77.0245Z" fill="#ABABAB"/>
<path fill-rule="evenodd" clip-rule="evenodd" d="M83.5867 39.9211C84.4628 40.3103 85.4691 40.5053 86.6049 40.5053C87.7242 40.5053 88.7144 40.3103 89.5744 39.9211C90.4344 39.5316 91.1484 38.988 91.7161 38.2904C92.2842 37.5925 92.6658 36.7972 92.86 35.9051H89.2821C89.1201 36.3108 88.8117 36.6513 88.3574 36.9271C87.9031 37.2029 87.3185 37.3412 86.6049 37.3412C86.1626 37.3412 85.7674 37.2885 85.4193 37.184C85.1543 37.1044 84.9167 36.9946 84.7064 36.8543C84.2196 36.5299 83.8625 36.0752 83.6354 35.4912C83.5723 35.3249 83.5184 35.1508 83.4729 34.9696C83.4267 34.7859 83.3893 34.5949 83.3612 34.3959H93.1036V33.0815C93.1036 31.8645 92.8439 30.7449 92.3248 29.7227C91.8054 28.684 91.0507 27.8484 90.0613 27.2156C89.0875 26.5665 87.8866 26.242 86.4586 26.242C85.3714 26.242 84.3977 26.4368 83.5377 26.8262C82.6946 27.1993 81.9886 27.7104 81.4205 28.3595C80.8528 29.0086 80.4146 29.747 80.1058 30.5746C79.8139 31.3858 79.668 32.2377 79.668 33.1301V33.6169C79.668 34.4771 79.8139 35.3208 80.1058 36.1483C80.4146 36.9597 80.8528 37.6978 81.4205 38.3632C82.0047 39.0125 82.7263 39.5316 83.5867 39.9211ZM83.4283 31.9892C83.4392 31.9376 83.4504 31.8869 83.4629 31.8369C83.4967 31.6993 83.5357 31.5674 83.5799 31.4414C83.6048 31.3697 83.6314 31.2997 83.6599 31.2317C83.9031 30.6312 84.2602 30.177 84.7306 29.8687C84.9067 29.7534 85.0972 29.6598 85.3019 29.5877C85.646 29.4667 86.032 29.4062 86.4586 29.4062C87.1243 29.4062 87.6756 29.5604 88.1138 29.8687C88.5681 30.1607 88.909 30.5907 89.1362 31.1586C89.1547 31.2045 89.172 31.2511 89.1889 31.2984C89.2158 31.3736 89.2407 31.4508 89.264 31.53C89.2982 31.6478 89.3284 31.7697 89.3549 31.8957C89.3742 31.9885 89.3907 32.0836 89.4056 32.181H83.3909C83.4022 32.116 83.4147 32.0521 83.4283 31.9892Z" fill="#ABABAB"/>
<path d="M94.7109 40.0428V26.7043H97.8023V30.0638C97.8441 29.864 97.8919 29.6724 97.9454 29.4885C97.9912 29.3337 98.0403 29.1844 98.0942 29.0409C98.4351 28.1322 98.9461 27.4508 99.6276 26.9963C100.309 26.5258 101.145 26.2906 102.135 26.2906H102.305C103.311 26.2906 104.147 26.5258 104.812 26.9963C105.493 27.4508 106.005 28.1322 106.345 29.0409L106.372 29.1095L106.395 29.1723C106.411 29.128 106.427 29.0842 106.443 29.0409C106.8 28.1322 107.319 27.4508 108.001 26.9963C108.682 26.5258 109.518 26.2906 110.508 26.2906H110.678C111.684 26.2906 112.528 26.5258 113.209 26.9963C113.907 27.4508 114.435 28.1322 114.791 29.0409C115.148 29.9497 115.327 31.0856 115.327 32.4486V40.0428H111.432V32.2295C111.432 31.4993 111.238 30.907 110.848 30.4527C110.475 29.9983 109.94 29.7711 109.242 29.7711C108.544 29.7711 107.993 30.0065 107.587 30.4771C107.181 30.9313 106.978 31.5398 106.978 32.3026V40.0428H103.059V32.2295C103.059 31.4993 102.865 30.907 102.475 30.4527C102.102 29.9983 101.575 29.7711 100.894 29.7711C100.179 29.7711 99.6195 30.0065 99.2139 30.4771C98.8082 30.9313 98.6052 31.5398 98.6052 32.3026V40.0428H94.7109Z" fill="#ABABAB"/>
<path fill-rule="evenodd" clip-rule="evenodd" d="M125.729 37.4726V40.0428H128.82V31.8644C128.82 30.6311 128.577 29.6252 128.09 28.8462C127.603 28.0511 126.889 27.4588 125.948 27.0695C125.023 26.68 123.879 26.4852 122.516 26.4852C122.221 26.4852 121.912 26.4884 121.591 26.4949C121.401 26.4988 121.206 26.5037 121.007 26.5096C120.471 26.5258 119.952 26.5501 119.449 26.5827L119.065 26.6085C118.868 26.6222 118.682 26.6358 118.508 26.6495C118.377 26.6597 118.253 26.6699 118.135 26.68V29.966C118.638 29.9334 119.198 29.9009 119.815 29.8686C119.987 29.8595 120.158 29.8511 120.328 29.8433C120.573 29.8319 120.814 29.8221 121.054 29.8135C121.243 29.8066 121.43 29.8006 121.616 29.7955C122.199 29.7792 122.67 29.7712 123.027 29.7712C123.741 29.7712 124.26 29.9415 124.585 30.2823C124.91 30.6231 125.072 31.1342 125.072 31.8158V31.8644H122.662C121.478 31.8644 120.431 32.0186 119.522 32.3269C118.614 32.6189 117.908 33.0814 117.405 33.7142C116.902 34.331 116.65 35.126 116.65 36.0996C116.65 36.9921 116.853 37.7628 117.259 38.4121C117.664 39.0446 118.224 39.5314 118.938 39.872C119.669 40.2129 120.512 40.3834 121.469 40.3834C122.394 40.3834 123.173 40.2129 123.806 39.872C124.455 39.5314 124.958 39.0446 125.315 38.4121C125.378 38.3052 125.437 38.1946 125.491 38.0797C125.569 37.9172 125.637 37.7464 125.698 37.567L125.729 37.4726ZM125.072 35.1017V34.0307H122.638C121.956 34.0307 121.429 34.201 121.056 34.5418C120.699 34.8664 120.52 35.3126 120.52 35.8805C120.52 36.1478 120.565 36.3907 120.654 36.6098C120.743 36.8293 120.877 37.0243 121.056 37.1947C121.429 37.5196 121.956 37.6816 122.638 37.6816C122.768 37.6816 122.893 37.6752 123.014 37.6627C123.113 37.6523 123.209 37.6374 123.302 37.6185C123.48 37.5823 123.649 37.5301 123.806 37.4625C124.163 37.3005 124.455 37.0327 124.682 36.6592C124.91 36.2861 125.04 35.7667 125.072 35.1017Z" fill="#ABABAB"/>
<path d="M131.152 40.0427V26.7042H134.244V31.1068C134.392 29.85 134.765 28.8366 135.363 28.0672C136.175 27.045 137.343 26.5339 138.868 26.5339H139.379V29.8927H138.406C137.335 29.8927 136.507 30.1847 135.923 30.7689C135.339 31.3369 135.047 32.1645 135.047 33.2516V40.0427H131.152Z" fill="#ABABAB"/>
<path d="M144.316 33.8115H145.606L149.817 40.0428H154.198L148.859 32.3901L153.249 26.7043H149.16L144.316 33.0465V22.2744H140.422V40.0428H144.316V33.8115Z" fill="#ABABAB"/>
<path d="M165 7.625V0H1V7.625M165 53.375V61H1V53.375" stroke="#ABABAB" stroke-opacity="0.5"/>
</svg>
