<svg width="70" height="70" viewBox="0 0 70 70" fill="none" xmlns="http://www.w3.org/2000/svg">
<path d="M45.3576 37.9053L39.495 43.7877C37.1176 46.1735 32.9345 46.2249 30.5057 43.7877L24.6428 37.9053L3.58594 59.0305C4.36975 59.3929 5.23395 59.6092 6.1527 59.6092H63.848C64.7668 59.6092 65.6307 59.3932 66.4142 59.0306L45.3576 37.9053Z" fill="url(#paint0_linear_420_9341)"/>
<path d="M63.8477 10.3906H6.15242C5.23367 10.3906 4.36947 10.6069 3.58594 10.9694L26.0867 33.5448C26.0882 33.5463 26.09 33.5465 26.0915 33.548C26.093 33.5496 26.0933 33.5516 26.0933 33.5516L33.4095 40.892C34.1866 41.6691 35.8138 41.6691 36.5909 40.892L43.9057 33.5528C43.9057 33.5528 43.9074 33.5496 43.9089 33.548C43.9089 33.548 43.9122 33.5463 43.9137 33.5448L66.4139 10.9692C65.6304 10.6066 64.7665 10.3906 63.8477 10.3906Z" fill="url(#paint1_linear_420_9341)"/>
<path d="M0.654336 13.8376C0.248828 14.6577 0 15.568 0 16.543V53.4571C0 54.4322 0.248555 55.3424 0.654199 56.1625L21.7476 35.0008L0.654336 13.8376Z" fill="url(#paint2_linear_420_9341)"/>
<path d="M69.3431 13.8372L48.25 35.0005L69.3431 56.1626C69.7486 55.3425 69.9974 54.4322 69.9974 53.4569V16.5428C69.9974 15.5675 69.7486 14.6572 69.3431 13.8372Z" fill="url(#paint3_linear_420_9341)"/>
<defs>
<linearGradient id="paint0_linear_420_9341" x1="3.58594" y1="37.9053" x2="66.9648" y2="43.7168" gradientUnits="userSpaceOnUse">
<stop stop-color="#6A73FC"/>
<stop offset="0.15136" stop-color="#C0ADFA"/>
<stop offset="0.369792" stop-color="#ABA5F5"/>
<stop offset="0.635417" stop-color="#64FFFD"/>
<stop offset="0.932292" stop-color="#68C0FF"/>
</linearGradient>
<linearGradient id="paint1_linear_420_9341" x1="3.58594" y1="10.3906" x2="67.2365" y2="14.4658" gradientUnits="userSpaceOnUse">
<stop stop-color="#6A73FC"/>
<stop offset="0.15136" stop-color="#C0ADFA"/>
<stop offset="0.369792" stop-color="#ABA5F5"/>
<stop offset="0.635417" stop-color="#64FFFD"/>
<stop offset="0.932292" stop-color="#68C0FF"/>
</linearGradient>
<linearGradient id="paint2_linear_420_9341" x1="0" y1="13.8376" x2="22.1168" y2="14.1976" gradientUnits="userSpaceOnUse">
<stop stop-color="#6A73FC"/>
<stop offset="0.15136" stop-color="#C0ADFA"/>
<stop offset="0.369792" stop-color="#ABA5F5"/>
<stop offset="0.635417" stop-color="#64FFFD"/>
<stop offset="0.932292" stop-color="#68C0FF"/>
</linearGradient>
<linearGradient id="paint3_linear_420_9341" x1="48.25" y1="13.8372" x2="70.3666" y2="14.1971" gradientUnits="userSpaceOnUse">
<stop stop-color="#6A73FC"/>
<stop offset="0.15136" stop-color="#C0ADFA"/>
<stop offset="0.369792" stop-color="#ABA5F5"/>
<stop offset="0.635417" stop-color="#64FFFD"/>
<stop offset="0.932292" stop-color="#68C0FF"/>
</linearGradient>
</defs>
</svg>
