<svg width="51" height="51" viewBox="0 0 51 51" fill="none" xmlns="http://www.w3.org/2000/svg">
<g clip-path="url(#clip0_398_18499)">
<g opacity="0.9">
<path d="M25.161 19.9784C25.5228 19.9784 25.8162 19.6851 25.8162 19.3232C25.8162 18.9614 25.5228 18.6681 25.161 18.6681C24.7992 18.6681 24.5059 18.9614 24.5059 19.3232C24.5059 19.6851 24.7992 19.9784 25.161 19.9784Z" fill="url(#paint0_linear_398_18499)"/>
<path d="M26.0984 14.9791C26.0991 15.1657 26.0444 15.3483 25.9412 15.5038C25.838 15.6592 25.691 15.7805 25.5188 15.8522C25.3465 15.924 25.1568 15.9429 24.9738 15.9067C24.7908 15.8705 24.6226 15.7807 24.4907 15.6488C24.3588 15.5169 24.269 15.3487 24.2328 15.1657C24.1965 14.9826 24.2155 14.793 24.2872 14.6207C24.359 14.4485 24.4803 14.3015 24.6357 14.1982C24.7912 14.095 24.9738 14.0403 25.1603 14.0411C25.4091 14.0411 25.6477 14.1399 25.8237 14.3158C25.9996 14.4918 26.0984 14.7304 26.0984 14.9791Z" fill="url(#paint1_linear_398_18499)"/>
<path d="M26.3846 10.6388C26.3853 10.882 26.3138 11.12 26.1791 11.3226C26.0444 11.5252 25.8526 11.6832 25.628 11.7767C25.4033 11.8701 25.156 11.8947 24.9174 11.8475C24.6788 11.8002 24.4595 11.6831 24.2875 11.5111C24.1155 11.3391 23.9984 11.1198 23.9512 10.8812C23.9039 10.6426 23.9285 10.3953 24.022 10.1707C24.1154 9.94605 24.2734 9.75424 24.476 9.61954C24.6786 9.48484 24.9166 9.41333 25.1599 9.41407C25.4844 9.41505 25.7953 9.54439 26.0248 9.77385C26.2542 10.0033 26.3836 10.3143 26.3846 10.6388Z" fill="url(#paint2_linear_398_18499)"/>
<path d="M25.1598 7.80968C25.9944 7.80968 26.6711 7.13304 26.6711 6.29836C26.6711 5.46369 25.9944 4.78705 25.1598 4.78705C24.3251 4.78705 23.6484 5.46369 23.6484 6.29836C23.6484 7.13304 24.3251 7.80968 25.1598 7.80968Z" fill="url(#paint3_linear_398_18499)"/>
<path d="M26.9588 1.95798C26.9588 2.31448 26.853 2.66296 26.6549 2.95932C26.4568 3.25568 26.1752 3.4866 25.8457 3.62286C25.5163 3.75911 25.1539 3.79458 24.8043 3.72476C24.4547 3.65494 24.1337 3.48297 23.8818 3.23063C23.63 2.97829 23.4587 2.65692 23.3896 2.30718C23.3205 1.95745 23.3567 1.59508 23.4937 1.26593C23.6306 0.936785 23.8621 0.655661 24.1589 0.458139C24.4557 0.260618 24.8044 0.155578 25.1609 0.156315C25.3973 0.156314 25.6314 0.202942 25.8498 0.29353C26.0681 0.384118 26.2665 0.516886 26.4335 0.684235C26.6005 0.851584 26.7329 1.05023 26.823 1.2688C26.9132 1.48736 26.9593 1.72156 26.9588 1.95798Z" fill="url(#paint4_linear_398_18499)"/>
<path d="M24.5059 30.9968C24.5051 30.8671 24.5429 30.7401 24.6145 30.6318C24.686 30.5236 24.7881 30.4391 24.9077 30.3889C25.0274 30.3387 25.1592 30.3252 25.2865 30.3501C25.4139 30.3749 25.531 30.437 25.623 30.5285C25.715 30.62 25.7777 30.7367 25.8033 30.8639C25.8289 30.9911 25.8161 31.123 25.7667 31.243C25.7172 31.3629 25.6332 31.4654 25.5254 31.5376C25.4176 31.6097 25.2908 31.6483 25.161 31.6483C24.9879 31.6483 24.8218 31.5797 24.6991 31.4577C24.5763 31.3356 24.5069 31.1699 24.5059 30.9968Z" fill="url(#paint5_linear_398_18499)"/>
<path d="M24.2188 35.3372C24.218 35.1508 24.2726 34.9684 24.3757 34.813C24.4787 34.6576 24.6255 34.5363 24.7976 34.4645C24.9696 34.3926 25.1591 34.3735 25.342 34.4094C25.5249 34.4453 25.6931 34.5347 25.8252 34.6662C25.9572 34.7978 26.0473 34.9656 26.0839 35.1484C26.1206 35.3312 26.1022 35.5207 26.031 35.693C25.9598 35.8654 25.8391 36.0127 25.6841 36.1163C25.5292 36.22 25.347 36.2753 25.1605 36.2753C24.9114 36.2753 24.6724 36.1766 24.4959 36.0008C24.3194 35.825 24.2197 35.5864 24.2188 35.3372Z" fill="url(#paint6_linear_398_18499)"/>
<path d="M23.9316 39.6776C23.9309 39.4345 24.0023 39.1966 24.1369 38.9941C24.2714 38.7916 24.463 38.6336 24.6874 38.54C24.9118 38.4465 25.1589 38.4216 25.3974 38.4686C25.6359 38.5156 25.8552 38.6323 26.0273 38.8039C26.1995 38.9756 26.3169 39.1944 26.3646 39.4328C26.4123 39.6712 26.3882 39.9184 26.2953 40.1431C26.2024 40.3678 26.045 40.5598 25.8429 40.695C25.6408 40.8301 25.4032 40.9023 25.1601 40.9023C24.9989 40.9027 24.8393 40.8714 24.6902 40.8101C24.5412 40.7488 24.4058 40.6586 24.2917 40.5449C24.1775 40.4311 24.087 40.2959 24.0252 40.1471C23.9634 39.9983 23.9316 39.8387 23.9316 39.6776Z" fill="url(#paint7_linear_398_18499)"/>
<path d="M26.676 44.0902C26.7138 43.2564 26.0686 42.5497 25.2348 42.5119C24.4009 42.474 23.6943 43.1193 23.6564 43.9531C23.6186 44.7869 24.2638 45.4935 25.0977 45.5314C25.9315 45.5693 26.6381 44.924 26.676 44.0902Z" fill="url(#paint8_linear_398_18499)"/>
<path d="M23.3594 48.3584C23.3594 48.002 23.465 47.6537 23.663 47.3574C23.861 47.0611 24.1424 46.8302 24.4716 46.6938C24.8008 46.5575 25.163 46.5218 25.5125 46.5913C25.862 46.6608 26.1831 46.8324 26.435 47.0844C26.687 47.3364 26.8586 47.6574 26.9281 48.0069C26.9976 48.3564 26.9619 48.7186 26.8256 49.0478C26.6892 49.3771 26.4583 49.6584 26.162 49.8564C25.8657 50.0544 25.5174 50.16 25.161 50.16C24.6832 50.16 24.225 49.9702 23.8871 49.6323C23.5492 49.2945 23.3594 48.8362 23.3594 48.3584Z" fill="url(#paint9_linear_398_18499)"/>
<path d="M30.9968 25.8115C30.8669 25.8122 30.7397 25.7743 30.6314 25.7026C30.5231 25.6309 30.4385 25.5286 30.3885 25.4087C30.3384 25.2889 30.3251 25.1568 30.3503 25.0294C30.3755 24.902 30.4379 24.7849 30.5298 24.6931C30.6216 24.6012 30.7387 24.5387 30.8661 24.5136C30.9936 24.4884 31.1256 24.5017 31.2455 24.5517C31.3653 24.6018 31.4676 24.6863 31.5393 24.7946C31.611 24.903 31.6489 25.0301 31.6482 25.16C31.6482 25.3328 31.5796 25.4985 31.4574 25.6207C31.3352 25.7428 31.1695 25.8115 30.9968 25.8115Z" fill="url(#paint10_linear_398_18499)"/>
<path d="M35.3381 26.0981C35.1515 26.0988 34.9689 26.0441 34.8135 25.9409C34.658 25.8377 34.5367 25.6907 34.465 25.5184C34.3932 25.3462 34.3743 25.1565 34.4105 24.9735C34.4467 24.7905 34.5365 24.6223 34.6684 24.4904C34.8004 24.3584 34.9685 24.2687 35.1515 24.2325C35.3346 24.1962 35.5242 24.2152 35.6965 24.2869C35.8687 24.3587 36.0158 24.48 36.119 24.6354C36.2222 24.7909 36.2769 24.9735 36.2761 25.16C36.2761 25.4088 36.1773 25.6474 36.0014 25.8233C35.8255 25.9993 35.5869 26.0981 35.3381 26.0981Z" fill="url(#paint11_linear_398_18499)"/>
<path d="M39.6774 26.3847C39.4342 26.3855 39.1962 26.314 38.9936 26.1793C38.791 26.0446 38.633 25.8527 38.5395 25.6281C38.4461 25.4035 38.4215 25.1562 38.4687 24.9176C38.516 24.679 38.6331 24.4597 38.8051 24.2877C38.9771 24.1157 39.1964 23.9986 39.435 23.9513C39.6736 23.9041 39.9209 23.9287 40.1455 24.0221C40.3702 24.1156 40.562 24.2736 40.6967 24.4762C40.8314 24.6788 40.9029 24.9168 40.9021 25.16C40.9021 25.4848 40.7731 25.7964 40.5434 26.026C40.3138 26.2557 40.0023 26.3847 39.6774 26.3847Z" fill="url(#paint12_linear_398_18499)"/>
<path d="M44.0188 26.6714C43.7188 26.6721 43.4254 26.5838 43.1756 26.4176C42.9259 26.2514 42.7312 26.0148 42.616 25.7378C42.5009 25.4608 42.4706 25.1559 42.5289 24.8617C42.5873 24.5674 42.7316 24.2971 42.9437 24.085C43.1558 23.8729 43.4261 23.7286 43.7204 23.6702C44.0146 23.6119 44.3196 23.6422 44.5965 23.7573C44.8735 23.8725 45.1101 24.0672 45.2763 24.3169C45.4425 24.5667 45.5308 24.8601 45.5301 25.1601C45.5301 25.5609 45.3708 25.9453 45.0874 26.2287C44.804 26.5121 44.4196 26.6714 44.0188 26.6714Z" fill="url(#paint13_linear_398_18499)"/>
<path d="M48.3583 26.9579C48.0018 26.9579 47.6533 26.8522 47.357 26.6541C47.0606 26.4559 46.8297 26.1743 46.6934 25.8449C46.5572 25.5155 46.5217 25.153 46.5915 24.8034C46.6614 24.4538 46.8333 24.1328 47.0857 23.881C47.338 23.6292 47.6594 23.4579 48.0091 23.3888C48.3588 23.3197 48.7212 23.3559 49.0504 23.4928C49.3795 23.6298 49.6606 23.8613 49.8582 24.158C50.0557 24.4548 50.1607 24.8035 50.16 25.16C50.16 25.3964 50.1133 25.6305 50.0228 25.8489C49.9322 26.0673 49.7994 26.2657 49.6321 26.4327C49.4647 26.5997 49.2661 26.732 49.0475 26.8222C48.8289 26.9123 48.5947 26.9584 48.3583 26.9579Z" fill="url(#paint14_linear_398_18499)"/>
<path d="M19.3231 25.8152C19.685 25.8152 19.9783 25.5219 19.9783 25.16C19.9783 24.7982 19.685 24.5049 19.3231 24.5049C18.9613 24.5049 18.668 24.7982 18.668 25.16C18.668 25.5219 18.9613 25.8152 19.3231 25.8152Z" fill="url(#paint15_linear_398_18499)"/>
<path d="M14.9791 24.2183C15.1655 24.2175 15.348 24.2721 15.5033 24.3752C15.6587 24.4782 15.78 24.625 15.8518 24.7971C15.9237 24.9691 15.9429 25.1586 15.9069 25.3415C15.871 25.5244 15.7816 25.6926 15.6501 25.8247C15.5185 25.9567 15.3507 26.0468 15.1679 26.0835C14.9851 26.1201 14.7956 26.1017 14.6233 26.0305C14.4509 25.9593 14.3036 25.8386 14.2 25.6837C14.0963 25.5287 14.041 25.3465 14.041 25.16C14.041 24.9109 14.1397 24.6719 14.3155 24.4954C14.4914 24.3189 14.7299 24.2193 14.9791 24.2183Z" fill="url(#paint16_linear_398_18499)"/>
<path d="M10.6387 23.9316C10.8819 23.9309 11.1197 24.0023 11.3222 24.1369C11.5247 24.2714 11.6828 24.463 11.7763 24.6874C11.8699 24.9118 11.8947 25.1589 11.8477 25.3974C11.8008 25.636 11.6841 25.8552 11.5124 26.0273C11.3408 26.1995 11.1219 26.3169 10.8835 26.3646C10.6451 26.4123 10.3979 26.3882 10.1732 26.2953C9.94856 26.2024 9.75649 26.045 9.62135 25.8429C9.4862 25.6408 9.41406 25.4032 9.41406 25.1601C9.41406 24.8349 9.54297 24.523 9.77254 24.2928C10.0021 24.0625 10.3136 23.9326 10.6387 23.9316Z" fill="url(#paint17_linear_398_18499)"/>
<path d="M6.29844 23.645C6.59824 23.6442 6.89153 23.7325 7.14116 23.8985C7.3908 24.0645 7.58556 24.3009 7.7008 24.5776C7.81604 24.8544 7.84657 25.1591 7.78854 25.4533C7.7305 25.7474 7.5865 26.0177 7.37477 26.23C7.16304 26.4422 6.89309 26.5869 6.59909 26.6457C6.3051 26.7044 6.00029 26.6746 5.72323 26.5601C5.44618 26.4455 5.20935 26.2513 5.04271 26.0021C4.87607 25.7529 4.78711 25.4598 4.78711 25.16C4.78711 24.7588 4.94622 24.374 5.22954 24.09C5.51286 23.806 5.89727 23.6459 6.29844 23.645Z" fill="url(#paint18_linear_398_18499)"/>
<path d="M1.95811 23.3583C2.31461 23.3576 2.66331 23.4626 2.96008 23.6602C3.25685 23.8577 3.48836 24.1388 3.62529 24.468C3.76223 24.7971 3.79843 25.1595 3.72934 25.5092C3.66024 25.8589 3.48894 26.1803 3.23712 26.4327C2.9853 26.685 2.66428 26.857 2.31469 26.9268C1.9651 26.9966 1.60265 26.9611 1.27323 26.8249C0.943796 26.6886 0.662196 26.4577 0.46406 26.1613C0.265925 25.865 0.160157 25.5165 0.160156 25.16C0.160155 24.6828 0.349461 24.2251 0.686536 23.8873C1.02361 23.5496 1.48092 23.3593 1.95811 23.3583Z" fill="url(#paint19_linear_398_18499)"/>
<path d="M30.5394 22.8075C30.4276 22.8709 30.2994 22.8999 30.1712 22.8907C30.0429 22.8815 29.9203 22.8345 29.8187 22.7557C29.7171 22.6769 29.641 22.5698 29.6002 22.4479C29.5593 22.326 29.5554 22.1947 29.5891 22.0706C29.6227 21.9465 29.6923 21.8351 29.7891 21.7505C29.8859 21.6659 30.0055 21.6118 30.133 21.595C30.2605 21.5783 30.3901 21.5996 30.5055 21.6564C30.6208 21.7132 30.7168 21.8028 30.7813 21.9141C30.8665 22.0649 30.8889 22.2432 30.8436 22.4104C30.7984 22.5776 30.6891 22.7202 30.5394 22.8075Z" fill="url(#paint20_linear_398_18499)"/>
<path d="M34.4436 20.8829C34.283 20.9755 34.0986 21.0184 33.9136 21.0062C33.7286 20.9941 33.5514 20.9274 33.4043 20.8146C33.2572 20.7017 33.1468 20.5479 33.0871 20.3724C33.0274 20.1969 33.021 20.0076 33.0688 19.8285C33.1166 19.6494 33.2163 19.4884 33.3555 19.366C33.4947 19.2435 33.667 19.165 33.8507 19.1404C34.0345 19.1158 34.2214 19.1462 34.3879 19.2278C34.5543 19.3094 34.6929 19.4384 34.7861 19.5987C34.9105 19.8145 34.9442 20.0708 34.8801 20.3115C34.8159 20.5522 34.659 20.7577 34.4436 20.8829Z" fill="url(#paint21_linear_398_18499)"/>
<path d="M38.3452 18.9621C38.1348 19.0838 37.8929 19.1403 37.6503 19.1245C37.4077 19.1087 37.1753 19.0212 36.9824 18.8732C36.7896 18.7251 36.645 18.5232 36.5669 18.293C36.4889 18.0627 36.481 17.8145 36.5441 17.5797C36.6072 17.3449 36.7386 17.1342 36.9216 16.9741C37.1046 16.814 37.3309 16.7119 37.572 16.6805C37.8131 16.6492 38.0581 16.6901 38.2759 16.7981C38.4937 16.906 38.6746 17.0762 38.7957 17.287C38.8763 17.4265 38.9287 17.5806 38.9497 17.7403C38.9707 17.9001 38.96 18.0625 38.9181 18.2181C38.8763 18.3737 38.8041 18.5195 38.7058 18.6472C38.6075 18.7749 38.485 18.8819 38.3452 18.9621Z" fill="url(#paint22_linear_398_18499)"/>
<path d="M42.2613 17.0376C42.0024 17.1867 41.705 17.2557 41.4069 17.2358C41.1088 17.2159 40.8232 17.1081 40.5863 16.926C40.3494 16.7439 40.1718 16.4956 40.076 16.2126C39.9801 15.9296 39.9703 15.6245 40.0478 15.3359C40.1253 15.0474 40.2865 14.7882 40.5112 14.5913C40.736 14.3943 41.014 14.2684 41.3102 14.2294C41.6065 14.1904 41.9076 14.2401 42.1757 14.3723C42.4437 14.5044 42.6665 14.713 42.816 14.9717C42.9154 15.1437 42.9799 15.3337 43.0058 15.5306C43.0317 15.7276 43.0186 15.9278 42.9671 16.1197C42.9155 16.3116 42.8267 16.4914 42.7056 16.6489C42.5845 16.8064 42.4335 16.9385 42.2613 17.0376Z" fill="url(#paint23_linear_398_18499)"/>
<path d="M46.1511 15.1168C45.8431 15.2944 45.4893 15.3767 45.1345 15.3533C44.7798 15.3298 44.4399 15.2018 44.1579 14.9852C43.8759 14.7686 43.6645 14.4733 43.5503 14.1366C43.4361 13.7999 43.4244 13.4369 43.5164 13.0935C43.6085 12.7501 43.8004 12.4417 44.0677 12.2073C44.3351 11.9729 44.6659 11.8231 45.0184 11.7767C45.3709 11.7303 45.7292 11.7894 46.0481 11.9467C46.367 12.1039 46.6321 12.3521 46.81 12.66C47.0476 13.0734 47.1116 13.5641 46.9881 14.0246C46.8646 14.4851 46.5636 14.8778 46.1511 15.1168Z" fill="url(#paint24_linear_398_18499)"/>
<path d="M19.7786 27.5126C19.8902 27.4482 20.0183 27.4182 20.1469 27.4266C20.2755 27.435 20.3987 27.4813 20.501 27.5597C20.6032 27.6381 20.6799 27.7451 20.7214 27.8671C20.7628 27.9891 20.7671 28.1207 20.7338 28.2452C20.7005 28.3696 20.631 28.4814 20.5341 28.5664C20.4372 28.6514 20.3174 28.7057 20.1896 28.7225C20.0618 28.7393 19.932 28.7179 19.8164 28.6609C19.7008 28.6039 19.6048 28.5139 19.5404 28.4023C19.454 28.2527 19.4306 28.075 19.4753 27.9082C19.52 27.7413 19.6291 27.5991 19.7786 27.5126Z" fill="url(#paint25_linear_398_18499)"/>
<path d="M15.8725 29.4334C16.0331 29.3408 16.2176 29.2979 16.4026 29.3101C16.5875 29.3222 16.7648 29.3889 16.9119 29.5018C17.059 29.6146 17.1693 29.7684 17.2291 29.9439C17.2888 30.1194 17.2952 30.3087 17.2474 30.4878C17.1996 30.6669 17.0999 30.8279 16.9607 30.9503C16.8215 31.0728 16.6492 31.1513 16.4654 31.1759C16.2817 31.2005 16.0948 31.1701 15.9283 31.0885C15.7618 31.0069 15.6233 30.8779 15.5301 30.7176C15.4057 30.5018 15.3719 30.2455 15.4361 30.0048C15.5003 29.7641 15.6572 29.5586 15.8725 29.4334Z" fill="url(#paint26_linear_398_18499)"/>
<path d="M11.971 31.3579C12.1809 31.2374 12.4218 31.1818 12.6633 31.1981C12.9048 31.2144 13.1361 31.3019 13.3279 31.4496C13.5197 31.5973 13.6634 31.7985 13.7409 32.0278C13.8185 32.2571 13.8263 32.5043 13.7634 32.738C13.7006 32.9718 13.5699 33.1817 13.3878 33.3412C13.2057 33.5007 12.9805 33.6027 12.7405 33.6342C12.5005 33.6658 12.2565 33.6255 12.0394 33.5185C11.8223 33.4115 11.6417 33.2426 11.5205 33.033C11.3586 32.7511 11.3151 32.4164 11.3996 32.1024C11.484 31.7884 11.6895 31.5207 11.971 31.3579Z" fill="url(#paint27_linear_398_18499)"/>
<path d="M8.06989 33.2861C8.32886 33.1371 8.62621 33.0681 8.92435 33.088C9.22249 33.1079 9.50804 33.2157 9.74493 33.3978C9.98182 33.5799 10.1594 33.8282 10.2553 34.1112C10.3511 34.3942 10.3609 34.6993 10.2835 34.9878C10.206 35.2764 10.0447 35.5356 9.81998 35.7325C9.59528 35.9295 9.31724 36.0554 9.02099 36.0944C8.72474 36.1334 8.42359 36.0836 8.15558 35.9515C7.88757 35.8194 7.66474 35.6108 7.51525 35.3521C7.41584 35.1801 7.35134 34.9901 7.32542 34.7931C7.2995 34.5962 7.31266 34.396 7.36418 34.2041C7.4157 34.0122 7.50455 33.8324 7.62564 33.6749C7.74674 33.5173 7.89769 33.3852 8.06989 33.2861Z" fill="url(#paint28_linear_398_18499)"/>
<path d="M4.16494 35.2032C4.47296 35.0256 4.82671 34.9434 5.18148 34.9668C5.53625 34.9902 5.8761 35.1183 6.15809 35.3349C6.44007 35.5514 6.65152 35.8467 6.7657 36.1834C6.87988 36.5201 6.89168 36.8832 6.79958 37.2266C6.70748 37.57 6.51564 37.8784 6.2483 38.1127C5.98096 38.3471 5.65012 38.497 5.29762 38.5434C4.94512 38.5898 4.58678 38.5306 4.26789 38.3734C3.949 38.2162 3.68389 37.9679 3.50607 37.6601C3.38743 37.4556 3.31035 37.2298 3.27926 36.9955C3.24817 36.7612 3.26369 36.523 3.32491 36.2947C3.38614 36.0664 3.49186 35.8525 3.63602 35.6652C3.78018 35.4779 3.95993 35.3209 4.16494 35.2032Z" fill="url(#paint29_linear_398_18499)"/>
<path d="M28.6449 20.4288C28.6086 20.5137 28.5547 20.59 28.4867 20.6525C28.4187 20.7149 28.3382 20.7622 28.2505 20.7912C28.1628 20.8202 28.0699 20.8302 27.9781 20.8206C27.8863 20.811 27.7975 20.782 27.7177 20.7354C27.638 20.6889 27.569 20.6259 27.5154 20.5507C27.4618 20.4755 27.4248 20.3897 27.4069 20.2992C27.389 20.2086 27.3905 20.1152 27.4114 20.0252C27.4324 19.9353 27.4722 19.8508 27.5282 19.7774C27.6246 19.6512 27.7637 19.5645 27.9195 19.5337C28.0753 19.5029 28.237 19.53 28.3742 19.61C28.5114 19.6901 28.6146 19.8174 28.6645 19.9682C28.7143 20.119 28.7074 20.2828 28.6449 20.4288Z" fill="url(#paint30_linear_398_18499)"/>
<path d="M31.0615 16.8143C30.9683 16.9746 30.8297 17.1036 30.6633 17.1852C30.4968 17.2667 30.3099 17.2971 30.1261 17.2725C29.9424 17.248 29.77 17.1695 29.6309 17.047C29.4917 16.9246 29.3919 16.7636 29.3442 16.5845C29.2964 16.4054 29.3028 16.2161 29.3625 16.0406C29.4222 15.8651 29.5326 15.7112 29.6797 15.5984C29.8268 15.4856 30.004 15.4189 30.189 15.4067C30.374 15.3946 30.5584 15.4375 30.719 15.5301C30.826 15.5917 30.9198 15.6739 30.9949 15.7719C31.0701 15.8699 31.1251 15.9818 31.157 16.1011C31.1888 16.2204 31.1967 16.3448 31.1803 16.4672C31.1639 16.5896 31.1236 16.7076 31.0615 16.8143Z" fill="url(#paint31_linear_398_18499)"/>
<path d="M33.4809 13.1849C33.3603 13.3963 33.1796 13.567 32.9618 13.6755C32.744 13.7841 32.4989 13.8255 32.2575 13.7945C32.0162 13.7635 31.7895 13.6615 31.6062 13.5015C31.4229 13.3415 31.2912 13.1307 31.2279 12.8957C31.1645 12.6608 31.1724 12.4123 31.2505 12.1818C31.3286 11.9514 31.4734 11.7493 31.6665 11.6012C31.8596 11.4532 32.0923 11.3658 32.3351 11.3502C32.578 11.3346 32.82 11.3914 33.0305 11.5136C33.3117 11.6756 33.5171 11.9426 33.6015 12.256C33.686 12.5694 33.6426 12.9035 33.4809 13.1849Z" fill="url(#paint32_linear_398_18499)"/>
<path d="M35.9 9.58159C35.7505 9.84031 35.5276 10.0489 35.2596 10.181C34.9916 10.3131 34.6905 10.3628 34.3942 10.3239C34.098 10.2849 33.8199 10.159 33.5952 9.962C33.3705 9.76505 33.2092 9.50591 33.1318 9.21733C33.0543 8.92875 33.0641 8.62367 33.1599 8.34066C33.2558 8.05765 33.4334 7.8094 33.6703 7.62729C33.9072 7.44518 34.1927 7.33737 34.4909 7.3175C34.789 7.29762 35.0864 7.36657 35.3453 7.51563C35.6923 7.7165 35.9456 8.04675 36.0495 8.434C36.1535 8.82125 36.0997 9.23392 35.9 9.58159Z" fill="url(#paint33_linear_398_18499)"/>
<path d="M38.3152 5.96707C38.1366 6.27431 37.871 6.52172 37.5518 6.67807C37.2327 6.83441 36.8743 6.89266 36.5221 6.84547C36.1699 6.79828 35.8395 6.64777 35.5728 6.41293C35.306 6.1781 35.1149 5.86948 35.0234 5.52606C34.932 5.18264 34.9444 4.81983 35.059 4.48344C35.1737 4.14706 35.3854 3.85219 35.6676 3.63609C35.9497 3.41999 36.2895 3.29235 36.6442 3.26929C36.9988 3.24623 37.3523 3.32879 37.6601 3.50653C37.8653 3.62447 38.0451 3.78185 38.1892 3.96959C38.3333 4.15733 38.4389 4.37173 38.4998 4.60044C38.5607 4.82915 38.5757 5.06765 38.544 5.30219C38.5124 5.53674 38.4346 5.7627 38.3152 5.96707Z" fill="url(#paint34_linear_398_18499)"/>
<path d="M21.6719 29.8875C21.7363 29.775 21.8326 29.6842 21.9487 29.6264C22.0648 29.5687 22.1954 29.5467 22.3239 29.5632C22.4525 29.5797 22.5733 29.634 22.671 29.7192C22.7687 29.8044 22.839 29.9166 22.8729 30.0417C22.9068 30.1669 22.9028 30.2992 22.8614 30.4221C22.82 30.545 22.7431 30.6528 22.6405 30.7319C22.5378 30.8111 22.4139 30.858 22.2846 30.8667C22.1553 30.8754 22.0262 30.8456 21.9139 30.7809C21.839 30.7385 21.7733 30.6816 21.7206 30.6136C21.6679 30.5455 21.6291 30.4678 21.6066 30.3847C21.5841 30.3016 21.5783 30.2149 21.5895 30.1296C21.6007 30.0443 21.6287 29.962 21.6719 29.8875Z" fill="url(#paint35_linear_398_18499)"/>
<path d="M19.2566 33.502C19.3498 33.3418 19.4884 33.2127 19.6549 33.1312C19.8213 33.0496 20.0083 33.0192 20.192 33.0438C20.3757 33.0684 20.5481 33.1469 20.6872 33.2693C20.8264 33.3918 20.9262 33.5528 20.9739 33.7319C21.0217 33.911 21.0153 34.1003 20.9556 34.2758C20.8959 34.4512 20.7855 34.6051 20.6384 34.7179C20.4913 34.8307 20.3141 34.8975 20.1291 34.9096C19.9441 34.9218 19.7597 34.8789 19.5991 34.7863C19.3838 34.661 19.2268 34.4556 19.1627 34.2149C19.0985 33.9742 19.1323 33.7179 19.2566 33.502Z" fill="url(#paint36_linear_398_18499)"/>
<path d="M16.8364 37.1203C16.9574 36.9095 17.1383 36.7393 17.3561 36.6313C17.5739 36.5234 17.8189 36.4825 18.06 36.5138C18.3011 36.5451 18.5275 36.6473 18.7104 36.8074C18.8934 36.9674 19.0248 37.1782 19.0879 37.413C19.1511 37.6478 19.1431 37.896 19.0651 38.1262C18.987 38.3565 18.8424 38.5584 18.6496 38.7064C18.4567 38.8544 18.2243 38.9419 17.9817 38.9578C17.7391 38.9736 17.4972 38.9171 17.2868 38.7954C17.147 38.7152 17.0245 38.6081 16.9262 38.4804C16.8279 38.3528 16.7557 38.2069 16.7139 38.0513C16.672 37.8957 16.6613 37.7334 16.6823 37.5736C16.7033 37.4138 16.7557 37.2598 16.8364 37.1203Z" fill="url(#paint37_linear_398_18499)"/>
<path d="M14.4176 40.731C14.567 40.4711 14.7902 40.2612 15.0589 40.1281C15.3276 39.9951 15.6297 39.9447 15.9271 39.9835C16.2244 40.0222 16.5036 40.1483 16.7292 40.3459C16.9548 40.5434 17.1167 40.8034 17.1945 41.093C17.2722 41.3826 17.2623 41.6887 17.1659 41.9727C17.0696 42.2566 16.8911 42.5056 16.6532 42.6881C16.4152 42.8705 16.1285 42.9783 15.8292 42.9977C15.53 43.0171 15.2318 42.9472 14.9722 42.797C14.8 42.6979 14.6491 42.5658 14.528 42.4083C14.4069 42.2508 14.318 42.0709 14.2665 41.879C14.215 41.6871 14.2018 41.487 14.2278 41.29C14.2537 41.093 14.3182 40.9031 14.4176 40.731Z" fill="url(#paint38_linear_398_18499)"/>
<path d="M12.0008 44.353C12.1786 44.0451 12.4437 43.7969 12.7626 43.6397C13.0815 43.4824 13.4398 43.4233 13.7923 43.4697C14.1448 43.5161 14.4757 43.6659 14.743 43.9003C15.0104 44.1347 15.2022 44.4431 15.2943 44.7865C15.3864 45.1299 15.3746 45.4929 15.2604 45.8296C15.1462 46.1663 14.9348 46.4616 14.6528 46.6782C14.3708 46.8947 14.031 47.0228 13.6762 47.0463C13.3214 47.0697 12.9677 46.9874 12.6597 46.8098C12.455 46.6918 12.2756 46.5347 12.1317 46.3473C11.9879 46.16 11.8823 45.9461 11.8211 45.718C11.7599 45.4898 11.7443 45.2518 11.7751 45.0176C11.806 44.7834 11.8826 44.5576 12.0008 44.353Z" fill="url(#paint39_linear_398_18499)"/>
<path d="M27.2996 19.688C27.2659 19.8122 27.1962 19.9236 27.0992 20.0082C27.0022 20.0928 26.8824 20.1468 26.7548 20.1634C26.6272 20.1799 26.4975 20.1583 26.3822 20.1012C26.2668 20.0442 26.171 19.9543 26.1067 19.8428C26.0424 19.7313 26.0125 19.6033 26.0209 19.4749C26.0293 19.3465 26.0755 19.2234 26.1538 19.1213C26.232 19.0191 26.3387 18.9424 26.4605 18.9008C26.5823 18.8593 26.7137 18.8547 26.8381 18.8877C27.0051 18.9331 27.1474 19.0427 27.2339 19.1926C27.3204 19.3426 27.344 19.5207 27.2996 19.688Z" fill="url(#paint40_linear_398_18499)"/>
<path d="M28.7003 15.571C28.6255 15.8002 28.4656 15.9919 28.2536 16.1067C28.0416 16.2215 27.7937 16.2507 27.5609 16.1882C27.3281 16.1257 27.1281 15.9763 27.0021 15.7708C26.8761 15.5652 26.8338 15.3192 26.8837 15.0834C26.9586 14.8542 27.1185 14.6625 27.3304 14.5477C27.5424 14.4329 27.7903 14.4037 28.0231 14.4662C28.256 14.5287 28.456 14.6781 28.5819 14.8837C28.7079 15.0892 28.7503 15.3352 28.7003 15.571Z" fill="url(#paint41_linear_398_18499)"/>
<path d="M30.0999 11.4502C30.0391 11.6853 29.9099 11.8969 29.7287 12.0584C29.5474 12.2198 29.3222 12.3238 29.0817 12.357C28.8413 12.3902 28.5964 12.3512 28.3781 12.245C28.1598 12.1387 27.9781 11.97 27.8559 11.7602C27.7337 11.5505 27.6766 11.3091 27.6919 11.0669C27.7071 10.8246 27.794 10.5923 27.9415 10.3996C28.0891 10.2068 28.2906 10.0622 28.5204 9.98414C28.7503 9.9061 28.9981 9.89813 29.2325 9.96124C29.5441 10.0451 29.81 10.2486 29.9724 10.5274C30.1348 10.8062 30.1806 11.1378 30.0999 11.4502Z" fill="url(#paint42_linear_398_18499)"/>
<path d="M31.4998 7.33319C31.4207 7.62089 31.2581 7.87873 31.0327 8.07421C30.8073 8.26969 30.529 8.39407 30.233 8.43167C29.937 8.46927 29.6365 8.4184 29.3693 8.28548C29.1022 8.15256 28.8804 7.94354 28.7318 7.68476C28.5833 7.42598 28.5147 7.12902 28.5346 6.8313C28.5546 6.53358 28.6622 6.24844 28.844 6.0118C29.0257 5.77516 29.2735 5.59762 29.556 5.50155C29.8385 5.40549 30.1431 5.39519 30.4314 5.47196C30.6242 5.5233 30.805 5.6123 30.9632 5.73382C31.1214 5.85535 31.254 6.007 31.3533 6.18004C31.4526 6.35307 31.5167 6.54405 31.5418 6.74197C31.567 6.93989 31.5527 7.14083 31.4998 7.33319Z" fill="url(#paint43_linear_398_18499)"/>
<path d="M32.8993 3.21242C32.8069 3.55577 32.6147 3.864 32.3471 4.09814C32.0795 4.33228 31.7485 4.48182 31.3959 4.52784C31.0433 4.57387 30.685 4.51432 30.3663 4.35672C30.0475 4.19912 29.7827 3.95055 29.6052 3.64244C29.4277 3.33433 29.3456 2.98051 29.3692 2.62572C29.3928 2.27093 29.5211 1.9311 29.7378 1.64921C29.9545 1.36731 30.2499 1.156 30.5867 1.042C30.9235 0.927996 31.2866 0.916418 31.63 1.00873C31.858 1.07004 32.0718 1.17568 32.259 1.31962C32.4462 1.46356 32.6033 1.64297 32.7212 1.84762C32.839 2.05226 32.9154 2.27812 32.946 2.51229C32.9766 2.74647 32.9607 2.98438 32.8993 3.21242Z" fill="url(#paint44_linear_398_18499)"/>
<path d="M23.0149 30.6283C23.0482 30.5029 23.118 30.3902 23.2154 30.3045C23.3128 30.2188 23.4334 30.164 23.562 30.1469C23.6907 30.1299 23.8214 30.1514 23.9378 30.2087C24.0542 30.2661 24.1509 30.3567 24.2157 30.4691C24.2805 30.5815 24.3105 30.7106 24.3019 30.84C24.2932 30.9694 24.2464 31.0934 24.1672 31.1962C24.088 31.299 23.9801 31.3759 23.8572 31.4173C23.7342 31.4587 23.6017 31.4626 23.4765 31.4287C23.3936 31.4066 23.3157 31.3684 23.2476 31.3162C23.1794 31.264 23.1222 31.1989 23.0793 31.1245C23.0364 31.0501 23.0086 30.968 22.9976 30.8828C22.9866 30.7977 22.9925 30.7112 23.0149 30.6283Z" fill="url(#paint45_linear_398_18499)"/>
<path d="M21.6162 34.7454C21.6645 34.5655 21.765 34.404 21.905 34.2812C22.0451 34.1585 22.2184 34.08 22.403 34.0558C22.5877 34.0315 22.7753 34.0625 22.9424 34.1449C23.1094 34.2273 23.2482 34.3573 23.3414 34.5186C23.4345 34.6799 23.4777 34.8651 23.4655 35.0509C23.4534 35.2368 23.3864 35.4148 23.2731 35.5626C23.1598 35.7104 23.0052 35.8213 22.8289 35.8812C22.6525 35.9411 22.4624 35.9474 22.2825 35.8993C22.1629 35.8674 22.0509 35.8122 21.9527 35.7368C21.8545 35.6615 21.7721 35.5676 21.7102 35.4604C21.6483 35.3533 21.6081 35.235 21.592 35.1123C21.5759 34.9896 21.5841 34.8649 21.6162 34.7454Z" fill="url(#paint46_linear_398_18499)"/>
<path d="M20.2167 38.8698C20.2774 38.6348 20.4066 38.4231 20.5879 38.2617C20.7692 38.1002 20.9944 37.9963 21.2348 37.9631C21.4753 37.9298 21.7202 37.9688 21.9385 38.0751C22.1567 38.1813 22.3385 38.35 22.4607 38.5598C22.5829 38.7696 22.64 39.0109 22.6247 39.2532C22.6095 39.4954 22.5225 39.7277 22.375 39.9205C22.2275 40.1133 22.026 40.2579 21.7962 40.3359C21.5663 40.4139 21.3184 40.4219 21.084 40.3588C20.7725 40.2749 20.5066 40.0715 20.3442 39.7927C20.1818 39.5138 20.136 39.1822 20.2167 38.8698Z" fill="url(#paint47_linear_398_18499)"/>
<path d="M18.81 42.9831C18.8891 42.6954 19.0516 42.4376 19.2771 42.2421C19.5025 42.0466 19.7807 41.9223 20.0768 41.8847C20.3728 41.8471 20.6733 41.8979 20.9404 42.0309C21.2076 42.1638 21.4294 42.3728 21.5779 42.6316C21.7265 42.8904 21.7951 43.1873 21.7751 43.485C21.7552 43.7828 21.6475 44.0679 21.4658 44.3045C21.284 44.5412 21.0363 44.7187 20.7538 44.8148C20.4713 44.9108 20.1667 44.9211 19.8783 44.8444C19.6855 44.793 19.5048 44.704 19.3466 44.5825C19.1884 44.461 19.0558 44.3093 18.9564 44.1363C18.8571 43.9633 18.793 43.7723 18.7679 43.5744C18.7428 43.3764 18.7571 43.1755 18.81 42.9831Z" fill="url(#paint48_linear_398_18499)"/>
<path d="M17.4173 47.1039C17.5097 46.7605 17.7019 46.4523 17.9695 46.2181C18.2371 45.984 18.5681 45.8345 18.9207 45.7884C19.2733 45.7424 19.6316 45.802 19.9503 45.9596C20.2691 46.1172 20.5339 46.3657 20.7114 46.6739C20.8889 46.982 20.971 47.3358 20.9474 47.6906C20.9238 48.0454 20.7955 48.3852 20.5788 48.6671C20.3621 48.949 20.0667 49.1603 19.7299 49.2743C19.3931 49.3883 19.03 49.3999 18.6866 49.3076C18.4586 49.2462 18.2448 49.1406 18.0576 48.9967C17.8704 48.8527 17.7133 48.6733 17.5954 48.4687C17.4776 48.264 17.4012 48.0382 17.3706 47.804C17.34 47.5698 17.3559 47.3319 17.4173 47.1039Z" fill="url(#paint49_linear_398_18499)"/>
<path d="M24.2781 19.353C24.3104 19.4775 24.3051 19.6087 24.263 19.7301C24.2208 19.8516 24.1437 19.9579 24.0413 20.0356C23.9388 20.1133 23.8157 20.159 23.6874 20.1668C23.559 20.1747 23.4313 20.1444 23.3201 20.0798C23.209 20.0152 23.1194 19.9191 23.0628 19.8037C23.0061 19.6883 22.9849 19.5587 23.0017 19.4312C23.0186 19.3038 23.0728 19.1841 23.1575 19.0874C23.2422 18.9907 23.3536 18.9212 23.4777 18.8877C23.6456 18.8434 23.8241 18.8676 23.9742 18.9548C24.1242 19.042 24.2335 19.1853 24.2781 19.353Z" fill="url(#paint50_linear_398_18499)"/>
<path d="M23.4325 15.0834C23.4815 15.2633 23.476 15.4538 23.4167 15.6307C23.3573 15.8075 23.2468 15.9627 23.0991 16.0767C22.9514 16.1906 22.7732 16.2582 22.5871 16.2707C22.401 16.2832 22.2154 16.2402 22.0537 16.1471C21.8921 16.054 21.7617 15.915 21.6792 15.7477C21.5967 15.5804 21.5657 15.3924 21.5902 15.2075C21.6146 15.0225 21.6935 14.8491 21.8167 14.709C21.9399 14.5689 22.1019 14.4686 22.2822 14.4208C22.4012 14.3887 22.5254 14.3804 22.6477 14.3963C22.7699 14.4122 22.8878 14.4521 22.9947 14.5136C23.1015 14.5752 23.1952 14.6572 23.2703 14.7549C23.3454 14.8527 23.4005 14.9643 23.4325 15.0834Z" fill="url(#paint51_linear_398_18499)"/>
<path d="M22.585 10.8174C22.6481 11.0518 22.6401 11.2997 22.5621 11.5295C22.4841 11.7594 22.3395 11.9609 22.1467 12.1084C21.9539 12.2559 21.7216 12.3428 21.4794 12.3581C21.2371 12.3733 20.9957 12.3162 20.786 12.1941C20.5762 12.0719 20.4075 11.8901 20.3013 11.6719C20.195 11.4536 20.156 11.2087 20.1893 10.9682C20.2225 10.7278 20.3264 10.5026 20.4879 10.3213C20.6493 10.14 20.861 10.0108 21.096 9.95009C21.4084 9.86936 21.74 9.91518 22.0189 10.0776C22.2977 10.24 22.5011 10.5059 22.585 10.8174Z" fill="url(#paint52_linear_398_18499)"/>
<path d="M21.7383 6.55146C21.8144 6.83987 21.8034 7.14434 21.7067 7.42652C21.6101 7.70871 21.4321 7.95598 21.1952 8.13721C20.9583 8.31844 20.6731 8.42552 20.3755 8.44496C20.0778 8.4644 19.7811 8.39533 19.5226 8.24646C19.2642 8.09758 19.0555 7.87556 18.923 7.60834C18.7905 7.34113 18.74 7.04068 18.7779 6.74482C18.8158 6.44897 18.9404 6.17095 19.136 5.94576C19.3316 5.72058 19.5894 5.55832 19.8771 5.4794C20.0697 5.42655 20.2709 5.41241 20.469 5.43779C20.6671 5.46316 20.8582 5.52756 21.0313 5.62725C21.2044 5.72694 21.356 5.85995 21.4773 6.01858C21.5987 6.17722 21.6874 6.35834 21.7383 6.55146Z" fill="url(#paint53_linear_398_18499)"/>
<path d="M20.8907 2.28185C20.9822 2.62531 20.97 2.98821 20.8554 3.32469C20.7408 3.66118 20.5291 3.95616 20.2469 4.17235C19.9647 4.38853 19.6248 4.51623 19.2701 4.53931C18.9154 4.56238 18.5618 4.47979 18.254 4.30198C17.9462 4.12417 17.6981 3.85911 17.5409 3.5403C17.3837 3.22149 17.3245 2.86324 17.3708 2.51081C17.4171 2.15838 17.5669 1.8276 17.8012 1.56025C18.0354 1.2929 18.3437 1.10099 18.687 1.00877C18.9153 0.947442 19.1534 0.931731 19.3878 0.962541C19.6221 0.993351 19.8481 1.07007 20.0528 1.18832C20.2575 1.30657 20.4368 1.46402 20.5806 1.65166C20.7244 1.8393 20.8297 2.05345 20.8907 2.28185Z" fill="url(#paint54_linear_398_18499)"/>
<path d="M26.0385 30.9671C26.0045 30.8419 26.0085 30.7094 26.0498 30.5864C26.0912 30.4635 26.1682 30.3556 26.271 30.2764C26.3738 30.1972 26.4977 30.1503 26.6272 30.1417C26.7566 30.1331 26.8857 30.1631 26.9981 30.2279C27.1105 30.2927 27.2011 30.3894 27.2584 30.5058C27.3158 30.6222 27.3373 30.7529 27.3202 30.8816C27.3032 31.0102 27.2483 31.1308 27.1626 31.2282C27.0769 31.3256 26.9642 31.3954 26.8388 31.4286C26.756 31.4511 26.6695 31.457 26.5843 31.446C26.4992 31.4349 26.4171 31.4072 26.3427 31.3643C26.2683 31.3214 26.2031 31.2642 26.1509 31.196C26.0987 31.1279 26.0605 31.05 26.0385 30.9671Z" fill="url(#paint55_linear_398_18499)"/>
<path d="M27.8105 35.9314C28.3285 35.9213 28.7402 35.4932 28.73 34.9752C28.7199 34.4572 28.2918 34.0455 27.7738 34.0556C27.2558 34.0658 26.8441 34.4939 26.8543 35.0119C26.8644 35.5298 27.2925 35.9415 27.8105 35.9314Z" fill="url(#paint56_linear_398_18499)"/>
<path d="M27.7433 39.4989C27.6802 39.2645 27.6881 39.0166 27.7662 38.7868C27.8442 38.5569 27.9888 38.3554 28.1816 38.2079C28.3744 38.0604 28.6067 37.9735 28.8489 37.9582C29.0912 37.943 29.3325 38.0001 29.5423 38.1223C29.752 38.2444 29.9208 38.4262 30.027 38.6445C30.1333 38.8627 30.1723 39.1076 30.139 39.3481C30.1058 39.5886 30.0019 39.8137 29.8404 39.995C29.679 40.1763 29.4673 40.3055 29.2323 40.3662C28.9199 40.447 28.5882 40.4011 28.3094 40.2387C28.0306 40.0763 27.8272 39.8105 27.7433 39.4989Z" fill="url(#paint57_linear_398_18499)"/>
<path d="M28.5782 43.7686C28.5015 43.4802 28.5118 43.1756 28.6078 42.8931C28.7039 42.6106 28.8814 42.3629 29.1181 42.1812C29.3547 41.9994 29.6399 41.8918 29.9376 41.8718C30.2353 41.8518 30.5322 41.9204 30.791 42.069C31.0498 42.2175 31.2588 42.4394 31.3918 42.7065C31.5247 42.9736 31.5755 43.2741 31.5379 43.5702C31.5003 43.8662 31.376 44.1444 31.1805 44.3698C30.985 44.5953 30.7272 44.7578 30.4395 44.8369C30.2471 44.8893 30.0463 44.9032 29.8485 44.8779C29.6508 44.8525 29.46 44.7884 29.2871 44.6891C29.1142 44.5899 28.9625 44.4575 28.8409 44.2995C28.7193 44.1415 28.63 43.9611 28.5782 43.7686Z" fill="url(#paint58_linear_398_18499)"/>
<path d="M29.426 48.0345C29.3344 47.691 29.3466 47.3281 29.4612 46.9917C29.5758 46.6552 29.7875 46.3602 30.0697 46.144C30.3519 45.9278 30.6918 45.8001 31.0465 45.777C31.4012 45.754 31.7548 45.8366 32.0626 46.0144C32.3704 46.1922 32.6185 46.4572 32.7757 46.776C32.933 47.0949 32.9921 47.4531 32.9458 47.8055C32.8995 48.158 32.7497 48.4888 32.5155 48.7561C32.2812 49.0234 31.9729 49.2154 31.6297 49.3076C31.4014 49.3689 31.1632 49.3846 30.9289 49.3538C30.6945 49.323 30.4685 49.2463 30.2638 49.128C30.0591 49.0098 29.8798 48.8523 29.736 48.6647C29.5922 48.4771 29.4869 48.2629 29.426 48.0345Z" fill="url(#paint59_linear_398_18499)"/>
<path d="M21.4939 20.5703C21.6158 20.693 21.6841 20.8589 21.6841 21.0319C21.6841 21.2048 21.6158 21.3707 21.4939 21.4934C21.4027 21.5843 21.2866 21.6461 21.1603 21.671C21.034 21.6959 20.9032 21.6828 20.7843 21.6334C20.6655 21.5841 20.5639 21.5006 20.4924 21.3935C20.421 21.2864 20.3828 21.1606 20.3828 21.0319C20.3828 20.9031 20.421 20.7773 20.4924 20.6702C20.5639 20.5632 20.6655 20.4797 20.7843 20.4303C20.9032 20.3809 21.034 20.3678 21.1603 20.3928C21.2866 20.4177 21.4027 20.4794 21.4939 20.5703Z" fill="url(#paint60_linear_398_18499)"/>
<path d="M18.6279 17.2982C18.7588 17.4295 18.8478 17.5967 18.8837 17.7786C18.9197 17.9605 18.9009 18.1489 18.8298 18.3201C18.7587 18.4913 18.6385 18.6376 18.4843 18.7406C18.3301 18.8435 18.1488 18.8984 17.9635 18.8984C17.7781 18.8984 17.5968 18.8435 17.4426 18.7406C17.2884 18.6376 17.1682 18.4913 17.0971 18.3201C17.026 18.1489 17.0072 17.9605 17.0432 17.7786C17.0791 17.5967 17.1681 17.4295 17.299 17.2982C17.4755 17.1225 17.7144 17.0239 17.9635 17.0239C18.2125 17.0239 18.4514 17.1225 18.6279 17.2982Z" fill="url(#paint61_linear_398_18499)"/>
<path d="M15.7581 14.0262C15.9295 14.1974 16.0463 14.4156 16.0937 14.6532C16.1411 14.8908 16.1169 15.1371 16.0243 15.361C15.9316 15.5849 15.7746 15.7762 15.5732 15.9108C15.3718 16.0455 15.1349 16.1173 14.8927 16.1173C14.6504 16.1173 14.4135 16.0455 14.2121 15.9108C14.0107 15.7762 13.8537 15.5849 13.7611 15.361C13.6684 15.1371 13.6442 14.8908 13.6916 14.6532C13.739 14.4156 13.8558 14.1974 14.0272 14.0262C14.2568 13.7968 14.5681 13.668 14.8927 13.668C15.2172 13.668 15.5285 13.7968 15.7581 14.0262Z" fill="url(#paint62_linear_398_18499)"/>
<path d="M12.8902 10.7541C13.1017 10.9655 13.2457 11.2347 13.3041 11.5279C13.3625 11.8211 13.3326 12.125 13.2182 12.4013C13.1039 12.6775 12.9102 12.9136 12.6616 13.0797C12.413 13.2458 12.1208 13.3344 11.8219 13.3344C11.5229 13.3344 11.2307 13.2458 10.9821 13.0797C10.7336 12.9136 10.5399 12.6775 10.4255 12.4013C10.3111 12.125 10.2813 11.8211 10.3397 11.5279C10.398 11.2347 10.5421 10.9655 10.7535 10.7541C10.8923 10.6112 11.0584 10.4975 11.2419 10.4199C11.4254 10.3423 11.6226 10.3023 11.8219 10.3023C12.0211 10.3023 12.2183 10.3423 12.4018 10.4199C12.5854 10.4975 12.7514 10.6112 12.8902 10.7541Z" fill="url(#paint63_linear_398_18499)"/>
<path d="M10.0242 7.48207C10.2757 7.73351 10.447 8.05387 10.5164 8.40264C10.5858 8.75142 10.5502 9.11295 10.4141 9.4415C10.2781 9.77005 10.0476 10.0509 9.75195 10.2484C9.45627 10.446 9.10864 10.5515 8.75302 10.5515C8.39741 10.5515 8.04979 10.446 7.75411 10.2484C7.45843 10.0509 7.22798 9.77005 7.09191 9.4415C6.95584 9.11295 6.92025 8.75142 6.98965 8.40264C7.05905 8.05387 7.23033 7.73351 7.48181 7.48207C7.64851 7.31471 7.84662 7.18191 8.06476 7.0913C8.28291 7.00068 8.51681 6.95404 8.75302 6.95404C8.98924 6.95404 9.22315 7.00068 9.4413 7.0913C9.65945 7.18191 9.85755 7.31471 10.0242 7.48207Z" fill="url(#paint64_linear_398_18499)"/>
<path d="M28.8234 29.7498C28.7568 29.6906 28.7029 29.6184 28.6652 29.5376C28.6274 29.4568 28.6065 29.3692 28.6038 29.2801C28.6011 29.1909 28.6166 29.1022 28.6494 29.0193C28.6822 28.9363 28.7316 28.861 28.7945 28.7978C28.8574 28.7346 28.9325 28.685 29.0153 28.6518C29.0981 28.6187 29.1868 28.6029 29.2759 28.6052C29.3651 28.6076 29.4528 28.6281 29.5337 28.6655C29.6147 28.703 29.6871 28.7565 29.7466 28.8229C29.8583 28.9475 29.918 29.1102 29.9136 29.2774C29.9092 29.4447 29.8409 29.6039 29.7229 29.7225C29.6048 29.841 29.4458 29.9099 29.2786 29.915C29.1113 29.9201 28.9485 29.861 28.8234 29.7498Z" fill="url(#paint65_linear_398_18499)"/>
<path d="M31.6894 33.0219C31.5573 32.8903 31.4672 32.7225 31.4305 32.5397C31.3938 32.3569 31.4122 32.1673 31.4834 31.995C31.5546 31.8227 31.6753 31.6753 31.8302 31.5717C31.9852 31.468 32.1674 31.4127 32.3539 31.4127C32.5403 31.4127 32.7226 31.468 32.8775 31.5717C33.0325 31.6753 33.1532 31.8227 33.2244 31.995C33.2955 32.1673 33.314 32.3569 33.2773 32.5397C33.2406 32.7225 33.1505 32.8903 33.0184 33.0219C32.8409 33.1958 32.6024 33.2932 32.3539 33.2932C32.1054 33.2932 31.8669 33.1958 31.6894 33.0219Z" fill="url(#paint66_linear_398_18499)"/>
<path d="M34.5604 36.2939C34.389 36.1227 34.2722 35.9045 34.2248 35.6668C34.1774 35.4292 34.2016 35.1829 34.2943 34.9591C34.3869 34.7352 34.5439 34.5438 34.7453 34.4092C34.9467 34.2746 35.1836 34.2027 35.4259 34.2027C35.6681 34.2027 35.905 34.2746 36.1064 34.4092C36.3078 34.5438 36.4648 34.7352 36.5575 34.9591C36.6501 35.1829 36.6743 35.4292 36.6269 35.6668C36.5795 35.9045 36.4628 36.1227 36.2913 36.2939C36.0617 36.5232 35.7504 36.6521 35.4259 36.6521C35.1013 36.6521 34.79 36.5232 34.5604 36.2939Z" fill="url(#paint67_linear_398_18499)"/>
<path d="M38.4976 40.0089C39.3323 40.0089 40.009 39.3323 40.009 38.4976C40.009 37.6629 39.3323 36.9863 38.4976 36.9863C37.663 36.9863 36.9863 37.6629 36.9863 38.4976C36.9863 39.3323 37.663 40.0089 38.4976 40.0089Z" fill="url(#paint68_linear_398_18499)"/>
<path d="M40.2924 42.838C40.0409 42.5865 39.8696 42.2662 39.8002 41.9174C39.7308 41.5686 39.7664 41.2071 39.9025 40.8785C40.0385 40.55 40.269 40.2692 40.5647 40.0716C40.8603 39.874 41.208 39.7686 41.5636 39.7686C41.9192 39.7686 42.2668 39.874 42.5625 40.0716C42.8582 40.2692 43.0886 40.55 43.2247 40.8785C43.3608 41.2071 43.3964 41.5686 43.327 41.9174C43.2575 42.2662 43.0863 42.5865 42.8348 42.838C42.4976 43.1751 42.0404 43.3644 41.5636 43.3644C41.0868 43.3644 40.6295 43.1751 40.2924 42.838Z" fill="url(#paint69_linear_398_18499)"/>
<path d="M19.6884 23.0159C19.8138 23.0492 19.9265 23.119 20.0122 23.2164C20.0979 23.3138 20.1528 23.4344 20.1698 23.563C20.1869 23.6916 20.1654 23.8224 20.1081 23.9388C20.0507 24.0551 19.9601 24.1519 19.8477 24.2167C19.7353 24.2815 19.6062 24.3115 19.4768 24.3029C19.3473 24.2942 19.2234 24.2473 19.1206 24.1682C19.0178 24.089 18.9409 23.9811 18.8995 23.8581C18.8581 23.7352 18.8541 23.6027 18.8881 23.4775C18.9101 23.3945 18.9484 23.3167 19.0006 23.2485C19.0528 23.1804 19.1179 23.1232 19.1923 23.0803C19.2667 23.0374 19.3488 23.0096 19.4339 22.9986C19.5191 22.9875 19.6056 22.9934 19.6884 23.0159Z" fill="url(#paint70_linear_398_18499)"/>
<path d="M15.5711 21.6163C15.7513 21.6639 15.9134 21.764 16.0367 21.9038C16.16 22.0436 16.2391 22.2168 16.2639 22.4016C16.2887 22.5864 16.258 22.7743 16.1759 22.9417C16.0938 23.109 15.9638 23.2483 15.8025 23.3417C15.6412 23.4351 15.4558 23.4786 15.2698 23.4666C15.0837 23.4546 14.9055 23.3876 14.7575 23.2742C14.6095 23.1608 14.4986 23.006 14.4387 22.8295C14.3787 22.653 14.3725 22.4626 14.4209 22.2826C14.4524 22.1632 14.5073 22.0512 14.5822 21.953C14.6571 21.8548 14.7507 21.7724 14.8576 21.7105C14.9645 21.6486 15.0825 21.6084 15.205 21.5922C15.3274 21.5761 15.4518 21.5842 15.5711 21.6163Z" fill="url(#paint71_linear_398_18499)"/>
<path d="M11.451 20.2166C11.6861 20.2774 11.8977 20.4066 12.0592 20.5879C12.2206 20.7691 12.3245 20.9943 12.3578 21.2348C12.391 21.4752 12.352 21.7201 12.2458 21.9384C12.1395 22.1567 11.9708 22.3384 11.761 22.4606C11.5513 22.5828 11.3099 22.6399 11.0677 22.6246C10.8254 22.6094 10.5931 22.5225 10.4004 22.375C10.2076 22.2274 10.063 22.026 9.98494 21.7961C9.9069 21.5662 9.89892 21.3184 9.96204 21.084C10.0459 20.7724 10.2494 20.5065 10.5282 20.3441C10.807 20.1817 11.1386 20.1359 11.451 20.2166Z" fill="url(#paint72_linear_398_18499)"/>
<path d="M7.33399 18.817C7.62169 18.8961 7.87953 19.0586 8.07501 19.2841C8.27049 19.5095 8.39487 19.7878 8.43246 20.0838C8.47006 20.3798 8.4192 20.6803 8.28628 20.9474C8.15337 21.2146 7.94434 21.4364 7.68555 21.5849C7.42677 21.7335 7.12981 21.8021 6.83209 21.7821C6.53438 21.7622 6.24923 21.6545 6.01259 21.4728C5.77595 21.291 5.59841 21.0433 5.50234 20.7608C5.40628 20.4783 5.39599 20.1737 5.47276 19.8853C5.5241 19.6925 5.61308 19.5118 5.73461 19.3536C5.85614 19.1954 6.0078 19.0628 6.18083 18.9635C6.35386 18.8641 6.54484 18.8001 6.74276 18.7749C6.94068 18.7498 7.14163 18.7641 7.33399 18.817Z" fill="url(#paint73_linear_398_18499)"/>
<path d="M3.21261 17.4173C3.55596 17.5098 3.86419 17.7019 4.09833 17.9695C4.33248 18.2371 4.48201 18.5682 4.52804 18.9207C4.57407 19.2733 4.51451 19.6316 4.35691 19.9504C4.19931 20.2691 3.95074 20.534 3.64263 20.7114C3.33451 20.8889 2.98069 20.971 2.6259 20.9475C2.27111 20.9239 1.93129 20.7956 1.64939 20.5789C1.36749 20.3622 1.15619 20.0667 1.04218 19.7299C0.928182 19.3931 0.916599 19.0301 1.00891 18.6867C1.07022 18.4586 1.17586 18.2449 1.3198 18.0576C1.46374 17.8704 1.64316 17.7134 1.84781 17.5955C2.05245 17.4776 2.2783 17.4012 2.51248 17.3707C2.74666 17.3401 2.98457 17.3559 3.21261 17.4173Z" fill="url(#paint74_linear_398_18499)"/>
<path d="M30.6277 27.3005C30.5023 27.2672 30.3896 27.1974 30.3039 27.1C30.2182 27.0026 30.1634 26.882 30.1463 26.7534C30.1293 26.6248 30.1508 26.494 30.2081 26.3776C30.2655 26.2612 30.3561 26.1645 30.4685 26.0997C30.5808 26.0349 30.7099 26.0049 30.8394 26.0135C30.9688 26.0222 31.0928 26.069 31.1956 26.1482C31.2984 26.2274 31.3753 26.3353 31.4167 26.4582C31.4581 26.5812 31.462 26.7137 31.428 26.8389C31.4065 26.9221 31.3685 27.0003 31.3164 27.0687C31.2644 27.1371 31.1992 27.1945 31.1247 27.2375C31.0502 27.2804 30.9678 27.3081 30.8825 27.3189C30.7972 27.3298 30.7106 27.3235 30.6277 27.3005Z" fill="url(#paint75_linear_398_18499)"/>
<path d="M34.7451 28.7001C34.5648 28.6522 34.4028 28.5519 34.2796 28.4118C34.1564 28.2718 34.0775 28.0983 34.0531 27.9134C34.0286 27.7285 34.0596 27.5404 34.1421 27.3731C34.2246 27.2059 34.355 27.0668 34.5166 26.9737C34.6782 26.8806 34.8639 26.8376 35.05 26.8502C35.2361 26.8627 35.4143 26.9302 35.562 27.0442C35.7097 27.1581 35.8202 27.3133 35.8796 27.4902C35.9389 27.667 35.9444 27.8575 35.8953 28.0375C35.8634 28.1565 35.8083 28.2682 35.7332 28.3659C35.658 28.4637 35.5644 28.5457 35.4576 28.6072C35.3507 28.6687 35.2328 28.7086 35.1106 28.7246C34.9883 28.7405 34.8641 28.7322 34.7451 28.7001Z" fill="url(#paint76_linear_398_18499)"/>
<path d="M38.8655 30.0998C38.6305 30.039 38.4188 29.9098 38.2574 29.7285C38.0959 29.5473 37.992 29.3221 37.9588 29.0816C37.9256 28.8412 37.9646 28.5962 38.0708 28.378C38.1771 28.1597 38.3458 27.978 38.5555 27.8558C38.7653 27.7336 39.0066 27.6765 39.2489 27.6918C39.4912 27.707 39.7234 27.7939 39.9162 27.9414C40.109 28.0889 40.2536 28.2904 40.3316 28.5203C40.4097 28.7502 40.4176 28.998 40.3545 29.2324C40.2706 29.544 40.0672 29.8099 39.7884 29.9723C39.5096 30.1347 39.1779 30.1805 38.8655 30.0998Z" fill="url(#paint77_linear_398_18499)"/>
<path d="M42.9836 31.4994C42.6959 31.4203 42.438 31.2577 42.2425 31.0323C42.0471 30.8069 41.9227 30.5286 41.8851 30.2326C41.8475 29.9366 41.8984 29.6361 42.0313 29.369C42.1642 29.1018 42.3732 28.88 42.632 28.7315C42.8908 28.5829 43.1877 28.5143 43.4855 28.5343C43.7832 28.5542 44.0683 28.6619 44.305 28.8436C44.5416 29.0254 44.7191 29.2731 44.8152 29.5556C44.9113 29.8381 44.9216 30.1427 44.8448 30.4311C44.7935 30.6239 44.7045 30.8046 44.5829 30.9628C44.4614 31.121 44.3098 31.2536 44.1367 31.3529C43.9637 31.4523 43.7727 31.5163 43.5748 31.5415C43.3769 31.5666 43.1759 31.5523 42.9836 31.4994Z" fill="url(#paint78_linear_398_18499)"/>
<path d="M47.101 32.9139C46.7577 32.8217 46.4495 32.6298 46.2152 32.3624C45.981 32.0951 45.8312 31.7643 45.7849 31.4119C45.7385 31.0594 45.7977 30.7012 45.9549 30.3824C46.1121 30.0636 46.3603 29.7985 46.6681 29.6207C46.9759 29.4429 47.3295 29.3603 47.6842 29.3834C48.0389 29.4064 48.3788 29.5341 48.661 29.7503C48.9431 29.9665 49.1549 30.2615 49.2695 30.598C49.384 30.9345 49.3963 31.2974 49.3047 31.6408C49.1808 32.1016 48.8792 32.4944 48.4661 32.733C48.053 32.9717 47.562 33.0367 47.101 32.9139Z" fill="url(#paint79_linear_398_18499)"/>
</g>
</g>
<defs>
<linearGradient id="paint0_linear_398_18499" x1="24.5059" y1="18.6681" x2="25.8374" y2="18.7103" gradientUnits="userSpaceOnUse">
<stop stop-color="#6A73FC"/>
<stop offset="0.15136" stop-color="#C0ADFA"/>
<stop offset="0.369792" stop-color="#ABA5F5"/>
<stop offset="0.635417" stop-color="#64FFFD"/>
<stop offset="0.932292" stop-color="#68C0FF"/>
</linearGradient>
<linearGradient id="paint1_linear_398_18499" x1="24.2148" y1="14.0411" x2="26.129" y2="14.1017" gradientUnits="userSpaceOnUse">
<stop stop-color="#6A73FC"/>
<stop offset="0.15136" stop-color="#C0ADFA"/>
<stop offset="0.369792" stop-color="#ABA5F5"/>
<stop offset="0.635417" stop-color="#64FFFD"/>
<stop offset="0.932292" stop-color="#68C0FF"/>
</linearGradient>
<linearGradient id="paint2_linear_398_18499" x1="23.9277" y1="9.41406" x2="26.4244" y2="9.49315" gradientUnits="userSpaceOnUse">
<stop stop-color="#6A73FC"/>
<stop offset="0.15136" stop-color="#C0ADFA"/>
<stop offset="0.369792" stop-color="#ABA5F5"/>
<stop offset="0.635417" stop-color="#64FFFD"/>
<stop offset="0.932292" stop-color="#68C0FF"/>
</linearGradient>
<linearGradient id="paint3_linear_398_18499" x1="23.6484" y1="4.78705" x2="26.7201" y2="4.88435" gradientUnits="userSpaceOnUse">
<stop stop-color="#6A73FC"/>
<stop offset="0.15136" stop-color="#C0ADFA"/>
<stop offset="0.369792" stop-color="#ABA5F5"/>
<stop offset="0.635417" stop-color="#64FFFD"/>
<stop offset="0.932292" stop-color="#68C0FF"/>
</linearGradient>
<linearGradient id="paint4_linear_398_18499" x1="23.3555" y1="0.156311" x2="27.0173" y2="0.272303" gradientUnits="userSpaceOnUse">
<stop stop-color="#6A73FC"/>
<stop offset="0.15136" stop-color="#C0ADFA"/>
<stop offset="0.369792" stop-color="#ABA5F5"/>
<stop offset="0.635417" stop-color="#64FFFD"/>
<stop offset="0.932292" stop-color="#68C0FF"/>
</linearGradient>
<linearGradient id="paint5_linear_398_18499" x1="24.5059" y1="30.338" x2="25.8374" y2="30.3801" gradientUnits="userSpaceOnUse">
<stop stop-color="#6A73FC"/>
<stop offset="0.15136" stop-color="#C0ADFA"/>
<stop offset="0.369792" stop-color="#ABA5F5"/>
<stop offset="0.635417" stop-color="#64FFFD"/>
<stop offset="0.932292" stop-color="#68C0FF"/>
</linearGradient>
<linearGradient id="paint6_linear_398_18499" x1="24.2188" y1="34.3917" x2="26.1329" y2="34.4524" gradientUnits="userSpaceOnUse">
<stop stop-color="#6A73FC"/>
<stop offset="0.15136" stop-color="#C0ADFA"/>
<stop offset="0.369792" stop-color="#ABA5F5"/>
<stop offset="0.635417" stop-color="#64FFFD"/>
<stop offset="0.932292" stop-color="#68C0FF"/>
</linearGradient>
<linearGradient id="paint7_linear_398_18499" x1="23.9316" y1="38.4454" x2="26.4283" y2="38.5245" gradientUnits="userSpaceOnUse">
<stop stop-color="#6A73FC"/>
<stop offset="0.15136" stop-color="#C0ADFA"/>
<stop offset="0.369792" stop-color="#ABA5F5"/>
<stop offset="0.635417" stop-color="#64FFFD"/>
<stop offset="0.932292" stop-color="#68C0FF"/>
</linearGradient>
<linearGradient id="paint8_linear_398_18499" x1="23.5879" y1="45.4628" x2="23.8244" y2="42.3987" gradientUnits="userSpaceOnUse">
<stop stop-color="#6A73FC"/>
<stop offset="0.15136" stop-color="#C0ADFA"/>
<stop offset="0.369792" stop-color="#ABA5F5"/>
<stop offset="0.635417" stop-color="#64FFFD"/>
<stop offset="0.932292" stop-color="#68C0FF"/>
</linearGradient>
<linearGradient id="paint9_linear_398_18499" x1="23.3594" y1="46.5567" x2="27.0212" y2="46.6727" gradientUnits="userSpaceOnUse">
<stop stop-color="#6A73FC"/>
<stop offset="0.15136" stop-color="#C0ADFA"/>
<stop offset="0.369792" stop-color="#ABA5F5"/>
<stop offset="0.635417" stop-color="#64FFFD"/>
<stop offset="0.932292" stop-color="#68C0FF"/>
</linearGradient>
<linearGradient id="paint10_linear_398_18499" x1="30.3379" y1="24.5012" x2="31.6695" y2="24.5433" gradientUnits="userSpaceOnUse">
<stop stop-color="#6A73FC"/>
<stop offset="0.15136" stop-color="#C0ADFA"/>
<stop offset="0.369792" stop-color="#ABA5F5"/>
<stop offset="0.635417" stop-color="#64FFFD"/>
<stop offset="0.932292" stop-color="#68C0FF"/>
</linearGradient>
<linearGradient id="paint11_linear_398_18499" x1="34.3926" y1="24.2145" x2="36.3067" y2="24.2752" gradientUnits="userSpaceOnUse">
<stop stop-color="#6A73FC"/>
<stop offset="0.15136" stop-color="#C0ADFA"/>
<stop offset="0.369792" stop-color="#ABA5F5"/>
<stop offset="0.635417" stop-color="#64FFFD"/>
<stop offset="0.932292" stop-color="#68C0FF"/>
</linearGradient>
<linearGradient id="paint12_linear_398_18499" x1="38.4453" y1="23.9279" x2="40.942" y2="24.007" gradientUnits="userSpaceOnUse">
<stop stop-color="#6A73FC"/>
<stop offset="0.15136" stop-color="#C0ADFA"/>
<stop offset="0.369792" stop-color="#ABA5F5"/>
<stop offset="0.635417" stop-color="#64FFFD"/>
<stop offset="0.932292" stop-color="#68C0FF"/>
</linearGradient>
<linearGradient id="paint13_linear_398_18499" x1="42.5" y1="23.6413" x2="45.5792" y2="23.7388" gradientUnits="userSpaceOnUse">
<stop stop-color="#6A73FC"/>
<stop offset="0.15136" stop-color="#C0ADFA"/>
<stop offset="0.369792" stop-color="#ABA5F5"/>
<stop offset="0.635417" stop-color="#64FFFD"/>
<stop offset="0.932292" stop-color="#68C0FF"/>
</linearGradient>
<linearGradient id="paint14_linear_398_18499" x1="46.5566" y1="23.3546" x2="50.2184" y2="23.4706" gradientUnits="userSpaceOnUse">
<stop stop-color="#6A73FC"/>
<stop offset="0.15136" stop-color="#C0ADFA"/>
<stop offset="0.369792" stop-color="#ABA5F5"/>
<stop offset="0.635417" stop-color="#64FFFD"/>
<stop offset="0.932292" stop-color="#68C0FF"/>
</linearGradient>
<linearGradient id="paint15_linear_398_18499" x1="18.668" y1="24.5049" x2="19.9995" y2="24.5471" gradientUnits="userSpaceOnUse">
<stop stop-color="#6A73FC"/>
<stop offset="0.15136" stop-color="#C0ADFA"/>
<stop offset="0.369792" stop-color="#ABA5F5"/>
<stop offset="0.635417" stop-color="#64FFFD"/>
<stop offset="0.932292" stop-color="#68C0FF"/>
</linearGradient>
<linearGradient id="paint16_linear_398_18499" x1="14.041" y1="24.2183" x2="15.9551" y2="24.2789" gradientUnits="userSpaceOnUse">
<stop stop-color="#6A73FC"/>
<stop offset="0.15136" stop-color="#C0ADFA"/>
<stop offset="0.369792" stop-color="#ABA5F5"/>
<stop offset="0.635417" stop-color="#64FFFD"/>
<stop offset="0.932292" stop-color="#68C0FF"/>
</linearGradient>
<linearGradient id="paint17_linear_398_18499" x1="9.41406" y1="23.9316" x2="11.9108" y2="24.0107" gradientUnits="userSpaceOnUse">
<stop stop-color="#6A73FC"/>
<stop offset="0.15136" stop-color="#C0ADFA"/>
<stop offset="0.369792" stop-color="#ABA5F5"/>
<stop offset="0.635417" stop-color="#64FFFD"/>
<stop offset="0.932292" stop-color="#68C0FF"/>
</linearGradient>
<linearGradient id="paint18_linear_398_18499" x1="4.78711" y1="23.645" x2="7.86636" y2="23.7425" gradientUnits="userSpaceOnUse">
<stop stop-color="#6A73FC"/>
<stop offset="0.15136" stop-color="#C0ADFA"/>
<stop offset="0.369792" stop-color="#ABA5F5"/>
<stop offset="0.635417" stop-color="#64FFFD"/>
<stop offset="0.932292" stop-color="#68C0FF"/>
</linearGradient>
<linearGradient id="paint19_linear_398_18499" x1="0.160156" y1="23.3583" x2="3.82197" y2="23.4743" gradientUnits="userSpaceOnUse">
<stop stop-color="#6A73FC"/>
<stop offset="0.15136" stop-color="#C0ADFA"/>
<stop offset="0.369792" stop-color="#ABA5F5"/>
<stop offset="0.635417" stop-color="#64FFFD"/>
<stop offset="0.932292" stop-color="#68C0FF"/>
</linearGradient>
<linearGradient id="paint20_linear_398_18499" x1="29.5664" y1="21.5895" x2="30.8877" y2="21.6312" gradientUnits="userSpaceOnUse">
<stop stop-color="#6A73FC"/>
<stop offset="0.15136" stop-color="#C0ADFA"/>
<stop offset="0.369792" stop-color="#ABA5F5"/>
<stop offset="0.635417" stop-color="#64FFFD"/>
<stop offset="0.932292" stop-color="#68C0FF"/>
</linearGradient>
<linearGradient id="paint21_linear_398_18499" x1="33.0371" y1="19.1321" x2="34.9423" y2="19.1924" gradientUnits="userSpaceOnUse">
<stop stop-color="#6A73FC"/>
<stop offset="0.15136" stop-color="#C0ADFA"/>
<stop offset="0.369792" stop-color="#ABA5F5"/>
<stop offset="0.635417" stop-color="#64FFFD"/>
<stop offset="0.932292" stop-color="#68C0FF"/>
</linearGradient>
<linearGradient id="paint22_linear_398_18499" x1="36.502" y1="16.6703" x2="39" y2="16.7495" gradientUnits="userSpaceOnUse">
<stop stop-color="#6A73FC"/>
<stop offset="0.15136" stop-color="#C0ADFA"/>
<stop offset="0.369792" stop-color="#ABA5F5"/>
<stop offset="0.635417" stop-color="#64FFFD"/>
<stop offset="0.932292" stop-color="#68C0FF"/>
</linearGradient>
<linearGradient id="paint23_linear_398_18499" x1="39.9961" y1="14.2165" x2="43.0678" y2="14.3138" gradientUnits="userSpaceOnUse">
<stop stop-color="#6A73FC"/>
<stop offset="0.15136" stop-color="#C0ADFA"/>
<stop offset="0.369792" stop-color="#ABA5F5"/>
<stop offset="0.635417" stop-color="#64FFFD"/>
<stop offset="0.932292" stop-color="#68C0FF"/>
</linearGradient>
<linearGradient id="paint24_linear_398_18499" x1="43.4551" y1="11.7613" x2="47.1079" y2="11.877" gradientUnits="userSpaceOnUse">
<stop stop-color="#6A73FC"/>
<stop offset="0.15136" stop-color="#C0ADFA"/>
<stop offset="0.369792" stop-color="#ABA5F5"/>
<stop offset="0.635417" stop-color="#64FFFD"/>
<stop offset="0.932292" stop-color="#68C0FF"/>
</linearGradient>
<linearGradient id="paint25_linear_398_18499" x1="19.4531" y1="27.4252" x2="20.7771" y2="27.4672" gradientUnits="userSpaceOnUse">
<stop stop-color="#6A73FC"/>
<stop offset="0.15136" stop-color="#C0ADFA"/>
<stop offset="0.369792" stop-color="#ABA5F5"/>
<stop offset="0.635417" stop-color="#64FFFD"/>
<stop offset="0.932292" stop-color="#68C0FF"/>
</linearGradient>
<linearGradient id="paint26_linear_398_18499" x1="15.4043" y1="29.308" x2="17.3095" y2="29.3683" gradientUnits="userSpaceOnUse">
<stop stop-color="#6A73FC"/>
<stop offset="0.15136" stop-color="#C0ADFA"/>
<stop offset="0.369792" stop-color="#ABA5F5"/>
<stop offset="0.635417" stop-color="#64FFFD"/>
<stop offset="0.932292" stop-color="#68C0FF"/>
</linearGradient>
<linearGradient id="paint27_linear_398_18499" x1="11.3574" y1="31.1953" x2="13.8452" y2="31.2741" gradientUnits="userSpaceOnUse">
<stop stop-color="#6A73FC"/>
<stop offset="0.15136" stop-color="#C0ADFA"/>
<stop offset="0.369792" stop-color="#ABA5F5"/>
<stop offset="0.635417" stop-color="#64FFFD"/>
<stop offset="0.932292" stop-color="#68C0FF"/>
</linearGradient>
<linearGradient id="paint28_linear_398_18499" x1="7.3125" y1="33.0847" x2="10.3842" y2="33.182" gradientUnits="userSpaceOnUse">
<stop stop-color="#6A73FC"/>
<stop offset="0.15136" stop-color="#C0ADFA"/>
<stop offset="0.369792" stop-color="#ABA5F5"/>
<stop offset="0.635417" stop-color="#64FFFD"/>
<stop offset="0.932292" stop-color="#68C0FF"/>
</linearGradient>
<linearGradient id="paint29_linear_398_18499" x1="3.26367" y1="34.9629" x2="6.91931" y2="35.0787" gradientUnits="userSpaceOnUse">
<stop stop-color="#6A73FC"/>
<stop offset="0.15136" stop-color="#C0ADFA"/>
<stop offset="0.369792" stop-color="#ABA5F5"/>
<stop offset="0.635417" stop-color="#64FFFD"/>
<stop offset="0.932292" stop-color="#68C0FF"/>
</linearGradient>
<linearGradient id="paint30_linear_398_18499" x1="27.3945" y1="19.5213" x2="28.7185" y2="19.5632" gradientUnits="userSpaceOnUse">
<stop stop-color="#6A73FC"/>
<stop offset="0.15136" stop-color="#C0ADFA"/>
<stop offset="0.369792" stop-color="#ABA5F5"/>
<stop offset="0.635417" stop-color="#64FFFD"/>
<stop offset="0.932292" stop-color="#68C0FF"/>
</linearGradient>
<linearGradient id="paint31_linear_398_18499" x1="29.3125" y1="15.4047" x2="31.2191" y2="15.4651" gradientUnits="userSpaceOnUse">
<stop stop-color="#6A73FC"/>
<stop offset="0.15136" stop-color="#C0ADFA"/>
<stop offset="0.369792" stop-color="#ABA5F5"/>
<stop offset="0.635417" stop-color="#64FFFD"/>
<stop offset="0.932292" stop-color="#68C0FF"/>
</linearGradient>
<linearGradient id="paint32_linear_398_18499" x1="31.1855" y1="11.3477" x2="33.6836" y2="11.4268" gradientUnits="userSpaceOnUse">
<stop stop-color="#6A73FC"/>
<stop offset="0.15136" stop-color="#C0ADFA"/>
<stop offset="0.369792" stop-color="#ABA5F5"/>
<stop offset="0.635417" stop-color="#64FFFD"/>
<stop offset="0.932292" stop-color="#68C0FF"/>
</linearGradient>
<linearGradient id="paint33_linear_398_18499" x1="33.0801" y1="7.31415" x2="36.1504" y2="7.41136" gradientUnits="userSpaceOnUse">
<stop stop-color="#6A73FC"/>
<stop offset="0.15136" stop-color="#C0ADFA"/>
<stop offset="0.369792" stop-color="#ABA5F5"/>
<stop offset="0.635417" stop-color="#64FFFD"/>
<stop offset="0.932292" stop-color="#68C0FF"/>
</linearGradient>
<linearGradient id="paint34_linear_398_18499" x1="34.9629" y1="3.2655" x2="38.6185" y2="3.38134" gradientUnits="userSpaceOnUse">
<stop stop-color="#6A73FC"/>
<stop offset="0.15136" stop-color="#C0ADFA"/>
<stop offset="0.369792" stop-color="#ABA5F5"/>
<stop offset="0.635417" stop-color="#64FFFD"/>
<stop offset="0.932292" stop-color="#68C0FF"/>
</linearGradient>
<linearGradient id="paint35_linear_398_18499" x1="21.584" y1="29.5579" x2="22.9169" y2="29.6001" gradientUnits="userSpaceOnUse">
<stop stop-color="#6A73FC"/>
<stop offset="0.15136" stop-color="#C0ADFA"/>
<stop offset="0.369792" stop-color="#ABA5F5"/>
<stop offset="0.635417" stop-color="#64FFFD"/>
<stop offset="0.932292" stop-color="#68C0FF"/>
</linearGradient>
<linearGradient id="paint36_linear_398_18499" x1="19.1309" y1="33.0355" x2="21.036" y2="33.0958" gradientUnits="userSpaceOnUse">
<stop stop-color="#6A73FC"/>
<stop offset="0.15136" stop-color="#C0ADFA"/>
<stop offset="0.369792" stop-color="#ABA5F5"/>
<stop offset="0.635417" stop-color="#64FFFD"/>
<stop offset="0.932292" stop-color="#68C0FF"/>
</linearGradient>
<linearGradient id="paint37_linear_398_18499" x1="16.6719" y1="36.5035" x2="19.1699" y2="36.5827" gradientUnits="userSpaceOnUse">
<stop stop-color="#6A73FC"/>
<stop offset="0.15136" stop-color="#C0ADFA"/>
<stop offset="0.369792" stop-color="#ABA5F5"/>
<stop offset="0.635417" stop-color="#64FFFD"/>
<stop offset="0.932292" stop-color="#68C0FF"/>
</linearGradient>
<linearGradient id="paint38_linear_398_18499" x1="14.2148" y1="39.9708" x2="17.2955" y2="40.0684" gradientUnits="userSpaceOnUse">
<stop stop-color="#6A73FC"/>
<stop offset="0.15136" stop-color="#C0ADFA"/>
<stop offset="0.369792" stop-color="#ABA5F5"/>
<stop offset="0.635417" stop-color="#64FFFD"/>
<stop offset="0.932292" stop-color="#68C0FF"/>
</linearGradient>
<linearGradient id="paint39_linear_398_18499" x1="11.7598" y1="43.4543" x2="15.414" y2="43.57" gradientUnits="userSpaceOnUse">
<stop stop-color="#6A73FC"/>
<stop offset="0.15136" stop-color="#C0ADFA"/>
<stop offset="0.369792" stop-color="#ABA5F5"/>
<stop offset="0.635417" stop-color="#64FFFD"/>
<stop offset="0.932292" stop-color="#68C0FF"/>
</linearGradient>
<linearGradient id="paint40_linear_398_18499" x1="26.0195" y1="18.8659" x2="27.3427" y2="18.9078" gradientUnits="userSpaceOnUse">
<stop stop-color="#6A73FC"/>
<stop offset="0.15136" stop-color="#C0ADFA"/>
<stop offset="0.369792" stop-color="#ABA5F5"/>
<stop offset="0.635417" stop-color="#64FFFD"/>
<stop offset="0.932292" stop-color="#68C0FF"/>
</linearGradient>
<linearGradient id="paint41_linear_398_18499" x1="26.8633" y1="14.434" x2="28.7507" y2="14.4962" gradientUnits="userSpaceOnUse">
<stop stop-color="#6A73FC"/>
<stop offset="0.15136" stop-color="#C0ADFA"/>
<stop offset="0.369792" stop-color="#ABA5F5"/>
<stop offset="0.635417" stop-color="#64FFFD"/>
<stop offset="0.932292" stop-color="#68C0FF"/>
</linearGradient>
<linearGradient id="paint42_linear_398_18499" x1="27.6895" y1="9.91913" x2="30.1786" y2="9.99797" gradientUnits="userSpaceOnUse">
<stop stop-color="#6A73FC"/>
<stop offset="0.15136" stop-color="#C0ADFA"/>
<stop offset="0.369792" stop-color="#ABA5F5"/>
<stop offset="0.635417" stop-color="#64FFFD"/>
<stop offset="0.932292" stop-color="#68C0FF"/>
</linearGradient>
<linearGradient id="paint43_linear_398_18499" x1="28.5312" y1="5.42108" x2="31.6029" y2="5.51838" gradientUnits="userSpaceOnUse">
<stop stop-color="#6A73FC"/>
<stop offset="0.15136" stop-color="#C0ADFA"/>
<stop offset="0.369792" stop-color="#ABA5F5"/>
<stop offset="0.635417" stop-color="#64FFFD"/>
<stop offset="0.932292" stop-color="#68C0FF"/>
</linearGradient>
<linearGradient id="paint44_linear_398_18499" x1="29.3652" y1="0.947083" x2="33.0195" y2="1.06283" gradientUnits="userSpaceOnUse">
<stop stop-color="#6A73FC"/>
<stop offset="0.15136" stop-color="#C0ADFA"/>
<stop offset="0.369792" stop-color="#ABA5F5"/>
<stop offset="0.635417" stop-color="#64FFFD"/>
<stop offset="0.932292" stop-color="#68C0FF"/>
</linearGradient>
<linearGradient id="paint45_linear_398_18499" x1="22.9922" y1="30.1412" x2="24.3246" y2="30.1835" gradientUnits="userSpaceOnUse">
<stop stop-color="#6A73FC"/>
<stop offset="0.15136" stop-color="#C0ADFA"/>
<stop offset="0.369792" stop-color="#ABA5F5"/>
<stop offset="0.635417" stop-color="#64FFFD"/>
<stop offset="0.932292" stop-color="#68C0FF"/>
</linearGradient>
<linearGradient id="paint46_linear_398_18499" x1="21.584" y1="34.0477" x2="23.4981" y2="34.1084" gradientUnits="userSpaceOnUse">
<stop stop-color="#6A73FC"/>
<stop offset="0.15136" stop-color="#C0ADFA"/>
<stop offset="0.369792" stop-color="#ABA5F5"/>
<stop offset="0.635417" stop-color="#64FFFD"/>
<stop offset="0.932292" stop-color="#68C0FF"/>
</linearGradient>
<linearGradient id="paint47_linear_398_18499" x1="20.1777" y1="37.9515" x2="22.6669" y2="38.0304" gradientUnits="userSpaceOnUse">
<stop stop-color="#6A73FC"/>
<stop offset="0.15136" stop-color="#C0ADFA"/>
<stop offset="0.369792" stop-color="#ABA5F5"/>
<stop offset="0.635417" stop-color="#64FFFD"/>
<stop offset="0.932292" stop-color="#68C0FF"/>
</linearGradient>
<linearGradient id="paint48_linear_398_18499" x1="18.7559" y1="41.8726" x2="21.8275" y2="41.9699" gradientUnits="userSpaceOnUse">
<stop stop-color="#6A73FC"/>
<stop offset="0.15136" stop-color="#C0ADFA"/>
<stop offset="0.369792" stop-color="#ABA5F5"/>
<stop offset="0.635417" stop-color="#64FFFD"/>
<stop offset="0.932292" stop-color="#68C0FF"/>
</linearGradient>
<linearGradient id="paint49_linear_398_18499" x1="17.3555" y1="45.7733" x2="21.0097" y2="45.8891" gradientUnits="userSpaceOnUse">
<stop stop-color="#6A73FC"/>
<stop offset="0.15136" stop-color="#C0ADFA"/>
<stop offset="0.369792" stop-color="#ABA5F5"/>
<stop offset="0.635417" stop-color="#64FFFD"/>
<stop offset="0.932292" stop-color="#68C0FF"/>
</linearGradient>
<linearGradient id="paint50_linear_398_18499" x1="22.9961" y1="18.866" x2="24.3201" y2="18.908" gradientUnits="userSpaceOnUse">
<stop stop-color="#6A73FC"/>
<stop offset="0.15136" stop-color="#C0ADFA"/>
<stop offset="0.369792" stop-color="#ABA5F5"/>
<stop offset="0.635417" stop-color="#64FFFD"/>
<stop offset="0.932292" stop-color="#68C0FF"/>
</linearGradient>
<linearGradient id="paint51_linear_398_18499" x1="21.582" y1="14.3884" x2="23.4962" y2="14.449" gradientUnits="userSpaceOnUse">
<stop stop-color="#6A73FC"/>
<stop offset="0.15136" stop-color="#C0ADFA"/>
<stop offset="0.369792" stop-color="#ABA5F5"/>
<stop offset="0.635417" stop-color="#64FFFD"/>
<stop offset="0.932292" stop-color="#68C0FF"/>
</linearGradient>
<linearGradient id="paint52_linear_398_18499" x1="20.1777" y1="9.91113" x2="22.6669" y2="9.98998" gradientUnits="userSpaceOnUse">
<stop stop-color="#6A73FC"/>
<stop offset="0.15136" stop-color="#C0ADFA"/>
<stop offset="0.369792" stop-color="#ABA5F5"/>
<stop offset="0.635417" stop-color="#64FFFD"/>
<stop offset="0.932292" stop-color="#68C0FF"/>
</linearGradient>
<linearGradient id="paint53_linear_398_18499" x1="18.7656" y1="5.42554" x2="21.8373" y2="5.52284" gradientUnits="userSpaceOnUse">
<stop stop-color="#6A73FC"/>
<stop offset="0.15136" stop-color="#C0ADFA"/>
<stop offset="0.369792" stop-color="#ABA5F5"/>
<stop offset="0.635417" stop-color="#64FFFD"/>
<stop offset="0.932292" stop-color="#68C0FF"/>
</linearGradient>
<linearGradient id="paint54_linear_398_18499" x1="17.3555" y1="0.947205" x2="21.0097" y2="1.06296" gradientUnits="userSpaceOnUse">
<stop stop-color="#6A73FC"/>
<stop offset="0.15136" stop-color="#C0ADFA"/>
<stop offset="0.369792" stop-color="#ABA5F5"/>
<stop offset="0.635417" stop-color="#64FFFD"/>
<stop offset="0.932292" stop-color="#68C0FF"/>
</linearGradient>
<linearGradient id="paint55_linear_398_18499" x1="26.0156" y1="30.1403" x2="27.3472" y2="30.1824" gradientUnits="userSpaceOnUse">
<stop stop-color="#6A73FC"/>
<stop offset="0.15136" stop-color="#C0ADFA"/>
<stop offset="0.369792" stop-color="#ABA5F5"/>
<stop offset="0.635417" stop-color="#64FFFD"/>
<stop offset="0.932292" stop-color="#68C0FF"/>
</linearGradient>
<linearGradient id="paint56_linear_398_18499" x1="26.8359" y1="34.074" x2="28.7433" y2="34.0971" gradientUnits="userSpaceOnUse">
<stop stop-color="#6A73FC"/>
<stop offset="0.15136" stop-color="#C0ADFA"/>
<stop offset="0.369792" stop-color="#ABA5F5"/>
<stop offset="0.635417" stop-color="#64FFFD"/>
<stop offset="0.932292" stop-color="#68C0FF"/>
</linearGradient>
<linearGradient id="paint57_linear_398_18499" x1="27.7012" y1="37.9558" x2="30.1903" y2="38.0347" gradientUnits="userSpaceOnUse">
<stop stop-color="#6A73FC"/>
<stop offset="0.15136" stop-color="#C0ADFA"/>
<stop offset="0.369792" stop-color="#ABA5F5"/>
<stop offset="0.635417" stop-color="#64FFFD"/>
<stop offset="0.932292" stop-color="#68C0FF"/>
</linearGradient>
<linearGradient id="paint58_linear_398_18499" x1="28.5273" y1="41.8684" x2="31.599" y2="41.9657" gradientUnits="userSpaceOnUse">
<stop stop-color="#6A73FC"/>
<stop offset="0.15136" stop-color="#C0ADFA"/>
<stop offset="0.369792" stop-color="#ABA5F5"/>
<stop offset="0.635417" stop-color="#64FFFD"/>
<stop offset="0.932292" stop-color="#68C0FF"/>
</linearGradient>
<linearGradient id="paint59_linear_398_18499" x1="29.3652" y1="45.7733" x2="33.0195" y2="45.889" gradientUnits="userSpaceOnUse">
<stop stop-color="#6A73FC"/>
<stop offset="0.15136" stop-color="#C0ADFA"/>
<stop offset="0.369792" stop-color="#ABA5F5"/>
<stop offset="0.635417" stop-color="#64FFFD"/>
<stop offset="0.932292" stop-color="#68C0FF"/>
</linearGradient>
<linearGradient id="paint60_linear_398_18499" x1="20.3828" y1="20.3804" x2="21.7053" y2="20.4223" gradientUnits="userSpaceOnUse">
<stop stop-color="#6A73FC"/>
<stop offset="0.15136" stop-color="#C0ADFA"/>
<stop offset="0.369792" stop-color="#ABA5F5"/>
<stop offset="0.635417" stop-color="#64FFFD"/>
<stop offset="0.932292" stop-color="#68C0FF"/>
</linearGradient>
<linearGradient id="paint61_linear_398_18499" x1="17.0254" y1="17.0239" x2="18.9319" y2="17.0843" gradientUnits="userSpaceOnUse">
<stop stop-color="#6A73FC"/>
<stop offset="0.15136" stop-color="#C0ADFA"/>
<stop offset="0.369792" stop-color="#ABA5F5"/>
<stop offset="0.635417" stop-color="#64FFFD"/>
<stop offset="0.932292" stop-color="#68C0FF"/>
</linearGradient>
<linearGradient id="paint62_linear_398_18499" x1="13.668" y1="13.668" x2="16.1571" y2="13.7468" gradientUnits="userSpaceOnUse">
<stop stop-color="#6A73FC"/>
<stop offset="0.15136" stop-color="#C0ADFA"/>
<stop offset="0.369792" stop-color="#ABA5F5"/>
<stop offset="0.635417" stop-color="#64FFFD"/>
<stop offset="0.932292" stop-color="#68C0FF"/>
</linearGradient>
<linearGradient id="paint63_linear_398_18499" x1="10.3105" y1="10.3023" x2="13.3823" y2="10.3993" gradientUnits="userSpaceOnUse">
<stop stop-color="#6A73FC"/>
<stop offset="0.15136" stop-color="#C0ADFA"/>
<stop offset="0.369792" stop-color="#ABA5F5"/>
<stop offset="0.635417" stop-color="#64FFFD"/>
<stop offset="0.932292" stop-color="#68C0FF"/>
</linearGradient>
<linearGradient id="paint64_linear_398_18499" x1="6.95508" y1="6.95404" x2="10.6093" y2="7.06974" gradientUnits="userSpaceOnUse">
<stop stop-color="#6A73FC"/>
<stop offset="0.15136" stop-color="#C0ADFA"/>
<stop offset="0.369792" stop-color="#ABA5F5"/>
<stop offset="0.635417" stop-color="#64FFFD"/>
<stop offset="0.932292" stop-color="#68C0FF"/>
</linearGradient>
<linearGradient id="paint65_linear_398_18499" x1="28.6035" y1="28.605" x2="29.9351" y2="28.6472" gradientUnits="userSpaceOnUse">
<stop stop-color="#6A73FC"/>
<stop offset="0.15136" stop-color="#C0ADFA"/>
<stop offset="0.369792" stop-color="#ABA5F5"/>
<stop offset="0.635417" stop-color="#64FFFD"/>
<stop offset="0.932292" stop-color="#68C0FF"/>
</linearGradient>
<linearGradient id="paint66_linear_398_18499" x1="31.4121" y1="31.4127" x2="33.3262" y2="31.4734" gradientUnits="userSpaceOnUse">
<stop stop-color="#6A73FC"/>
<stop offset="0.15136" stop-color="#C0ADFA"/>
<stop offset="0.369792" stop-color="#ABA5F5"/>
<stop offset="0.635417" stop-color="#64FFFD"/>
<stop offset="0.932292" stop-color="#68C0FF"/>
</linearGradient>
<linearGradient id="paint67_linear_398_18499" x1="34.2012" y1="34.2027" x2="36.6903" y2="34.2815" gradientUnits="userSpaceOnUse">
<stop stop-color="#6A73FC"/>
<stop offset="0.15136" stop-color="#C0ADFA"/>
<stop offset="0.369792" stop-color="#ABA5F5"/>
<stop offset="0.635417" stop-color="#64FFFD"/>
<stop offset="0.932292" stop-color="#68C0FF"/>
</linearGradient>
<linearGradient id="paint68_linear_398_18499" x1="36.9863" y1="36.9863" x2="40.058" y2="37.0836" gradientUnits="userSpaceOnUse">
<stop stop-color="#6A73FC"/>
<stop offset="0.15136" stop-color="#C0ADFA"/>
<stop offset="0.369792" stop-color="#ABA5F5"/>
<stop offset="0.635417" stop-color="#64FFFD"/>
<stop offset="0.932292" stop-color="#68C0FF"/>
</linearGradient>
<linearGradient id="paint69_linear_398_18499" x1="39.7656" y1="39.7686" x2="43.4199" y2="39.8843" gradientUnits="userSpaceOnUse">
<stop stop-color="#6A73FC"/>
<stop offset="0.15136" stop-color="#C0ADFA"/>
<stop offset="0.369792" stop-color="#ABA5F5"/>
<stop offset="0.635417" stop-color="#64FFFD"/>
<stop offset="0.932292" stop-color="#68C0FF"/>
</linearGradient>
<linearGradient id="paint70_linear_398_18499" x1="18.8652" y1="22.9932" x2="20.1968" y2="23.0353" gradientUnits="userSpaceOnUse">
<stop stop-color="#6A73FC"/>
<stop offset="0.15136" stop-color="#C0ADFA"/>
<stop offset="0.369792" stop-color="#ABA5F5"/>
<stop offset="0.635417" stop-color="#64FFFD"/>
<stop offset="0.932292" stop-color="#68C0FF"/>
</linearGradient>
<linearGradient id="paint71_linear_398_18499" x1="14.3887" y1="21.5842" x2="16.3028" y2="21.6448" gradientUnits="userSpaceOnUse">
<stop stop-color="#6A73FC"/>
<stop offset="0.15136" stop-color="#C0ADFA"/>
<stop offset="0.369792" stop-color="#ABA5F5"/>
<stop offset="0.635417" stop-color="#64FFFD"/>
<stop offset="0.932292" stop-color="#68C0FF"/>
</linearGradient>
<linearGradient id="paint72_linear_398_18499" x1="9.91992" y1="20.1777" x2="12.409" y2="20.2565" gradientUnits="userSpaceOnUse">
<stop stop-color="#6A73FC"/>
<stop offset="0.15136" stop-color="#C0ADFA"/>
<stop offset="0.369792" stop-color="#ABA5F5"/>
<stop offset="0.635417" stop-color="#64FFFD"/>
<stop offset="0.932292" stop-color="#68C0FF"/>
</linearGradient>
<linearGradient id="paint73_linear_398_18499" x1="5.42188" y1="18.7629" x2="8.49356" y2="18.8602" gradientUnits="userSpaceOnUse">
<stop stop-color="#6A73FC"/>
<stop offset="0.15136" stop-color="#C0ADFA"/>
<stop offset="0.369792" stop-color="#ABA5F5"/>
<stop offset="0.635417" stop-color="#64FFFD"/>
<stop offset="0.932292" stop-color="#68C0FF"/>
</linearGradient>
<linearGradient id="paint74_linear_398_18499" x1="0.947266" y1="17.3555" x2="4.60151" y2="17.4713" gradientUnits="userSpaceOnUse">
<stop stop-color="#6A73FC"/>
<stop offset="0.15136" stop-color="#C0ADFA"/>
<stop offset="0.369792" stop-color="#ABA5F5"/>
<stop offset="0.635417" stop-color="#64FFFD"/>
<stop offset="0.932292" stop-color="#68C0FF"/>
</linearGradient>
<linearGradient id="paint75_linear_398_18499" x1="30.1406" y1="26.0121" x2="31.4722" y2="26.0542" gradientUnits="userSpaceOnUse">
<stop stop-color="#6A73FC"/>
<stop offset="0.15136" stop-color="#C0ADFA"/>
<stop offset="0.369792" stop-color="#ABA5F5"/>
<stop offset="0.635417" stop-color="#64FFFD"/>
<stop offset="0.932292" stop-color="#68C0FF"/>
</linearGradient>
<linearGradient id="paint76_linear_398_18499" x1="34.0449" y1="26.848" x2="35.9591" y2="26.9086" gradientUnits="userSpaceOnUse">
<stop stop-color="#6A73FC"/>
<stop offset="0.15136" stop-color="#C0ADFA"/>
<stop offset="0.369792" stop-color="#ABA5F5"/>
<stop offset="0.635417" stop-color="#64FFFD"/>
<stop offset="0.932292" stop-color="#68C0FF"/>
</linearGradient>
<linearGradient id="paint77_linear_398_18499" x1="37.9473" y1="27.6893" x2="40.4364" y2="27.7682" gradientUnits="userSpaceOnUse">
<stop stop-color="#6A73FC"/>
<stop offset="0.15136" stop-color="#C0ADFA"/>
<stop offset="0.369792" stop-color="#ABA5F5"/>
<stop offset="0.635417" stop-color="#64FFFD"/>
<stop offset="0.932292" stop-color="#68C0FF"/>
</linearGradient>
<linearGradient id="paint78_linear_398_18499" x1="41.873" y1="28.5309" x2="44.9447" y2="28.6282" gradientUnits="userSpaceOnUse">
<stop stop-color="#6A73FC"/>
<stop offset="0.15136" stop-color="#C0ADFA"/>
<stop offset="0.369792" stop-color="#ABA5F5"/>
<stop offset="0.635417" stop-color="#64FFFD"/>
<stop offset="0.932292" stop-color="#68C0FF"/>
</linearGradient>
<linearGradient id="paint79_linear_398_18499" x1="45.7695" y1="29.3796" x2="49.4238" y2="29.4954" gradientUnits="userSpaceOnUse">
<stop stop-color="#6A73FC"/>
<stop offset="0.15136" stop-color="#C0ADFA"/>
<stop offset="0.369792" stop-color="#ABA5F5"/>
<stop offset="0.635417" stop-color="#64FFFD"/>
<stop offset="0.932292" stop-color="#68C0FF"/>
</linearGradient>
<clipPath id="clip0_398_18499">
<rect width="50.0001" height="50" fill="white" transform="translate(0.160156 0.160034)"/>
</clipPath>
</defs>
</svg>
