<svg width="50" height="50" viewBox="0 0 50 50" fill="none" xmlns="http://www.w3.org/2000/svg">
<g clip-path="url(#clip0_398_18594)">
<g opacity="0.9">
<path d="M28.056 35.7169C33.8258 41.7064 40.6044 44.8369 43.1692 42.6965L43.7611 42.0674C43.4794 42.3498 43.1272 42.5516 42.7411 42.6518C39.6924 43.5229 33.2489 40.2807 28.3501 35.408C24.9999 32.0838 23.2466 28.8639 23.429 26.8724C23.2317 28.3167 23.831 31.0601 28.056 35.7169Z" fill="url(#paint0_linear_398_18594)"/>
<path d="M28.745 34.9389C34.2133 39.8414 42.0752 43.5527 44.6288 41.0512L44.7256 40.9284L45.0978 40.4333L45.135 40.3774C44.8503 40.7025 44.4719 40.9313 44.0518 41.0326C41.0031 41.9074 34.2617 39.0225 28.9982 34.5928C25.5326 31.6781 23.5671 28.823 23.5001 26.9617C23.4889 28.3986 24.4158 30.9038 28.745 34.9389Z" fill="url(#paint1_linear_398_18594)"/>
<path d="M26.5066 17.0004C31.6771 10.0506 38.519 4.66423 40.6111 5.89636L39.9001 5.33056C38.1244 4.06121 31.6027 8.84827 26.1642 16.6952C24.932 18.5564 22.3114 22.8224 23.2495 24.6017C22.8884 23.8572 22.9777 21.9215 26.5066 17.0004Z" fill="url(#paint2_linear_398_18594)"/>
<path d="M21.7018 14.4952C22.9265 7.82459 26.3921 1.7086 29.4408 0.837543C29.8356 0.71533 30.2559 0.701173 30.658 0.796578L30.0736 0.658849L29.5897 0.550906C26.6973 0.156326 22.6994 5.55016 21.2551 14.391C20.7265 18.1656 20.8828 22.3794 22.5877 24.2332C21.2811 22.6511 20.8828 19.0292 21.7018 14.4952Z" fill="url(#paint3_linear_398_18594)"/>
<path d="M19.525 14.1453C19.551 7.28112 22.0413 1.00878 25.09 0.137729C25.2551 0.0891208 25.4248 0.0579303 25.5963 0.0446676L24.7662 0C21.8254 0.16751 18.9182 5.4199 19.0596 14.1267C19.216 18.1023 20.2471 22.7293 22.5923 24.4416C20.7608 22.9564 19.5063 19.0627 19.525 14.1453Z" fill="url(#paint4_linear_398_18594)"/>
<path d="M48.776 26.7719C45.731 27.6467 37.9362 27.9556 31.3697 27.4643C31.3697 27.4903 31.3697 27.5127 31.3697 27.535C31.3697 27.5573 31.3697 27.4903 31.3697 27.4643C26.8246 27.1255 24.0588 26.4927 23.7982 25.845L23.8243 25.8115C24.2189 26.3215 26.9475 26.7049 31.3586 26.7831C37.9213 26.8985 45.7087 26.2805 48.7574 25.4095C49.5949 25.1713 49.9895 24.9367 49.9783 24.7208V24.5459V24.3895C49.9783 24.2071 49.9523 24.0173 49.9337 23.8274C49.8853 24.0024 49.4907 24.1997 48.7127 24.4305C45.6677 25.3015 37.8878 26.1354 31.3437 26.2917C27.0517 26.3959 24.3566 26.18 23.869 25.778L23.9248 25.711C24.5465 25.9641 27.1783 25.9492 31.273 25.6142C37.7761 25.0819 45.5225 23.9466 48.5712 23.0718C49.3381 22.8522 49.7364 22.6735 49.7959 22.532C49.755 22.2119 49.7103 21.8918 49.6619 21.5865C49.4013 22.1709 40.9067 23.9093 31.2022 25.134C28.8385 25.4244 24.9894 25.8413 23.9955 25.6328C24.0309 25.595 24.0682 25.559 24.1072 25.5249C24.9671 25.4988 27.4202 25.1526 31.0757 24.4751C37.4746 23.3137 45.1317 21.6647 48.199 20.7936C49.0514 20.548 49.4535 20.3916 49.4497 20.3172V20.2799L49.2711 19.5131L49.2487 19.4349C48.8458 19.6253 48.4224 19.7689 47.9868 19.863C44.9418 20.7341 37.3331 22.5916 30.9975 24.0098C27.5914 24.7543 25.2463 25.2531 24.2784 25.3983C24.3662 25.3247 24.4582 25.2564 24.5539 25.1936H24.58L24.6209 25.175H24.6619H24.6842L24.8033 25.1266L24.915 25.0819L30.7965 23.4142L47.6071 18.6272L48.8877 18.2549L48.6047 17.3988C48.1655 17.4686 47.7333 17.577 47.313 17.7226C44.2644 18.5937 36.8045 20.9388 30.6476 22.9601C27.4202 24.021 25.1905 24.7804 24.2412 25.1377L23.962 25.0931C24.7065 24.6687 26.9623 23.6971 30.4168 22.3422C36.4435 19.9821 43.799 17.3615 46.8477 16.4868C47.6667 16.2522 48.091 16.1704 48.158 16.2188L48.0761 16.0177L47.8193 15.4147C47.5252 15.0424 39.1944 18.0204 30.2381 21.9215C28.094 22.8633 24.6544 24.4305 23.8541 25.0782L23.7164 25.0409C24.0886 24.5161 26.3221 23.1797 29.9552 21.3185C35.725 18.3926 42.8722 15.3105 45.9208 14.4394C46.777 14.1974 47.22 14.1528 47.2833 14.2793L46.9669 13.6689L46.8812 13.5088C46.7993 13.3599 46.3489 13.3897 45.5002 13.6316C42.4515 14.5027 35.4012 17.7673 29.7542 20.9239C26.0913 22.9675 23.9174 24.4677 23.6717 25.0186H23.6419H23.6084C23.6754 24.4007 25.7674 22.6921 29.4266 20.373C34.8949 16.9074 41.8001 13.3897 44.8488 12.5186C45.6826 12.2804 46.1405 12.2655 46.2559 12.4367L45.7906 11.6922C45.6566 11.4987 45.1912 11.5024 44.3611 11.7406C41.3124 12.6117 34.5189 16.3044 29.1884 19.9859C25.5515 22.4948 23.534 24.3523 23.5861 25.0037H23.5526C23.3367 24.3076 25.2388 22.2454 28.8199 19.4684C33.9457 15.4929 40.5754 11.5657 43.6204 10.6946C44.443 10.4601 44.9195 10.4675 45.0796 10.6946L44.9865 10.5718L44.5175 9.9278L44.4728 9.86825C44.283 9.65234 43.8028 9.63745 43.0062 9.86825C39.9612 10.7393 33.458 14.834 28.4886 19.0106C24.9634 21.9886 23.1543 24.1811 23.4818 24.9069H23.4632C22.983 24.1625 24.6507 21.7391 28.0791 18.5267C32.8252 14.0597 39.146 9.76029 42.1947 8.88551C42.9801 8.66217 43.4752 8.68822 43.6836 8.93018L43.0918 8.2713C42.8573 8.02189 42.3473 7.98468 41.5805 8.20802C38.5318 9.0828 32.3487 13.5497 27.7701 18.1916C24.4199 21.5791 22.8676 24.1252 23.4521 24.9107C22.7336 24.088 24.137 21.3632 27.3383 17.7449C31.6713 12.8499 37.6533 8.17452 40.702 7.32208C41.4464 7.10618 41.9564 7.1434 42.2207 7.39281L42.1984 7.37047L41.6177 6.81956L41.5618 6.76744C41.2752 6.51803 40.769 6.4808 40.0356 6.69298C36.9869 7.56404 31.1538 12.3772 27.007 17.4472C24.0291 21.0914 22.7262 23.8758 23.3665 24.8288C23.3237 24.7729 23.2863 24.713 23.2548 24.6501C23.2986 24.7498 23.3605 24.8407 23.4372 24.9181L23.4037 24.8921L23.4409 24.9256H23.4186L23.2883 24.8064L23.3962 24.8995C23.3321 24.8433 23.2724 24.7824 23.2175 24.7171C22.3725 23.5817 23.2175 20.4363 25.6483 16.3751C29.0506 10.7095 34.277 5.40874 37.3257 4.53769C37.5595 4.44749 37.8089 4.40465 38.0594 4.41168C38.3099 4.41871 38.5565 4.47546 38.7849 4.57863L38.6062 4.45578L38.0962 4.11332C37.8621 3.99243 37.605 3.9226 37.3419 3.90848C37.0788 3.89436 36.8157 3.93627 36.57 4.03142C33.5213 4.90247 28.4625 10.3149 25.2724 16.122C23.117 20.038 22.3614 23.1351 23.0389 24.464C22.4284 23.444 22.2534 21.1138 24.7289 15.7907C27.9823 9.09024 34.035 2.23348 36.9795 3.43584L36.8306 3.35023L36.3765 3.0971H36.3541L36.1792 3.00404C33.7893 1.8873 28.2168 7.05034 24.3343 15.5822C23.5898 17.2834 21.4233 22.733 23.1803 24.7022C23.2486 24.7874 23.326 24.8648 23.4111 24.933C23.317 24.8727 23.2274 24.8055 23.1431 24.732C21.8849 23.5148 22.0264 19.9263 23.7759 15.3067C26.136 9.04186 30.521 3.25715 33.5697 2.3861C34.0398 2.2236 34.5529 2.23684 35.014 2.42334L34.2435 2.08458L34.0611 2.01013C33.6304 1.8702 33.1665 1.8702 32.7359 2.01013C29.6909 2.88118 25.492 8.7515 23.3627 15.1169C21.8737 19.5838 21.7881 23.1053 22.9235 24.5124C22.0189 23.5073 21.1739 21.0244 22.7709 14.8861C24.7512 7.89906 29.3968 0.707274 32.8997 1.54855L32.7396 1.49273L32.051 1.26191L31.9467 1.22842C31.5343 1.11827 31.099 1.12861 30.6923 1.25821C27.6436 2.12926 23.9025 8.16707 22.3391 14.7409C21.1925 19.5503 21.5313 23.3026 22.9868 24.6501C22.8529 24.5443 22.7283 24.4273 22.6145 24.3002C22.741 24.4571 22.8846 24.5995 23.0426 24.7245C21.4605 23.6078 20.1875 20.4772 20.6528 14.3389C21.3452 7.43374 24.4944 0.130289 28.3732 0.379693L27.7292 0.286632L27.1187 0.223356C26.8768 0.221161 26.6359 0.255043 26.404 0.32387C23.3553 1.19492 20.5746 7.44119 20.1949 14.2719C19.9046 19.461 21.0846 23.4924 23.0016 24.7543C22.8728 24.68 22.7485 24.5979 22.6294 24.5086C22.9032 24.7375 23.2159 24.9153 23.5526 25.0335C21.0809 24.289 18.9516 19.9337 18.4751 14.1788C17.9093 7.30346 19.9194 1.01996 22.9644 0.148903C23.1094 0.10786 23.2576 0.0792255 23.4074 0.0632935C23.0835 0.0632935 22.7634 0.0930749 22.4693 0.111687C22.3248 0.128166 22.1817 0.155531 22.0412 0.19357C18.9926 1.06835 17.2021 7.33696 18.0136 14.2012C18.7059 19.9598 21.025 24.3076 23.5563 25.0409C20.9506 24.3374 18.3448 20.0045 17.3733 14.2458C16.197 7.41513 17.7157 1.17259 20.7644 0.301536L20.9543 0.253142L20.3066 0.342477L20.1577 0.368537C20.061 0.3839 19.9653 0.405025 19.8711 0.431813C16.8224 1.30659 15.5046 7.50449 16.9229 14.3129L17.0494 14.2905L16.9266 14.3129C18.1252 20.0454 20.8947 24.3635 23.5637 25.0409C20.8203 24.397 17.7939 20.1199 16.3049 14.4208C14.5442 7.69433 15.5865 1.53739 18.6352 0.647721H18.6724H18.6426L18.1401 0.774272L17.6897 0.889667C14.7117 1.84634 13.8928 7.90651 15.8731 14.5139C17.5706 20.1757 20.7756 24.4156 23.5675 25.0335C20.7049 24.4528 17.2393 20.2762 15.2738 14.6851C13.0031 8.26387 13.5131 2.36006 16.3906 1.28427L15.6684 1.54482L15.5083 1.60439C12.6979 2.72113 12.3889 8.5356 14.8681 14.8377C17.0457 20.3693 20.6677 24.4937 23.5786 25.0447C20.6007 24.5347 16.7479 20.4959 14.2985 15.0573C11.5551 8.96741 11.5774 3.33533 14.2613 2.10692H14.2315L13.6471 2.37865L13.4684 2.46428L13.3902 2.50522C10.8069 3.80808 10.9855 9.30242 13.9039 15.2323C16.5432 20.5889 20.5672 24.5608 23.5824 25.0409C20.5076 24.6054 16.2603 20.7415 13.3642 15.504C10.2559 9.89056 9.78318 4.66052 12.0986 3.17899L12.0651 3.20132L11.3876 3.59962C9.06102 5.04021 9.67895 10.1995 12.9919 15.7237C16.0704 20.8644 20.4741 24.6575 23.5861 25.0484C20.422 24.6762 15.8061 21.0393 12.4783 16.0438C9.61568 11.7146 7.82145 6.4138 10.2634 4.32551L10.174 4.38878L9.571 4.83176L9.44816 4.92482C7.4827 6.52175 8.52499 11.253 12.1321 16.3006C15.6274 21.177 20.3959 24.732 23.5935 25.0559C20.3475 24.7804 15.3855 21.3743 11.6593 16.6654C7.84006 11.8262 6.60048 7.28113 8.48032 5.69164L7.80283 6.28722L7.75445 6.33562C6.03095 7.96233 7.42315 12.3437 11.3355 16.9521C15.2217 21.527 20.3215 24.825 23.5972 25.0633C20.2768 24.8734 14.9946 21.7429 10.8962 17.3615L10.8255 17.4323L10.8925 17.3615C7.73955 13.9629 5.01471 9.51461 6.83127 7.21413L6.77171 7.27368L6.36596 7.77993L6.14261 8.02563C4.79136 9.70445 6.51486 13.6465 10.6096 17.7375C14.8532 21.9736 20.2619 24.9814 23.6121 25.134C20.2284 25.0335 14.6522 22.2082 10.2113 18.1879C6.01977 14.3947 4.13249 10.6983 5.30879 9.02324L4.75414 9.74167C3.6858 11.3944 5.66987 14.9233 9.96559 18.5416C14.5405 22.4017 20.2284 25.0931 23.6382 25.1526C20.1949 25.1526 14.3544 22.6549 9.60451 19.0292C5.13756 15.6157 3.01947 12.2581 4.08037 10.6797L3.60018 11.4242L3.58156 11.4503C2.63605 13.0063 4.84348 16.1852 9.36999 19.3903C14.239 22.841 20.1651 25.1861 23.6419 25.1526C20.1502 25.242 14.0752 23.1127 9.04986 19.9114C4.47495 16.9967 2.14841 14.0746 2.92269 12.5633L2.90035 12.6042L2.63606 13.1068L2.51694 13.3376C1.79106 14.8005 4.18833 17.57 8.84513 20.306C13.9747 23.3175 20.1428 25.2941 23.6494 25.1452C20.1205 25.335 13.8369 23.5892 8.57711 20.842C5.84854 19.3903 1.36669 16.6282 1.97718 14.458L1.65705 15.236C1.65705 15.2732 1.63099 15.3067 1.6161 15.344C1.16196 16.6952 3.71185 19.0217 8.40588 21.2552C8.40588 21.2143 8.43937 21.1733 8.45426 21.1287C8.45426 21.1733 8.42077 21.2143 8.40588 21.2552C13.7513 23.8014 20.1019 25.3834 23.6456 25.1526C20.0832 25.4393 13.6434 24.0992 8.19369 21.8396C5.97883 20.909 0.871612 18.5304 1.20291 16.4868L1.17313 16.5798L0.93862 17.3466C0.566373 18.5527 3.2577 20.4884 8.05968 22.2714C8.05968 22.2379 8.05969 22.2007 8.08947 22.1672C8.08947 22.2007 8.07085 22.2379 8.05968 22.2714C13.5764 24.3225 20.0758 25.4914 23.6494 25.1638C20.0609 25.536 13.4945 24.6315 7.89218 22.8819C3.07531 21.3929 0.354183 19.6806 0.614756 18.5639L0.484479 19.1781L0.417466 19.5206C0.346739 20.5666 3.08275 22.0481 7.79911 23.3286C7.81772 23.3293 7.83634 23.3293 7.85495 23.3286C7.85495 23.3584 7.85495 23.3882 7.85495 23.418C13.5019 24.9516 20.113 25.6887 23.7089 25.2569C20.1018 25.7482 13.4424 25.2569 7.73955 24.0508C2.90035 23.0159 0.12712 21.7354 0.261129 20.7862L0.153174 21.6982C0.134562 22.2342 1.09496 23.3137 7.68372 24.5161C13.42 25.5137 20.1056 25.8003 23.7164 25.2606C20.1093 25.8599 13.3865 25.8413 7.61299 25.1675C4.26278 24.7581 0.242514 24.0508 0.0377787 22.9713V23.0048L0.0117188 23.9019C0.0340535 24.3188 1.05029 25.1005 7.60182 25.6477C13.3977 26.0907 20.1502 25.912 23.7499 25.2755C20.1502 25.9827 13.4014 26.4406 7.61299 26.3289C4.31861 26.2545 0.328135 26.0013 0.0303379 25.2122V25.4318C0.0303379 25.6626 0.0675639 25.9232 0.0898986 26.1763C0.316969 26.6342 3.06786 26.891 7.6316 26.7905C13.3977 26.6639 20.1167 26.0088 23.7201 25.2606C20.1205 26.0684 13.4349 26.9953 7.71349 27.4531C3.02691 27.8254 0.268568 27.7844 0.220176 27.4047L0.35419 28.3204C0.39886 28.6182 3.13859 28.4954 7.79911 27.9482C13.4908 27.2595 20.1465 26.1354 23.7424 25.2829C20.1614 26.1986 13.554 27.5871 7.92195 28.5959C3.49967 29.3925 0.849275 29.7424 0.618482 29.5972C0.685486 29.8802 0.759934 30.1742 0.838106 30.4795C1.12474 30.5241 3.73418 30.0179 8.02991 29.0649C13.6136 27.8253 20.1726 26.247 23.7461 25.2941C20.1875 26.3066 13.6955 28.1455 8.20859 29.694V29.7201C8.20697 29.7115 8.20697 29.7026 8.20859 29.694C3.9352 30.8964 1.37786 31.6148 1.16568 31.6669C1.2513 31.9647 1.34064 32.2514 1.42998 32.5231C1.49326 32.43 4.0357 31.5552 8.35376 30.1444C13.9598 28.3167 20.6379 26.2173 24.1035 25.1973L24.3976 25.1117C21.0474 26.1279 14.239 28.5587 8.58455 30.7624C4.32605 32.4226 1.8655 33.5058 1.88412 33.6919C1.89551 33.7275 1.90919 33.7623 1.92507 33.7962L2.23031 34.5183C2.12981 34.2838 4.53079 33.0293 8.78556 31.1867C14.1645 28.8379 20.6528 26.3103 24.0886 25.2122C23.9955 25.242 23.9248 25.268 23.8727 25.2904C20.4145 26.4741 14.1943 29.1878 9.06475 31.7786C4.91048 33.8743 2.59883 35.3224 2.76634 35.6425L3.10508 36.2939V36.3163L3.1572 36.4093C3.01575 36.0631 5.24923 34.496 9.23971 32.2625C14.2315 29.4856 20.314 26.623 23.7573 25.3909C23.7459 25.3977 23.7358 25.4065 23.7275 25.4169C20.2954 26.7049 14.3693 29.7871 9.55612 32.8246C5.67731 35.274 3.55923 37.0347 3.73418 37.5484C3.76768 37.6005 3.79747 37.6563 3.83097 37.7047L4.20321 38.2892L4.22927 38.3301C4.04687 37.8983 4.86954 36.6625 9.81297 33.2192C14.507 29.9881 20.3289 26.7533 23.7387 25.4244C20.3587 26.798 14.6931 30.2636 10.1778 33.7329C6.43669 36.6215 4.52707 38.7396 4.94027 39.3166L5.00354 39.4059L5.04449 39.4618L5.06683 39.4878L5.43907 39.9605L5.48374 40.0164C5.03705 39.3538 6.84988 37.1166 10.4718 34.0828C14.8495 30.4236 20.4034 26.824 23.7536 25.4132C20.4369 26.8724 15.0542 30.6693 10.8776 34.5704C8.43937 36.8821 5.66614 39.8712 6.29151 40.9917L6.82383 41.591L6.86105 41.6282C6.23567 40.8837 7.79912 38.3152 11.1754 34.9054C15.2031 30.8405 20.4592 26.9059 23.7461 25.4132C20.4964 26.9506 15.4227 31.0676 11.6146 35.3521C8.38354 38.9927 6.98017 41.725 7.72839 42.5253L7.81028 42.6035L8.33515 43.0986C8.34561 43.1128 8.35816 43.1254 8.37238 43.1358C7.56088 42.2908 8.84884 39.4431 11.9459 35.6686C15.5939 31.2314 20.5337 26.9841 23.7499 25.4206C20.5783 27.0213 15.8285 31.4399 12.415 36.0818C9.437 40.1206 8.34632 43.1544 9.34766 43.992L10.0587 44.5615C8.96797 43.7202 9.93208 40.5561 12.7723 36.3721C16.0109 31.5925 20.6118 27.066 23.7536 25.4318C20.6602 27.1032 16.2789 31.76 13.2935 36.7295C10.6654 41.0885 9.88741 44.3903 11.06 45.2911L11.1605 45.3618L11.864 45.8309C11.0935 45.2353 10.308 43.2922 13.6694 36.9938C16.4687 31.9238 20.6937 27.1553 23.7499 25.4542C20.7458 27.1925 16.7479 32.0913 14.2129 37.3139C11.905 42.0675 11.5067 45.6559 12.9659 46.4972L13.6248 46.8694L13.7811 46.9513C12.2214 46.1249 12.4596 42.4285 14.6075 37.5372C16.9527 32.2141 20.7868 27.2298 23.7536 25.4653C20.8426 27.2595 17.243 32.3519 15.1919 37.8053C13.3009 42.8008 13.2674 46.5902 14.883 47.4836L15.0654 47.573L15.7466 47.8745H15.7689C14.0268 47.0444 13.8742 43.147 15.6051 37.9914H15.5865H15.6088C17.4701 32.4524 20.9022 27.2893 23.7685 25.4728C20.958 27.334 17.7716 32.5677 16.1933 38.211C15.5009 40.8167 14.2017 46.9513 17.0531 48.3733L17.351 48.4812L17.9279 48.6748H17.9763C16.9638 48.2467 14.8383 46.3818 16.6251 38.345C17.9949 32.6348 21.0064 27.3303 23.7685 25.469C21.066 27.36 18.3076 32.7278 17.2318 38.4976C16.4315 42.8641 16.5283 47.8782 19.1787 48.9912L19.979 49.1885C17.8647 48.4217 16.8521 44.1967 17.6785 38.6056C18.5384 32.7725 21.1144 27.3675 23.7722 25.4653C21.1851 27.3898 18.8697 32.8358 18.3113 38.7135C17.913 43.4113 18.5682 48.712 21.6057 49.5086L22.5996 49.6501C19.9492 49.1252 18.5049 45.0603 18.7692 38.7731C19.108 32.873 21.2372 27.4084 23.7722 25.469C21.3042 27.4233 19.4393 32.9139 19.4095 38.8215C19.376 44.9598 21.3228 49.4938 23.9174 49.758C24.2003 49.758 24.5055 49.7878 24.7959 49.799C22.1902 49.4826 20.0721 44.9598 19.8748 38.8438C19.6849 32.9251 21.3638 27.4494 23.7722 25.4802C21.4345 27.4568 20.0274 32.9251 20.5262 38.8289C21.0697 45.2278 23.6531 49.8883 26.4822 49.799L27.5058 49.7469C24.6321 49.9553 21.7918 45.2799 21.0027 38.8066C20.288 32.9214 21.5052 27.4717 23.7871 25.4876C21.5834 27.4754 20.623 32.8879 21.6392 38.7284C22.756 45.1422 25.8493 49.7915 28.7491 49.6091L29.1214 49.5607L29.7021 49.4751L29.8994 49.4416C26.9214 49.9516 23.4558 45.2427 22.0822 38.6465C20.8575 32.8469 21.6355 27.4792 23.7871 25.4802C21.7137 27.4717 21.1814 32.7837 22.6964 38.5088C24.405 44.997 28.1051 49.6389 31.098 49.1736L31.6936 49.0359L32.1626 48.9168C29.1251 49.6315 25.1086 44.9747 23.1245 38.4008C21.4196 32.7353 21.7695 27.4754 23.7834 25.4876C21.8514 27.4717 21.736 32.6459 23.7164 38.2073C26.0503 44.7737 30.4168 49.3746 33.4618 48.5147L33.5772 48.4812L34.5041 48.1462C34.4335 48.1749 34.3614 48.1998 34.2882 48.2207C31.2395 49.0917 26.6906 44.5429 24.1296 38.0621C21.9631 32.5789 21.8961 27.4717 23.7834 25.4988C21.9891 27.4606 22.2683 32.4635 24.6916 37.8164C27.5654 44.1706 32.3674 48.6115 35.4161 47.7405L35.6394 47.666L35.8925 47.5544L36.3616 47.3347L36.57 47.2342C36.4496 47.2884 36.3251 47.3332 36.1978 47.3682C33.1491 48.243 28.1721 43.8803 25.0825 37.6303H25.049H25.0788C22.4731 32.3742 22.045 27.4605 23.7796 25.5063C22.1269 27.4419 22.7783 32.229 25.6148 37.3362C29.0023 43.4299 34.2174 47.6623 37.2661 46.7913C37.4201 46.7468 37.5696 46.6882 37.7128 46.6163L37.925 46.4972L38.6434 46.0691C36.101 47.4762 30.8039 44.8146 25.9871 37.1129C23.4409 32.7278 22.4917 28.9235 23.2436 26.6342C22.648 28.89 23.7871 32.739 26.4896 36.7816C30.3572 42.57 35.967 46.553 39.0157 45.682C39.2822 45.6093 39.5341 45.4909 39.7602 45.332L39.8197 45.2911L40.2999 44.9189L40.4191 44.8295C40.2033 44.9742 39.9658 45.0835 39.7155 45.1534C36.6668 46.0244 30.9007 42.1531 26.8395 36.5061C23.8615 32.3556 22.622 28.3986 23.3888 26.2507C23.426 26.1651 23.467 26.0832 23.5079 26.0051C22.6406 28.0413 24.0216 31.9908 27.3085 36.1302C31.6303 41.5687 37.6049 45.2688 40.6498 44.3977C40.9778 44.309 41.2826 44.1503 41.5432 43.9324L42.0979 43.4448C42.1171 43.423 42.1383 43.4031 42.1612 43.3852C41.9044 43.5921 41.6079 43.7441 41.2901 43.8319C38.2414 44.703 32.1254 41.1294 27.6249 35.851C24.1482 31.7563 22.6555 27.8663 23.5637 25.9008C23.5972 25.8487 23.627 25.7966 23.6605 25.7482C23.5346 26.0087 23.4576 26.29 23.4335 26.5783C23.4699 26.3003 23.5477 26.0293 23.6642 25.7743C23.5496 26.0601 23.4988 26.3676 23.5153 26.6751C23.5198 26.4858 23.5435 26.2975 23.5861 26.113C23.3069 27.8551 25.4212 30.8107 29.3633 33.811C36.1903 38.9034 43.9256 41.3193 45.932 38.9927L45.9879 38.9071L46.4234 38.2296C44.6329 40.6008 36.771 38.3673 29.5941 33.45C28.0791 32.3742 23.5414 28.9197 23.6196 26.3029C23.6903 27.9147 25.9647 30.4199 29.8994 32.9177C35.6617 36.5731 42.8014 38.8289 45.8501 37.9579C46.3255 37.8566 46.7454 37.5802 47.0264 37.1836L47.1642 36.9305L47.3168 36.6401L47.3726 36.5322L47.4806 36.3163C47.3467 36.5359 47.1687 36.7253 46.9579 36.8726C46.7471 37.02 46.5081 37.1221 46.2559 37.1724C43.2109 38.0435 35.9781 35.9626 30.1041 32.5268C30.0957 32.5394 30.0894 32.5532 30.0855 32.5678L30.1041 32.5268C25.8903 30.0588 23.5228 27.5611 23.6456 26.0274C23.657 25.9584 23.6719 25.8901 23.6903 25.8227C23.4186 27.2521 25.8977 29.6382 30.3647 31.961L30.3907 31.9052C30.3805 31.923 30.3718 31.9417 30.3647 31.961C36.3839 35.0879 43.732 36.9156 46.7807 36.0557C47.0338 36.0105 47.2741 35.9108 47.4849 35.7637C47.6957 35.6165 47.872 35.4253 48.0017 35.2033L48.024 35.1474L48.3293 34.4029L48.3479 34.3545C47.3577 36.3944 39.3805 35.6202 30.5359 31.5627C30.5281 31.5769 30.5219 31.5918 30.5173 31.6074C30.5225 31.5909 30.5287 31.5747 30.5359 31.559C27.9972 30.3343 23.9285 28.0747 23.7275 26.0907C23.962 27.3675 26.5082 29.2176 30.7481 30.9671V30.915C30.7481 30.915 30.7481 30.9485 30.7481 30.9671C36.9758 33.5356 44.4951 34.9129 47.5401 34.0419C48.2437 33.8408 48.6569 33.5356 48.776 33.1596C48.776 33.1298 48.7946 33.1038 48.802 33.0777L48.9844 32.4784C48.999 32.4369 49.0115 32.3947 49.0217 32.3519C48.8876 32.6943 48.4893 32.9772 47.8081 33.1708C44.7594 34.0418 37.1805 32.8618 30.8821 30.5316C30.8821 30.5502 30.8821 30.5688 30.8635 30.5874L30.8821 30.5316C26.3444 28.8565 23.7089 27.0436 23.7238 25.8338C23.7274 25.78 23.7348 25.7265 23.7461 25.6738C23.5898 26.7905 26.3035 28.4396 31.0422 29.9136C37.4299 31.9014 45.0796 32.8023 48.1283 31.9312C48.8728 31.719 49.2785 31.4175 49.3641 31.0564L49.554 30.163C49.2078 31.9052 40.6424 31.9238 31.1352 29.4595C26.4487 28.1455 23.9732 26.9022 23.7722 25.7594C23.9918 26.6826 26.7204 27.8589 31.2432 28.8192V28.7671C31.2432 28.7857 31.2432 28.8006 31.2432 28.8192C37.7426 30.2003 45.4816 30.6135 48.5303 29.7424C49.3157 29.5153 49.714 29.2287 49.7587 28.9011L49.8592 28.0599V28.0078C49.554 29.4967 40.9662 29.9323 31.2916 28.3502C27.9786 27.7583 24.0142 26.8054 23.7685 25.6068C23.9434 26.3513 26.7204 27.1553 31.34 27.6913C37.8989 28.4358 45.6863 28.3539 48.735 27.4792C49.513 27.2595 49.9076 27.0064 49.9523 26.7347C49.9523 26.69 49.9523 26.6491 49.9523 26.6081L49.9746 25.7817C49.9895 26.3066 49.5949 26.5411 48.776 26.7719ZM23.5377 24.9739H23.56H23.534H23.5377ZM23.5377 25C23.5316 25.0016 23.5252 25.0016 23.5191 25H23.5451H23.5377ZM23.5377 25H23.5079H23.4893H23.5414H23.5377ZM8.05968 22.1449C8.05801 22.135 8.05801 22.125 8.05968 22.1151C8.07829 22.0518 8.10063 21.9885 8.11924 21.929L8.05968 22.1449ZM23.9918 25.0856H23.8876H23.8355H23.9434H23.9918ZM24.0849 25.0856H23.9769H23.9248H24.0365H24.0849ZM23.668 25.1861H23.7312H23.7796H23.668ZM23.8131 25.1861H23.869H23.735H23.694H23.8131ZM23.6047 25.1303C23.6047 25.1303 23.6047 25.1303 23.5861 25.1303H23.6382H23.5898H23.6047ZM23.7052 25.1638H23.7461H23.7908H23.694H23.7052ZM23.7275 25.0596H23.7052H23.6754H23.7312H23.7275ZM23.6977 25.0596H23.6382H23.6121H23.6977ZM23.6196 25.0596C23.6292 25.0633 23.6398 25.0633 23.6494 25.0596H23.5972H23.5712H23.6196ZM23.6717 25.0819H23.6494H23.6196H23.6717ZM23.6233 25.0819H23.6568H23.5972H23.5749H23.6233ZM23.7536 25.1638H23.7089H23.8615H23.7536ZM23.7685 25.1452H23.7238H23.8615H23.7685ZM23.9025 25.1452H23.8578H23.936H23.9918H23.9025ZM23.9025 25.1452H23.828H23.7834H23.8653H23.9025ZM23.8355 25.1452H23.8988H23.9509H23.8727H23.8355ZM23.9174 25.1452H23.8615H23.9546H23.9174ZM23.8801 25.1452H23.8392H23.8653H23.9248H23.8801ZM23.8243 25.1266H23.895H23.8206H23.8243ZM23.8243 25.1266H23.8504H23.8839H23.8169H23.8243ZM23.8243 25.1266H23.9174H23.9509H23.8541H23.8243ZM23.8243 25.1266H23.8504H23.8988H23.8392H23.8243ZM23.8243 25.1266H23.8466H23.8839H23.8615H23.8243ZM23.8057 25.1266H23.8578H23.9025H23.8615H23.8057ZM23.7871 25.1266H23.828H23.7685H23.7871ZM23.6419 25.0149L23.7424 25.0409H23.7722H23.6866L23.6456 25.0223L23.6419 25.0149ZM23.6419 25.0186H23.6717H23.6977H23.6382H23.6419ZM23.6419 25.0186H23.7201H23.7461H23.6494H23.6419ZM23.6419 25.0186H23.668H23.6382H23.6419ZM23.6419 25.0186H23.6642H23.6903H23.6419ZM23.6419 25.0372H23.6717H23.694H23.6419ZM23.6419 25.0633H23.6605H23.6791H23.6419ZM23.8318 25.1229H23.7982H23.8504H23.8318ZM23.8801 25.1229H23.7647H23.7312H23.8429H23.8801ZM23.936 25.1005H23.8466H23.962H23.936ZM24.0216 25.0745H23.936H23.8615H23.9807H24.003H24.0216ZM24.0588 25.0745H23.9807H24.0774H24.0588ZM24.0961 25.0745H24.0067H23.9509H24.0961ZM24.1593 25.0745H24.0849H24.0328H24.1593ZM24.1593 25.0745H24.1035H24.0551H24.1631H24.1593ZM24.1593 25.0745H24.0179H24.1668H24.1593ZM29.4638 33.8371C29.4638 33.8557 29.4452 33.8743 29.4341 33.8892L29.4117 33.9227C29.4825 33.9153 29.5011 33.8892 29.516 33.8594L29.4638 33.8371ZM23.7573 25.7073H23.7759C23.7743 25.7146 23.7743 25.7223 23.7759 25.7296L23.7573 25.7073ZM23.7573 25.4244H23.7871H23.7685H23.7573ZM23.7573 25.4914L23.7126 25.5174V25.4988H23.7312L23.7573 25.4914ZM23.7759 25.4914H23.7945H23.8615L23.8057 25.5249L23.7759 25.4914ZM24.4832 25.1191L24.4348 25.1452H24.4571H24.4869L24.4832 25.1191ZM24.1631 25.2494L24.0439 25.3127L24.0998 25.2755L24.2822 25.1899L24.1631 25.2494ZM24.2003 25.2494L24.3864 25.1601L24.3082 25.201L24.1296 25.2904C24.1643 25.2875 24.1993 25.2887 24.2338 25.2941L24.2003 25.2494ZM24.0551 25.3052L23.9211 25.3723L23.9732 25.3388L24.1147 25.268L24.0551 25.3052ZM24.0104 25.3313L23.9583 25.3685L23.9174 25.3909H23.895L24.0104 25.3313ZM23.9174 25.4802L23.8839 25.5026L23.9062 25.4802H23.9174ZM23.9137 25.4876L23.8876 25.5174L23.8466 25.5509C23.852 25.5406 23.8596 25.5317 23.869 25.5249L23.9137 25.4876ZM23.9137 25.5063L23.9434 25.4802L23.8913 25.5174L23.9137 25.5063ZM23.9546 25.4876L23.9323 25.5137L23.8764 25.5621L23.8988 25.5323L23.9546 25.4876ZM23.9546 25.4876L23.9248 25.5137L23.8839 25.5509L23.9137 25.5212L23.9546 25.4876ZM23.9658 25.3685L24.0104 25.3425L23.9769 25.3685H23.9658ZM23.9658 25.3685L24.0104 25.335L24.1147 25.2792L24.0551 25.3164L23.9658 25.3685ZM24.1035 25.2941L24.2784 25.2047H24.2598L24.312 25.1787L24.3901 25.1415L24.3231 25.175L24.2152 25.2308L24.2598 25.2047L24.1779 25.2494L24.0551 25.3164L24.1035 25.2941ZM24.338 25.201L24.271 25.2382L24.3194 25.2085L24.3752 25.1787L24.4125 25.1563L24.4683 25.1303H24.4348L24.3417 25.1824L24.338 25.201ZM24.3045 25.201L24.4236 25.134L24.3901 25.1526H24.4125H24.3752H24.3976L24.2933 25.2122L24.2561 25.2345L24.3045 25.201ZM24.2189 25.2457L24.2784 25.2085L24.3417 25.175L24.2933 25.201L24.2189 25.2457ZM24.3455 25.175L24.4125 25.1377L24.4757 25.108L24.3455 25.175ZM24.4125 25.134L24.2747 25.2047L24.3455 25.1638L24.4944 25.0931L24.4125 25.134ZM24.2673 25.201L24.2152 25.2345L24.1221 25.2866L24.1742 25.2531L24.2673 25.201ZM24.2412 25.2234L24.3864 25.1489L24.3455 25.1712L24.4125 25.1377L24.3268 25.1824H24.3566L24.2784 25.2234L24.1928 25.2717L24.2412 25.2234ZM24.2077 25.2494L24.1482 25.2866L24.0961 25.3201L24.1444 25.2866C24.1757 25.2951 24.2057 25.3076 24.2338 25.3239L24.2077 25.2494ZM24.1854 25.2494L24.2487 25.2122L24.2003 25.2457L24.1333 25.2866L24.1854 25.2494ZM24.1854 25.2494L24.2226 25.2271L24.1854 25.2531L24.1444 25.2792L24.1854 25.2494ZM24.2114 25.2494L24.2673 25.2159L24.2226 25.2457L24.1593 25.2866C24.1992 25.2916 24.2374 25.3056 24.271 25.3276L24.2114 25.2494ZM24.2636 25.2196H24.2822L24.2412 25.2457L24.2636 25.2196ZM24.2971 25.2196H24.3268L24.2784 25.2494L24.2971 25.2196ZM24.3268 25.1973L24.2784 25.2271H24.3045L24.3901 25.1787L24.3268 25.1973ZM24.3268 25.1973L24.379 25.1675L24.3045 25.2085L24.3268 25.1973ZM24.3603 25.1973L24.4311 25.1638L24.4906 25.1377L24.3603 25.1973ZM24.4236 25.1638L24.2301 25.2457L24.3045 25.2085L24.446 25.1489H24.4832L24.4236 25.1638ZM24.3678 25.1638C24.2896 25.1936 24.2152 25.2271 24.137 25.2643L24.2152 25.2234L24.4571 25.1229L24.3678 25.1638ZM24.1668 25.242L24.0104 25.3127L24.0774 25.2755L24.2487 25.201L24.1668 25.242ZM24.1444 25.242L24.2449 25.1973L24.4422 25.1229L24.338 25.1638L24.1444 25.242ZM24.1779 25.2196L23.9546 25.309L24.0514 25.2643L24.3082 25.1638L24.1779 25.2196ZM24.0961 25.2569L24.0142 25.2978C23.9583 25.3239 23.8988 25.3462 23.8429 25.376C23.8594 25.3606 23.8783 25.3481 23.8988 25.3388L24.0961 25.2569ZM23.9583 25.3276L23.8988 25.3648L23.8243 25.402L23.9583 25.3276ZM23.8094 25.4914V25.5137L23.7722 25.5398L23.8094 25.4914ZM23.7685 25.6477L23.7461 25.67L23.7647 25.6514L23.7685 25.6477ZM23.7499 25.6328L23.7238 25.6514C23.7238 25.6514 23.7238 25.6514 23.7238 25.6328H23.7499ZM23.7685 25.6738L23.7461 25.6961L23.7722 25.67L23.7685 25.6738ZM23.7685 25.5733L23.8169 25.5398L23.7982 25.5658L23.7685 25.5733ZM23.7908 25.5733L23.8169 25.5509L23.7982 25.5733H23.7908ZM23.8206 25.5733L23.8653 25.536L23.8429 25.5621L23.8206 25.5733ZM23.8206 25.5733L23.8615 25.536L23.8429 25.5584L23.8206 25.5733ZM23.9323 25.4914L23.8653 25.5546L23.895 25.5212L23.9285 25.4914H23.9323ZM23.9583 25.3834L24.0588 25.3239L23.9955 25.3685L23.9546 25.3946L23.9583 25.3834ZM23.9955 25.3834L24.0402 25.3499L24.1258 25.3015L24.0737 25.335L23.9955 25.3834ZM23.9955 25.3834L24.0328 25.3611L24.003 25.3834H23.9955ZM24.0142 25.3834L24.0626 25.3499L24.0253 25.3797L24.0142 25.3834ZM24.0328 25.3834L24.0961 25.3425L24.0477 25.3797H24.0291L24.0328 25.3834ZM24.0328 25.3834L24.0849 25.3462L24.0551 25.3723L24.0216 25.3946L24.0328 25.3834ZM24.0588 25.3611L24.0291 25.3834L24.0626 25.3574L24.1147 25.3239C24.1364 25.3498 24.163 25.3713 24.1928 25.3872L24.0588 25.3611ZM24.1928 25.2717L24.2449 25.242H24.2747L24.1928 25.2717ZM24.3678 25.1712H24.3417H24.3752H24.3678ZM24.4273 25.1415L24.3827 25.1638L24.4199 25.1452L24.4273 25.1415ZM24.446 25.1154C24.3603 25.1452 24.2785 25.1787 24.1928 25.2159L24.2933 25.1712L24.5725 25.067L24.446 25.1154ZM24.5949 25.0596L24.3678 25.1377L24.4832 25.0968L24.58 25.0633L24.5949 25.0596ZM24.5576 25.0596L24.4534 25.0968L24.2561 25.1675L24.4125 25.1117L24.5502 25.0633L24.5576 25.0596ZM24.539 25.0596H24.4906H24.5353H24.539ZM24.3306 25.1303L24.0626 25.2271L24.2263 25.1638L24.5055 25.0707L24.3306 25.1303ZM24.3492 25.1117H24.4087L24.07 25.2196L24.3492 25.1117ZM23.8988 25.268C24.0923 25.201 24.271 25.1377 24.4497 25.0856H24.4757L24.3976 25.1117H24.4348L24.3641 25.134H24.3976L24.1482 25.2159L23.7536 25.3574L23.8988 25.268ZM23.694 25.3574L23.9844 25.2494L23.8578 25.3052L23.6419 25.3909L23.694 25.3574ZM23.627 25.4058L23.7945 25.335L23.735 25.3723L23.6494 25.4095L23.627 25.4058ZM23.627 25.5137L23.6754 25.4839V25.5063H23.6494L23.627 25.5137Z" fill="url(#paint5_linear_398_18594)"/>
</g>
</g>
<defs>
<linearGradient id="paint0_linear_398_18594" x1="23.3965" y1="26.8724" x2="44.0807" y2="27.6811" gradientUnits="userSpaceOnUse">
<stop stop-color="#6A73FC"/>
<stop offset="0.15136" stop-color="#C0ADFA"/>
<stop offset="0.369792" stop-color="#ABA5F5"/>
<stop offset="0.635417" stop-color="#64FFFD"/>
<stop offset="0.932292" stop-color="#68C0FF"/>
</linearGradient>
<linearGradient id="paint1_linear_398_18594" x1="23.5" y1="26.9617" x2="45.4616" y2="27.9724" gradientUnits="userSpaceOnUse">
<stop stop-color="#6A73FC"/>
<stop offset="0.15136" stop-color="#C0ADFA"/>
<stop offset="0.369792" stop-color="#ABA5F5"/>
<stop offset="0.635417" stop-color="#64FFFD"/>
<stop offset="0.932292" stop-color="#68C0FF"/>
</linearGradient>
<linearGradient id="paint2_linear_398_18594" x1="23.0508" y1="5.12744" x2="40.8993" y2="5.63724" gradientUnits="userSpaceOnUse">
<stop stop-color="#6A73FC"/>
<stop offset="0.15136" stop-color="#C0ADFA"/>
<stop offset="0.369792" stop-color="#ABA5F5"/>
<stop offset="0.635417" stop-color="#64FFFD"/>
<stop offset="0.932292" stop-color="#68C0FF"/>
</linearGradient>
<linearGradient id="paint3_linear_398_18594" x1="20.9863" y1="0.53064" x2="30.8232" y2="0.657782" gradientUnits="userSpaceOnUse">
<stop stop-color="#6A73FC"/>
<stop offset="0.15136" stop-color="#C0ADFA"/>
<stop offset="0.369792" stop-color="#ABA5F5"/>
<stop offset="0.635417" stop-color="#64FFFD"/>
<stop offset="0.932292" stop-color="#68C0FF"/>
</linearGradient>
<linearGradient id="paint4_linear_398_18594" x1="19.0547" y1="0" x2="25.7086" y2="0.0564107" gradientUnits="userSpaceOnUse">
<stop stop-color="#6A73FC"/>
<stop offset="0.15136" stop-color="#C0ADFA"/>
<stop offset="0.369792" stop-color="#ABA5F5"/>
<stop offset="0.635417" stop-color="#64FFFD"/>
<stop offset="0.932292" stop-color="#68C0FF"/>
</linearGradient>
<linearGradient id="paint5_linear_398_18594" x1="0.0117187" y1="0.0632935" x2="50.7889" y2="1.67914" gradientUnits="userSpaceOnUse">
<stop stop-color="#6A73FC"/>
<stop offset="0.15136" stop-color="#C0ADFA"/>
<stop offset="0.369792" stop-color="#ABA5F5"/>
<stop offset="0.635417" stop-color="#64FFFD"/>
<stop offset="0.932292" stop-color="#68C0FF"/>
</linearGradient>
<clipPath id="clip0_398_18594">
<rect width="50.0001" height="50" fill="white"/>
</clipPath>
</defs>
</svg>
