<svg width="51" height="51" viewBox="0 0 51 51" fill="none" xmlns="http://www.w3.org/2000/svg">
<g clip-path="url(#clip0_398_18760)">
<g opacity="0.9">
<path d="M25.503 50.3505C39.1953 50.3505 50.2951 39.2438 50.2951 25.5431C50.2951 11.8424 39.1953 0.735718 25.503 0.735718C11.8107 0.735718 0.710938 11.8424 0.710938 25.5431C0.710938 39.2438 11.8107 50.3505 25.503 50.3505Z" stroke="url(#paint0_linear_398_18760)" stroke-width="0.381417" stroke-miterlimit="10"/>
<path d="M49.7306 25.013C49.7564 26.2322 49.6991 27.4517 49.5589 28.6631C49.2077 31.5888 48.2809 34.416 46.8318 36.9818C45.89 38.6069 44.7969 40.1394 43.5669 41.5588C42.3487 42.9975 40.956 44.2788 39.4209 45.373C37.5768 46.6882 35.5365 47.7039 33.3754 48.3824C31.8781 48.8504 30.3368 49.1635 28.7755 49.3169C27.7613 49.4105 26.7425 49.4449 25.7242 49.4198C24.3372 49.3955 22.9539 49.268 21.5858 49.0384C20.8027 48.9087 20.0335 48.7447 19.2783 48.5464C15.6798 47.6527 12.3549 45.8914 9.5941 43.4163C8.74171 42.6331 7.94037 41.7961 7.19499 40.9104C6.30287 39.8571 5.48832 38.7404 4.75773 37.5692C4.03521 36.4014 3.41134 35.1753 2.8926 33.9038C2.45285 32.8308 2.10204 31.7235 1.84371 30.5931C1.45386 28.8653 1.27583 27.0965 1.31354 25.3257C1.34275 23.9185 1.48176 22.5157 1.72928 21.1301C2.33441 17.4346 3.76884 13.9242 5.92487 10.8624C7.43071 8.78922 9.27451 6.98409 11.3791 5.52254C13.4789 4.05768 15.7956 2.9315 18.2446 2.18514C20.6297 1.45927 23.1054 1.07404 25.5983 1.04088C29.6271 0.981059 33.6046 1.94877 37.1556 3.85272C40.7065 5.75667 43.7138 8.53404 45.8935 11.9227C48.3714 15.8415 49.7008 20.3766 49.7306 25.013Z" stroke="url(#paint1_linear_398_18760)" stroke-width="0.381417" stroke-miterlimit="10"/>
<path d="M49.1613 24.4751C49.2158 25.6691 49.1954 26.8652 49.1003 28.0566C48.8286 30.9564 47.9391 33.7643 46.4914 36.2914C45.5421 37.8913 44.479 39.4209 43.3104 40.8685C42.1814 42.3196 40.8641 43.6138 39.3932 44.7169C37.599 46.0579 35.5822 47.0715 33.4355 47.7111C31.9595 48.1458 30.4398 48.4157 28.9043 48.5159C27.9057 48.5713 26.9049 48.5713 25.9063 48.5159C24.5501 48.4548 23.1987 48.3122 21.8595 48.0887C21.0967 47.959 20.3338 47.8102 19.5977 47.6272C16.0544 46.7461 12.7322 45.1823 10.1157 42.6993C9.29833 41.9153 8.5254 41.0864 7.80049 40.2162C6.92853 39.1867 6.11971 38.1053 5.37849 36.978C4.64749 35.8627 4.00964 34.689 3.47141 33.469C3.01291 32.4355 2.65154 31.3616 2.392 30.2612C2.00347 28.5726 1.84312 26.8395 1.91523 25.1083C1.97322 23.7323 2.12872 22.3621 2.38056 21.0081C3.05948 17.2854 4.25332 13.8679 6.35111 10.889C7.82055 8.83674 9.64587 7.06439 11.7405 5.656C13.8262 4.25313 16.1164 3.18137 18.5297 2.47879C20.8802 1.79 23.3093 1.40545 25.7576 1.33454C29.6668 1.21652 33.5399 2.11246 37.0001 3.93515C40.4604 5.75785 43.3899 8.44523 45.5035 11.7358C47.8416 15.4241 49.0164 19.8104 49.1613 24.4751Z" stroke="url(#paint2_linear_398_18760)" stroke-width="0.381417" stroke-miterlimit="10"/>
<path d="M48.5975 23.9411C48.6741 25.1092 48.6881 26.2806 48.6394 27.4502C48.4566 30.3205 47.6106 33.1092 46.1678 35.5973C45.2118 37.1618 44.1768 38.6767 43.0669 40.1361C42.0289 41.5961 40.7897 42.902 39.3863 44.0151C37.6409 45.3819 35.6457 46.395 33.5124 46.9978C32.0484 47.4048 30.5417 47.639 29.0232 47.6958C28.0461 47.7208 27.0685 47.6967 26.0939 47.6234C24.7627 47.5318 23.424 47.3754 22.1348 47.1618C21.3719 47.0398 20.6434 46.9025 19.9149 46.7347C16.4517 45.926 13.141 44.5034 10.6198 42.0127C9.83408 41.2499 9.09414 40.4107 8.3847 39.5526C7.53414 38.5342 6.71028 37.4929 5.97415 36.4173C5.25114 35.3504 4.61346 34.2281 4.06706 33.0608C3.58897 32.0691 3.21693 31.0297 2.95714 29.9599C2.56692 28.3068 2.42424 26.6049 2.53377 24.9099C2.6173 23.5685 2.78417 22.2335 3.03342 20.9127C3.71616 17.2511 4.72691 13.8946 6.76368 10.9348C8.19087 8.91015 9.99163 7.17669 12.0692 5.82764C14.1349 4.48295 16.3951 3.4641 18.7707 2.80682C21.0859 2.15825 23.4671 1.77438 25.8688 1.66257C29.6769 1.4842 33.4643 2.3172 36.846 4.07692C40.2027 5.8063 43.0394 8.39684 45.0656 11.5832C47.3388 15.1495 48.3763 19.4214 48.5975 23.9411Z" stroke="url(#paint3_linear_398_18760)" stroke-width="0.381417" stroke-miterlimit="10"/>
<path d="M48.0305 23.4072C48.1068 24.5934 48.2098 25.6957 48.1793 26.8399C48.0885 29.6819 47.2859 32.4556 45.845 34.9069C44.8762 36.5279 43.8082 37.9583 42.828 39.4153C41.8866 40.8835 40.7294 42.2014 39.3952 43.3248C37.7002 44.7173 35.7256 45.7293 33.6053 46.2922C32.1584 46.672 30.6692 46.8669 29.1733 46.872C28.2274 46.872 27.2662 46.7995 26.305 46.7118C25.0158 46.5935 23.719 46.4219 22.4413 46.2197C21.7013 46.1015 20.9728 45.9756 20.2634 45.8193C16.8764 45.0831 13.581 43.8016 11.1475 41.3033C10.3847 40.5405 9.69814 39.7166 8.99633 38.8737C8.16484 37.8705 7.33717 36.8636 6.60103 35.8223C5.86894 34.8073 5.21606 33.7374 4.64818 32.6222C4.15454 31.6694 3.77066 30.6637 3.50393 29.6243C3.10903 28.0031 2.98021 26.3284 3.12251 24.6659C3.23745 23.3483 3.42462 22.0381 3.6832 20.7411C4.36975 17.1443 5.20886 13.8489 7.17697 10.912C8.56362 8.91284 10.3412 7.21565 12.4024 5.92301C14.4507 4.64245 16.6803 3.67807 19.0162 3.06238C21.2954 2.45126 23.6297 2.06796 25.9846 1.91813C29.6698 1.68582 33.3496 2.44997 36.6376 4.13034C39.9171 5.77235 42.6864 8.27795 44.6474 11.3773C46.8329 14.8749 47.7406 19.0285 48.0305 23.4072Z" stroke="url(#paint4_linear_398_18760)" stroke-width="0.381417" stroke-miterlimit="10"/>
<path d="M47.4617 22.8732C47.5608 24.0404 47.7096 25.1274 47.7172 26.2335C47.717 29.0443 46.9565 31.8027 45.5165 34.2166C44.5438 35.8224 43.4873 37.2183 42.5834 38.6944C41.7327 40.1793 40.6468 41.5164 39.368 42.6535C37.7203 44.0748 35.7599 45.0864 33.6468 45.6057C32.2201 45.9488 30.7538 46.0989 29.2872 46.052C28.3565 46.0253 27.4411 45.9108 26.4799 45.8002C25.2289 45.6553 23.9626 45.4722 22.7077 45.2739C21.983 45.1594 21.2698 45.0488 20.5718 44.8925C17.2649 44.2212 13.9847 43.0884 11.639 40.5824C10.922 39.8196 10.2545 39.0034 9.57174 38.1757C8.75932 37.1916 7.93164 36.2228 7.18788 35.2426C6.45368 34.2757 5.79202 33.2558 5.20833 32.1913C4.69555 31.2787 4.3008 30.3046 4.03357 29.2925C3.64559 27.7126 3.54099 26.0764 3.72462 24.4599C3.8543 23.1631 4.10603 21.893 4.33488 20.6229C5.02525 17.0909 5.66984 13.8527 7.58837 10.9425C8.93368 8.96548 10.6917 7.30374 12.7413 6.07181C14.7705 4.85262 16.97 3.94248 19.2674 3.37136C21.5119 2.79716 23.8009 2.41311 26.11 2.22329C29.6658 1.92646 33.2351 2.60839 36.4311 4.19522C39.6295 5.74711 42.3271 8.16714 44.2158 11.179C46.3327 14.6003 47.1031 18.6242 47.4617 22.8732Z" stroke="url(#paint5_linear_398_18760)" stroke-width="0.381417" stroke-miterlimit="10"/>
<path d="M46.8924 22.3392C47.0106 23.4835 47.2127 24.54 47.2738 25.6232C47.3671 28.4007 46.6501 31.1454 45.2103 33.5224C44.2301 35.1205 43.1888 36.4822 42.3573 37.9773C41.6006 39.4615 40.5928 40.8036 39.3784 41.9441C37.7853 43.3869 35.8502 44.3991 33.7564 44.8848C32.3422 45.2045 30.8895 45.3201 29.4425 45.2281C28.531 45.1747 27.6384 45.0221 26.7002 44.8886C25.4872 44.7132 24.2476 44.5072 23.0157 44.328C22.3062 44.2212 21.6082 44.122 20.9217 43.9961C17.6949 43.3935 14.4376 42.4056 12.1758 39.8921C11.4931 39.1292 10.8561 38.3206 10.1886 37.5082C9.39527 36.5394 8.5676 35.6011 7.82002 34.6819C7.08312 33.7656 6.41023 32.7996 5.80614 31.7908C5.27876 30.9186 4.87445 29.9778 4.60468 28.995C4.21574 27.4509 4.12897 25.8462 4.34913 24.2692C4.50169 23.0067 4.76106 21.7709 5.00898 20.5237C5.70316 17.049 6.15323 13.8756 8.02217 10.9882C9.32826 9.03599 11.0668 7.41107 13.1026 6.23962C15.1116 5.08087 17.2795 4.22246 19.5371 3.69173C21.7407 3.15247 23.9785 2.7638 26.2348 2.52841C29.6638 2.17337 33.1239 2.77956 36.2279 4.27913C39.3391 5.74484 41.9613 8.07702 43.78 10.9959C45.8282 14.3218 46.469 18.2428 46.8924 22.3392Z" stroke="url(#paint6_linear_398_18760)" stroke-width="0.381417" stroke-miterlimit="10"/>
<path d="M46.3249 21.8014C46.466 22.9456 46.7063 23.9526 46.794 25.0167C46.9784 27.7586 46.3053 30.4898 44.8679 32.832C43.88 34.4149 42.8502 35.7422 42.0988 37.2564C41.4363 38.746 40.5054 40.101 39.3526 41.2537C37.8118 42.7212 35.8951 43.7337 33.8144 44.1791C32.4153 44.4705 30.9801 44.5477 29.5578 44.408C28.6653 44.3203 27.7957 44.1334 26.8879 43.977C25.7131 43.7748 24.504 43.5651 23.295 43.3858C22.6046 43.2828 21.918 43.1951 21.2467 43.0807C18.0962 42.5505 14.8428 41.7076 12.6801 39.1826C12.0317 38.4198 11.4253 37.6264 10.773 36.8254C10.0102 35.8757 9.17109 34.9832 8.41589 34.1021C7.67621 33.2365 6.99454 32.3229 6.37531 31.3673C5.82906 30.5377 5.41235 29.6297 5.13952 28.6745C4.75282 27.1667 4.68527 25.5948 4.94118 24.0594C5.12045 22.8274 5.39888 21.6221 5.65062 20.3978C6.34861 16.9879 6.62704 13.8793 8.42733 11.0111C9.69022 9.08453 11.404 7.49513 13.4201 6.3807C15.411 5.28326 17.5499 4.47907 19.7707 3.99302C21.9425 3.49228 24.1385 3.10273 26.3501 2.82588C29.65 2.41152 32.9998 2.9405 36.0114 4.35155C39.0492 5.72489 41.6083 7.97322 43.3613 10.8089C45.3256 14.0472 45.8367 17.8614 46.3249 21.8014Z" stroke="url(#paint7_linear_398_18760)" stroke-width="0.381417" stroke-miterlimit="10"/>
<path d="M45.7556 21.2674C45.9196 22.3774 46.2133 23.3652 46.3316 24.4103C46.6107 27.1134 45.9813 29.8324 44.5427 32.1378C43.5472 33.7093 42.5288 35.0023 41.8537 36.5356C41.2206 37.9735 40.5836 39.3199 39.3402 40.5634C37.8549 42.0568 35.9566 43.0717 33.8897 43.4774C32.5059 43.7365 31.0894 43.7725 29.6942 43.5842C28.8169 43.4697 27.974 43.2485 27.0738 43.0655C25.9296 42.8366 24.7586 42.6154 23.5762 42.4399C22.8973 42.3408 22.2222 42.2683 21.5662 42.1691C18.4958 41.7038 15.2537 41.0249 13.175 38.477C12.5609 37.7142 11.9888 36.9284 11.3556 36.1465C10.5928 35.2121 9.77275 34.3539 9.01373 33.5224C8.26973 32.7074 7.57798 31.8462 6.94264 30.944C6.38061 30.1565 5.95273 29.2814 5.67633 28.3542C5.28877 26.8815 5.23923 25.3403 5.5314 23.8458C5.73736 22.6482 6.03868 21.4734 6.29423 20.2719C6.99604 16.9269 7.09521 13.8794 8.83065 11.034C10.0565 9.13001 11.7542 7.5756 13.7586 6.52186C15.7292 5.4875 17.8365 4.73755 20.0176 4.29437C22.1078 3.82904 24.3314 3.44763 26.4712 3.12724C29.6421 2.65909 32.8808 3.11324 35.8006 4.43549C38.7562 5.72316 41.2457 7.88647 42.9331 10.6335C44.8211 13.7726 45.2064 17.48 45.7556 21.2674Z" stroke="url(#paint8_linear_398_18760)" stroke-width="0.381417" stroke-miterlimit="10"/>
<path d="M45.1883 20.7334C45.3714 21.8243 45.7147 22.7816 45.8711 23.7848C46.2412 26.4429 45.656 29.1461 44.2195 31.4131C43.2202 32.9731 42.2095 34.228 41.6106 35.7803C41.0614 37.2183 40.5312 38.5761 39.3221 39.8386C37.8886 41.3529 36.008 42.3687 33.9556 42.7374C32.5849 42.9721 31.1842 42.9721 29.8134 42.7374C28.9552 42.5886 28.139 42.3331 27.2579 42.1271C26.1594 41.8716 25.0076 41.6351 23.8481 41.4711C23.1844 41.3757 22.5245 41.3147 21.8799 41.227C18.8896 40.8456 15.6629 40.2849 13.6833 37.7446C13.0997 36.9818 12.5619 36.219 11.944 35.4371C11.2079 34.5217 10.3764 33.7016 9.6174 32.9159C8.86828 32.1507 8.16645 31.3406 7.51579 30.4901C6.9361 29.7467 6.49665 28.9041 6.21897 28.0032C5.8304 26.5667 5.79898 25.057 6.12744 23.6055C6.35629 22.4384 6.6843 21.317 6.93604 20.1232C7.64548 16.8391 7.55775 13.8527 9.22454 11.0302C10.4115 9.15112 12.0891 7.63183 14.0762 6.63624C16.0295 5.66613 18.1076 4.97047 20.2513 4.56897C22.3071 4.13796 24.4888 3.76036 26.5714 3.39801C29.6136 2.87262 32.7431 3.25054 35.5728 4.48504C38.4475 5.68414 40.8683 7.76317 42.4879 10.4237C44.3187 13.4979 44.5781 17.0985 45.1883 20.7334Z" stroke="url(#paint9_linear_398_18760)" stroke-width="0.381417" stroke-miterlimit="10"/>
<path d="M44.6229 20.1995C44.8251 21.2712 45.2141 22.1943 45.4086 23.1936C45.8743 25.8157 45.3291 28.5169 43.883 30.7533C42.876 32.3056 41.8767 33.5224 41.358 35.0938C40.885 36.5279 40.4655 37.901 39.3136 39.1788C37.9373 40.7202 36.0716 41.74 34.031 42.0661C32.6718 42.2738 31.286 42.2312 29.9422 41.9403C29.1069 41.761 28.3135 41.4749 27.4515 41.2423C26.3607 40.944 25.2525 40.7135 24.1332 40.5519C23.4848 40.4603 22.8402 40.4108 22.2261 40.3421C19.3121 40.0141 16.0968 39.6174 14.2164 37.0657C13.6671 36.3029 13.1599 35.5401 12.561 34.7772C11.8431 33.9213 11.0697 33.1135 10.2458 32.3591C9.49261 31.6449 8.78195 30.8871 8.11752 30.0896C7.52149 29.3908 7.0703 28.5805 6.79019 27.7058C6.40101 26.3036 6.38786 24.8237 6.75205 23.4148C7.0076 22.2706 7.35469 21.1721 7.61024 20.0202C8.32349 16.801 8.0565 13.8756 9.66989 11.0721C10.8137 9.21941 12.4678 7.73611 14.4338 6.80027C16.3649 5.89277 18.4101 5.25123 20.5136 4.89318C22.5351 4.51177 24.6825 4.13034 26.7078 3.71841C29.6237 3.13531 32.6475 3.43957 35.3888 4.59187C38.1811 5.70176 40.5334 7.69506 42.0865 10.2674C43.8143 13.2195 43.9516 16.7171 44.6229 20.1995Z" stroke="url(#paint10_linear_398_18760)" stroke-width="0.381417" stroke-miterlimit="10"/>
<path d="M44.0548 19.6654C44.2798 20.7182 44.7184 21.6069 44.9511 22.5833C45.2299 23.8598 45.2514 25.1791 45.0143 26.4641C44.7772 27.749 44.2864 28.9737 43.5704 30.0667C42.5558 31.5924 41.5641 32.7824 41.1255 34.3805C40.7441 35.807 40.4237 37.1954 39.3138 38.4922C37.9932 40.0553 36.1445 41.0788 34.1189 41.3681C32.772 41.5472 31.4033 41.4656 30.0873 41.1278C29.2672 40.918 28.5006 40.5938 27.6577 40.3383C26.6027 40.0133 25.5238 39.7723 24.4309 39.6174C23.7977 39.5297 23.1684 39.4915 22.5505 39.4381C19.7166 39.175 16.5127 38.9308 14.7162 36.3639C14.2013 35.624 13.7283 34.8382 13.1447 34.1059C12.4491 33.2706 11.6835 32.496 10.8563 31.7907C10.0962 31.129 9.37292 30.4262 8.6898 29.6853C8.07825 29.028 7.61403 28.2478 7.32815 27.3968C6.93228 26.0263 6.93228 24.5717 7.32815 23.2012C7.61039 22.0989 7.98037 21.0195 8.23592 19.8905C8.95298 16.7362 8.50291 13.8717 10.0553 11.0912C11.0889 9.24132 12.8701 7.84151 14.7581 6.94137C16.6703 6.09461 18.6866 5.5059 20.754 5.19067C22.7412 4.83214 24.8466 4.46597 26.8185 4.01208C29.5993 3.37819 32.507 3.60433 35.1563 4.6605C37.8687 5.67948 40.1548 7.58905 41.6404 10.0766C43.311 12.9449 43.3263 16.309 44.0548 19.6654Z" stroke="url(#paint11_linear_398_18760)" stroke-width="0.381417" stroke-miterlimit="10"/>
<path d="M43.4873 19.1277C43.739 20.1613 44.2196 21.0348 44.4904 21.9769C44.8148 23.2271 44.8717 24.5318 44.6574 25.8055C44.4432 27.0792 43.9626 28.2934 43.247 29.3687C42.2248 30.8944 41.2407 32.0387 40.886 33.6559C40.5694 35.0824 40.3711 36.4822 39.3069 37.7981C38.0432 39.3856 36.2063 40.4129 34.1921 40.6587C32.8578 40.8108 31.5064 40.6874 30.2216 40.2964C29.4206 40.0561 28.6959 39.7014 27.8568 39.4229C26.8385 39.0647 25.7869 38.8092 24.7177 38.6601C24.0998 38.58 23.4858 38.5533 22.8831 38.5113C20.1255 38.3206 16.933 38.2214 15.2319 35.6469C14.7437 34.9107 14.3051 34.1212 13.7368 33.4118C13.0565 32.5935 12.2891 31.8517 11.4483 31.1995C10.6854 30.5867 9.95586 29.9336 9.26274 29.2429C8.63862 28.6326 8.16241 27.8876 7.87056 27.065C7.48343 25.7309 7.50869 24.3109 7.94303 22.9914C8.24817 21.9235 8.64103 20.8746 8.90039 19.7723C9.62127 16.6752 8.99193 13.8794 10.4833 11.1179C11.4673 9.29094 13.2409 7.93309 15.106 7.08634C16.9712 6.23959 18.9545 5.84293 21.0142 5.49584C22.967 5.17163 25.0381 4.81309 26.949 4.31725C29.5982 3.62393 32.3975 3.77189 34.9588 4.74061C37.5865 5.67206 39.8032 7.49732 41.2216 9.89738C42.8083 12.6703 42.7054 15.9238 43.4873 19.1277Z" stroke="url(#paint12_linear_398_18760)" stroke-width="0.381417" stroke-miterlimit="10"/>
<path d="M42.9189 18.5937C43.1936 19.6083 43.7199 20.436 44.0289 21.3666C44.3988 22.5911 44.4914 23.8825 44.3001 25.1472C44.1088 26.4119 43.6383 27.6181 42.9227 28.6784C41.8929 30.2041 40.9165 31.2949 40.6342 32.935C40.3978 34.3577 40.31 35.7728 39.2917 37.1077C38.6946 37.9033 37.9395 38.5667 37.0737 39.0564C36.2079 39.546 35.2502 39.8513 34.2608 39.9531C32.9369 40.079 31.6015 39.915 30.3474 39.4725C29.5655 39.2017 28.8485 38.8165 28.0589 38.5113C27.077 38.1265 26.0526 37.8602 25.0076 37.718C24.4012 37.6417 23.7985 37.6303 23.2111 37.6036C20.5412 37.4777 17.3488 37.5311 15.743 34.9336C15.3133 34.1722 14.8422 33.435 14.3317 32.7252C13.6705 31.925 12.9076 31.2147 12.0623 30.6122C11.2995 30.021 10.5367 29.4679 9.84629 28.8119C9.20727 28.2475 8.71842 27.5332 8.4236 26.7332C8.0361 25.4333 8.08026 24.0429 8.54947 22.7702C8.8813 21.7328 9.3123 20.722 9.55641 19.6388C10.2811 16.5874 9.4725 13.8718 10.899 11.1332C11.8411 9.32908 13.6032 8.00937 15.4493 7.21984C17.2954 6.43031 19.2635 6.09847 21.2697 5.78952C23.2286 5.52301 25.1678 5.12804 27.0749 4.60714C29.5913 3.86012 32.28 3.93224 34.7528 4.8131C37.297 5.65304 39.4468 7.39325 40.7983 9.70669C42.3049 12.3957 42.0874 15.5347 42.9189 18.5937Z" stroke="url(#paint13_linear_398_18760)" stroke-width="0.381417" stroke-miterlimit="10"/>
<path d="M42.3498 18.0597C42.6511 19.0552 43.2194 19.8486 43.5665 20.7601C43.9827 21.9565 44.1119 23.234 43.9436 24.4895C43.7753 25.7451 43.3143 26.9434 42.5977 27.988C41.5564 29.487 40.5876 30.5511 40.3969 32.2141C40.2367 33.633 40.2596 35.0633 39.287 36.4097C38.7189 37.2168 37.9803 37.8891 37.1234 38.3789C36.2665 38.8686 35.3123 39.1639 34.3286 39.2436C33.0144 39.3405 31.6954 39.1356 30.4724 38.6448C29.7096 38.3435 29.0154 37.9239 28.2297 37.5921C27.2887 37.1818 26.2951 36.9045 25.2775 36.7682C24.6864 36.6958 24.099 36.6958 23.523 36.6805C20.9256 36.6233 17.7522 36.8292 16.238 34.228C15.8445 33.472 15.4011 32.7432 14.9106 32.0463C14.2658 31.2655 13.5057 30.5877 12.6565 30.0362C11.8707 29.4946 11.1308 28.9949 10.4099 28.3923C9.75836 27.8747 9.2567 27.1927 8.95672 26.4166C8.53335 25.2723 8.65921 23.9145 9.13599 22.5604C9.53959 21.5619 9.89222 20.5434 10.1925 19.5091C10.921 16.5417 9.92933 13.8679 11.2948 11.1522C12.1911 9.37102 13.9457 8.1009 15.7688 7.36095C17.592 6.621 19.5181 6.35783 21.4901 6.08703C23.4135 5.86192 25.313 5.46494 27.1656 4.90082C29.5513 4.10736 32.1297 4.10736 34.5155 4.90082C36.9761 5.65128 39.0604 7.30749 40.3473 9.53503C41.8005 12.1172 41.4687 15.1457 42.3498 18.0597Z" stroke="url(#paint14_linear_398_18760)" stroke-width="0.381417" stroke-miterlimit="10"/>
<path d="M41.7808 17.5257C42.1088 18.5021 42.7191 19.2612 43.1043 20.1537C43.5675 21.3196 43.7341 22.5824 43.589 23.8286C43.4438 25.0748 42.9916 26.2655 42.2728 27.2938C41.2239 28.7851 40.2589 29.8073 40.156 31.4894C40.0682 32.9044 40.2055 34.35 39.2787 35.7231C38.7422 36.537 38.024 37.2152 37.1808 37.7043C36.3376 38.1935 35.3923 38.4801 34.4195 38.5418C33.1088 38.6152 31.7998 38.3691 30.6053 37.8247C29.8425 37.4929 29.1902 37.0428 28.4274 36.6805C27.5245 36.2434 26.5574 35.9537 25.563 35.8223C24.9948 35.7724 24.4243 35.7545 23.8542 35.7689C21.3369 35.7689 18.1673 36.1503 16.7522 33.5223C16.3949 32.7705 15.9778 32.0486 15.505 31.3635C14.8756 30.6006 14.1164 29.955 13.2623 29.4564C12.4727 28.9644 11.7175 28.5181 10.9738 27.9651C10.3094 27.4972 9.79316 26.8486 9.48623 26.0962C9.06286 24.9748 9.2078 23.6665 9.72271 22.3506C10.1529 21.3894 10.5223 20.4021 10.8288 19.3947C11.5611 16.4883 10.3902 13.8793 11.6946 11.1827C12.5414 9.42439 14.2883 8.18478 16.0924 7.50968C17.8965 6.83457 19.7921 6.62861 21.7373 6.39594C23.6249 6.2119 25.4854 5.81395 27.2831 5.20974C29.5317 4.35658 31.9995 4.27208 34.3012 4.96945C36.6937 5.62304 38.7302 7.19732 39.9652 9.34811C41.2964 11.8426 40.8539 14.7566 41.7808 17.5257Z" stroke="url(#paint15_linear_398_18760)" stroke-width="0.381417" stroke-miterlimit="10"/>
<path d="M41.2136 16.9917C41.5683 17.9453 42.2205 18.6738 42.6439 19.5434C43.1508 20.6793 43.3533 21.9275 43.2316 23.1653C43.1099 24.4032 42.6681 25.5881 41.9497 26.6034C40.8932 28.0757 39.9282 29.0674 39.9129 30.7761C39.9129 32.1836 40.1532 33.6444 39.2722 35.0366C38.766 35.8589 38.0661 36.5447 37.2336 37.0341C36.4012 37.5235 35.4615 37.8015 34.4968 37.8438C33.1991 37.8858 31.9118 37.5984 30.7551 37.0085C30.0266 36.6271 29.382 36.1618 28.6383 35.7765C27.7764 35.3126 26.8364 35.0113 25.8654 34.8878C25.3111 34.8383 24.7539 34.8306 24.1986 34.865C21.7613 34.9336 18.5994 35.4523 17.2797 32.8244C16.959 32.0778 16.5696 31.3627 16.1163 30.6884C15.504 29.9431 14.746 29.3305 13.8889 28.8881C13.0955 28.438 12.3251 28.0528 11.6004 27.5494C10.9226 27.1313 10.3899 26.5147 10.0747 25.7834C9.6437 24.704 9.81534 23.4262 10.3646 22.1447C10.8186 21.2192 11.2011 20.2603 11.5088 19.2764C12.245 16.4349 10.8947 13.887 12.1344 11.2133C12.9391 9.47781 14.6746 8.28015 16.4596 7.65844C18.2446 7.03673 20.106 6.89561 22.0169 6.70108C23.8692 6.56364 25.6927 6.16427 27.433 5.51488C29.5455 4.60905 31.903 4.44766 34.1192 5.05718C35.2509 5.33886 36.3132 5.84845 37.2412 6.55477C38.1692 7.26109 38.9433 8.14929 39.5163 9.16505C40.7902 11.568 40.2448 14.3637 41.2136 16.9917Z" stroke="url(#paint16_linear_398_18760)" stroke-width="0.381417" stroke-miterlimit="10"/>
<path d="M40.6451 16.4539C41.0265 17.3922 41.7207 18.0902 42.1708 18.9369C43.2921 20.989 43.1014 23.8496 41.6139 25.9092C40.5459 27.3739 39.5848 28.3236 39.6572 30.0552C39.7183 31.4589 40.0882 32.9349 39.2491 34.3462C38.7746 35.1769 38.0932 35.8707 37.271 36.3599C36.4489 36.8492 35.5142 37.1173 34.5577 37.1382C33.2666 37.1533 31.9948 36.8242 30.8732 36.1846C30.1638 35.8032 29.5459 35.2769 28.8212 34.8649C28.0036 34.3781 27.0949 34.0639 26.1513 33.9419C25.6105 33.898 25.0672 33.898 24.5264 33.9419C22.1655 34.0792 19.0111 34.7543 17.7868 32.1073C17.5031 31.369 17.1412 30.6632 16.7074 30.0019C16.111 29.2703 15.3522 28.6878 14.4914 28.3007C13.6942 27.9193 12.9123 27.5722 12.1609 27.1184C11.4771 26.7461 10.9334 26.1609 10.6123 25.4516C10.1775 24.4141 10.3682 23.1631 10.9556 21.9234C11.439 21.0347 11.8411 20.104 12.1571 19.1429C12.9199 16.3662 11.3714 13.8793 12.5385 11.2247C13.3013 9.51592 15.0292 8.35641 16.7875 7.79192C18.5458 7.22742 20.3881 7.15114 22.257 6.99095C24.0742 6.89935 25.8623 6.49685 27.5434 5.80093C29.5203 4.84526 31.7676 4.60529 33.9017 5.12199C34.9889 5.35865 36.0132 5.82429 36.9063 6.48789C37.7995 7.1515 38.5409 7.99784 39.0813 8.97051C40.2866 11.2933 39.6344 13.9709 40.6451 16.4539Z" stroke="url(#paint17_linear_398_18760)" stroke-width="0.381417" stroke-miterlimit="10"/>
<path d="M40.0813 15.92C40.4894 16.8354 41.2256 17.5028 41.7214 18.3267C42.9343 20.3253 42.7932 23.186 41.3019 25.2189C40.2263 26.6683 39.2651 27.5837 39.4291 29.3344C39.5588 30.7342 40.047 32.2255 39.2537 33.6559C38.8106 34.4938 38.1475 35.1951 37.3357 35.6843C36.5238 36.1736 35.594 36.4323 34.6461 36.4326C33.3613 36.4203 32.1053 36.0505 31.0189 35.3646C30.3285 34.9374 29.7335 34.3958 29.0317 33.9534C28.2529 33.4406 27.3669 33.1131 26.4419 32.996C25.914 32.9623 25.3843 32.9763 24.859 33.038C22.5705 33.2401 19.4276 34.0678 18.3062 31.4093C18.0575 30.6777 17.722 29.9786 17.3069 29.3268C16.725 28.6115 15.9664 28.0606 15.1062 27.7286C14.3014 27.3777 13.5042 27.1107 12.7414 26.7026C12.0531 26.3753 11.4963 25.8239 11.1623 25.1388C10.7275 24.1433 10.9411 22.9266 11.5628 21.7061C12.0723 20.8557 12.4916 19.9545 12.8138 19.0171C13.5767 16.2976 11.8527 13.8794 12.9664 11.2438C13.6797 9.55793 15.3998 8.44036 17.1391 7.93308C18.8784 7.42579 20.6863 7.41435 22.5209 7.2923C24.2678 7.18169 26.1177 6.91088 27.6777 6.09846C29.5166 5.09476 31.652 4.77582 33.704 5.19832C34.7454 5.39028 35.7308 5.81206 36.5886 6.43294C37.4463 7.05383 38.1548 7.8582 38.6625 8.78747C39.7838 11.0149 39.0286 13.5781 40.0813 15.92Z" stroke="url(#paint18_linear_398_18760)" stroke-width="0.381417" stroke-miterlimit="10"/>
<path d="M39.513 15.386C39.9516 16.2785 40.722 16.9117 41.2598 17.7203C41.8999 18.7522 42.2152 19.9526 42.1648 21.1659C42.1145 22.3792 41.7009 23.5493 40.9776 24.5247C39.8944 25.9665 38.9332 26.8438 39.1849 28.6135C39.3871 30.0133 39.9897 31.5161 39.246 32.9617C38.836 33.8077 38.1918 34.5183 37.39 35.0092C36.5881 35.5 35.6623 35.7504 34.7224 35.7308C33.4418 35.6906 32.2009 35.277 31.1523 34.5408C30.481 34.0831 29.9089 33.5109 29.2452 33.0418C28.5103 32.505 27.6503 32.1649 26.7469 32.0539C26.2374 32.0225 25.7259 32.0455 25.2213 32.1226C23.0205 32.3896 19.8814 33.3774 18.8516 30.7037C18.6384 29.9799 18.3306 29.2874 17.9362 28.6441C17.3661 27.9447 16.6057 27.4254 15.7469 27.1489C14.9421 26.8438 14.1297 26.6378 13.3554 26.2793C12.6613 26.0007 12.0902 25.4824 11.7458 24.8184C11.3072 23.8649 11.5398 22.6787 12.1997 21.5077C12.6765 20.6648 13.2372 19.8409 13.5003 18.9026C14.2632 16.2327 12.3561 13.8908 13.4126 11.2743C14.0839 9.61132 15.7926 8.53191 17.509 8.08183C19.2254 7.63176 21.0104 7.70041 22.8031 7.60125C24.5156 7.52496 26.335 7.25797 27.8302 6.40741C29.5167 5.36202 31.5236 4.95983 33.4828 5.27461C35.4738 5.61407 37.3351 6.80027 38.2276 8.60056C39.2803 10.7403 38.4412 13.1814 39.513 15.386Z" stroke="url(#paint19_linear_398_18760)" stroke-width="0.381417" stroke-miterlimit="10"/>
<path d="M38.9441 14.852C39.4171 15.7216 40.2218 16.3319 40.7978 17.1138C41.4809 18.1079 41.8344 19.2915 41.8084 20.4974C41.7824 21.7034 41.3782 22.8706 40.6529 23.8344C39.562 25.2609 38.597 26.1229 38.9441 27.8926C39.2149 29.2924 39.9358 30.8067 39.234 32.2713C38.8574 33.1233 38.2326 33.8418 37.4412 34.3331C36.6498 34.8243 35.7287 35.0656 34.7981 35.0251C33.5222 34.9554 32.2974 34.5006 31.2853 33.7207C30.633 33.2287 30.08 32.6298 29.4201 32.1302C28.7286 31.5722 27.8951 31.2182 27.0134 31.108C26.5127 31.0831 26.0108 31.1177 25.5182 31.211C23.3937 31.539 20.2471 32.6832 19.3278 29.9943C19.1535 29.279 18.8733 28.5937 18.4964 27.9613C17.9385 27.2775 17.1768 26.7897 16.3223 26.5691C15.5099 26.3136 14.686 26.1686 13.9003 25.8559C13.2021 25.626 12.6163 25.1411 12.2602 24.498C11.8139 23.5826 12.0733 22.4307 12.7675 21.2941C13.2671 20.4817 13.8507 19.6922 14.1177 18.7768C14.8805 16.187 12.8094 13.8946 13.7897 11.301C14.419 9.66089 16.1163 8.63106 17.8136 8.22676C19.5109 7.82246 21.2464 7.95215 23.02 7.90638C24.6982 7.86443 26.4832 7.62031 27.9173 6.70873C29.5574 5.66746 31.2509 5.09151 33.2839 5.36613C35.191 5.62168 36.9913 6.7049 37.8113 8.41747C38.7763 10.4657 37.8227 12.7847 38.9441 14.852Z" stroke="url(#paint20_linear_398_18760)" stroke-width="0.381417" stroke-miterlimit="10"/>
<path d="M38.3756 14.3142C38.8791 15.1609 39.722 15.7445 40.3399 16.5035C41.0656 17.4575 41.4586 18.6232 41.4586 19.8219C41.4586 21.0205 41.0656 22.1862 40.3399 23.1402C39.2414 24.5552 38.2726 25.3677 38.7112 27.1756C39.0507 28.5716 39.8936 30.0972 39.2376 31.5809C38.8942 32.4384 38.2882 33.1651 37.5064 33.6571C36.7247 34.149 35.8073 34.3809 34.8856 34.3195C33.6127 34.2211 32.4033 33.7232 31.43 32.8968C30.7968 32.3743 30.2667 31.7526 29.6297 31.2224C28.9846 30.6412 28.1763 30.2723 27.3145 30.1659C26.825 30.1437 26.3348 30.1886 25.8575 30.2994C23.8131 30.6808 20.6664 31.9929 19.854 29.2886C19.648 28.6021 19.5222 27.8698 19.0912 27.2786C18.5433 26.611 17.7799 26.1551 16.9323 25.9894C16.1123 25.7796 15.277 25.6995 14.4798 25.4287C14.1326 25.3396 13.8063 25.1829 13.5196 24.9676C13.2329 24.7523 12.9915 24.4825 12.8092 24.1738C12.3592 23.3042 12.6376 22.179 13.3699 21.0805C13.8925 20.3177 14.5142 19.5549 14.7697 18.6547C15.5326 16.1259 13.286 13.8946 14.2052 11.3239C14.785 9.70666 16.4746 8.70735 18.1529 8.3717C19.8311 8.03605 21.5513 8.21532 23.2677 8.20769C24.9116 8.20769 26.6737 7.97883 28.0392 7.00622C29.5649 5.93062 31.1172 5.25934 33.0739 5.44242C34.8971 5.62168 36.6325 6.60955 37.3839 8.24964C38.2726 10.1911 37.2199 12.3804 38.3756 14.3142Z" stroke="url(#paint21_linear_398_18760)" stroke-width="0.381417" stroke-miterlimit="10"/>
<path d="M13.354 23.8534C13.5467 24.149 13.797 24.4026 14.0899 24.5992C14.3828 24.7958 14.7124 24.9314 15.0589 24.9977C15.8675 25.2227 16.7181 25.2418 17.5381 25.402C18.3801 25.5084 19.1489 25.9345 19.6855 26.592C20.0669 27.168 20.1775 27.8927 20.353 28.5754C21.0586 31.2911 24.2091 29.8302 26.1772 29.3764C26.6369 29.2517 27.1125 29.1965 27.5885 29.2124C28.4299 29.3202 29.2119 29.7038 29.8121 30.3032C30.4262 30.8601 30.9335 31.5123 31.5514 32.0692C32.488 32.9339 33.6812 33.4696 34.9498 33.5948C36.9484 33.755 38.5046 32.6146 39.2179 30.8677C39.8281 29.3649 38.867 27.8164 38.455 26.4318C37.921 24.6086 38.8975 23.8305 40.0036 22.4269C40.7332 21.4842 41.1186 20.3203 41.0957 19.1284C41.0728 17.9365 40.643 16.7882 39.8777 15.8742C39.2217 15.1342 38.352 14.5774 37.8066 13.7573C36.6204 11.9532 37.7685 9.88974 36.9561 8.03605C36.2771 6.48369 34.5989 5.58355 32.8673 5.49583C30.9831 5.39666 29.5489 6.16712 28.1568 7.28086C26.8638 8.3145 25.1283 8.50901 23.5187 8.48231C21.8367 8.45179 20.1432 8.20387 18.4879 8.48231C16.8325 8.76074 15.1543 9.72193 14.6165 11.3163C13.7583 13.8679 16.1879 16.0344 15.4213 18.4983C15.1505 19.368 14.5173 20.0888 13.9719 20.8364C13.2014 21.9311 12.9039 23.022 13.354 23.8534Z" stroke="url(#paint22_linear_398_18760)" stroke-width="0.381417" stroke-miterlimit="10"/>
</g>
</g>
<defs>
<linearGradient id="paint0_linear_398_18760" x1="0.710937" y1="0.735718" x2="51.0997" y2="2.33084" gradientUnits="userSpaceOnUse">
<stop stop-color="#6A73FC"/>
<stop offset="0.15136" stop-color="#C0ADFA"/>
<stop offset="0.369792" stop-color="#ABA5F5"/>
<stop offset="0.635417" stop-color="#64FFFD"/>
<stop offset="0.932292" stop-color="#68C0FF"/>
</linearGradient>
<linearGradient id="paint1_linear_398_18760" x1="1.30859" y1="1.03827" x2="50.5223" y2="2.5984" gradientUnits="userSpaceOnUse">
<stop stop-color="#6A73FC"/>
<stop offset="0.15136" stop-color="#C0ADFA"/>
<stop offset="0.369792" stop-color="#ABA5F5"/>
<stop offset="0.635417" stop-color="#64FFFD"/>
<stop offset="0.932292" stop-color="#68C0FF"/>
</linearGradient>
<linearGradient id="paint2_linear_398_18760" x1="1.89844" y1="1.32422" x2="49.9583" y2="2.84847" gradientUnits="userSpaceOnUse">
<stop stop-color="#6A73FC"/>
<stop offset="0.15136" stop-color="#C0ADFA"/>
<stop offset="0.369792" stop-color="#ABA5F5"/>
<stop offset="0.635417" stop-color="#64FFFD"/>
<stop offset="0.932292" stop-color="#68C0FF"/>
</linearGradient>
<linearGradient id="paint3_linear_398_18760" x1="2.49805" y1="1.63892" x2="49.4167" y2="3.12844" gradientUnits="userSpaceOnUse">
<stop stop-color="#6A73FC"/>
<stop offset="0.15136" stop-color="#C0ADFA"/>
<stop offset="0.369792" stop-color="#ABA5F5"/>
<stop offset="0.635417" stop-color="#64FFFD"/>
<stop offset="0.932292" stop-color="#68C0FF"/>
</linearGradient>
<linearGradient id="paint4_linear_398_18760" x1="3.06641" y1="1.87738" x2="48.9166" y2="3.33372" gradientUnits="userSpaceOnUse">
<stop stop-color="#6A73FC"/>
<stop offset="0.15136" stop-color="#C0ADFA"/>
<stop offset="0.369792" stop-color="#ABA5F5"/>
<stop offset="0.635417" stop-color="#64FFFD"/>
<stop offset="0.932292" stop-color="#68C0FF"/>
</linearGradient>
<linearGradient id="paint5_linear_398_18760" x1="3.63672" y1="2.15552" x2="48.4321" y2="3.58013" gradientUnits="userSpaceOnUse">
<stop stop-color="#6A73FC"/>
<stop offset="0.15136" stop-color="#C0ADFA"/>
<stop offset="0.369792" stop-color="#ABA5F5"/>
<stop offset="0.635417" stop-color="#64FFFD"/>
<stop offset="0.932292" stop-color="#68C0FF"/>
</linearGradient>
<linearGradient id="paint6_linear_398_18760" x1="4.23047" y1="2.42963" x2="47.9799" y2="3.82262" gradientUnits="userSpaceOnUse">
<stop stop-color="#6A73FC"/>
<stop offset="0.15136" stop-color="#C0ADFA"/>
<stop offset="0.369792" stop-color="#ABA5F5"/>
<stop offset="0.635417" stop-color="#64FFFD"/>
<stop offset="0.932292" stop-color="#68C0FF"/>
</linearGradient>
<linearGradient id="paint7_linear_398_18760" x1="4.78906" y1="2.68872" x2="47.5054" y2="4.04983" gradientUnits="userSpaceOnUse">
<stop stop-color="#6A73FC"/>
<stop offset="0.15136" stop-color="#C0ADFA"/>
<stop offset="0.369792" stop-color="#ABA5F5"/>
<stop offset="0.635417" stop-color="#64FFFD"/>
<stop offset="0.932292" stop-color="#68C0FF"/>
</linearGradient>
<linearGradient id="paint8_linear_398_18760" x1="5.34375" y1="2.94812" x2="47.0618" y2="4.27923" gradientUnits="userSpaceOnUse">
<stop stop-color="#6A73FC"/>
<stop offset="0.15136" stop-color="#C0ADFA"/>
<stop offset="0.369792" stop-color="#ABA5F5"/>
<stop offset="0.635417" stop-color="#64FFFD"/>
<stop offset="0.932292" stop-color="#68C0FF"/>
</linearGradient>
<linearGradient id="paint9_linear_398_18760" x1="5.90234" y1="3.16766" x2="46.629" y2="4.46847" gradientUnits="userSpaceOnUse">
<stop stop-color="#6A73FC"/>
<stop offset="0.15136" stop-color="#C0ADFA"/>
<stop offset="0.369792" stop-color="#ABA5F5"/>
<stop offset="0.635417" stop-color="#64FFFD"/>
<stop offset="0.932292" stop-color="#68C0FF"/>
</linearGradient>
<linearGradient id="paint10_linear_398_18760" x1="6.48828" y1="3.42963" x2="46.2044" y2="4.69795" gradientUnits="userSpaceOnUse">
<stop stop-color="#6A73FC"/>
<stop offset="0.15136" stop-color="#C0ADFA"/>
<stop offset="0.369792" stop-color="#ABA5F5"/>
<stop offset="0.635417" stop-color="#64FFFD"/>
<stop offset="0.932292" stop-color="#68C0FF"/>
</linearGradient>
<linearGradient id="paint11_linear_398_18760" x1="7.03125" y1="3.66016" x2="45.7957" y2="4.89929" gradientUnits="userSpaceOnUse">
<stop stop-color="#6A73FC"/>
<stop offset="0.15136" stop-color="#C0ADFA"/>
<stop offset="0.369792" stop-color="#ABA5F5"/>
<stop offset="0.635417" stop-color="#64FFFD"/>
<stop offset="0.932292" stop-color="#68C0FF"/>
</linearGradient>
<linearGradient id="paint12_linear_398_18760" x1="7.59766" y1="3.88727" x2="45.3873" y2="5.09574" gradientUnits="userSpaceOnUse">
<stop stop-color="#6A73FC"/>
<stop offset="0.15136" stop-color="#C0ADFA"/>
<stop offset="0.369792" stop-color="#ABA5F5"/>
<stop offset="0.635417" stop-color="#64FFFD"/>
<stop offset="0.932292" stop-color="#68C0FF"/>
</linearGradient>
<linearGradient id="paint13_linear_398_18760" x1="8.16211" y1="4.09521" x2="44.9843" y2="5.2725" gradientUnits="userSpaceOnUse">
<stop stop-color="#6A73FC"/>
<stop offset="0.15136" stop-color="#C0ADFA"/>
<stop offset="0.369792" stop-color="#ABA5F5"/>
<stop offset="0.635417" stop-color="#64FFFD"/>
<stop offset="0.932292" stop-color="#68C0FF"/>
</linearGradient>
<linearGradient id="paint14_linear_398_18760" x1="8.69922" y1="4.30573" x2="44.5876" y2="5.45405" gradientUnits="userSpaceOnUse">
<stop stop-color="#6A73FC"/>
<stop offset="0.15136" stop-color="#C0ADFA"/>
<stop offset="0.369792" stop-color="#ABA5F5"/>
<stop offset="0.635417" stop-color="#64FFFD"/>
<stop offset="0.932292" stop-color="#68C0FF"/>
</linearGradient>
<linearGradient id="paint15_linear_398_18760" x1="9.23828" y1="4.50177" x2="44.1973" y2="5.62047" gradientUnits="userSpaceOnUse">
<stop stop-color="#6A73FC"/>
<stop offset="0.15136" stop-color="#C0ADFA"/>
<stop offset="0.369792" stop-color="#ABA5F5"/>
<stop offset="0.635417" stop-color="#64FFFD"/>
<stop offset="0.932292" stop-color="#68C0FF"/>
</linearGradient>
<linearGradient id="paint16_linear_398_18760" x1="9.83203" y1="4.69409" x2="43.8079" y2="5.7794" gradientUnits="userSpaceOnUse">
<stop stop-color="#6A73FC"/>
<stop offset="0.15136" stop-color="#C0ADFA"/>
<stop offset="0.369792" stop-color="#ABA5F5"/>
<stop offset="0.635417" stop-color="#64FFFD"/>
<stop offset="0.932292" stop-color="#68C0FF"/>
</linearGradient>
<linearGradient id="paint17_linear_398_18760" x1="10.375" y1="4.85571" x2="43.4179" y2="5.90992" gradientUnits="userSpaceOnUse">
<stop stop-color="#6A73FC"/>
<stop offset="0.15136" stop-color="#C0ADFA"/>
<stop offset="0.369792" stop-color="#ABA5F5"/>
<stop offset="0.635417" stop-color="#64FFFD"/>
<stop offset="0.932292" stop-color="#68C0FF"/>
</linearGradient>
<linearGradient id="paint18_linear_398_18760" x1="10.9336" y1="5.01642" x2="43.049" y2="6.03975" gradientUnits="userSpaceOnUse">
<stop stop-color="#6A73FC"/>
<stop offset="0.15136" stop-color="#C0ADFA"/>
<stop offset="0.369792" stop-color="#ABA5F5"/>
<stop offset="0.635417" stop-color="#64FFFD"/>
<stop offset="0.932292" stop-color="#68C0FF"/>
</linearGradient>
<linearGradient id="paint19_linear_398_18760" x1="11.5215" y1="5.17017" x2="42.6672" y2="6.15954" gradientUnits="userSpaceOnUse">
<stop stop-color="#6A73FC"/>
<stop offset="0.15136" stop-color="#C0ADFA"/>
<stop offset="0.369792" stop-color="#ABA5F5"/>
<stop offset="0.635417" stop-color="#64FFFD"/>
<stop offset="0.932292" stop-color="#68C0FF"/>
</linearGradient>
<linearGradient id="paint20_linear_398_18760" x1="12.0391" y1="5.29791" x2="42.2927" y2="6.25748" gradientUnits="userSpaceOnUse">
<stop stop-color="#6A73FC"/>
<stop offset="0.15136" stop-color="#C0ADFA"/>
<stop offset="0.369792" stop-color="#ABA5F5"/>
<stop offset="0.635417" stop-color="#64FFFD"/>
<stop offset="0.932292" stop-color="#68C0FF"/>
</linearGradient>
<linearGradient id="paint21_linear_398_18760" x1="12.5918" y1="5.41241" x2="41.9271" y2="6.34003" gradientUnits="userSpaceOnUse">
<stop stop-color="#6A73FC"/>
<stop offset="0.15136" stop-color="#C0ADFA"/>
<stop offset="0.369792" stop-color="#ABA5F5"/>
<stop offset="0.635417" stop-color="#64FFFD"/>
<stop offset="0.932292" stop-color="#68C0FF"/>
</linearGradient>
<linearGradient id="paint22_linear_398_18760" x1="13.1426" y1="5.48724" x2="41.5506" y2="6.3817" gradientUnits="userSpaceOnUse">
<stop stop-color="#6A73FC"/>
<stop offset="0.15136" stop-color="#C0ADFA"/>
<stop offset="0.369792" stop-color="#ABA5F5"/>
<stop offset="0.635417" stop-color="#64FFFD"/>
<stop offset="0.932292" stop-color="#68C0FF"/>
</linearGradient>
<clipPath id="clip0_398_18760">
<rect width="49.9694" height="50" fill="white" transform="translate(0.519531 0.544983)"/>
</clipPath>
</defs>
</svg>
