<svg width="22" height="22" viewBox="0 0 22 22" fill="none" xmlns="http://www.w3.org/2000/svg">
<g clip-path="url(#clip0_270_40)">
<path d="M11 7.16833C8.6252 7.16833 6.69336 9.10017 6.69336 11.475C6.69336 13.8498 8.6252 15.7816 11 15.7816C13.3748 15.7816 15.3066 13.8498 15.3066 11.475C15.3066 9.10017 13.3748 7.16833 11 7.16833ZM11 7.16833C8.6252 7.16833 6.69336 9.10017 6.69336 11.475C6.69336 13.8498 8.6252 15.7816 11 15.7816C13.3748 15.7816 15.3066 13.8498 15.3066 11.475C15.3066 9.10017 13.3748 7.16833 11 7.16833ZM18.4238 0.93396H3.57617C1.87812 0.93396 0.5 2.31208 0.5 4.01013V18.8578C0.5 20.5558 1.87812 21.934 3.57617 21.934H18.4238C20.1219 21.934 21.5 20.5558 21.5 18.8578V4.01013C21.5 2.31208 20.1219 0.93396 18.4238 0.93396ZM11 17.0121C7.94848 17.0121 5.46289 14.5265 5.46289 11.475C5.46289 8.42337 7.94848 5.93787 11 5.93787C14.0515 5.93787 16.5371 8.42337 16.5371 11.475C16.5371 14.5265 14.0515 17.0121 11 17.0121ZM17.7676 5.93787C17.0908 5.93787 16.5371 5.38416 16.5371 4.7074C16.5371 4.03064 17.0908 3.47693 17.7676 3.47693C18.4443 3.47693 18.998 4.03064 18.998 4.7074C18.998 5.38416 18.4443 5.93787 17.7676 5.93787ZM11 7.16833C8.6252 7.16833 6.69336 9.10017 6.69336 11.475C6.69336 13.8498 8.6252 15.7816 11 15.7816C13.3748 15.7816 15.3066 13.8498 15.3066 11.475C15.3066 9.10017 13.3748 7.16833 11 7.16833ZM11 7.16833C8.6252 7.16833 6.69336 9.10017 6.69336 11.475C6.69336 13.8498 8.6252 15.7816 11 15.7816C13.3748 15.7816 15.3066 13.8498 15.3066 11.475C15.3066 9.10017 13.3748 7.16833 11 7.16833ZM11 7.16833C8.6252 7.16833 6.69336 9.10017 6.69336 11.475C6.69336 13.8498 8.6252 15.7816 11 15.7816C13.3748 15.7816 15.3066 13.8498 15.3066 11.475C15.3066 9.10017 13.3748 7.16833 11 7.16833Z" fill="#051A67"/>
</g>
<defs>
<clipPath id="clip0_270_40">
<rect width="21" height="21" fill="white" transform="translate(0.5 0.93396)"/>
</clipPath>
</defs>
</svg>
